<svg width="352" height="435" viewBox="0 0 352 435" fill="none" xmlns="http://www.w3.org/2000/svg">
<path d="M275.861 383.65L274.206 375.438H240.91H217.545L214.362 383.65L200.292 420.447H229.832H283.31L275.861 383.65Z" fill="white" stroke="#D2D5DA" stroke-width="3" stroke-miterlimit="10" stroke-linecap="round" stroke-linejoin="round"/>
<path d="M200.292 420.448L214.362 383.65H178.965L157.001 420.448L149.297 433.361H195.326H226.649L229.832 420.448H200.292Z" fill="white" stroke="#D2D5DA" stroke-width="3" stroke-miterlimit="10" stroke-linecap="round" stroke-linejoin="round"/>
<path d="M78.2079 367.863L23.2025 404.347H31.9244H101.063L124.046 373.631L128.375 367.863H78.2079ZM99.2169 400.774H78.5262L79.5448 399.458C79.6721 398.141 77.1892 397.953 74.5154 397.953H58.4085C55.7346 397.953 53.6974 398.455 51.3418 399.896L49.8139 400.837H35.0439L79.3538 371.499H121.308L99.2169 400.774Z" fill="white" stroke="#D2D5DA" stroke-width="3" stroke-miterlimit="10" stroke-linecap="round" stroke-linejoin="round"/>
<path d="M101.699 409.236L101.062 410.114C101.317 409.8 101.508 409.55 101.699 409.236Z" stroke="#1F363D" stroke-width="3" stroke-miterlimit="10" stroke-linecap="round" stroke-linejoin="round"/>
<path d="M101.063 404.348H31.924H23.2021C23.2021 404.348 20.7829 405.915 23.2021 410.115H101.063L101.699 409.237C103.164 406.73 101.063 404.348 101.063 404.348Z" fill="#D2D5DA" stroke="#D2D5DA" stroke-width="3" stroke-miterlimit="10" stroke-linecap="round" stroke-linejoin="round"/>
<path d="M128.374 367.863L124.045 373.631L101.063 404.347C101.063 404.347 103.164 406.792 101.699 409.237L128.374 373.631C128.374 373.631 130.857 370.81 128.374 367.863Z" fill="#1F363D" stroke="#1F363D" stroke-width="3" stroke-miterlimit="10" stroke-linecap="round" stroke-linejoin="round"/>
<path d="M35.0439 400.773H49.8139L51.3418 399.833C53.6337 398.391 55.7346 397.89 58.4085 397.89H74.5154C77.1892 397.89 79.6721 398.141 79.5448 399.394L78.5262 400.711H99.2169L121.244 371.373H79.2901L35.0439 400.773Z" fill="#1F363D" stroke="white" stroke-width="3" stroke-miterlimit="10" stroke-linecap="round" stroke-linejoin="round"/>
<path d="M192.398 237.776C231.004 237.776 262.301 206.96 262.301 168.946C262.301 130.932 231.004 100.115 192.398 100.115C153.792 100.115 122.495 130.932 122.495 168.946C122.495 206.96 153.792 237.776 192.398 237.776Z" fill="#1F363D"/>
<path d="M312.659 329.739L188.96 352.181L125.679 188.943L259.818 150.767L312.659 329.739Z" fill="#1F363D"/>
<path d="M344.745 323.219C344.49 320.461 344.172 317.64 343.854 314.819C337.36 264.355 314.95 225.615 293.814 228.31C274.715 230.692 263.192 266.236 266.057 310.368C266.375 314.944 266.821 319.646 267.394 324.41C267.521 325.538 267.712 326.667 267.839 327.795C270.004 342.589 273.505 356.318 277.898 368.166H339.843C343.217 365.971 344.236 362.461 344.299 358.951C344.427 359.076 344.554 359.264 344.745 359.389C345.891 348.419 345.891 336.132 344.745 323.219ZM343.79 353.81C343.79 353.748 343.726 353.685 343.726 353.622C343.726 353.685 343.726 353.748 343.79 353.81ZM343.535 352.933C343.535 352.87 343.472 352.807 343.472 352.682C343.535 352.745 343.535 352.807 343.535 352.933ZM343.344 351.992C343.344 351.93 343.344 351.867 343.281 351.804C343.281 351.867 343.281 351.93 343.344 351.992ZM342.771 350.3C342.771 350.237 342.708 350.174 342.708 350.174C342.771 350.174 342.771 350.237 342.771 350.3ZM342.517 349.61C342.517 349.547 342.453 349.485 342.453 349.422C342.517 349.485 342.517 349.547 342.517 349.61ZM342.326 348.983C342.326 348.921 342.326 348.921 342.262 348.858C342.262 348.921 342.326 348.983 342.326 348.983ZM341.88 347.98C341.88 347.918 341.88 347.918 341.816 347.918C341.88 347.918 341.88 347.98 341.88 347.98ZM341.753 347.667V347.604C341.753 347.667 341.753 347.667 341.753 347.667ZM344.363 357.759C344.363 357.822 344.363 357.948 344.363 358.01C344.363 357.948 344.363 357.822 344.363 357.759ZM344.108 355.753C344.108 355.816 344.108 355.879 344.108 355.942C344.172 355.879 344.108 355.816 344.108 355.753ZM344.236 356.694C344.236 356.756 344.236 356.882 344.236 356.945C344.236 356.882 344.236 356.819 344.236 356.694Z" fill="#CFE0C3"/>
<path d="M156.34 330.527C207.538 313.185 242.41 280.143 234.23 256.728C226.049 233.312 177.913 228.388 126.715 245.731C75.517 263.074 40.6448 296.115 48.8257 319.531C57.0066 342.947 105.143 347.87 156.34 330.527Z" fill="#CFE0C3"/>
<path d="M199.528 241.099C191.952 262.726 221.238 292.628 266.057 310.368C263.192 266.236 274.715 230.693 293.814 228.311C295.979 228.06 298.143 228.185 300.308 228.749C300.308 228.749 300.308 228.687 300.244 228.687C251.923 213.454 207.423 218.72 199.528 241.099Z" fill="#CFE0C3"/>
<path d="M151.717 283.413V368.229H339.906L316.032 267.428L151.717 283.413Z" fill="#CFE0C3"/>
<path d="M341.625 347.417C322.908 321.464 291.904 321.213 267.839 327.795C253.069 331.87 240.973 338.452 236.071 343.342C229.577 349.736 233.906 355.566 236.326 360.142C238.745 364.718 239.318 368.166 239.318 368.166H277.962H339.906C348.819 362.399 341.625 347.417 341.625 347.417Z" fill="#F2DFD7"/>
<path d="M224.601 246.145C237.57 240.697 245.98 231.428 243.386 225.441C240.792 219.454 228.177 219.017 215.208 224.465C202.239 229.913 193.829 239.182 196.423 245.169C199.017 251.156 211.633 251.593 224.601 246.145Z" fill="#ECB1A9"/>
<path d="M227.875 189.725L180.97 209.429L196.459 245.178L243.364 225.474L227.875 189.725Z" fill="#ECB1A9"/>
<path d="M251.982 329.812C251.982 329.813 251.981 329.815 251.981 329.816L242.879 373.123L242.879 373.123L242.877 373.133C242.729 373.864 241.947 375.923 240.929 377.792C240.426 378.714 239.917 379.493 239.468 379.997C239.442 380.025 239.417 380.053 239.393 380.078C239.385 380.053 239.376 380.027 239.368 379.999C239.164 379.358 239.014 378.438 238.927 377.389C238.749 375.266 238.855 373.065 239.003 372.361L239.003 372.361L248.107 328.981C248.107 328.981 248.107 328.981 248.107 328.981C248.311 328.012 249.336 327.288 250.483 327.511C251.508 327.722 252.197 328.741 251.982 329.812ZM238.972 380.439C238.972 380.439 238.973 380.438 238.975 380.438C238.973 380.439 238.972 380.439 238.972 380.439ZM239.63 380.591C239.63 380.591 239.629 380.59 239.628 380.588C239.629 380.59 239.63 380.591 239.63 380.591Z" fill="white" stroke="#D2D5DA" stroke-width="3"/>
<path d="M241.61 343.654C241.61 343.654 244.029 346.35 242.119 349.61" stroke="#ECB1A9" stroke-width="3" stroke-miterlimit="10" stroke-linecap="round" stroke-linejoin="round"/>
<path d="M102.504 104.072C91.4213 105.171 81.7477 117.302 77.4095 126.496C76.1155 129.279 75.343 133.432 78.5559 135.355C79.9559 136.218 81.7153 136.074 83.323 135.799C92.8825 134.127 101.273 127.025 104.333 117.916C104.446 117.487 104.614 117.026 104.444 116.616C103.543 113.866 96.4571 120.432 95.4651 121.368C92.4667 124.264 88.5503 128.344 87.8971 132.574C87.7478 133.314 87.7728 134.1 88.0497 134.812C88.4232 135.686 89.2682 136.361 90.1264 136.81C92.6913 138.017 95.797 137.531 98.2678 136.103C100.684 134.707 102.561 132.532 104.265 130.312C104.763 129.661 105.296 128.698 104.877 127.995C102.889 124.783 96.992 133.715 96.4548 135.043C96.0633 135.996 95.791 137.025 96.087 138.017C96.3924 139.149 97.5311 139.945 98.7414 140.118C101.336 140.508 103.252 138.892 104.397 136.85C104.575 136.529 104.775 136.122 104.637 135.766C104.424 135.162 103.453 135.142 102.881 135.545C100.068 137.389 102.666 140.757 105.319 140.75C106.717 140.742 108.044 140.121 109.123 139.206" stroke="#1F363D" stroke-width="3" stroke-miterlimit="10" stroke-linecap="round" stroke-linejoin="round"/>
<path d="M236.071 178.035C236.071 144.623 211.178 117.604 180.492 117.604C149.806 117.604 124.914 144.685 124.914 178.035C124.914 189.632 127.97 201.229 134.018 211.259C139.174 219.785 147.005 228.749 152.989 232.698C161.711 238.528 174.89 239.343 180.238 238.904C211.496 236.271 236.071 211.009 236.071 178.035Z" fill="#F2DFD7"/>
<path d="M242.31 158.539C242.31 150.954 238.172 144.811 233.079 144.811C227.986 144.811 221.81 147.13 221.81 154.715C221.81 162.3 227.986 172.268 233.079 172.268C238.172 172.268 242.31 166.124 242.31 158.539Z" fill="#F2DFD7"/>
<path d="M192.971 149.764C192.716 152.334 190.297 154.214 187.56 153.964C186.159 153.838 185.013 153.211 184.185 152.271" stroke="#1F363D" stroke-width="3" stroke-miterlimit="10" stroke-linecap="round" stroke-linejoin="round"/>
<path d="M141.594 189.382L157.637 196.967" stroke="#1F363D" stroke-width="3" stroke-miterlimit="10" stroke-linecap="round" stroke-linejoin="round"/>
<path d="M153.181 185.37L145.478 201.23" stroke="#1F363D" stroke-width="3" stroke-miterlimit="10" stroke-linecap="round" stroke-linejoin="round"/>
<path d="M189.151 172.832L205.194 180.417" stroke="#1F363D" stroke-width="3" stroke-miterlimit="10" stroke-linecap="round" stroke-linejoin="round"/>
<path d="M200.737 168.82L193.034 184.617" stroke="#1F363D" stroke-width="3" stroke-miterlimit="10" stroke-linecap="round" stroke-linejoin="round"/>
<path d="M185.267 211.698C186.674 211.698 187.814 210.604 187.814 209.253C187.814 207.903 186.674 206.809 185.267 206.809C183.861 206.809 182.721 207.903 182.721 209.253C182.721 210.604 183.861 211.698 185.267 211.698Z" stroke="#E07D5C" stroke-width="3" stroke-miterlimit="10" stroke-linecap="round" stroke-linejoin="round"/>
<path d="M182.084 129.077C182.084 129.077 166.805 162.677 125.551 188.254C125.551 188.254 111.8 143.119 148.47 121.554C185.14 99.9899 229.577 117.542 233.079 144.874C233.079 144.874 222.829 146.316 221.81 154.779C221.81 154.716 183.676 140.549 182.084 129.077Z" fill="#1F363D"/>
<path d="M130.453 157.599C107.343 148.635 72.9643 180.731 53.6106 229.188C34.2568 277.645 37.3126 324.222 60.4226 333.124C60.8045 333.249 61.1865 333.374 61.5048 333.5C61.6958 333.124 61.8868 332.747 62.0778 332.371C62.7145 330.992 63.4148 329.613 64.0514 328.297C65.1337 326.04 66.216 323.846 67.2983 321.589C68.7625 318.643 70.1631 315.634 71.6274 312.688C73.3463 309.114 75.1289 305.541 76.8478 301.968C78.8214 297.893 80.795 293.819 82.7685 289.807C84.9331 285.419 87.034 280.968 89.1985 276.58C91.4268 271.941 93.7187 267.302 95.9469 262.663C98.2388 257.962 100.531 253.197 102.823 248.496C105.114 243.794 107.406 239.155 109.635 234.454C111.863 229.94 114.027 225.427 116.256 220.913C118.293 216.713 120.394 212.451 122.431 208.251C124.277 204.427 126.123 200.665 127.97 196.841C129.561 193.582 131.153 190.385 132.681 187.125C133.954 184.555 135.164 182.047 136.437 179.477C137.265 177.722 138.156 176.029 138.984 174.274C140.448 171.202 140.893 167.755 139.366 164.432C138.474 162.552 137.647 161.298 135.864 160.169C134.209 159.041 132.299 158.289 130.453 157.599Z" fill="#F2DFD7"/>
<path d="M109.062 178.787C109.062 178.787 117.784 161.924 135.928 167.566" stroke="#ECB1A9" stroke-width="3" stroke-miterlimit="10" stroke-linecap="round" stroke-linejoin="round"/>
<path d="M255.17 343.592C255.17 343.592 237.535 346.225 237.089 362.022C236.644 377.756 247.849 369.294 247.849 369.294C247.849 369.294 255.361 373.494 270.958 367.538" fill="#F2DFD7"/>
<path d="M255.17 343.592C255.17 343.592 237.535 346.225 237.089 362.022C236.644 377.756 247.849 369.294 247.849 369.294C247.849 369.294 255.361 373.494 270.958 367.538" stroke="#ECB1A9" stroke-width="3" stroke-miterlimit="10" stroke-linecap="round" stroke-linejoin="round"/>
<path d="M234.928 199.457C234.928 199.457 220.36 298.389 285.079 291.087C285.079 291.087 296.263 287.745 289.257 282.491C282.25 277.237 276.077 274.181 275.292 253.314C274.584 232.436 259.655 206.607 259.4 188.59L234.928 199.457Z" fill="#20363D"/>
<path d="M279.591 120.598C279.591 101.017 295.711 85.1444 315.596 85.1444C335.481 85.1444 351.602 101.017 351.602 120.598C351.602 140.178 335.481 156.051 315.596 156.051C295.711 156.051 279.591 140.178 279.591 120.598Z" fill="#F0CC67"/>
<path d="M295.256 148.096L286.316 139.98L283.65 151.649L295.256 148.096Z" fill="#F0CC67"/>
<path fill-rule="evenodd" clip-rule="evenodd" d="M315.882 106.273L298.302 121.39C298.224 121.458 298.133 121.505 298.042 121.552C297.98 121.583 297.919 121.614 297.862 121.653V136.156C297.862 136.85 298.438 137.411 299.149 137.411H301.704V136.212C301.704 133.505 303.99 131.309 306.808 131.309H307.176C308.102 131.735 309.121 131.99 310.211 131.99C311.301 131.99 312.325 131.735 313.246 131.309H313.614C316.432 131.309 318.718 133.505 318.718 136.212V137.411H320.136V136.212C320.136 134.569 319.458 133.084 318.377 131.965C319.108 131.56 319.941 131.309 320.845 131.309H321.013C321.629 131.513 322.281 131.65 322.972 131.65C323.663 131.65 324.314 131.513 324.93 131.309H325.099C327.841 131.309 330.061 133.441 330.061 136.076C330.061 136.586 329.866 137.053 329.544 137.411H332.616C333.327 137.411 333.903 136.85 333.903 136.156V121.656C333.848 121.619 333.788 121.588 333.728 121.558C333.641 121.513 333.554 121.469 333.48 121.405L315.882 106.273ZM338.625 115.788L333.903 111.723V101.022C333.903 100.329 333.327 99.7674 332.616 99.7674H327.467C326.756 99.7674 326.18 100.329 326.18 101.022V105.076L318.034 98.0664C317.421 97.5284 316.652 97.2586 315.882 97.2578C315.113 97.257 314.346 97.5252 313.734 98.0632L293.14 115.788C292.611 116.251 292.567 117.044 293.043 117.56L294.764 119.428C295.239 119.944 296.053 119.987 296.582 119.523L315.031 103.66C315.518 103.242 316.248 103.242 316.734 103.66L335.183 119.523C335.712 119.985 336.526 119.943 337.001 119.428L338.723 117.56C339.198 117.044 339.154 116.251 338.625 115.788ZM315.174 125.18C315.174 127.815 312.954 129.947 310.211 129.947C307.468 129.947 305.249 127.815 305.249 125.18C305.249 122.545 307.468 120.413 310.211 120.413C312.954 120.413 315.174 122.545 315.174 125.18ZM327.225 125.861C327.225 128.117 325.32 129.947 322.972 129.947C320.623 129.947 318.718 128.117 318.718 125.861C318.718 123.605 320.623 121.775 322.972 121.775C325.32 121.775 327.225 123.605 327.225 125.861Z" fill="#1F363D"/>
<path d="M25.8148 182.102L36.0939 179.203L35.2964 176.461L32.0856 177.366L27.9169 163.032L25.3991 163.742C24.5145 164.74 23.4638 165.51 21.8482 166.314L22.4581 168.411L25.5534 167.539L28.69 178.324L25.0172 179.359L25.8148 182.102ZM41.3589 178.068C42.5832 177.723 43.2026 176.501 42.8407 175.256C42.4721 173.989 41.2964 173.298 40.0721 173.643C38.871 173.982 38.2449 175.181 38.6135 176.448C38.9754 177.693 40.1578 178.407 41.3589 178.068ZM46.0281 176.402L57.4853 173.172L56.6543 170.314L52.9584 171.356C52.1499 171.584 51.0449 171.995 50.217 172.329C52.4507 168.407 54.0496 164.366 53.1516 161.278C52.2267 158.098 49.4753 156.629 46.2414 157.541C43.9083 158.199 42.6452 159.528 41.5637 161.653L43.9478 162.975C44.5508 161.783 45.3326 160.69 46.5799 160.338C48.22 159.876 49.4455 160.652 49.9482 162.381C50.7122 165.008 48.895 168.986 45.4584 174.443L46.0281 176.402ZM65.0603 171.385C68.3173 170.466 70.5366 167.871 69.6251 164.737C68.975 162.501 67.0811 161.489 65.0098 161.5L64.9762 161.385C66.5702 160.162 67.221 158.532 66.6848 156.689C65.8403 153.785 63.1239 152.781 59.8207 153.712C57.811 154.279 56.4056 155.548 55.3025 157.255L57.6381 158.841C58.3797 157.609 59.2122 156.776 60.4364 156.431C61.8917 156.021 62.9511 156.57 63.3398 157.906C63.7822 159.427 63.0808 160.797 59.9393 161.683L60.643 164.103C64.362 163.054 65.6636 163.834 66.1461 165.493C66.5951 167.037 65.6651 168.222 63.9326 168.711C62.385 169.147 60.9164 168.738 59.6119 168.034L58.6413 170.626C60.2379 171.647 62.3576 172.147 65.0603 171.385Z" fill="#70A9A1"/>
<path d="M330.483 34.6571L300.252 26.7819L299.099 31.0737L329.33 38.9489L330.483 34.6571ZM297.569 36.7677L296.416 41.0595L326.647 48.9348L327.8 44.643L297.569 36.7677Z" fill="#1F363D"/>
<path d="M275.645 51.8889C275.645 32.2185 259.445 16.2492 239.49 16.1807H38.6922V16.2492H38.6227C18.668 16.2492 2.39838 32.2185 2.39838 51.9574C2.39838 71.6963 18.5985 87.6656 38.6227 87.6656H38.6922H211.192L255.968 106.513L247.208 86.7746C263.478 83.2792 275.645 68.9548 275.645 51.8889Z" stroke="#40798C" stroke-width="4" stroke-miterlimit="10" stroke-linecap="round" stroke-linejoin="round"/>
<path d="M62.1638 59.9437C66.4758 59.9437 69.4458 56.7097 69.4458 51.4297C69.4458 46.1497 66.4758 43.0477 62.1638 43.0477C57.8518 43.0477 54.8818 46.1277 54.8818 51.4297C54.8818 56.7097 57.8518 59.9437 62.1638 59.9437ZM62.1638 57.1277C59.7438 57.1277 58.2038 54.9057 58.2038 51.4297C58.2038 47.9317 59.7438 45.8417 62.1638 45.8417C64.5838 45.8417 66.1238 47.9317 66.1238 51.4297C66.1238 54.9057 64.5838 57.1277 62.1638 57.1277ZM72.6255 59.6357H75.8815V52.5957H82.0415V59.6357H85.2755V43.3337H82.0415V49.7577H75.8815V43.3337H72.6255V59.6357ZM94.2602 59.6357H97.3402V53.1017C97.3402 51.2317 97.0982 49.1857 96.9442 47.4257H97.0542L98.7042 50.9237L103.412 59.6357H106.712V43.3337H103.632V49.8457C103.632 51.6937 103.896 53.8497 104.05 55.5437H103.94L102.312 52.0237L97.5822 43.3337H94.2602V59.6357ZM117.207 59.9437C121.519 59.9437 124.489 56.7097 124.489 51.4297C124.489 46.1497 121.519 43.0477 117.207 43.0477C112.895 43.0477 109.925 46.1277 109.925 51.4297C109.925 56.7097 112.895 59.9437 117.207 59.9437ZM117.207 57.1277C114.787 57.1277 113.247 54.9057 113.247 51.4297C113.247 47.9317 114.787 45.8417 117.207 45.8417C119.627 45.8417 121.167 47.9317 121.167 51.4297C121.167 54.9057 119.627 57.1277 117.207 57.1277ZM134.215 59.9437C135.381 59.9437 136.239 59.0197 136.239 57.8317C136.239 56.6217 135.381 55.7197 134.215 55.7197C133.071 55.7197 132.213 56.6217 132.213 57.8317C132.213 59.0197 133.071 59.9437 134.215 59.9437ZM141.369 59.9437C142.535 59.9437 143.393 59.0197 143.393 57.8317C143.393 56.6217 142.535 55.7197 141.369 55.7197C140.225 55.7197 139.367 56.6217 139.367 57.8317C139.367 59.0197 140.225 59.9437 141.369 59.9437ZM148.523 59.9437C149.689 59.9437 150.547 59.0197 150.547 57.8317C150.547 56.6217 149.689 55.7197 148.523 55.7197C147.379 55.7197 146.521 56.6217 146.521 57.8317C146.521 59.0197 147.379 59.9437 148.523 59.9437ZM155.678 59.9437C156.844 59.9437 157.702 59.0197 157.702 57.8317C157.702 56.6217 156.844 55.7197 155.678 55.7197C154.534 55.7197 153.676 56.6217 153.676 57.8317C153.676 59.0197 154.534 59.9437 155.678 59.9437ZM162.832 59.9437C163.998 59.9437 164.856 59.0197 164.856 57.8317C164.856 56.6217 163.998 55.7197 162.832 55.7197C161.688 55.7197 160.83 56.6217 160.83 57.8317C160.83 59.0197 161.688 59.9437 162.832 59.9437ZM169.986 59.9437C171.152 59.9437 172.01 59.0197 172.01 57.8317C172.01 56.6217 171.152 55.7197 169.986 55.7197C168.842 55.7197 167.984 56.6217 167.984 57.8317C167.984 59.0197 168.842 59.9437 169.986 59.9437ZM187.031 57.2817C184.611 57.2817 183.071 55.0817 183.071 51.4297C183.071 47.9317 184.611 45.8417 187.031 45.8417C189.451 45.8417 190.991 47.9317 190.991 51.4297C190.991 55.0817 189.451 57.2817 187.031 57.2817ZM192.289 64.0577C193.477 64.0577 194.467 63.8377 195.039 63.5737L194.445 61.1757C193.983 61.3297 193.367 61.4397 192.663 61.4397C191.189 61.4397 189.715 60.9337 188.967 59.7017C192.201 58.8657 194.313 55.8737 194.313 51.4297C194.313 46.1497 191.343 43.0477 187.031 43.0477C182.719 43.0477 179.749 46.1277 179.749 51.4297C179.749 56.0717 182.059 59.1517 185.535 59.8117C186.657 62.2757 188.967 64.0577 192.289 64.0577ZM203.961 57.2817C201.541 57.2817 200.001 55.0817 200.001 51.4297C200.001 47.9317 201.541 45.8417 203.961 45.8417C206.381 45.8417 207.921 47.9317 207.921 51.4297C207.921 55.0817 206.381 57.2817 203.961 57.2817ZM209.219 64.0577C210.407 64.0577 211.397 63.8377 211.969 63.5737L211.375 61.1757C210.913 61.3297 210.297 61.4397 209.593 61.4397C208.119 61.4397 206.645 60.9337 205.897 59.7017C209.131 58.8657 211.243 55.8737 211.243 51.4297C211.243 46.1497 208.273 43.0477 203.961 43.0477C199.649 43.0477 196.679 46.1277 196.679 51.4297C196.679 56.0717 198.989 59.1517 202.465 59.8117C203.587 62.2757 205.897 64.0577 209.219 64.0577Z" fill="#40798C"/>
</svg>
