<svg width="116" height="476" viewBox="0 0 116 476" fill="none" xmlns="http://www.w3.org/2000/svg">
<path d="M58.6645 113.329C89.9594 113.329 115.329 87.9596 115.329 56.6646C115.329 25.3697 89.9594 0.000106812 58.6645 0.000106812C27.3695 0.000106812 2 25.3697 2 56.6646C2 87.9596 27.3695 113.329 58.6645 113.329Z" fill="#F0CC67"/>
<path d="M14.714 88.6756L27.6861 102.745L9.03467 106.94L14.714 88.6756Z" fill="#F0CC67"/>
<path fill-rule="evenodd" clip-rule="evenodd" d="M59.116 33.7712L31.4477 57.9315C31.325 58.041 31.1818 58.1155 31.0384 58.1901C30.9421 58.2402 30.8456 58.2904 30.7551 58.3514V81.5327C30.7551 82.6407 31.6616 83.5382 32.7809 83.5382H36.8023V81.6223C36.8023 77.2956 40.4004 73.7853 44.8353 73.7853H45.414C46.8714 74.4656 48.4752 74.8738 50.1906 74.8738C51.9059 74.8738 53.5167 74.4656 54.9671 73.7853H55.5459C59.9807 73.7853 63.5788 77.2956 63.5788 81.6223V83.5382H65.8102V81.6223C65.8102 78.9964 64.7433 76.6221 63.0419 74.833C64.1924 74.1867 65.5034 73.7853 66.9259 73.7853H67.1909C68.1601 74.1119 69.1851 74.3295 70.2729 74.3295C71.3607 74.3295 72.3858 74.1119 73.355 73.7853H73.62C77.9363 73.7853 81.4298 77.1936 81.4298 81.4046C81.4298 82.22 81.1231 82.9658 80.6162 83.5382H85.4511C86.5704 83.5382 87.4769 82.6407 87.4769 81.5327V58.3564C87.3892 58.2972 87.2948 58.2483 87.2005 58.1996C87.0634 58.1286 86.9265 58.0578 86.8109 57.9553L59.116 33.7712ZM94.9077 48.9781L87.4769 42.4814V25.3781C87.4769 24.2701 86.5704 23.3726 85.4511 23.3726H77.348C76.2288 23.3726 75.3222 24.2701 75.3222 25.3781V31.8572L62.5028 20.6539C61.5368 19.794 60.3264 19.3628 59.116 19.3616C57.9056 19.3603 56.6977 19.789 55.7355 20.6489L23.3243 48.9781C22.4925 49.7189 22.4228 50.9861 23.1711 51.8109L25.8806 54.7966C26.6276 55.6201 27.9089 55.689 28.742 54.9483L57.7765 29.5935C58.5424 28.9254 59.6908 28.9254 60.4568 29.5935L89.4913 54.947C90.3231 55.6865 91.6044 55.6188 92.3527 54.7953L95.0621 51.8096C95.8092 50.9861 95.7408 49.7176 94.9077 48.9781ZM58.0004 63.989C58.0004 68.2001 54.5069 71.6084 50.1906 71.6084C45.8743 71.6084 42.3808 68.2001 42.3808 63.989C42.3808 59.778 45.8743 56.3697 50.1906 56.3697C54.5069 56.3697 58.0004 59.778 58.0004 63.989ZM76.9671 65.0775C76.9671 68.6831 73.9687 71.6084 70.2729 71.6084C66.5772 71.6084 63.5788 68.6831 63.5788 65.0775C63.5788 61.4719 66.5772 58.5467 70.2729 58.5467C73.9687 58.5467 76.9671 61.4719 76.9671 65.0775Z" fill="#1F363D"/>
<path d="M56.6645 475.658C87.9594 475.658 113.329 450.289 113.329 418.994C113.329 387.699 87.9594 362.329 56.6645 362.329C25.3695 362.329 0 387.699 0 418.994C0 450.289 25.3695 475.658 56.6645 475.658Z" fill="#40798C"/>
<path d="M12.714 386.983L25.6862 372.913L7.03461 368.719L12.714 386.983Z" fill="#40798C"/>
<path d="M63.518 414.126L50.9304 410.461C49.4735 410.044 48.4595 408.687 48.4595 407.179C48.4595 405.289 49.998 403.758 51.8978 403.758H59.6252C61.0471 403.758 62.4457 404.187 63.6113 404.976C64.3222 405.451 65.278 405.335 65.884 404.744L69.94 400.801C70.7676 400.001 70.651 398.667 69.7303 397.96C66.8747 395.733 63.3082 394.493 59.6485 394.481V388.915C59.6485 387.894 58.8093 387.059 57.7836 387.059H54.054C53.0283 387.059 52.1891 387.894 52.1891 388.915V394.481H51.8978C44.4734 394.481 38.5059 400.824 39.1936 408.351C39.6831 413.697 43.7857 418.045 48.9606 419.553L60.9072 423.032C62.3641 423.461 63.3782 424.806 63.3782 426.314C63.3782 428.204 61.8397 429.735 59.9399 429.735H52.2124C50.7905 429.735 49.3919 429.306 48.2264 428.517C47.5154 428.042 46.5597 428.158 45.9536 428.749L41.8976 432.692C41.07 433.492 41.1866 434.826 42.1074 435.533C44.9629 437.76 48.5294 439.001 52.1891 439.012V444.579C52.1891 445.599 53.0283 446.434 54.054 446.434H57.7836C58.8093 446.434 59.6485 445.599 59.6485 444.579V438.989C65.0798 438.885 70.1732 435.672 71.9681 430.558C74.4739 423.415 70.2664 416.086 63.518 414.126V414.126Z" fill="#F0CC67"/>
<path d="M23.5087 262.639L42.3321 257.248L40.8907 252.215L35.011 253.898L27.4767 227.588L22.866 228.908C21.2413 230.747 19.3142 232.168 16.3536 233.657L17.4559 237.506L23.124 235.883L28.7929 255.679L22.0673 257.605L23.5087 262.639ZM51.9713 255.129C54.2132 254.487 55.3541 252.238 54.7 249.954C54.0338 247.627 51.8874 246.365 49.6456 247.007C47.446 247.637 46.2929 249.844 46.9591 252.17C47.6132 254.455 49.7717 255.759 51.9713 255.129ZM60.5237 252.039L81.5044 246.031L80.0024 240.786L73.2344 242.724C71.7539 243.148 69.7297 243.911 68.213 244.528C72.3246 237.309 75.2756 229.873 73.6524 224.205C71.9808 218.368 66.9568 215.687 61.0348 217.383C56.7625 218.607 54.4431 221.056 52.451 224.967L56.804 227.382C57.9148 225.188 59.352 223.174 61.6362 222.52C64.6395 221.66 66.8766 223.079 67.7851 226.252C69.166 231.074 65.816 238.395 59.4941 248.444L60.5237 252.039ZM95.3735 242.7C101.338 240.992 105.415 236.209 103.767 230.456C102.592 226.353 99.134 224.506 95.3445 224.538L95.2839 224.327C98.2078 222.071 99.4087 219.072 98.4397 215.688C96.9135 210.358 91.9503 208.53 85.9015 210.262C82.2214 211.316 79.6421 213.657 77.6132 216.801L81.8759 219.699C83.2404 217.432 84.7686 215.896 87.0105 215.254C89.6754 214.491 91.61 215.493 92.3126 217.946C93.112 220.738 91.8202 223.259 86.0674 224.906L87.3393 229.348C94.1495 227.398 96.5256 228.823 97.3978 231.868C98.2093 234.702 96.5002 236.885 93.3277 237.794C90.4937 238.605 87.8097 237.863 85.4277 236.578L83.6355 241.347C86.5498 243.213 90.4244 244.117 95.3735 242.7Z" fill="#70A9A1"/>
</svg>
