<svg width="209" height="433" viewBox="0 0 209 433" fill="none" xmlns="http://www.w3.org/2000/svg">
<path d="M64.6085 253.629C100.291 271.53 143.728 257.115 161.629 221.433C179.53 185.75 165.115 142.313 129.433 124.412C93.7503 106.511 50.3127 120.926 32.412 156.609C14.5114 192.291 28.9262 235.728 64.6085 253.629Z" fill="#70A9A1"/>
<path d="M165.803 197.069L160.114 220.787L183.502 213.891L165.803 197.069Z" fill="#70A9A1"/>
<path d="M140.223 212.481C139.088 209.73 135.926 208.421 133.17 209.568L130.184 210.808L124.954 197.067C131.427 192.347 133.71 183.541 129.616 176.461L117.915 156.165C116.834 154.291 114.523 153.509 112.51 154.331L97.0656 160.724L81.6213 154.331C79.608 153.495 77.2975 154.291 76.2165 156.165L64.5151 176.461C60.4344 183.541 62.7045 192.347 69.1767 197.053L63.9476 210.795L60.9614 209.554C58.205 208.408 55.0567 209.716 53.9081 212.467C53.6784 213.02 53.9352 213.654 54.4891 213.883L76.4192 222.972C76.9732 223.201 77.5947 222.945 77.8244 222.392C78.9595 219.641 77.6623 216.486 74.9058 215.339L71.9197 214.099L77.2434 200.128C77.838 200.195 78.4325 200.303 79.0135 200.303C85.9992 200.303 92.4445 195.84 94.3362 188.8L97.0656 178.632L99.795 188.8C101.687 195.84 108.132 200.303 115.118 200.303C115.699 200.303 116.293 200.195 116.888 200.128L122.198 214.099L119.212 215.339C116.455 216.486 115.145 219.641 116.293 222.392C116.523 222.945 117.158 223.201 117.698 222.972L139.642 213.883C140.183 213.654 140.453 213.033 140.223 212.481ZM91.1068 175.868L75.9598 169.597L80.8917 161.047L93.6606 166.333L91.1068 175.868V175.868ZM103.024 175.868L100.471 166.333L113.24 161.047L118.171 169.597L103.024 175.868V175.868Z" fill="#1F363D"/>
<path d="M173.131 35.9438L178.899 32.9466C175.007 27.1928 184.309 21.345 180.942 14.8674C177.876 8.96661 171.605 8.39356 165.172 11.7366C160.425 14.2036 157.65 18.4065 156.517 23.1652L161.884 24.6022C162.882 21.2097 164.455 18.8147 167.161 17.4083C170.666 15.5869 173.58 15.9887 174.986 18.6951C177.223 22.9987 168.58 29.4624 173.131 35.9438ZM182.215 46.2681C184.433 45.1154 185.266 42.5977 184.067 40.2906C182.869 37.9835 180.353 37.2624 178.134 38.4152C175.872 39.591 175.016 42.0644 176.214 44.3714C177.413 46.6785 179.908 47.467 182.215 46.2681Z" fill="#F0CC67"/>
<path d="M159.984 394.148L129.783 386.158L128.647 390.454L158.848 398.444L159.984 394.148ZM127.139 396.154L126.002 400.45L156.203 408.44L157.34 404.144L127.139 396.154Z" fill="#1F363D"/>
</svg>
