<svg width="172" height="433" viewBox="0 0 172 433" fill="none" xmlns="http://www.w3.org/2000/svg">
<path d="M73.0205 261.303C112.941 261.303 145.303 228.941 145.303 189.021C145.303 149.1 112.941 116.738 73.0205 116.738C33.0999 116.738 0.737793 149.1 0.737793 189.021C0.737793 228.941 33.0999 261.303 73.0205 261.303Z" fill="#70A9A1"/>
<path d="M141.803 197.069L136.114 220.787L159.502 213.891L141.803 197.069Z" fill="#70A9A1"/>
<path d="M116.223 212.481C115.088 209.73 111.926 208.421 109.17 209.568L106.184 210.808L100.954 197.067C107.427 192.347 109.71 183.541 105.616 176.461L93.9147 156.165C92.8337 154.291 90.5232 153.509 88.5099 154.331L73.0656 160.724L57.6213 154.331C55.608 153.495 53.2975 154.291 52.2165 156.165L40.5151 176.461C36.4345 183.541 38.7045 192.347 45.1768 197.053L39.9476 210.795L36.9614 209.554C34.205 208.408 31.0567 209.716 29.9081 212.467C29.6784 213.02 29.9352 213.654 30.4892 213.883L52.4192 222.972C52.9732 223.201 53.5948 222.945 53.8245 222.392C54.9595 219.641 53.6623 216.486 50.9059 215.339L47.9197 214.099L53.2434 200.128C53.838 200.195 54.4325 200.303 55.0135 200.303C61.9992 200.303 68.4445 195.84 70.3362 188.8L73.0656 178.632L75.795 188.8C77.6867 195.84 84.132 200.303 91.1177 200.303C91.6987 200.303 92.2932 200.195 92.8878 200.128L98.198 214.099L95.2118 215.339C92.4554 216.486 91.1447 219.641 92.2932 222.392C92.5229 222.945 93.158 223.201 93.6985 222.972L115.642 213.883C116.183 213.654 116.453 213.033 116.223 212.481ZM67.1068 175.868L51.9598 169.597L56.8917 161.047L69.6606 166.333L67.1068 175.868ZM79.0244 175.868L76.4706 166.333L89.2395 161.047L94.1714 169.597L79.0244 175.868Z" fill="#1F363D"/>
<path d="M149.131 35.9438L154.899 32.9466C151.007 27.1928 160.309 21.345 156.942 14.8674C153.876 8.96661 147.605 8.39356 141.172 11.7366C136.425 14.2036 133.65 18.4065 132.517 23.1652L137.884 24.6022C138.882 21.2097 140.455 18.8147 143.161 17.4083C146.666 15.5869 149.58 15.9887 150.986 18.6951C153.223 22.9987 144.58 29.4624 149.131 35.9438ZM158.215 46.2681C160.433 45.1154 161.266 42.5977 160.067 40.2906C158.869 37.9835 156.353 37.2624 154.134 38.4152C151.872 39.591 151.016 42.0644 152.214 44.3714C153.413 46.6785 155.908 47.467 158.215 46.2681Z" fill="#F0CC67"/>
<path d="M135.984 394.148L105.783 386.158L104.647 390.454L134.848 398.444L135.984 394.148ZM103.139 396.154L102.002 400.45L132.203 408.44L133.34 404.144L103.139 396.154Z" fill="#1F363D"/>
</svg>
