<svg width="120" height="120" viewBox="0 0 120 120" fill="none" xmlns="http://www.w3.org/2000/svg">
<circle cx="60" cy="60" r="60" fill="#F0CC67"/>
<path d="M36.6543 45.9873C40.2167 45.9873 43.1046 43.0994 43.1046 39.537C43.1046 35.9747 40.2167 33.0868 36.6543 33.0868C33.092 33.0868 30.2041 35.9747 30.2041 39.537C30.2041 43.0994 33.092 45.9873 36.6543 45.9873Z" fill="white"/>
<path d="M41.753 68.2255C42.2258 65.3156 44.9038 63.5545 47.6773 64.479L53.6123 66.4614C52.4089 64.4169 51.3132 62.3193 50.4478 60.1096C50.328 59.8111 50.1765 59.5534 50.0098 59.3155L48.7897 55.9358C52.177 57.2786 55.5158 58.7335 58.794 60.3536C59.0077 60.4582 59.2168 60.531 59.4275 60.5901C56.851 58.8851 55.4113 55.7357 56.0357 52.5197C56.0857 52.2666 56.1736 52.0317 56.2478 51.7877C52.1437 49.9841 47.9698 48.3473 43.7171 46.9075C43.561 46.853 43.4125 46.8333 43.264 46.803C42.4592 46.4999 41.5544 46.3574 40.5436 46.4256C38.7021 46.5529 36.7425 47.6774 35.5316 49.2733C33.6477 51.0481 31.7624 52.8258 29.877 54.6021C26.6261 53.5169 23.3722 52.4318 20.1213 51.3481C15.9884 49.972 14.2333 56.4753 18.3284 57.8408C22.1628 59.1185 25.9956 60.3976 29.83 61.6722C30.9758 62.0541 32.2595 61.604 33.1021 60.8098C33.9524 60.0081 34.8011 59.2079 35.6498 58.4077C36.7258 62.0965 37.7201 64.0259 37.7201 64.0259C37.7201 64.0259 38.2884 65.1443 39.275 66.2977C37.0411 73.0025 34.504 79.5983 31.9655 86.1986C30.4029 90.2557 36.9138 91.9926 38.4566 87.9915C40.348 83.0841 42.2364 78.1721 43.999 73.2238C42.0834 72.0993 41.462 70.0063 41.753 68.2255Z" fill="white"/>
<path d="M63.8572 60.7276C67.4196 60.7276 70.3075 57.8398 70.3075 54.2774C70.3075 50.715 67.4196 47.8271 63.8572 47.8271C60.2949 47.8271 57.407 50.715 57.407 54.2774C57.407 57.8398 60.2949 60.7276 63.8572 60.7276Z" fill="white"/>
<path d="M87.8038 81.9866C86.3216 83.1611 84.9546 84.3433 83.4875 85.4284C81.2248 82.0851 79.1272 78.6099 77.6465 74.8467C77.5283 74.5482 77.3752 74.2875 77.2085 74.0541L75.9885 70.6729C79.3758 72.0187 82.7161 73.4751 85.9942 75.0923C89.8756 77.0064 93.2871 71.2018 89.3921 69.277C83.4072 66.3247 77.2358 63.7846 70.9189 61.6462C70.7598 61.5931 70.6143 61.5719 70.4627 61.5401C69.6595 61.2385 68.7547 61.096 67.7423 61.1672C65.9009 61.2945 63.9412 62.4161 62.7303 64.015C60.8449 65.7882 58.9626 67.5675 57.0742 69.3437C53.8218 68.2586 50.5694 67.1734 47.32 66.0913C43.1871 64.7121 41.4321 71.2185 45.5271 72.581C49.363 73.8616 53.1944 75.1392 57.0288 76.4153C58.1745 76.7988 59.4597 76.3456 60.3009 75.55C61.1526 74.7528 61.9983 73.948 62.85 73.1478C63.9261 76.8397 64.9188 78.766 64.9188 78.766C64.9188 78.766 65.4871 79.886 66.4707 81.0408C64.2383 87.7472 61.7028 94.3415 59.1642 100.94C57.6016 104.999 64.1125 106.736 65.6538 102.732C68.1757 96.1859 70.6916 89.6387 72.9119 82.9899C73.0452 82.9232 73.1726 82.8762 73.309 82.7944C73.512 82.7216 73.7015 82.6276 73.8849 82.52C75.5959 85.7194 77.5783 88.7596 79.6986 91.7559C80.7716 93.2684 82.5994 93.9232 84.3029 92.9623C87.3749 91.2315 89.818 88.9324 92.5582 86.756C95.9636 84.0508 91.1653 79.3207 87.8038 81.9866Z" fill="white"/>
<path d="M67.8257 27.8975C71.3872 27.8975 74.2744 25.0103 74.2744 21.4487C74.2744 17.8872 71.3872 15 67.8257 15C64.2642 15 61.377 17.8872 61.377 21.4487C61.377 25.0103 64.2642 27.8975 67.8257 27.8975Z" fill="white"/>
<path d="M91.7706 49.1578C90.2883 50.3339 88.9213 51.5145 87.4542 52.6027C85.19 49.2563 83.0924 45.7826 81.6148 42.0195C81.4965 41.7179 81.342 41.4618 81.1737 41.2253L79.9552 37.8441C83.3425 39.1869 86.6813 40.6449 89.9625 42.262C93.8423 44.1761 97.2554 38.37 93.3574 36.4498C87.3724 33.4944 81.2025 30.9559 74.8857 28.8174C74.728 28.7644 74.581 28.7416 74.4279 28.7128C73.6262 28.4097 72.7199 28.2642 71.7105 28.3355C69.8661 28.4612 67.9095 29.5873 66.6971 31.1832C64.8117 32.9579 62.9278 34.7342 61.0425 36.5119C57.7901 35.4268 54.5377 34.3432 51.2868 33.258C47.1523 31.8819 45.3988 38.3837 49.4939 39.7492C53.3282 41.0283 57.1596 42.3075 60.9955 43.5836C62.1413 43.9655 63.4265 43.5138 64.2646 42.7167C65.1178 41.918 65.9665 41.1162 66.8153 40.3175C67.8928 44.0064 68.887 45.9357 68.887 45.9357C68.887 45.9357 69.4554 47.0542 70.436 48.2091C70.3738 48.4015 70.3026 48.591 70.2404 48.782C71.7621 50.6855 72.4789 53.218 71.9773 55.7914C71.7257 57.0888 71.1619 58.2482 70.4117 59.256C70.5178 59.2878 70.6284 59.3136 70.7315 59.35C70.9452 59.3924 71.1164 59.4364 71.2968 59.497C71.9682 59.7243 72.635 59.9759 73.3049 60.2139C74.5462 56.8796 75.748 53.5332 76.8786 50.1581C77.009 50.0914 77.1363 50.0444 77.2727 49.9611C77.4742 49.8898 77.6637 49.7943 77.844 49.6898C79.5597 52.8891 81.539 55.9294 83.6623 58.9226C84.7353 60.4366 86.5616 61.0914 88.2666 60.1305C91.3386 58.3997 93.7802 56.0991 96.5249 53.9243C99.9304 51.222 95.1351 46.4934 91.7706 49.1578Z" fill="white"/>
</svg>
