<svg width="120" height="120" viewBox="0 0 120 120" fill="none" xmlns="http://www.w3.org/2000/svg">
<circle cx="60" cy="60" r="60" fill="#40798C"/>
<path d="M76.06 82.4424H70.868C70.1032 82.4424 69.484 83.0616 69.484 83.8264H69.4784V86.2344H36.9648V48.528H51.1432C51.908 48.528 52.5272 47.9088 52.5272 47.144V32.9656H69.4776V62.0504H69.4864C69.5032 62.8 70.1136 63.4032 70.8672 63.4032H76.0592C76.8136 63.4032 77.4232 62.8 77.44 62.0504H77.4432V62.02V62.0192V62.0184V29.6008H77.4392V26.384C77.4392 25.6192 76.82 25 76.0552 25H74.0952H51.1432H49.7592L29 45.76V47.7176V48.528V90.8576V92.8152C29 93.58 29.6192 94.1992 30.384 94.1992H31.6496H74.7896H76.0552C76.82 94.1992 77.4392 93.58 77.4392 92.8152V90.8568H77.4432V83.8256V83.8248C77.444 83.0624 76.824 82.4424 76.06 82.4424Z" fill="white"/>
<path d="M64.0122 85.5385V86.8C68.3605 80.2955 73.2693 76.8263 79.4408 76.7077V84.2769C79.4408 85.6671 80.7548 86.8 82.3799 86.8C83.3159 86.8 84.1156 86.4014 84.6505 85.8135C89.6211 80.6942 100.012 70.4 100.012 70.4C100.012 70.4 89.6211 60.1008 84.6479 54.9159C84.1131 54.3986 83.3159 54 82.3799 54C80.7548 54 79.4408 55.1278 79.4408 56.5231V64.0923C67.4579 64.0923 64.0122 76.3822 64.0122 85.5385Z" fill="white"/>
</svg>
