<svg width="1083" height="498" viewBox="0 0 1083 498" fill="none" xmlns="http://www.w3.org/2000/svg">
<path d="M89.5585 96.2383L108.424 90.8359L106.983 85.8022L101.103 87.486L93.5808 61.2178L88.9702 62.5381C87.291 64.3462 85.4062 65.7556 82.4033 67.2563L83.5056 71.1055L89.2161 69.4703L94.885 89.2666L88.117 91.2047L89.5585 96.2383ZM118.105 88.7046C120.304 88.0747 121.5 85.8559 120.833 83.5294C120.167 81.2029 117.991 79.9954 115.791 80.6253C113.549 81.2673 112.426 83.4196 113.092 85.7461C113.759 88.0726 115.863 89.3466 118.105 88.7046ZM126.615 85.6268L147.595 79.6188L146.093 74.3736L139.325 76.3117C137.845 76.7356 135.833 77.5407 134.316 78.158C138.428 70.9392 141.421 63.4914 139.786 57.7809C138.114 51.9435 133.06 49.3175 127.18 51.0012C122.908 52.2246 120.546 54.6859 118.554 58.5974L122.95 61.0003C124.048 58.7634 125.443 56.762 127.77 56.0958C130.773 55.2358 132.98 56.7092 133.876 59.8394C135.257 64.6615 131.949 71.9705 125.597 82.0737L126.615 85.6268ZM161.506 76.2761C167.512 74.556 171.601 69.8152 169.954 64.0624C168.767 59.9171 165.321 58.112 161.477 58.1143L161.416 57.9028C164.395 55.6769 165.541 52.6482 164.584 49.3065C163.046 43.9345 158.095 42.1484 152.046 43.8806C148.408 44.9223 145.829 47.2628 143.788 50.3646L148.063 53.3054C149.427 51.0381 150.943 49.4597 153.185 48.8178C155.85 48.0546 157.797 49.0991 158.499 51.5524C159.299 54.3442 157.995 56.823 152.242 58.4704L153.526 62.9542C160.336 61.004 162.7 62.3866 163.585 65.4745C164.384 68.2663 162.687 70.4914 159.472 71.412C156.638 72.2236 153.984 71.4274 151.602 70.1415L149.768 74.9233C152.694 76.8314 156.557 77.6933 161.506 76.2761Z" fill="#70A9A1"/>
<path d="M279 263.763C279 243.511 262.577 227.071 242.349 227H38.7924V227.071H38.7219C18.4931 227.071 2 243.511 2 263.833C2 284.155 18.4226 300.596 38.7219 300.596H38.7924H213.662L259.053 320L250.172 299.678C266.665 296.08 279 281.332 279 263.763Z" stroke="#40798C" stroke-width="4" stroke-miterlimit="10" stroke-linecap="round" stroke-linejoin="round"/>
<path d="M60.16 256.644L57.586 257.348C60.27 265.796 64.868 271.406 73.712 273.716C74.086 273.012 74.9 271.824 75.494 271.274C67.134 269.316 62.338 264.036 60.16 256.644ZM56.156 254.554V257.172H71.314V254.554H56.156ZM70.566 254.554V255.104C68.564 264.432 62.69 269.096 54.66 271.186C55.254 271.736 56.068 272.99 56.332 273.672C64.582 271.274 70.962 265.73 73.338 255.258L71.49 254.422L71.05 254.554H70.566ZM77.056 268.304V270.394H96.988V268.304H77.056ZM82.27 262.298H92.06V263.09H82.27V262.298ZM82.27 264.586H92.06V265.4H82.27V264.586ZM82.27 260.032H92.06V260.824H82.27V260.032ZM79.608 258.448V266.984H94.854V258.448H79.608ZM89.596 266.566V273.936H92.324V266.566H89.596ZM79.85 254.73V256.644H87.176V254.73H79.85ZM88.804 254.708V256.622H97.032V254.708H88.804ZM79.938 253.146C79.168 254.84 77.826 256.512 76.462 257.59C76.946 258.074 77.804 259.152 78.134 259.658C79.696 258.25 81.346 256.05 82.336 253.894L79.938 253.146ZM89.354 253.146C88.738 254.774 87.572 256.424 86.186 257.48C86.824 257.744 87.968 258.316 88.518 258.712C89.772 257.546 91.114 255.676 91.862 253.74L89.354 253.146ZM81.918 257.15C82.248 257.634 82.622 258.294 82.776 258.712L85.042 257.92C84.866 257.502 84.448 256.864 84.096 256.424L81.918 257.15ZM91.708 257.106C92.214 257.634 92.764 258.36 93.006 258.822L95.118 257.92C94.832 257.436 94.216 256.732 93.71 256.248L91.708 257.106ZM82.292 266.544V268.612C82.292 269.778 81.588 271.252 77.518 272.088C78.112 272.594 78.816 273.452 79.168 274.024C83.854 272.748 84.954 270.746 84.954 268.678V266.544H82.292ZM107.834 255.874V258.162H118.68V255.874H107.834ZM107.394 260.252V262.606H119.208V260.252H107.394ZM109.792 253.322V261.484H112.08V253.322H109.792ZM114.412 253.322V261.484H116.766V253.322H114.412ZM108.78 263.86V273.958H111.09V266.016H115.666V273.936H118.086V263.86H108.78ZM110.122 267.49V269.558H116.59V267.49H110.122ZM110.122 271.054V273.144H116.37V271.054H110.122ZM100.464 258.866V261.066H106.206V258.866H100.464ZM99.21 262.694V264.916H106.932V262.694H99.21ZM99.364 266.17C99.694 267.38 100.002 268.964 100.068 270.02L101.784 269.492C101.674 268.48 101.344 266.918 100.97 265.73L99.364 266.17ZM98.902 270.988L99.408 273.342C101.564 272.88 104.424 272.264 107.086 271.67L106.954 269.58C103.984 270.13 100.904 270.68 98.902 270.988ZM105.238 265.51C105.106 266.632 104.754 268.216 104.468 269.25L105.964 269.712C106.294 268.766 106.69 267.314 107.108 266.016L105.238 265.51ZM102.136 259.768V271.934L104.27 271.538V259.768H102.136ZM102.862 253.168C101.85 255.192 100.134 257.128 98.484 258.316C98.792 258.976 99.276 260.45 99.408 261.022C101.432 259.394 103.522 256.688 104.798 254.07L102.862 253.168ZM102.312 256.226C103.918 257.128 105.744 258.47 106.756 259.504L107.834 257.326C106.822 256.402 104.996 255.148 103.302 254.29L102.312 256.226ZM129.702 261.088V270.9C129.702 271.274 129.548 271.384 129.064 271.384C128.558 271.406 126.754 271.406 125.192 271.34C125.61 272.066 126.094 273.232 126.248 274.002C128.36 274.024 129.944 273.98 131.044 273.584C132.144 273.188 132.496 272.462 132.496 270.966V261.088H129.702ZM122.046 254.862V257.458H137.424V254.862H122.046ZM136.632 254.862V255.5C135.378 257.172 132.342 259.68 129.702 261.088C130.23 261.528 131.066 262.408 131.462 262.98C134.52 261.374 137.82 258.69 140.064 256.27L137.974 254.708L137.38 254.862H136.632ZM150.548 272.308C151.692 272.308 152.572 271.406 152.572 270.196C152.572 268.986 151.692 268.106 150.548 268.106C149.382 268.106 148.546 268.986 148.546 270.196C148.546 271.406 149.382 272.308 150.548 272.308ZM157.703 272.308C158.847 272.308 159.727 271.406 159.727 270.196C159.727 268.986 158.847 268.106 157.703 268.106C156.537 268.106 155.701 268.986 155.701 270.196C155.701 271.406 156.537 272.308 157.703 272.308ZM164.857 272.308C166.001 272.308 166.881 271.406 166.881 270.196C166.881 268.986 166.001 268.106 164.857 268.106C163.691 268.106 162.855 268.986 162.855 270.196C162.855 271.406 163.691 272.308 164.857 272.308ZM181.902 272.308C186.214 272.308 189.162 269.096 189.162 263.794C189.162 258.514 186.214 255.434 181.902 255.434C177.568 255.434 174.62 258.492 174.62 263.794C174.62 269.096 177.568 272.308 181.902 272.308ZM181.902 269.646C179.46 269.646 177.942 267.468 177.942 263.794C177.942 260.318 179.46 258.228 181.902 258.228C184.322 258.228 185.862 260.318 185.862 263.794C185.862 267.468 184.322 269.646 181.902 269.646ZM187.16 276.422C188.348 276.422 189.316 276.224 189.91 275.938L189.316 273.54C188.832 273.716 188.238 273.826 187.512 273.826C185.884 273.826 184.212 273.166 183.596 271.582L180.296 271.912C181.33 274.508 183.706 276.422 187.16 276.422ZM198.831 272.308C203.143 272.308 206.091 269.096 206.091 263.794C206.091 258.514 203.143 255.434 198.831 255.434C194.497 255.434 191.549 258.492 191.549 263.794C191.549 269.096 194.497 272.308 198.831 272.308ZM198.831 269.646C196.389 269.646 194.871 267.468 194.871 263.794C194.871 260.318 196.389 258.228 198.831 258.228C201.251 258.228 202.791 260.318 202.791 263.794C202.791 267.468 201.251 269.646 198.831 269.646ZM204.089 276.422C205.277 276.422 206.245 276.224 206.839 275.938L206.245 273.54C205.761 273.716 205.167 273.826 204.441 273.826C202.813 273.826 201.141 273.166 200.525 271.582L197.225 271.912C198.259 274.508 200.635 276.422 204.089 276.422Z" fill="#40798C"/>
<path d="M286.069 262.56C345.201 262.56 393.138 214.624 393.138 155.491C393.138 96.3587 345.201 48.4224 286.069 48.4224C226.936 48.4224 179 96.3587 179 155.491C179 214.624 226.936 262.56 286.069 262.56Z" fill="#CFE0C3"/>
<path d="M379.262 198.796L360.417 229.646L396.558 230.549L379.262 198.796Z" fill="#CFE0C3"/>
<path d="M283.423 134.968C314.361 134.968 339.442 109.887 339.442 78.9489C339.442 48.0104 314.361 22.9298 283.423 22.9298C252.484 22.9298 227.404 48.0104 227.404 78.9489C227.404 109.887 252.484 134.968 283.423 134.968Z" fill="#1F363D"/>
<path d="M215.27 197.118L325.243 217.319L338.216 89.7914L228.178 69.5909L215.27 197.118Z" fill="#1F363D"/>
<path d="M249.347 256.171C269.031 206.928 303.559 174.595 326.728 183.694C328.6 184.404 330.471 185.179 332.214 186.276C334.021 187.438 334.86 188.664 335.763 190.665C337.377 194.085 336.925 197.635 335.376 200.797C334.537 202.604 333.634 204.347 332.795 206.154C331.504 208.8 330.278 211.381 328.987 214.027C327.373 217.383 325.76 220.675 324.211 224.031C322.339 227.968 320.468 231.84 318.596 235.777C316.531 240.101 314.401 244.489 312.336 248.813C310.464 252.75 308.528 256.687 306.657 260.624C329.051 256.171 348.413 245.07 363.128 229.775L377.971 230.162C375.777 222.74 373.066 215.124 369.839 207.444C348.865 158.137 313.046 126.126 289.877 135.936C266.707 126.062 230.953 158.073 209.914 207.444C207.526 213.059 205.396 218.739 203.589 224.289C215.98 238.681 231.728 249.717 249.347 256.171Z" fill="#70A9A1"/>
<path d="M366.225 170.141L327.89 193.181C326.147 194.214 323.888 193.633 322.856 191.955L309.819 170.27C308.786 168.528 309.367 166.269 311.045 165.236L349.381 142.196C351.123 141.164 353.382 141.745 354.415 143.423L367.452 165.107C368.549 166.85 367.968 169.109 366.225 170.141Z" fill="#F0CC67"/>
<path d="M357.835 151.425L315.24 176.982C314.659 177.305 313.949 177.111 313.627 176.595L313.239 175.95C312.917 175.369 313.11 174.659 313.627 174.336L356.222 148.779C356.803 148.457 357.513 148.65 357.835 149.166L358.223 149.812C358.61 150.328 358.416 151.103 357.835 151.425Z" fill="#1F363D"/>
<path d="M359.578 167.818L356.48 169.69C355.189 170.464 353.511 170.012 352.737 168.722L351.833 167.173C351.059 165.882 351.511 164.204 352.801 163.429L355.899 161.558C357.19 160.783 358.868 161.235 359.642 162.526L360.546 164.075C361.256 165.366 360.869 167.044 359.578 167.818Z" fill="white"/>
<path d="M318.725 235.712C320.597 231.775 322.468 227.903 324.34 223.966C325.953 220.61 327.567 217.319 329.116 213.963C330.407 211.317 331.633 208.735 332.924 206.089C333.763 204.282 334.666 202.54 335.505 200.732C336.989 197.57 337.441 194.021 335.892 190.6C334.989 188.664 334.15 187.373 332.343 186.211C330.6 185.114 328.729 184.34 326.857 183.63C303.623 174.53 269.16 206.864 249.476 256.106C267.224 262.625 286.972 264.496 306.85 260.559C306.85 260.559 306.85 260.559 306.915 260.559C308.786 256.623 310.722 252.686 312.594 248.749C314.53 244.425 316.66 240.036 318.725 235.712Z" fill="#F2DFD7"/>
<path d="M307.272 152.16C308.521 146.595 299.946 139.934 288.121 137.281C276.295 134.628 265.697 136.989 264.448 142.554C263.2 148.119 271.774 154.78 283.6 157.433C295.425 160.086 306.024 157.725 307.272 152.16Z" fill="#ECB1A9"/>
<path d="M264.408 142.565L307.231 152.172L314.663 119.046L271.839 109.439L264.408 142.565Z" fill="#ECB1A9"/>
<path d="M244.7 101.731C232.244 75.3348 241.538 44.8083 265.481 33.5141C289.36 22.2845 318.854 34.5467 331.246 60.9428C335.57 70.1072 337.506 80.4334 336.473 90.5659C335.634 99.214 332.859 109.153 329.697 114.51C325.05 122.319 315.111 127.804 310.787 129.418C285.488 138.84 256.962 127.869 244.7 101.731Z" fill="#F2DFD7"/>
<path d="M232.567 88.6298C229.727 82.6277 230.695 76.2384 234.632 74.3668C238.569 72.4952 244.248 72.0435 247.088 78.0455C249.928 84.0476 248.83 94.1801 244.829 96.0517C240.828 97.9233 235.407 94.6318 232.567 88.6298Z" fill="#F2DFD7"/>
<path d="M279.486 91.8566C280.912 91.8566 282.067 90.7297 282.067 89.3396C282.067 87.9495 280.912 86.8226 279.486 86.8226C278.06 86.8226 276.904 87.9495 276.904 89.3396C276.904 90.7297 278.06 91.8566 279.486 91.8566Z" fill="#1F363D"/>
<path d="M293.943 106.249C293.943 108.959 296.201 111.089 298.977 111.089C300.396 111.089 301.623 110.573 302.526 109.669" stroke="#E07D5C" stroke-width="3" stroke-miterlimit="10" stroke-linecap="round" stroke-linejoin="round"/>
<path d="M317.951 84.951C319.376 84.951 320.532 83.8241 320.532 82.434C320.532 81.044 319.376 79.9171 317.951 79.9171C316.525 79.9171 315.369 81.044 315.369 82.434C315.369 83.8241 316.525 84.951 317.951 84.951Z" fill="#1F363D"/>
<path d="M288.844 81.0142L263.029 85.1447C261.028 85.4674 259.673 87.339 259.995 89.3396L263.416 99.3431C263.739 101.344 265.61 102.699 267.611 102.376L289.812 98.8268C291.813 98.5041 293.168 96.6325 292.845 94.6318L293.039 84.0475C292.716 82.1114 290.845 80.7561 288.844 81.0142Z" stroke="#1F363D" stroke-width="3" stroke-miterlimit="10" stroke-linecap="round" stroke-linejoin="round"/>
<path d="M330.665 74.3668L304.85 78.4972C302.849 78.8199 301.494 80.6915 301.816 82.6922L305.237 92.6956C305.559 94.6963 307.431 96.0516 309.432 95.7289L331.633 92.1793C333.634 91.8566 334.989 89.985 334.666 87.9844L334.86 77.4001C334.537 75.4639 332.666 74.1086 330.665 74.3668Z" stroke="#1F363D" stroke-width="3" stroke-miterlimit="10" stroke-linecap="round" stroke-linejoin="round"/>
<path d="M293.039 84.1121C293.039 84.1121 296.847 79.1426 301.816 82.6922" stroke="#1F363D" stroke-width="3" stroke-miterlimit="10" stroke-linecap="round" stroke-linejoin="round"/>
<path d="M239.731 72.6242L259.996 89.3396" stroke="#1F363D" stroke-width="3" stroke-miterlimit="10" stroke-linecap="round" stroke-linejoin="round"/>
<path d="M338.087 78.0454C338.087 78.0454 337.893 36.8701 302.203 28.0284C291.49 25.3823 281.164 25.834 271.999 28.4156L271.935 28.222C211.656 43.9693 244.635 101.795 244.635 101.795C270.902 88.8878 275.485 55.0698 276.259 45.3891C276.453 44.421 276.517 43.582 276.388 42.7431C276.453 42.7431 297.621 67.0094 338.087 78.0454Z" fill="#1F363D"/>
<path d="M305.108 205.444C305.108 205.444 313.949 188.083 332.343 193.891" stroke="#ECB1A9" stroke-width="3" stroke-miterlimit="10" stroke-linecap="round" stroke-linejoin="round"/>
<path d="M376.323 42.174L395.813 54.5653L365.093 67.6665L376.323 42.174Z" fill="#F0CC67"/>
<path d="M568.802 5.19153H375.802V55.1915H568.802V5.19153Z" fill="#F0CC67"/>
<path d="M568.802 55.1915C582.609 55.1915 593.802 43.9986 593.802 30.1915C593.802 16.3844 582.609 5.19153 568.802 5.19153C554.995 5.19153 543.802 16.3844 543.802 30.1915C543.802 43.9986 554.995 55.1915 568.802 55.1915Z" fill="#F0CC67"/>
<path d="M376.387 54.5653C390.074 54.5653 401.17 43.4697 401.17 29.7827C401.17 16.0956 390.074 5 376.387 5C362.7 5 351.605 16.0956 351.605 29.7827C351.605 43.4697 362.7 54.5653 376.387 54.5653Z" fill="#F0CC67"/>
<path d="M384.289 23.3422C385.207 24.1752 386.278 25.3652 386.72 26.1812L388.369 25.0252C387.859 24.2262 386.754 23.0872 385.819 22.2882L384.289 23.3422ZM373.154 26.6572V28.5952H388.505V26.6572H373.154ZM372.831 31.4682L373.341 33.5252C375.534 33.0832 378.492 32.4882 381.246 31.9102L381.093 30.0572C378.118 30.6012 374.888 31.1622 372.831 31.4682ZM376.384 23.9202V35.3782C376.384 35.6672 376.282 35.7522 375.976 35.7522C375.67 35.7692 374.684 35.7692 373.715 35.7182C374.021 36.2962 374.361 37.2142 374.446 37.7922C375.84 37.7922 376.843 37.7242 377.523 37.4012C378.22 37.0782 378.441 36.5172 378.441 35.4122V23.9202H376.384ZM379.869 21.9312C378.118 22.5262 375.466 23.0532 373.069 23.3762C373.307 23.8352 373.562 24.6002 373.664 25.0762C376.129 24.8042 379.036 24.3452 381.246 23.6652L379.869 21.9312ZM381.535 21.9652C381.586 29.5982 382.912 37.8602 386.431 37.8602C387.978 37.8602 388.624 37.1122 388.947 34.1032C388.403 33.8822 387.706 33.4062 387.281 32.9302C387.179 34.9532 386.992 35.7862 386.635 35.7862C385.088 35.7862 383.558 28.8162 383.677 21.9652H381.535ZM386.159 29.1562C384.646 31.9612 381.875 34.2732 378.968 35.5992C379.478 36.0582 380.039 36.7382 380.345 37.2482C383.422 35.6162 386.193 33.0832 387.961 29.9212L386.159 29.1562ZM390.018 22.7132V24.6002H396.002V22.7132H390.018ZM390.171 27.5752V29.4452H395.815V27.5752H390.171ZM389.61 33.4742L390.12 35.4122C391.888 34.8852 394.2 34.2222 396.342 33.5762L396.07 31.7912C393.724 32.4372 391.259 33.1002 389.61 33.4742ZM398.552 26.7252H403.023V27.7792H398.552V26.7252ZM398.552 29.3432H403.023V30.3802H398.552V29.3432ZM398.552 24.1412H403.023V25.1782H398.552V24.1412ZM396.665 22.4752V32.0632H405.012V22.4752H396.665ZM400.949 31.3152V35.4122C400.949 37.1292 401.289 37.7072 402.87 37.7072C403.159 37.7072 403.856 37.7072 404.162 37.7072C405.403 37.7072 405.879 37.0612 406.049 34.7322C405.539 34.6132 404.723 34.2902 404.332 33.9842C404.298 35.6842 404.23 35.9562 403.941 35.9562C403.788 35.9562 403.346 35.9562 403.227 35.9562C402.955 35.9562 402.904 35.9052 402.904 35.3952V31.3152H400.949ZM397.94 31.8082C397.719 33.9672 397.277 35.4122 394.047 36.2282C394.455 36.6192 394.965 37.4012 395.169 37.9112C398.943 36.7722 399.674 34.7152 399.929 31.8082H397.94ZM392.075 23.4612V33.7462L394.047 33.4572V23.4612H392.075ZM410.231 26.7422V28.6292H419.326V26.7422H410.231ZM408.259 30.3972V32.2332H421.332V30.3972H408.259ZM407.426 35.5652V37.4182H422.233V35.5652H407.426ZM413.682 27.6432V36.4322H415.875V27.6432H413.682ZM409.381 32.7942C409.976 33.6952 410.605 34.9362 410.843 35.7182L412.611 34.9532C412.339 34.1542 411.659 32.9642 411.03 32.1142L409.381 32.7942ZM418.408 32.1312C418.051 33.0492 417.405 34.2902 416.878 35.0892L418.425 35.7182C418.986 35.0042 419.7 33.8992 420.346 32.8452L418.408 32.1312ZM415.569 22.7132L413.869 23.5462C415.773 25.6882 418.799 27.6262 421.638 28.6122C421.944 28.0852 422.573 27.2692 423.049 26.8272C420.227 26.0622 417.133 24.4132 415.569 22.7132ZM414.583 21.6422C412.968 24.1752 409.891 25.8922 406.661 26.8272C407.188 27.3372 407.749 28.1192 408.038 28.7142C411.472 27.4902 414.566 25.5012 416.504 22.4922L414.583 21.6422ZM424.409 22.9682V25.0592H439.233V22.9682H424.409ZM432.62 28.6632C434.507 30.1082 437.023 32.1992 438.145 33.5422L439.879 31.9782C438.638 30.6182 436.02 28.6632 434.201 27.3372L432.62 28.6632ZM431.94 23.7332C430.529 26.7592 427.52 30.0572 423.882 31.7742C424.307 32.2332 424.953 33.0832 425.276 33.6272C429.186 31.5872 432.28 28.1192 434.218 24.5322L431.94 23.7332ZM430.699 27.8472V37.7582H432.943V25.6202L430.699 27.8472ZM450.249 21.8462C449.637 24.0052 448.532 26.1472 447.189 27.4562C447.631 27.7452 448.396 28.3912 448.736 28.7142C450.113 27.2012 451.388 24.7702 452.136 22.2882L450.249 21.8462ZM454.584 24.2772V24.7192C454.482 32.2162 454.38 34.9702 453.989 35.5142C453.819 35.7692 453.666 35.8372 453.394 35.8372C453.037 35.8372 452.357 35.8372 451.575 35.7692C451.898 36.2962 452.136 37.1462 452.17 37.7072C452.986 37.7242 453.802 37.7412 454.346 37.6392C454.924 37.5372 455.332 37.3332 455.723 36.7042C456.284 35.8882 456.369 33.1512 456.471 25.2122C456.471 24.9572 456.471 24.2772 456.471 24.2772H454.584ZM450.436 27.4732V29.0882H452.085V32.1142H450.436V33.7122H453.734V27.4732H450.436ZM449.331 27.4732V34.9022H450.963V27.4732H449.331ZM450.113 24.2772V26.0452H455.281V24.2772H450.113ZM444.027 21.7952C443.415 23.0702 442.276 24.5832 440.627 25.7222C441.018 25.9602 441.596 26.5042 441.868 26.8782C443.67 25.5012 444.911 23.8182 445.795 22.1182L444.027 21.7952ZM444.928 28.3572C444.214 29.7172 442.854 31.2472 440.78 32.3182C441.154 32.5732 441.698 33.1852 441.936 33.5762C444.248 32.2332 445.727 30.5332 446.73 28.6802L444.928 28.3572ZM444.01 23.3592L442.531 24.9912H447.325V23.3592H444.01ZM446.679 23.3592V23.6652C445.829 26.1982 443.483 28.1872 440.882 29.0372C441.239 29.3942 441.715 30.0232 441.953 30.4482C444.894 29.3092 447.427 27.2012 448.566 23.8522L447.359 23.2912L447.019 23.3592H446.679ZM444.724 29.6492L443.16 31.3662H447.784V29.6492H444.724ZM447.24 29.6492V29.9552C446.356 33.1512 443.789 35.2932 440.695 36.1942C441.069 36.5682 441.528 37.2482 441.749 37.6902C445.234 36.5002 448.022 34.2052 449.161 30.1082L447.937 29.5812L447.58 29.6492H447.24ZM441.851 25.8412C442.684 26.3852 443.704 27.2012 444.163 27.7622L445.71 26.7932C445.183 26.2322 444.112 25.4502 443.296 24.9572L441.851 25.8412ZM442.225 32.4712C443.075 33.1342 444.095 34.0862 444.571 34.7322L446.169 33.7462C445.659 33.1002 444.588 32.1992 443.738 31.5872L442.225 32.4712ZM468.958 22.9682V24.4642H477.39V22.9682H468.958ZM468.805 32.6242V34.1202H477.628V32.6242H468.805ZM472.239 21.8292V31.0092H473.973V21.8292H472.239ZM470.845 27.8982H475.401V28.5612H470.845V27.8982ZM470.845 26.1812H475.401V26.8442H470.845V26.1812ZM469.247 25.0762V29.6662H477.084V25.0762H469.247ZM468.788 30.4822L468.907 31.9272C470.913 31.8762 473.735 31.8252 476.455 31.7232L476.489 30.3462C473.65 30.4142 470.743 30.4652 468.788 30.4822ZM473.82 31.9442V35.9732C473.82 36.1602 473.752 36.2112 473.514 36.2282C473.293 36.2452 472.443 36.2452 471.712 36.2112C471.933 36.6702 472.188 37.3332 472.256 37.8432C473.429 37.8432 474.262 37.8432 474.908 37.5882C475.537 37.3332 475.69 36.8912 475.69 36.0242V31.9442H473.82ZM469.604 34.5962C470.199 35.2082 470.794 36.0922 471.049 36.6872L472.511 35.7692C472.222 35.1742 471.593 34.3752 470.964 33.7972L469.604 34.5962ZM474.636 29.8872C475.299 30.6352 476.013 31.6722 476.302 32.3522L477.73 31.6382C477.39 30.9582 476.676 29.9892 475.996 29.2752L474.636 29.8872ZM461.886 23.4612V25.2122H468.618V23.4612H461.886ZM461.631 33.3212V35.0892H468.839V33.3212H461.631ZM464.385 21.8462V26.7932H466.204V21.8462H464.385ZM464.623 26.8272V31.5532H464.385V37.7922H466.204V31.5532H465.966V26.8272H464.623ZM463.654 29.8702H466.986V30.8902H463.654V29.8702ZM463.654 27.5412H466.986V28.5272H463.654V27.5412ZM462.209 26.1302V32.3012H468.465V26.1302H462.209ZM486.91 22.5262V24.1242H493.931V22.5262H486.91ZM486.774 24.9402V26.3682H493.234V24.9402H486.774ZM485.227 29.5302V31.2472H494.39V29.5302H485.227ZM486.196 22.5262V30.7032H488.168V22.5262H486.196ZM492.792 31.2472C492.146 31.9102 491.024 32.8112 490.208 33.3212L491.279 34.3412C492.146 33.9162 493.251 33.2022 494.305 32.5222L492.792 31.2472ZM489.885 30.6012L488.287 31.0092C489.29 33.8822 490.956 36.3302 493.353 37.5712C493.659 37.0442 494.254 36.2792 494.713 35.9052C492.469 34.9362 490.735 32.8792 489.885 30.6012ZM486.91 27.2182V28.6462H493.285V27.2182H486.91ZM485.992 37.9112C486.349 37.6392 486.944 37.3672 490.174 36.3302C490.089 35.9222 490.055 35.1912 490.055 34.6642L486.519 35.6842L485.805 36.2962L485.992 37.9112ZM481.164 21.8292V37.7922H482.83V21.8292H481.164ZM479.022 24.9572V34.2562H480.501V26.7592H484.394V24.9572H479.022ZM483.527 24.9572V32.1822C483.527 32.3182 483.493 32.3522 483.408 32.3692C483.289 32.3692 483.051 32.3692 482.762 32.3522C483 32.8112 483.204 33.5762 483.221 34.0692C483.799 34.0692 484.19 34.0182 484.564 33.7122C484.921 33.4062 484.989 32.8622 484.989 32.2502V24.9572H483.527ZM485.992 37.9112C485.992 37.2652 487.794 36.1092 487.794 36.1092V30.7202H485.89V34.5792C485.89 35.3102 485.397 35.8372 485.04 36.0752C485.38 36.5002 485.839 37.4182 485.992 37.9112ZM503.774 27.3372V29.1732H509.418V27.3372H503.774ZM503.927 35.1912V36.9932H509.537V35.1912H503.927ZM502.958 30.5502V37.8262H504.947V32.3522H508.585V37.8092H510.659V30.5502H502.958ZM507.344 22.4242L505.78 23.0532C506.902 25.3142 508.755 27.6942 510.506 29.0542C510.846 28.5272 511.543 27.7792 512.019 27.4052C510.268 26.3002 508.347 24.2772 507.344 22.4242ZM506.052 21.7952C505.168 24.0902 503.4 26.3852 501.241 27.7622C501.666 28.1022 502.346 28.8162 502.635 29.2412C504.964 27.5922 506.8 25.1612 507.905 22.3562L506.052 21.7952ZM499.932 28.8162C500.357 30.0062 500.765 31.5362 500.918 32.4882L502.516 31.9272C502.329 31.0092 501.87 29.4962 501.428 28.3402L499.932 28.8162ZM498.402 33.2872C498.589 34.4942 498.793 36.0922 498.81 37.1462L500.425 36.8062C500.357 35.7522 500.153 34.2052 499.932 32.9982L498.402 33.2872ZM496.328 33.0492C496.226 34.4942 496.022 36.0752 495.614 37.0952C496.056 37.2312 496.889 37.4862 497.28 37.7072C497.637 36.6192 497.926 34.9192 498.045 33.3212L496.328 33.0492ZM496.175 28.5782C496.175 28.2382 497.297 27.6432 497.297 27.6432V27.5922C498.436 26.2492 499.66 24.3112 500.493 22.4582L498.657 21.6932C498.028 23.5122 496.906 25.3992 496.532 25.8922C496.192 26.4022 495.886 26.7252 495.563 26.8272C495.767 27.3032 496.073 28.2042 496.175 28.5782ZM496.175 28.5782C496.515 28.4252 497.076 28.2892 499.711 28.0342C499.728 27.6432 499.796 26.9292 499.915 26.4362L496.94 26.6572L496.107 27.1842L496.175 28.5782ZM496.294 32.5222C496.294 32.1652 497.467 31.5702 497.467 31.5702V31.5192C499.15 29.8872 500.884 27.6092 502.142 25.3652L500.425 24.2772C499.354 26.5892 497.586 28.9692 497.025 29.5642C496.464 30.1932 496.09 30.5672 495.648 30.6862C495.886 31.1962 496.192 32.1312 496.294 32.5222ZM496.294 32.5222C496.719 32.3182 497.382 32.1482 501.377 31.5872C501.36 31.2132 501.411 30.4822 501.496 30.0062L497.059 30.5332L496.209 31.0942L496.294 32.5222ZM500.272 32.9472C500.612 33.9672 500.986 35.3442 501.139 36.2112L502.652 35.6842C502.465 34.8172 502.074 33.4912 501.7 32.4712L500.272 32.9472ZM519.839 21.8802C519.261 24.2432 518.224 26.5892 516.932 28.0512C517.391 28.3572 518.207 29.0202 518.564 29.3772C519.924 27.6942 521.131 25.0252 521.845 22.3392L519.839 21.8802ZM519.363 29.4452C518.972 31.3322 518.241 33.2702 517.289 34.4602C517.765 34.7152 518.632 35.2422 519.023 35.5652C519.975 34.1882 520.859 32.0122 521.335 29.8532L519.363 29.4452ZM520.213 24.8722L519.448 26.7592H527.183V24.8722H520.213ZM522.168 25.7052V35.4972C522.168 35.7182 522.083 35.7692 521.862 35.7692C521.624 35.7692 520.91 35.7862 520.196 35.7522C520.485 36.3132 520.791 37.2142 520.893 37.8092C521.981 37.8092 522.814 37.7242 523.409 37.4012C524.021 37.0612 524.191 36.5002 524.191 35.5142V25.7052H522.168ZM524.786 29.8872C525.619 31.6382 526.333 33.9842 526.52 35.5142L528.475 34.8342C528.237 33.2872 527.506 31.0262 526.622 29.2752L524.786 29.8872ZM526.639 24.8722V25.1442C526.52 26.3342 526.333 27.8472 526.18 28.7652L527.931 29.0712C528.152 28.0512 528.458 26.4702 528.662 25.0762L527.234 24.8212L526.911 24.8722H526.639ZM516.201 21.8972C515.334 24.3282 513.855 26.7422 512.308 28.2892C512.665 28.7822 513.209 29.9042 513.396 30.3972C515.249 28.4592 517.017 25.3992 518.122 22.4922L516.201 21.8972ZM514.552 26.5892V37.7752H516.507V24.6682L516.49 24.6512L514.552 26.5892ZM537.196 22.8662V24.7192H543.775V22.8662H537.196ZM536.516 28.8332V30.7712H545.645V28.8332H536.516ZM540.12 27.2182V35.5652C540.12 35.8032 540.018 35.8882 539.746 35.8882C539.474 35.8882 538.471 35.8882 537.621 35.8542C537.893 36.3982 538.199 37.2312 538.301 37.8092C539.644 37.8092 540.596 37.7582 541.31 37.4692C542.007 37.1632 542.228 36.6362 542.228 35.5992V27.2182H540.12ZM542.993 22.8662V23.3082C542.466 24.4302 541.276 26.2152 540.12 27.2182C540.443 27.4902 541.004 28.0172 541.259 28.3572C542.84 27.2182 544.353 25.3312 545.39 23.7502L544.013 22.7642L543.537 22.8662H542.993ZM529.971 31.0942C531.875 32.8112 534.527 35.2082 535.734 36.7382L537.077 35.0382C535.819 33.5762 533.065 31.2642 531.195 29.6832L529.971 31.0942ZM529.971 31.0942L531.824 31.7232C532.487 29.1392 533.201 25.1782 533.49 21.9652L531.467 21.8632C531.28 24.8892 530.617 28.7482 529.971 31.0942ZM534.289 24.2432V26.1302C534.289 28.9862 533.915 33.4232 529.648 36.3982C530.09 36.7212 530.787 37.4012 531.076 37.8432C535.734 34.4432 536.193 29.4282 536.193 26.1642V24.2432H534.289ZM529.631 25.5182L529.818 27.4562C531.807 27.3372 534.527 27.1672 537.077 26.9802L537.094 25.1612C534.408 25.3142 531.569 25.4502 529.631 25.5182ZM548.246 23.3252V25.2122H550.32V31.2132H548.246V33.1002H552.156V23.3252H548.246ZM547.226 23.3252V34.4942H549.028V23.3252H547.226ZM554.23 25.2292V26.8102H561.472V25.2292H554.23ZM554.23 27.8132V29.3942H561.472V27.8132H554.23ZM553.091 30.4142V32.1142H560.962V30.4142H553.091ZM553.091 22.5092V31.3322H555.012V24.2602H561.948V22.5092H553.091ZM556.831 23.4612V31.1962H558.701V23.4612H556.831ZM560.571 30.4142V30.7202C560.435 34.2732 560.265 35.5822 560.01 35.8882C559.874 36.0752 559.721 36.1092 559.5 36.1092C559.245 36.1092 558.769 36.0922 558.225 36.0412C558.48 36.5172 558.667 37.2482 558.701 37.7752C559.415 37.7922 560.078 37.7752 560.469 37.7242C560.928 37.6392 561.268 37.5202 561.591 37.1122C562.016 36.5512 562.22 34.9872 562.39 31.1452C562.407 30.9242 562.424 30.4142 562.424 30.4142H560.571ZM552.547 32.6922C552.36 34.0862 551.969 35.5822 551.323 36.5342L552.785 37.2652C553.499 36.2452 553.839 34.5792 554.043 33.1172L552.547 32.6922ZM554.417 33.0322C554.655 34.1542 554.791 35.5992 554.723 36.5342L556.134 36.2962C556.168 35.3612 556.032 33.9332 555.76 32.8282L554.417 33.0322ZM556.304 32.9132C556.678 33.8652 557.001 35.1062 557.069 35.9392L558.378 35.5312C558.276 34.7322 557.936 33.4912 557.528 32.5562L556.304 32.9132ZM558.157 32.6752C558.565 33.4062 558.939 34.3922 559.075 35.0552L560.248 34.6302C560.078 33.9842 559.687 33.0152 559.262 32.2842L558.157 32.6752ZM570.363 31.8932H572.573C572.301 29.5472 576.024 29.2412 576.024 26.7592C576.024 24.4982 574.222 23.3422 571.757 23.3422C569.938 23.3422 568.442 24.1752 567.354 25.4332L568.748 26.7082C569.581 25.8412 570.431 25.3652 571.468 25.3652C572.811 25.3652 573.627 25.9432 573.627 26.9802C573.627 28.6292 570.006 29.2242 570.363 31.8932ZM571.485 36.4322C572.335 36.4322 572.981 35.8032 572.981 34.9192C572.981 34.0352 572.335 33.4232 571.485 33.4232C570.618 33.4232 569.972 34.0352 569.972 34.9192C569.972 35.8032 570.601 36.4322 571.485 36.4322Z" fill="#1F363D"/>
</svg>
