<svg width="366" height="1272" viewBox="0 0 366 1272" fill="none" xmlns="http://www.w3.org/2000/svg">
<path d="M319.143 735.387C319.045 735.387 319.045 735.387 319.143 735.387L108.931 735.29V735.387C88.0182 735.387 71.0513 752.094 71.0513 772.686C71.0513 790.558 83.7765 805.419 100.842 809.11L91.6681 829.702L138.524 809.985H319.045H319.143C340.056 809.985 357.023 793.278 357.023 772.686C357.023 752.094 340.056 735.387 319.143 735.387Z" stroke="#F0CC67" stroke-width="4" stroke-miterlimit="10" stroke-linecap="round" stroke-linejoin="round"/>
<path d="M127.675 771.378C127.257 771.928 126.641 772.588 126.003 773.204C125.827 772.368 125.673 771.488 125.563 770.608C126.817 770.234 128.027 769.838 129.083 769.376L127.081 767.55C125.321 768.43 122.505 769.266 119.843 769.838C120.437 769.09 120.943 768.232 121.427 767.264H129.369V764.888H122.439C122.703 764.184 122.923 763.458 123.077 762.71L120.569 762.226C120.085 764.36 119.249 766.384 118.083 767.924V765.658H114.167L115.641 765.13C115.443 764.338 114.981 763.106 114.519 762.204L112.253 762.908C112.649 763.744 113.023 764.844 113.221 765.658H109.459V768.078H111.527V771.07C111.527 774.062 111.219 777.912 108.909 781.344C109.525 781.696 110.361 782.312 110.801 782.796C113.089 779.584 113.705 775.844 113.837 772.588H115.421C115.289 777.736 115.113 779.606 114.805 780.068C114.629 780.332 114.497 780.398 114.189 780.398C113.881 780.398 113.287 780.398 112.627 780.332C112.957 780.948 113.199 781.894 113.243 782.576C114.101 782.598 114.893 782.598 115.421 782.488C116.015 782.4 116.455 782.18 116.851 781.564C117.445 780.794 117.621 778.22 117.797 771.246C117.797 770.938 117.819 770.212 117.819 770.212H113.859V768.078H117.951C117.709 768.386 117.445 768.65 117.181 768.914C117.775 769.244 118.809 770.058 119.271 770.498L119.359 770.41V778.506C119.359 779.628 118.809 780.398 118.369 780.794C118.765 781.168 119.447 782.092 119.667 782.62C120.129 782.246 120.855 781.894 124.859 780.2C124.727 779.65 124.595 778.572 124.573 777.846L121.867 778.924V771.51C122.351 771.4 122.857 771.312 123.319 771.202C123.979 776.108 125.167 780.156 127.917 782.356C128.291 781.674 129.105 780.684 129.677 780.2C128.291 779.21 127.323 777.538 126.641 775.536C127.565 774.81 128.643 773.886 129.523 773.006L127.675 771.378ZM138.521 769.09C138.521 771.466 138.323 775.008 136.497 777.45C136.981 777.758 137.729 778.484 138.059 778.924C139.819 776.724 140.391 773.622 140.545 771.048H141.887C141.733 775.206 141.557 776.702 141.293 777.12C141.139 777.34 140.985 777.406 140.743 777.406C140.457 777.406 139.995 777.406 139.467 777.34C139.753 777.912 139.973 778.792 140.017 779.43C140.765 779.452 141.469 779.43 141.909 779.364C142.459 779.254 142.855 779.078 143.207 778.55C143.735 777.846 143.911 775.668 144.109 769.838C144.109 769.552 144.131 768.936 144.131 768.936H140.589V767.22H143.625L143.537 767.33C143.955 767.594 144.637 768.122 145.077 768.496V769.816H148.069C147.717 770.234 147.299 770.63 146.903 770.938V772.17H144.461V774.238H146.903V776.878C146.903 777.098 146.837 777.164 146.573 777.164C146.331 777.164 145.517 777.164 144.725 777.142C145.055 777.758 145.363 778.66 145.429 779.298C146.683 779.298 147.607 779.254 148.267 778.902C148.993 778.55 149.125 777.956 149.125 776.922V774.238H151.677V772.17H149.125V771.444C150.005 770.652 150.863 769.728 151.567 768.848L150.181 767.77L149.763 767.902H145.869C146.111 767.484 146.353 767.066 146.573 766.604H151.721V764.47H147.541C147.761 763.898 147.981 763.326 148.135 762.754L145.957 762.138C145.539 763.612 144.945 765.13 144.197 766.34V765.086H142.063L142.239 765.042C142.085 764.272 141.689 763.106 141.359 762.204L139.071 762.622C139.335 763.37 139.599 764.338 139.775 765.086H136.827V767.22H138.521V769.09ZM136.431 765.614C135.881 764.712 134.825 763.326 133.923 762.27L131.921 763.37C132.779 764.448 133.835 765.988 134.341 766.912L136.431 765.614ZM136.035 772.61L135.617 772.676H134.429C135.529 771.158 136.827 769.09 137.597 767.88L135.991 767.22L135.661 767.352H131.437V769.442H134.165C133.417 770.608 132.603 771.818 132.229 772.192C131.833 772.632 131.481 772.808 131.107 772.896C131.349 773.38 131.833 774.48 131.965 775.03C132.141 774.854 132.801 774.7 133.307 774.7H134.583C133.967 777.648 132.757 779.848 130.953 781.124C131.437 781.454 132.317 782.334 132.647 782.862C133.637 782.092 134.517 781.014 135.243 779.65C136.915 781.982 139.489 782.422 143.559 782.422C146.133 782.422 148.927 782.356 151.215 782.224C151.347 781.498 151.677 780.332 152.051 779.804C149.565 780.046 145.957 780.178 143.603 780.178C139.907 780.156 137.421 779.848 136.145 777.45C136.585 776.174 136.915 774.7 137.135 773.072L136.035 772.61ZM158.013 762.336C156.913 765.46 154.999 768.584 152.997 770.564C153.459 771.224 154.207 772.72 154.449 773.358C154.889 772.874 155.351 772.324 155.813 771.774V782.774H158.453V767.704C159.267 766.23 159.993 764.668 160.565 763.128L158.013 762.336ZM168.133 779.628V775.206H172.885V772.742H168.133V768.87H173.501V766.384H166.351L168.617 765.57C168.309 764.624 167.539 763.194 166.879 762.16L164.459 762.974C165.097 764.052 165.757 765.46 166.021 766.384H160.103V768.87H165.471V772.742H160.829V775.206H165.471V779.628H159.619V782.114H173.809V779.628H168.133ZM178.649 766.318H192.201V767.748H194.885V764.118H187.185C186.899 763.436 186.569 762.666 186.261 762.05L183.467 762.82C183.643 763.194 183.841 763.656 183.995 764.118H176.097V768.254H178.649V766.318ZM180.123 766.89C179.001 769.464 177.043 771.972 174.975 773.534C175.437 774.106 176.207 775.404 176.471 775.976C177.043 775.514 177.593 774.986 178.143 774.392V782.818H180.629V771.202C181.377 770.08 182.015 768.892 182.565 767.704L180.123 766.89ZM191.629 775.822H185.579V774.194H191.629V775.822ZM185.579 779.672V777.934H191.629V779.672H185.579ZM195.215 770.454V768.144H182.433V770.454H187.031C186.943 770.96 186.833 771.466 186.723 771.972H183.093V782.818H185.579V781.894H191.629V782.708H194.225V771.972H189.407C189.605 771.488 189.781 770.982 189.979 770.454H195.215ZM213.695 768.474C213.365 769.134 212.969 769.816 212.485 770.476L210.153 770.608C210.725 769.53 211.429 768.276 212.001 767.22H217.567V764.844H213.541C213.365 764.03 212.903 762.952 212.485 762.094L210.197 762.798C210.461 763.414 210.747 764.162 210.945 764.844H206.127V767.22H209.449C208.855 768.342 208.063 769.75 207.733 770.124C207.403 770.564 206.721 770.74 206.215 770.828C206.391 771.4 206.633 772.544 206.721 773.138C207.139 772.962 207.777 772.83 210.615 772.61C209.207 773.974 207.491 775.184 205.643 776.02C206.039 776.482 206.699 777.318 206.985 777.846C210.879 775.954 214.091 772.698 215.983 769.2L213.695 768.474ZM205.753 765.878H201.661L203.047 765.086C202.717 764.272 202.079 763.062 201.507 762.16L199.593 763.106C200.077 763.942 200.605 765.042 200.935 765.878H197.327V767.946H205.753V765.878ZM204.829 770.916V768.936H198.229V770.916H204.829ZM204.873 771.884H198.229V773.864H204.873V771.884ZM202.761 779.474H200.429V777.01H202.761V779.474ZM214.949 772.676C213.299 776.064 209.603 779.122 204.895 780.706V774.92H198.251V782.51H200.429V781.586H204.895V781.344C205.269 781.828 205.687 782.444 205.907 782.84C208.349 782.004 210.549 780.794 212.441 779.32C213.695 780.508 215.037 781.85 215.719 782.774L217.787 781.168C216.995 780.222 215.521 778.858 214.223 777.758C215.499 776.46 216.599 775.03 217.435 773.512L214.949 772.676ZM226.917 766.67V775.052H228.325L227.555 775.8C228.721 776.746 230.371 778.088 231.119 778.902L232.835 777.076C232.109 776.372 230.657 775.294 229.557 774.458V773.424H238.291V771.29H229.557V769.97H237.697V767.924H229.557V766.67H238.951V764.426H226.125C226.323 763.898 226.521 763.348 226.697 762.82L224.035 762.204C223.199 765.108 221.549 767.836 219.525 769.508C220.163 769.926 221.241 770.85 221.681 771.334C222.935 770.146 224.123 768.518 225.091 766.67H226.917ZM221.879 781.982C222.539 780.486 223.199 778.242 223.661 776.592L221.351 775.668C220.933 777.362 220.163 779.43 219.415 780.86L221.879 781.982ZM239.875 781.08C239.347 779.584 238.203 777.23 237.323 775.426L234.859 776.108C235.233 776.988 235.673 778 236.091 778.99C235.365 778.836 234.287 778.462 233.737 778.066C233.627 779.848 233.429 780.134 232.373 780.134H228.435C227.115 780.134 226.873 780.024 226.873 779.364V775.954H224.277V779.408C224.277 781.718 225.069 782.466 228.215 782.466H232.571C234.969 782.466 235.783 781.762 236.113 779.034C236.553 780.112 236.949 781.168 237.191 781.916L239.875 781.08ZM260.423 772.94C260.159 772.94 260.137 772.808 260.137 772.456V770.234H258.663V772.434C258.663 773.534 258.861 774.04 260.005 774.04H260.775C261.105 774.04 261.479 774.018 261.677 773.952C261.633 773.6 261.611 773.182 261.589 772.852C261.369 772.918 260.951 772.94 260.731 772.94H260.423ZM258.091 774.216V769.574H261.215V767.616H258.091V766.604H256.133V767.616H253.493V769.574H256.133V774.216H258.091ZM261.369 766.142V763.876H253.867C253.713 763.304 253.493 762.622 253.273 762.072L250.633 762.556C250.743 762.93 250.875 763.414 250.985 763.876H242.735V769.926C242.735 773.204 242.625 777.912 241.195 781.19C241.723 781.432 242.845 782.268 243.285 782.73C244.913 779.166 245.221 773.512 245.221 769.926V766.142H261.369ZM250.259 774.172V769.574H252.921V767.616H250.259V766.604H248.301V767.616H245.903V769.574H248.301V774.172H250.259ZM247.707 770.256H246.277V771.114C246.277 771.862 246.145 772.962 245.309 773.578C245.683 773.776 246.299 774.282 246.563 774.59C247.553 773.644 247.707 772.302 247.707 771.18V770.256ZM255.869 778.11C256.243 778.572 256.683 779.078 257.101 779.584L250.963 780.024C253.317 778.88 255.759 777.472 258.025 775.822L256.089 774.524C255.187 775.272 254.175 775.954 253.163 776.592L249.885 776.746C251.073 776.13 252.305 775.36 253.361 774.568L252.019 773.71H252.041H252.437C252.723 773.71 253.031 773.688 253.207 773.622L253.185 773.402C253.559 773.622 254.087 774.04 254.329 774.348C255.341 773.446 255.495 772.17 255.495 771.114V770.212H254.065V771.048C254.065 771.73 253.933 772.654 253.185 773.27C253.163 773.028 253.163 772.808 253.141 772.588C252.943 772.654 252.613 772.654 252.437 772.654C252.217 772.654 252.195 772.544 252.195 772.214V770.344H250.809V772.192C250.809 772.962 250.919 773.402 251.403 773.6C250.061 774.788 248.279 775.8 247.707 776.064C247.179 776.372 246.717 776.57 246.277 776.614C246.497 777.164 246.783 778.154 246.871 778.55C247.223 778.418 247.751 778.308 250.589 778.132C249.511 778.748 248.587 779.188 248.103 779.386C246.981 779.936 246.233 780.244 245.485 780.354C245.705 780.948 246.013 782.026 246.101 782.444C246.893 782.18 248.125 782.158 258.465 781.41C258.795 781.828 259.081 782.246 259.301 782.576L261.303 781.498C260.489 780.376 258.883 778.506 257.739 777.23L255.869 778.11ZM283.479 772.874H274.833V766.208H282.203V763.612H264.691V766.208H272.105V772.874H263.547V775.514H272.105V782.796H274.833V775.514H283.479V772.874ZM266.033 767.616C266.737 769.09 267.419 771.004 267.639 772.192L270.191 771.4C269.949 770.168 269.157 768.32 268.431 766.912L266.033 767.616ZM278.881 772.148C279.629 771.026 280.509 769.244 281.301 767.55L278.507 766.846C278.089 768.276 277.297 770.212 276.593 771.488L278.881 772.148ZM294.259 762.578V765.02H297.757C298.527 766.868 299.649 768.716 301.079 770.278H289.683C291.113 768.408 292.323 766.12 293.137 763.656L290.387 762.996C289.375 766.296 287.417 769.244 284.931 771.026C285.547 771.466 286.669 772.434 287.131 772.962C287.703 772.478 288.253 771.972 288.781 771.378V772.83H292.499C292.059 776.02 290.915 778.924 285.943 780.53C286.581 781.124 287.351 782.202 287.681 782.95C293.379 780.816 294.809 777.054 295.359 772.83H299.693C299.495 777.406 299.253 779.364 298.813 779.848C298.593 780.112 298.329 780.156 297.933 780.156C297.383 780.156 296.239 780.134 295.029 780.046C295.491 780.794 295.843 781.894 295.887 782.686C297.185 782.73 298.461 782.73 299.209 782.62C300.067 782.51 300.661 782.29 301.211 781.564C301.981 780.662 302.245 778.132 302.487 771.642C303.015 772.104 303.587 772.544 304.159 772.918C304.577 772.17 305.479 771.048 306.007 770.498C302.949 768.914 300.705 765.79 299.693 762.578H294.259ZM315.797 775.228H318.635C318.305 772.17 323.101 771.796 323.101 768.562C323.101 765.636 320.769 764.162 317.579 764.162C315.225 764.162 313.289 765.218 311.903 766.846L313.707 768.518C314.785 767.374 315.863 766.78 317.227 766.78C318.943 766.78 319.999 767.528 319.999 768.848C319.999 770.982 315.335 771.774 315.797 775.228ZM317.227 781.08C318.349 781.08 319.163 780.288 319.163 779.144C319.163 777.978 318.349 777.186 317.227 777.186C316.127 777.186 315.291 777.978 315.291 779.144C315.291 780.288 316.105 781.08 317.227 781.08Z" fill="#40798C"/>
<path d="M275.463 1220.29L273.808 1212.08H240.512H217.147L213.964 1220.29L199.895 1257.09H229.434H282.912L275.463 1220.29Z" fill="white" stroke="#D2D5DA" stroke-width="3" stroke-miterlimit="10" stroke-linecap="round" stroke-linejoin="round"/>
<path d="M199.894 1257.09L213.964 1220.29H178.567L156.603 1257.09L148.899 1270H194.928H226.251L229.434 1257.09H199.894Z" fill="white" stroke="#D2D5DA" stroke-width="3" stroke-miterlimit="10" stroke-linecap="round" stroke-linejoin="round"/>
<path d="M77.8101 1204.5L22.8047 1240.99H31.5266H100.665L123.648 1210.27L127.977 1204.5H77.8101ZM98.8191 1237.41H78.1284L79.147 1236.1C79.2744 1234.78 76.7915 1234.59 74.1176 1234.59H58.0107C55.3368 1234.59 53.2996 1235.09 50.944 1236.54L49.4161 1237.48H34.6461L78.956 1208.14H120.91L98.8191 1237.41Z" fill="white" stroke="#D2D5DA" stroke-width="3" stroke-miterlimit="10" stroke-linecap="round" stroke-linejoin="round"/>
<path d="M101.301 1245.88L100.665 1246.75C100.919 1246.44 101.11 1246.19 101.301 1245.88Z" stroke="#1F363D" stroke-width="3" stroke-miterlimit="10" stroke-linecap="round" stroke-linejoin="round"/>
<path d="M100.665 1240.99H31.5261H22.8042C22.8042 1240.99 20.385 1242.55 22.8042 1246.75H100.665L101.302 1245.88C102.766 1243.37 100.665 1240.99 100.665 1240.99Z" fill="#D2D5DA" stroke="#D2D5DA" stroke-width="3" stroke-miterlimit="10" stroke-linecap="round" stroke-linejoin="round"/>
<path d="M127.976 1204.5L123.647 1210.27L100.665 1240.99C100.665 1240.99 102.765 1243.43 101.301 1245.88L127.976 1210.27C127.976 1210.27 130.459 1207.45 127.976 1204.5Z" fill="#1F363D" stroke="#1F363D" stroke-width="3" stroke-miterlimit="10" stroke-linecap="round" stroke-linejoin="round"/>
<path d="M34.646 1237.41H49.416L50.9439 1236.47C53.2358 1235.03 55.3367 1234.53 58.0106 1234.53H74.1175C76.7913 1234.53 79.2742 1234.78 79.1469 1236.04L78.1283 1237.35H98.819L120.847 1208.01H78.8922L34.646 1237.41Z" fill="#1F363D" stroke="white" stroke-width="3" stroke-miterlimit="10" stroke-linecap="round" stroke-linejoin="round"/>
<path d="M192 1074.42C230.606 1074.42 261.903 1043.6 261.903 1005.59C261.903 967.571 230.606 936.755 192 936.755C153.394 936.755 122.097 967.571 122.097 1005.59C122.097 1043.6 153.394 1074.42 192 1074.42Z" fill="#1F363D"/>
<path d="M312.261 1166.38L188.562 1188.82L125.281 1025.58L259.42 987.406L312.261 1166.38Z" fill="#1F363D"/>
<path d="M344.347 1159.86C344.093 1157.1 343.774 1154.28 343.456 1151.46C336.962 1101 314.553 1062.25 293.416 1064.95C274.317 1067.33 262.794 1102.88 265.659 1147.01C265.977 1151.58 266.423 1156.29 266.996 1161.05C267.123 1162.18 267.314 1163.31 267.442 1164.43C269.606 1179.23 273.108 1192.96 277.5 1204.81H339.445C342.819 1202.61 343.838 1199.1 343.902 1195.59C344.029 1195.72 344.156 1195.9 344.347 1196.03C345.493 1185.06 345.493 1172.77 344.347 1159.86ZM343.392 1190.45C343.392 1190.39 343.329 1190.32 343.329 1190.26C343.329 1190.32 343.329 1190.39 343.392 1190.45ZM343.138 1189.57C343.138 1189.51 343.074 1189.45 343.074 1189.32C343.138 1189.38 343.138 1189.45 343.138 1189.57ZM342.947 1188.63C342.947 1188.57 342.947 1188.51 342.883 1188.44C342.883 1188.51 342.883 1188.57 342.947 1188.63ZM342.374 1186.94C342.374 1186.88 342.31 1186.81 342.31 1186.81C342.374 1186.81 342.374 1186.88 342.374 1186.94ZM342.119 1186.25C342.119 1186.19 342.055 1186.12 342.055 1186.06C342.119 1186.12 342.119 1186.19 342.119 1186.25ZM341.928 1185.62C341.928 1185.56 341.928 1185.56 341.864 1185.5C341.864 1185.56 341.928 1185.62 341.928 1185.62ZM341.482 1184.62C341.482 1184.56 341.482 1184.56 341.419 1184.56C341.482 1184.56 341.482 1184.62 341.482 1184.62ZM341.355 1184.31V1184.24C341.355 1184.31 341.355 1184.31 341.355 1184.31ZM343.965 1194.4C343.965 1194.46 343.965 1194.59 343.965 1194.65C343.965 1194.59 343.965 1194.46 343.965 1194.4ZM343.711 1192.39C343.711 1192.46 343.711 1192.52 343.711 1192.58C343.774 1192.52 343.711 1192.46 343.711 1192.39ZM343.838 1193.33C343.838 1193.4 343.838 1193.52 343.838 1193.58C343.838 1193.52 343.838 1193.46 343.838 1193.33Z" fill="#CFE0C3"/>
<path d="M155.943 1167.17C207.141 1149.82 242.013 1116.78 233.832 1093.37C225.651 1069.95 177.515 1065.03 126.317 1082.37C75.1193 1099.71 40.2471 1132.75 48.428 1156.17C56.6089 1179.59 104.745 1184.51 155.943 1167.17Z" fill="#CFE0C3"/>
<path d="M199.131 1077.74C191.555 1099.37 220.84 1129.27 265.659 1147.01C262.794 1102.88 274.317 1067.33 293.416 1064.95C295.581 1064.7 297.746 1064.82 299.91 1065.39C299.91 1065.39 299.91 1065.33 299.846 1065.33C251.526 1050.09 207.025 1055.36 199.131 1077.74Z" fill="#CFE0C3"/>
<path d="M151.319 1120.05V1204.87H339.509L315.635 1104.07L151.319 1120.05Z" fill="#CFE0C3"/>
<path d="M341.228 1184.06C322.511 1158.1 291.506 1157.85 267.441 1164.43C252.671 1168.51 240.575 1175.09 235.673 1179.98C229.18 1186.38 233.509 1192.21 235.928 1196.78C238.347 1201.36 238.92 1204.81 238.92 1204.81H277.564H339.509C348.422 1199.04 341.228 1184.06 341.228 1184.06Z" fill="#F2DFD7"/>
<path d="M224.203 1082.78C237.172 1077.34 245.582 1068.07 242.989 1062.08C240.395 1056.09 227.779 1055.66 214.81 1061.1C201.842 1066.55 193.431 1075.82 196.025 1081.81C198.619 1087.8 211.235 1088.23 224.203 1082.78Z" fill="#ECB1A9"/>
<path d="M227.478 1026.37L180.573 1046.07L196.061 1081.82L242.966 1062.11L227.478 1026.37Z" fill="#ECB1A9"/>
<path d="M251.584 1166.45C251.584 1166.45 251.584 1166.45 251.583 1166.46L242.482 1209.76L242.482 1209.76L242.48 1209.77C242.331 1210.5 241.55 1212.56 240.532 1214.43C240.029 1215.35 239.52 1216.13 239.07 1216.64C239.044 1216.66 239.02 1216.69 238.996 1216.72C238.987 1216.69 238.979 1216.67 238.97 1216.64C238.766 1216 238.617 1215.08 238.529 1214.03C238.351 1211.9 238.458 1209.7 238.606 1209L238.606 1209L247.709 1165.62C247.709 1165.62 247.709 1165.62 247.709 1165.62C247.913 1164.65 248.938 1163.93 250.085 1164.15C251.11 1164.36 251.8 1165.38 251.584 1166.45ZM238.574 1217.08C238.574 1217.08 238.575 1217.08 238.578 1217.08C238.575 1217.08 238.574 1217.08 238.574 1217.08ZM239.233 1217.23C239.233 1217.23 239.232 1217.23 239.23 1217.23C239.232 1217.23 239.233 1217.23 239.233 1217.23Z" fill="white" stroke="#D2D5DA" stroke-width="3"/>
<path d="M241.212 1180.29C241.212 1180.29 243.631 1182.99 241.721 1186.25" stroke="#ECB1A9" stroke-width="3" stroke-miterlimit="10" stroke-linecap="round" stroke-linejoin="round"/>
<path d="M102.106 940.712C91.0236 941.81 81.35 953.941 77.0118 963.135C75.7178 965.918 74.9452 970.071 78.1582 971.994C79.5582 972.857 81.3176 972.713 82.9253 972.438C92.4848 970.766 100.875 963.665 103.935 954.555C104.048 954.126 104.217 953.666 104.046 953.255C103.145 950.505 96.0594 957.071 95.0674 958.008C92.069 960.903 88.1526 964.983 87.4994 969.213C87.3501 969.954 87.3751 970.739 87.652 971.451C88.0255 972.325 88.8705 973 89.7287 973.449C92.2936 974.656 95.3993 974.17 97.8701 972.742C100.286 971.346 102.164 969.171 103.867 966.951C104.365 966.3 104.898 965.337 104.48 964.634C102.491 961.422 96.5943 970.354 96.0571 971.682C95.6656 972.635 95.3933 973.665 95.6893 974.656C95.9947 975.788 97.1334 976.584 98.3436 976.757C100.938 977.147 102.854 975.531 103.999 973.489C104.177 973.168 104.377 972.761 104.239 972.405C104.027 971.801 103.055 971.781 102.483 972.184C99.6699 974.028 102.268 977.397 104.921 977.39C106.319 977.382 107.646 976.76 108.725 975.846" stroke="#1F363D" stroke-width="3" stroke-miterlimit="10" stroke-linecap="round" stroke-linejoin="round"/>
<path d="M235.673 1014.67C235.673 981.262 210.78 954.244 180.094 954.244C149.409 954.244 124.516 981.325 124.516 1014.67C124.516 1026.27 127.572 1037.87 133.62 1047.9C138.777 1056.42 146.607 1065.39 152.592 1069.34C161.314 1075.17 174.492 1075.98 179.84 1075.54C211.099 1072.91 235.673 1047.65 235.673 1014.67Z" fill="#F2DFD7"/>
<path d="M241.912 995.179C241.912 987.594 237.774 981.451 232.681 981.451C227.588 981.451 221.413 983.77 221.413 991.355C221.413 998.94 227.588 1008.91 232.681 1008.91C237.774 1008.91 241.912 1002.76 241.912 995.179Z" fill="#F2DFD7"/>
<path d="M192.573 986.403C192.319 988.973 189.899 990.854 187.162 990.603C185.761 990.477 184.615 989.851 183.788 988.91" stroke="#1F363D" stroke-width="3" stroke-miterlimit="10" stroke-linecap="round" stroke-linejoin="round"/>
<path d="M141.196 1026.02L157.24 1033.61" stroke="#1F363D" stroke-width="3" stroke-miterlimit="10" stroke-linecap="round" stroke-linejoin="round"/>
<path d="M152.783 1022.01L145.08 1037.87" stroke="#1F363D" stroke-width="3" stroke-miterlimit="10" stroke-linecap="round" stroke-linejoin="round"/>
<path d="M188.753 1009.47L204.796 1017.06" stroke="#1F363D" stroke-width="3" stroke-miterlimit="10" stroke-linecap="round" stroke-linejoin="round"/>
<path d="M200.34 1005.46L192.636 1021.26" stroke="#1F363D" stroke-width="3" stroke-miterlimit="10" stroke-linecap="round" stroke-linejoin="round"/>
<path d="M184.87 1048.34C186.276 1048.34 187.416 1047.24 187.416 1045.89C187.416 1044.54 186.276 1043.45 184.87 1043.45C183.463 1043.45 182.323 1044.54 182.323 1045.89C182.323 1047.24 183.463 1048.34 184.87 1048.34Z" stroke="#E07D5C" stroke-width="3" stroke-miterlimit="10" stroke-linecap="round" stroke-linejoin="round"/>
<path d="M181.686 965.716C181.686 965.716 166.407 999.316 125.153 1024.89C125.153 1024.89 111.402 979.758 148.072 958.194C184.742 936.629 229.18 954.182 232.681 981.513C232.681 981.513 222.431 982.955 221.413 991.418C221.413 991.355 183.278 977.188 181.686 965.716Z" fill="#1F363D"/>
<path d="M130.055 994.239C106.945 985.275 72.5666 1017.37 53.2129 1065.83C33.8591 1114.28 36.9149 1160.86 60.0249 1169.76C60.4068 1169.89 60.7888 1170.01 61.1071 1170.14C61.2981 1169.76 61.4891 1169.39 61.6801 1169.01C62.3168 1167.63 63.0171 1166.25 63.6537 1164.94C64.736 1162.68 65.8183 1160.49 66.9006 1158.23C68.3648 1155.28 69.7654 1152.27 71.2297 1149.33C72.9486 1145.75 74.7312 1142.18 76.4501 1138.61C78.4237 1134.53 80.3973 1130.46 82.3708 1126.45C84.5354 1122.06 86.6363 1117.61 88.8008 1113.22C91.0291 1108.58 93.321 1103.94 95.5492 1099.3C97.8411 1094.6 100.133 1089.84 102.425 1085.14C104.717 1080.43 107.009 1075.79 109.237 1071.09C111.465 1066.58 113.63 1062.07 115.858 1057.55C117.895 1053.35 119.996 1049.09 122.033 1044.89C123.88 1041.07 125.726 1037.3 127.572 1033.48C129.164 1030.22 130.755 1027.02 132.283 1023.76C133.556 1021.19 134.766 1018.69 136.039 1016.12C136.867 1014.36 137.758 1012.67 138.586 1010.91C140.05 1007.84 140.496 1004.39 138.968 1001.07C138.077 999.191 137.249 997.937 135.466 996.809C133.811 995.681 131.901 994.928 130.055 994.239Z" fill="#F2DFD7"/>
<path d="M108.664 1015.43C108.664 1015.43 117.386 998.564 135.53 1004.21" stroke="#ECB1A9" stroke-width="3" stroke-miterlimit="10" stroke-linecap="round" stroke-linejoin="round"/>
<path d="M254.772 1180.23C254.772 1180.23 237.137 1182.86 236.692 1198.66C236.246 1214.4 247.451 1205.93 247.451 1205.93C247.451 1205.93 254.963 1210.13 270.561 1204.18" fill="#F2DFD7"/>
<path d="M254.772 1180.23C254.772 1180.23 237.137 1182.86 236.692 1198.66C236.246 1214.4 247.451 1205.93 247.451 1205.93C247.451 1205.93 254.963 1210.13 270.561 1204.18" stroke="#ECB1A9" stroke-width="3" stroke-miterlimit="10" stroke-linecap="round" stroke-linejoin="round"/>
<path d="M234.53 1036.1C234.53 1036.1 219.962 1135.03 284.681 1127.73C284.681 1127.73 295.865 1124.38 288.859 1119.13C281.852 1113.88 275.68 1110.82 274.895 1089.95C274.187 1069.08 259.257 1043.25 259.002 1025.23L234.53 1036.1Z" fill="#20363D"/>
<path d="M345.407 384.165C334.035 400.665 311.231 404.963 294.474 393.765C277.717 382.567 273.352 360.113 284.725 343.613C296.098 327.113 318.901 322.815 335.658 334.013C352.415 345.211 356.78 367.665 345.407 384.165Z" fill="#70A9A1"/>
<path d="M286.68 384.349L295.068 393.305L283.004 395.996L286.68 384.349Z" fill="#70A9A1"/>
<path d="M337.744 376.526C337.169 375.152 335.565 374.498 334.166 375.071L332.651 375.691L329.999 368.826C333.282 366.469 334.44 362.07 332.363 358.533L326.427 348.395C325.879 347.459 324.707 347.068 323.685 347.479L315.851 350.672L308.016 347.479C306.994 347.062 305.822 347.459 305.274 348.395L299.338 358.533C297.267 362.07 298.419 366.469 301.702 368.82L299.05 375.684L297.535 375.064C296.136 374.492 294.539 375.145 293.957 376.519C293.84 376.795 293.97 377.112 294.251 377.226L305.377 381.767C305.658 381.881 305.973 381.753 306.089 381.477C306.665 380.103 306.007 378.527 304.609 377.954L303.094 377.334L305.795 370.355C306.096 370.389 306.398 370.443 306.693 370.443C310.237 370.443 313.506 368.213 314.466 364.697L315.851 359.618L317.235 364.697C318.195 368.213 321.465 370.443 325.008 370.443C325.303 370.443 325.605 370.389 325.906 370.355L328.6 377.334L327.085 377.954C325.687 378.527 325.022 380.103 325.605 381.477C325.721 381.753 326.043 381.881 326.318 381.767L337.45 377.226C337.724 377.112 337.861 376.802 337.744 376.526ZM312.828 358.237L305.144 355.105L307.645 350.834L314.123 353.474L312.828 358.237ZM318.873 358.237L317.578 353.474L324.056 350.834L326.558 355.105L318.873 358.237Z" fill="#1F363D"/>
<path d="M279.192 957.237C279.192 937.656 295.312 921.783 315.198 921.783C335.083 921.783 351.203 937.656 351.203 957.237C351.203 976.817 335.083 992.69 315.198 992.69C295.312 992.69 279.192 976.817 279.192 957.237Z" fill="#F0CC67"/>
<path d="M294.857 984.735L285.918 976.619L283.252 988.288L294.857 984.735Z" fill="#F0CC67"/>
<path fill-rule="evenodd" clip-rule="evenodd" d="M315.484 942.913L297.903 958.029C297.825 958.098 297.734 958.144 297.643 958.191C297.582 958.222 297.521 958.254 297.463 958.292V972.796C297.463 973.489 298.039 974.05 298.75 974.05H301.306V972.852C301.306 970.145 303.592 967.948 306.41 967.948H306.778C307.704 968.374 308.723 968.629 309.813 968.629C310.903 968.629 311.926 968.374 312.848 967.948H313.216C316.034 967.948 318.32 970.145 318.32 972.852V974.051H319.738V972.852C319.738 971.209 319.06 969.723 317.979 968.604C318.71 968.199 319.543 967.948 320.447 967.948H320.615C321.231 968.153 321.882 968.289 322.573 968.289C323.265 968.289 323.916 968.153 324.532 967.948H324.7C327.443 967.948 329.663 970.081 329.663 972.715C329.663 973.226 329.468 973.692 329.146 974.05H332.218C332.929 974.05 333.505 973.489 333.505 972.796V958.295C333.449 958.258 333.389 958.227 333.329 958.197C333.242 958.152 333.155 958.108 333.082 958.044L315.484 942.913ZM338.227 952.427L333.505 948.362V937.661C333.505 936.968 332.929 936.407 332.218 936.407H327.069C326.358 936.407 325.782 936.968 325.782 937.661V941.715L317.636 934.706C317.022 934.168 316.253 933.898 315.484 933.897C314.715 933.896 313.947 934.165 313.336 934.703L292.742 952.427C292.213 952.891 292.169 953.684 292.644 954.2L294.366 956.068C294.84 956.583 295.655 956.626 296.184 956.163L314.633 940.299C315.12 939.881 315.849 939.881 316.336 940.299L334.785 956.162C335.313 956.625 336.128 956.582 336.603 956.067L338.325 954.199C338.799 953.684 338.756 952.89 338.227 952.427ZM314.775 961.819C314.775 964.454 312.555 966.586 309.813 966.586C307.07 966.586 304.85 964.454 304.85 961.819C304.85 959.184 307.07 957.052 309.813 957.052C312.555 957.052 314.775 959.184 314.775 961.819ZM326.827 962.5C326.827 964.756 324.922 966.586 322.573 966.586C320.225 966.586 318.32 964.756 318.32 962.5C318.32 960.244 320.225 958.414 322.573 958.414C324.922 958.414 326.827 960.244 326.827 962.5Z" fill="#1F363D"/>
<path d="M25.4164 1018.74L35.6956 1015.84L34.898 1013.1L31.6872 1014.01L27.5185 999.671L25.0007 1000.38C24.1161 1001.38 23.0654 1002.15 21.4499 1002.95L22.0598 1005.05L25.1551 1004.18L28.2916 1014.96L24.6188 1016L25.4164 1018.74ZM40.9606 1014.71C42.1848 1014.36 42.8042 1013.14 42.4423 1011.9C42.0737 1010.63 40.898 1009.94 39.6738 1010.28C38.4726 1010.62 37.8465 1011.82 38.2151 1013.09C38.577 1014.33 39.7594 1015.05 40.9606 1014.71ZM45.6297 1013.04L57.0869 1009.81L56.2559 1006.95L52.56 1008C51.7515 1008.22 50.6465 1008.63 49.8186 1008.97C52.0523 1005.05 53.6513 1001 52.7532 997.917C51.8283 994.736 49.0769 993.268 45.843 994.18C43.51 994.838 42.2468 996.166 41.1653 998.292L43.5494 999.614C44.1524 998.422 44.9342 997.329 46.1815 996.977C47.8216 996.515 49.0471 997.291 49.5498 999.019C50.3138 1001.65 48.4966 1005.62 45.06 1011.08L45.6297 1013.04ZM64.6619 1008.02C67.9189 1007.11 70.1382 1004.51 69.2267 1001.38C68.5766 999.14 66.6828 998.128 64.6114 998.139L64.5779 998.024C66.1718 996.801 66.8226 995.171 66.2864 993.328C65.442 990.424 62.7255 989.42 59.4223 990.351C57.4127 990.918 56.0072 992.187 54.9041 993.894L57.2398 995.48C57.9814 994.248 58.8138 993.415 60.038 993.07C61.4933 992.66 62.5527 993.209 62.9415 994.545C63.3838 996.066 62.6824 997.436 59.5409 998.322L60.2446 1000.74C63.9636 999.693 65.2652 1000.47 65.7477 1002.13C66.1968 1003.68 65.2667 1004.86 63.5342 1005.35C61.9866 1005.79 60.5181 1005.38 59.2135 1004.67L58.2429 1007.27C59.8395 1008.29 61.9593 1008.79 64.6619 1008.02Z" fill="#70A9A1"/>
<path d="M42.4658 448.082L48.2077 445.144C44.2962 439.339 53.6029 433.623 50.1724 427.122C47.0686 421.241 40.7868 420.693 34.3326 423.995C29.5699 426.432 26.7731 430.559 25.6958 435.266L31.1194 436.759C32.0869 433.344 33.6379 431.034 36.3976 429.622C39.8694 427.845 42.7995 428.255 44.1997 430.909C46.4634 435.198 37.8671 441.618 42.4658 448.082ZM51.5667 458.364C53.8368 457.203 54.6436 454.768 53.43 452.469C52.1932 450.125 49.7061 449.376 47.436 450.538C45.2105 451.676 44.3592 454.134 45.596 456.477C46.8096 458.777 49.2966 459.526 51.5667 458.364Z" fill="#F0CC67"/>
<path d="M330.085 871.296L299.854 863.421L298.701 867.713L328.932 875.588L330.085 871.296ZM297.171 873.407L296.018 877.698L326.249 885.574L327.402 881.282L297.171 873.407Z" fill="#1F363D"/>
<path d="M193.482 688.018C269.815 688.018 331.696 627.086 331.696 551.924C331.696 476.761 269.815 415.83 193.482 415.83C117.149 415.83 55.2681 476.761 55.2681 551.924C55.2681 627.086 117.149 688.018 193.482 688.018Z" fill="#70A9A1"/>
<path d="M82.9618 624.077L112.947 659.244L67.0459 667.268L82.9618 624.077Z" fill="#70A9A1"/>
<path d="M237.092 547.661L246.133 680.871L275.227 662.19C277.582 651.032 278.983 638.808 279.174 625.894C279.874 573.801 260.33 531.362 235.501 531.049C227.67 530.923 220.221 535.061 213.664 542.458C214.492 543.649 215.256 544.903 215.892 546.282L237.092 547.661Z" fill="white"/>
<path d="M196.729 544.903L210.862 545.843C211.817 544.589 212.772 543.461 213.727 542.332C211.945 539.825 209.844 537.756 207.297 536.189C186.352 523.087 146.371 548.162 118.041 592.106C89.7105 636.05 83.7261 682.313 104.671 695.415C111.674 699.803 120.715 699.928 130.837 696.48L122.816 695.415L196.729 544.903Z" fill="white"/>
<path d="M215.955 546.219C215.319 544.84 214.555 543.586 213.727 542.395C212.772 543.461 211.817 544.652 210.862 545.905L215.955 546.219Z" fill="white"/>
<path d="M190.172 645.265C171.901 671.594 149.682 690.212 130.901 696.606L205.77 706.824L209.144 704.63C199.403 691.277 192.464 670.089 190.172 645.265Z" fill="white"/>
<path d="M237.092 547.661L216.019 546.219C225.442 565.777 217.293 603.452 193.992 639.56C192.718 641.504 191.445 643.384 190.172 645.265C192.464 670.089 199.467 691.277 209.144 704.567L246.132 680.808L237.092 547.661Z" fill="white"/>
<path d="M190.172 645.265C189.535 638.62 189.281 631.724 189.344 624.703C189.79 591.542 198.321 562.518 210.863 545.905L196.729 544.965L122.816 695.54L130.838 696.606C149.682 690.274 171.901 671.593 190.172 645.265Z" fill="white"/>
<path d="M215.956 546.219L210.863 545.843C198.321 562.518 189.79 591.542 189.344 624.641C189.281 631.724 189.535 638.62 190.172 645.202C191.445 643.322 192.719 641.441 193.992 639.498C217.229 603.452 225.442 565.777 215.956 546.219Z" fill="white"/>
<path d="M209.144 704.63L205.77 706.824L211.499 707.576C210.672 706.636 209.908 705.633 209.144 704.63Z" fill="white"/>
<path d="M180.559 441.28C181.577 443.663 184.506 444.728 187.052 443.663C188.326 443.098 189.281 442.158 189.726 441.03" stroke="#1F363D" stroke-width="3" stroke-miterlimit="10" stroke-linecap="round" stroke-linejoin="round"/>
<path d="M217.711 553.028C230.955 550.103 240.562 542.774 239.168 536.659C237.775 530.545 225.91 527.959 212.667 530.884C199.423 533.81 189.816 541.138 191.209 547.253C192.603 553.368 204.468 555.953 217.711 553.028Z" fill="#ECB1A9"/>
<path d="M230.866 500.128L182.907 510.722L191.227 547.241L239.186 536.647L230.866 500.128Z" fill="#ECB1A9"/>
<path d="M261.221 491.681C275.163 462.532 264.722 428.868 237.984 416.456C211.245 404.044 178.204 417.585 164.325 446.734C159.486 456.89 157.322 468.236 158.404 479.394C159.359 488.923 162.479 499.893 165.98 505.786C171.137 514.374 182.278 520.455 187.18 522.21C215.574 532.553 247.47 520.455 261.221 491.681Z" fill="#F2DFD7"/>
<path d="M274.781 477.263C277.964 470.681 276.882 463.597 272.489 461.591C268.033 459.522 261.667 459.021 258.547 465.666C255.364 472.248 256.637 483.469 261.03 485.538C265.486 487.544 271.662 483.845 274.781 477.263Z" fill="#F2DFD7"/>
<path d="M181.768 463.66C183.174 463.66 184.314 462.565 184.314 461.215C184.314 459.865 183.174 458.77 181.768 458.77C180.361 458.77 179.221 459.865 179.221 461.215C179.221 462.565 180.361 463.66 181.768 463.66Z" fill="#1F363D"/>
<path d="M220.985 464.788C222.391 464.788 223.532 463.694 223.532 462.343C223.532 460.993 222.391 459.899 220.985 459.899C219.579 459.899 218.438 460.993 218.438 462.343C218.438 463.694 219.579 464.788 220.985 464.788Z" fill="#1F363D"/>
<path d="M201.249 479.269C201.631 476.699 199.722 474.317 196.984 473.878C195.647 473.69 194.31 474.003 193.292 474.755" stroke="#E07D5C" stroke-width="3" stroke-miterlimit="10" stroke-linecap="round" stroke-linejoin="round"/>
<path d="M232.508 431C232.508 431 234.355 442.472 246.069 449.493C250.207 452 257.528 465.102 257.528 465.102C257.528 465.102 266.123 456.075 272.553 461.528C272.553 461.528 275.418 403.982 202.714 410.062C202.714 410.062 157.194 413.259 155.539 459.648C155.539 459.648 158.149 460.275 169.418 452.313C169.418 452.313 169.099 457.078 181.068 451.687C181.068 451.687 184.633 454.884 192.4 449.43C192.4 449.43 195.902 452.439 205.897 448.301C215.892 444.227 232.508 431 232.508 431Z" fill="#1F363D"/>
<path d="M155.539 459.648C155.539 459.648 149.618 425.045 177.758 414.012C177.758 414.012 216.019 382.229 247.151 411.818C247.151 411.818 282.548 423.791 272.553 461.591L234.8 421.095L188.644 428.116L155.539 459.648Z" fill="#1F363D"/>
<path d="M142.87 522.272C142.87 522.272 152.737 499.204 164.07 498.953C164.07 498.953 174.892 500.645 171.964 507.416C169.035 514.186 165.088 523.652 165.088 523.652C165.088 523.652 150.255 534.622 142.87 522.272Z" fill="#F2DFD7"/>
<path d="M164.643 517.759C140.832 510.863 109.446 545.78 94.4854 595.679C79.5244 645.641 86.7184 691.716 110.529 698.612C110.911 698.737 111.293 698.8 111.675 698.925C111.802 698.549 111.993 698.11 112.12 697.734C112.629 696.292 113.202 694.913 113.712 693.471C114.603 691.152 115.494 688.833 116.386 686.513C117.532 683.442 118.741 680.37 119.887 677.235C121.288 673.537 122.752 669.776 124.153 666.077C125.744 661.877 127.336 657.614 128.991 653.414C130.71 648.838 132.493 644.262 134.211 639.686C136.058 634.859 137.904 630.095 139.687 625.268C141.533 620.378 143.443 615.489 145.289 610.536C147.135 605.647 148.981 600.82 150.828 595.93C152.61 591.229 154.393 586.527 156.175 581.888C157.831 577.5 159.486 573.112 161.205 568.724C162.733 564.775 164.197 560.825 165.725 556.876C166.998 553.491 168.271 550.168 169.545 546.783C170.563 544.15 171.582 541.455 172.601 538.822C173.301 537.004 174.001 535.186 174.638 533.431C175.847 530.234 175.975 526.786 174.129 523.589C173.046 521.771 172.155 520.643 170.245 519.64C168.463 518.887 166.553 518.323 164.643 517.759Z" fill="#F2DFD7"/>
<path d="M145.226 540.703C145.226 540.703 152.42 523.15 171.009 527.162" stroke="#ECB1A9" stroke-width="3" stroke-miterlimit="10" stroke-linecap="round" stroke-linejoin="round"/>
<path d="M165.598 499.329C165.598 499.329 170.882 499.454 172.282 504.845C173.174 508.293 171.391 509.86 171.391 509.86" stroke="#ECB1A9" stroke-width="3" stroke-miterlimit="10" stroke-linecap="round" stroke-linejoin="round"/>
<path d="M84.4901 676.107C86.2091 700.492 130.392 717.293 183.169 713.719C235.946 710.083 277.327 687.391 275.609 663.068C275.609 662.692 275.545 662.316 275.481 661.94C275.036 661.94 274.59 661.94 274.208 661.94C272.68 661.94 271.152 661.94 269.624 661.94C267.078 661.94 264.595 661.94 262.048 661.94C258.674 661.94 255.363 661.94 251.989 661.94C247.978 661.94 243.904 661.94 239.893 661.877C235.309 661.877 230.726 661.877 226.142 661.814C221.176 661.814 216.21 661.814 211.244 661.752C206.024 661.752 200.804 661.752 195.583 661.689C190.235 661.689 184.951 661.689 179.604 661.626C174.32 661.626 169.035 661.626 163.751 661.564C158.658 661.564 153.565 661.564 148.472 661.501C143.697 661.501 138.986 661.501 134.211 661.438C129.946 661.438 125.681 661.438 121.415 661.375C117.786 661.375 114.094 661.375 110.465 661.375C107.6 661.375 104.735 661.375 101.807 661.375C99.8331 661.375 97.8595 661.375 95.9496 661.375C92.5118 661.375 89.1376 662.441 86.782 665.262C85.4451 666.892 84.6812 668.146 84.4265 670.214C84.2355 672.22 84.3628 674.164 84.4901 676.107Z" fill="#F2DFD7"/>
<path d="M113.075 686.074C113.075 686.074 93.849 685.573 91.2388 667.017" stroke="#ECB1A9" stroke-width="3" stroke-miterlimit="10" stroke-linecap="round" stroke-linejoin="round"/>
<path d="M91.5571 661.877C92.7031 661.564 94.1673 661.375 96.0136 661.375C100.47 661.375 112.439 661.375 119.824 661.375" stroke="#ECB1A9" stroke-width="3" stroke-miterlimit="10" stroke-linecap="round" stroke-linejoin="round"/>
<path d="M231.058 365.573L205.02 381.934L246.083 399.173L231.058 365.573Z" fill="#40798C"/>
<path d="M47.0656 381.971L230.926 381.971L230.926 316.65L47.0656 316.65L47.0656 381.971Z" fill="#40798C"/>
<path d="M47.0062 381.997C65.3248 381.997 80.1749 367.375 80.1749 349.337C80.1749 331.3 65.3248 316.677 47.0062 316.677C28.6875 316.677 13.8374 331.3 13.8374 349.337C13.8374 367.375 28.6875 381.997 47.0062 381.997Z" fill="#40798C"/>
<path d="M230.93 381.997C249.249 381.997 264.099 367.375 264.099 349.337C264.099 331.299 249.249 316.677 230.93 316.677C212.612 316.677 197.762 331.299 197.762 349.337C197.762 367.375 212.612 381.997 230.93 381.997Z" fill="#40798C"/>
<path d="M35.2183 340.885C34.3683 343.299 32.8893 345.713 31.3593 347.243C31.6993 347.736 32.2603 348.841 32.4473 349.351C32.8213 348.943 33.2123 348.484 33.5863 347.974V356.661H35.5243V344.965C36.1533 343.843 36.6973 342.653 37.1393 341.48L35.2183 340.885ZM38.3633 348.382C37.9723 350.269 37.2583 352.19 36.2893 353.38C36.7823 353.635 37.6323 354.145 38.0233 354.468C38.9753 353.091 39.8423 350.949 40.3353 348.79L38.3633 348.382ZM45.4353 345.73C45.3503 346.478 45.2483 347.192 45.1633 347.719L46.8803 348.008C47.1183 347.022 47.4073 345.441 47.6113 344.064L46.1833 343.792L45.8603 343.86H40.0123C40.3183 343.027 40.5903 342.194 40.8113 341.327L38.8393 340.885C38.2613 343.214 37.2413 345.56 35.9493 347.005C36.4083 347.311 37.2243 347.974 37.5813 348.331C38.1423 347.617 38.7033 346.716 39.1793 345.73H41.1513V354.4C41.1513 354.621 41.0663 354.689 40.8453 354.689C40.6073 354.689 39.8933 354.689 39.1793 354.672C39.4853 355.216 39.7913 356.117 39.8763 356.712C40.9643 356.712 41.7803 356.627 42.3753 356.304C42.9873 355.964 43.1573 355.403 43.1573 354.434V345.73H45.4353ZM43.7693 348.824C44.5853 350.575 45.2993 352.904 45.4863 354.417L47.4243 353.754C47.1863 352.224 46.4553 349.963 45.5713 348.212L43.7693 348.824ZM61.8913 343.469H60.8033V342.381H61.8913V343.469ZM59.2733 343.469H58.2533V342.381H59.2733V343.469ZM56.7233 343.469H55.7033V342.381H56.7233V343.469ZM63.6083 341.276H54.0713V344.574H63.6083V341.276ZM52.9663 343.384C52.5073 342.704 51.6063 341.65 50.8583 340.834L49.3453 341.735C50.0423 342.568 50.9603 343.741 51.3853 344.455L52.9663 343.384ZM62.5543 350.133C62.1293 350.49 61.5853 350.898 61.1093 351.204C60.6843 350.932 60.2593 350.643 59.8683 350.405L58.6443 351.255C58.9673 351.476 59.3073 351.697 59.6643 351.952L57.4713 352.581V351.374C58.1683 350.983 58.7973 350.575 59.3413 350.133H62.5543ZM56.4173 348.161H61.1433V349.011H56.4173V348.161ZM64.0333 353.227C63.6083 352.887 62.9793 352.462 62.3163 352.003C62.8943 351.68 63.5403 351.238 64.0843 350.813L63.0133 349.997V347.039H54.6323V350.133H57.1143C55.9413 350.779 54.4793 351.323 53.2383 351.646C53.5443 351.935 53.9693 352.462 54.1903 352.819C54.7343 352.649 55.2953 352.428 55.8733 352.173V352.598C55.8733 353.21 55.5673 353.431 55.2953 353.55C55.4483 353.771 55.6523 354.196 55.7543 354.553C54.2753 354.349 53.2043 353.839 52.5413 352.649C52.8643 351.629 53.1193 350.473 53.2893 349.181L52.4393 348.824L52.1333 348.875H51.1643C51.9123 347.736 52.8303 346.155 53.3913 345.203V346.444H64.3563V345.152H53.4253L53.4423 345.118L52.2183 344.642L51.9463 344.761H48.8863V346.376H50.8923C50.3653 347.294 49.7533 348.246 49.4813 348.535C49.2093 348.875 48.9373 349.011 48.6823 349.079C48.8523 349.436 49.2093 350.286 49.3113 350.694C49.4473 350.558 49.9573 350.439 50.3483 350.439H51.3343C50.8583 352.7 49.9573 354.4 48.5973 355.403C48.9883 355.658 49.6513 356.338 49.9233 356.729C50.6543 356.134 51.3003 355.352 51.8443 354.315C53.1363 356.066 55.1083 356.406 58.2533 356.406C60.2423 356.406 62.4013 356.355 64.1693 356.253C64.2713 355.692 64.5433 354.791 64.8323 354.383C62.8943 354.57 60.1063 354.672 58.2873 354.672C57.5223 354.672 56.8423 354.655 56.1963 354.587C56.6893 354.383 57.6413 354.06 60.0723 353.329C60.0043 353.023 59.9023 352.513 59.8513 352.088C60.9393 352.836 62.0953 353.686 62.7583 354.23L64.0333 353.227ZM70.1703 352.309V354.298H68.2323V352.309H70.1703ZM71.9383 350.711H66.4813V356.576H68.2323V355.913H71.9383V350.711ZM66.2263 349.827H72.2443V348.297H66.2263V349.827ZM66.5663 345.883V347.379H71.9553V345.883H66.5663ZM70.4933 342.772C70.2553 342.177 69.7113 341.31 69.1843 340.698L67.5523 341.48C67.9773 342.024 68.4193 342.755 68.6743 343.35H65.7163V344.948H72.7883V343.35H69.4223L70.4933 342.772ZM76.3923 354.57C75.5933 354.57 75.4403 354.468 75.4403 353.754V349.062H78.6533V349.895H80.6933V341.667H73.3493V343.588H78.6533V347.141H73.4003V353.754C73.4003 355.896 74.0463 356.491 76.1543 356.491H78.9253C80.8463 356.491 81.4073 355.658 81.6453 352.853C81.1013 352.717 80.2343 352.377 79.7923 352.054C79.6733 354.179 79.5543 354.57 78.7893 354.57H76.3923ZM95.4153 343.571H90.9953V342.721H95.4153V343.571ZM95.4153 345.781H90.9953V344.897H95.4153V345.781ZM97.4553 341.31H89.0403V347.192H97.4553V341.31ZM86.1163 340.834C85.4023 341.973 83.9063 343.35 82.5803 344.166C82.8863 344.591 83.3793 345.424 83.5833 345.883C85.1813 344.846 86.9153 343.18 88.0373 341.616L86.1163 340.834ZM86.5583 344.54C85.5723 346.206 83.9063 347.855 82.3933 348.909C82.6993 349.402 83.2093 350.558 83.3623 351C83.8723 350.609 84.3823 350.133 84.8923 349.623V356.678H86.8473V347.447C87.4083 346.733 87.9183 346.019 88.3263 345.305L86.5583 344.54ZM98.3563 350.558H96.0443V349.589H98.0163V347.94H88.1733V349.589H93.9873V350.558H87.7653V352.275H90.1453L88.8873 353.108C89.6013 353.822 90.4683 354.825 90.8423 355.471L92.3553 354.4C91.9303 353.805 91.0973 352.921 90.4173 352.275H93.9873V354.638C93.9873 354.825 93.9193 354.893 93.6813 354.91C93.4603 354.91 92.6613 354.91 91.9473 354.876C92.2023 355.386 92.4913 356.134 92.5763 356.678C93.7323 356.678 94.5823 356.678 95.2113 356.389C95.8743 356.1 96.0443 355.624 96.0443 354.689V352.275H98.3733L98.3563 350.558ZM108.08 344.472C108.675 344.812 109.338 345.186 110.001 345.577C109.236 346.104 108.403 346.529 107.57 346.801C107.91 347.158 108.42 347.821 108.675 348.229C109.695 347.821 110.698 347.277 111.599 346.597C112.551 347.209 113.384 347.804 113.945 348.28L115.356 346.903C114.761 346.444 113.928 345.9 113.01 345.339C113.877 344.404 114.608 343.299 115.084 342.024L113.826 341.429L113.503 341.497H108.607V343.095H112.483C112.177 343.554 111.837 343.996 111.429 344.404C110.698 343.979 110.001 343.588 109.372 343.265L108.08 344.472ZM103.167 346.58V345.934H105.53V346.393L103.167 346.58ZM105.53 342.5V343.095H103.167V342.5H105.53ZM103.167 344.217H105.53V344.812H103.167V344.217ZM105.53 348.399H107.349V342.5H108.318V341.072H100.073V342.5H101.365V346.716C100.77 346.75 100.226 346.784 99.7333 346.818L99.9543 348.263C101.501 348.127 103.524 347.957 105.53 347.753V348.399ZM102.997 350.745C102.487 352.309 101.399 353.516 100.09 354.247C100.328 354.689 100.668 355.692 100.787 356.134C101.79 355.522 102.64 354.689 103.32 353.652C103.915 354.366 104.527 355.097 104.85 355.624L106.074 354.519C105.666 353.89 104.85 352.989 104.102 352.241C104.255 351.901 104.391 351.544 104.51 351.187L102.997 350.745ZM112.347 347.991C109.593 348.518 104.765 348.824 100.872 348.807C101.246 349.232 101.756 350.167 102.028 350.609C103.422 350.558 105.02 350.456 106.618 350.337V356.678H108.641V350.133C110.579 349.929 112.432 349.674 113.894 349.334L112.347 347.991ZM111.769 350.065C111.293 351.816 110.273 353.21 108.964 354.06C109.202 354.502 109.559 355.488 109.678 355.947C110.647 355.267 111.446 354.366 112.109 353.261C112.687 354.247 113.418 355.131 114.2 355.709C114.489 355.267 115.033 354.655 115.458 354.332C114.438 353.737 113.469 352.683 112.891 351.612C113.044 351.255 113.163 350.864 113.282 350.473L111.769 350.065ZM122.054 344.319C121.646 344.812 121.136 345.237 120.558 345.645C120.201 345.356 119.708 345.033 119.266 344.778C119.419 344.625 119.555 344.472 119.708 344.319H122.054ZM123.21 343.163L122.904 343.231H121.833V342.687H124.587V341.48H121.833V340.8H120.133V343.01L119.096 342.806C118.603 343.554 117.753 344.353 116.597 344.982C116.937 345.186 117.43 345.679 117.651 346.019C117.872 345.883 118.076 345.747 118.28 345.594C118.637 345.832 119.028 346.104 119.317 346.376C118.569 346.767 117.753 347.073 116.971 347.294C117.294 347.583 117.736 348.144 117.94 348.518C120.507 347.685 123.108 346.138 124.332 343.758L123.21 343.163ZM120.864 349.64C121.459 349.351 122.054 349.045 122.615 348.722L122.598 349.266H126.746V348.756C127.341 349.062 127.987 349.368 128.616 349.64H120.864ZM129.296 353.482C129.024 353.72 128.752 353.958 128.497 354.196C127.8 353.941 127.103 353.703 126.423 353.482H129.296ZM121.918 354.706V353.482H124.91L124.315 354.162C124.553 354.23 124.808 354.315 125.08 354.383L121.918 354.706ZM121.918 351.918H127.579V352.445H121.918V351.918ZM121.918 350.694H127.579V351.153H121.918V350.694ZM123.278 348.297C123.72 348.008 124.145 347.719 124.519 347.396C124.961 347.702 125.437 348.008 125.913 348.297H123.278ZM131.914 346.24C131.37 345.781 130.588 345.288 129.738 344.795C130.554 343.979 131.217 342.993 131.642 341.803L130.52 341.344L130.231 341.395H125.131V342.772H129.313C129.007 343.214 128.633 343.605 128.225 343.945C127.494 343.588 126.763 343.231 126.1 342.942L124.978 344.03C125.539 344.285 126.134 344.591 126.746 344.914C126.304 345.135 125.845 345.322 125.403 345.458C125.488 345.526 125.59 345.645 125.692 345.781L124.587 345.203C122.904 347.141 119.691 348.586 116.716 349.351C117.107 349.742 117.549 350.354 117.77 350.796C118.518 350.558 119.249 350.303 119.98 350.014V354.196C119.98 354.842 119.708 355.114 119.419 355.25C119.657 355.539 119.963 356.236 120.031 356.644C120.456 356.44 121.102 356.321 125.182 355.845C125.165 355.488 125.182 354.876 125.216 354.434C127.239 355.097 129.585 356.049 130.809 356.746L131.778 355.573C131.285 355.301 130.639 355.012 129.942 354.723C130.469 354.366 131.03 353.941 131.574 353.516L130.163 352.615C129.976 352.819 129.755 353.057 129.5 353.295V349.98C130.231 350.235 130.928 350.473 131.608 350.66C131.846 350.235 132.339 349.572 132.713 349.215C130.299 348.705 127.341 347.617 125.573 346.478C125.692 346.359 125.811 346.223 125.93 346.104C126.117 346.359 126.287 346.631 126.389 346.852C127.086 346.597 127.749 346.257 128.378 345.866C129.296 346.444 130.129 347.022 130.673 347.498L131.914 346.24ZM133.852 347.498V349.691H149.492V347.498H133.852ZM157.329 340.834C157.261 343.707 157.584 351.323 150.682 355.012C151.362 355.471 152.008 356.117 152.365 356.661C155.901 354.587 157.686 351.51 158.621 348.518C159.607 351.442 161.494 354.757 165.268 356.559C165.54 355.981 166.118 355.301 166.747 354.808C160.814 352.19 159.777 345.781 159.539 343.486C159.607 342.466 159.641 341.548 159.658 340.834H157.329ZM180.313 349.929C179.701 350.847 178.919 351.612 177.967 352.241C177.355 351.68 176.335 351.017 175.417 350.507C175.74 350.32 176.029 350.133 176.318 349.929H180.313ZM177.933 343.758C177.287 344.472 176.505 345.118 175.587 345.679C175.026 345.203 174.091 344.642 173.241 344.2C173.462 344.047 173.666 343.911 173.87 343.758H177.933ZM181.775 348.161L181.435 348.246H178.392C178.766 347.889 179.123 347.515 179.446 347.124L177.406 346.648C178.851 345.594 180.075 344.319 180.908 342.755L179.616 342.007L179.276 342.092H175.876C176.165 341.803 176.437 341.514 176.692 341.225L174.499 340.766C173.326 342.16 171.235 343.588 168.226 344.54C168.668 344.88 169.297 345.577 169.586 346.036C170.283 345.764 170.929 345.475 171.541 345.152C172.323 345.577 173.19 346.138 173.819 346.614C172.068 347.413 170.079 347.974 168.09 348.297C168.447 348.739 168.838 349.521 169.025 350.031C171.847 349.47 174.635 348.484 176.913 346.988C175.553 348.467 173.241 349.929 169.977 350.915C170.402 351.255 170.98 352.003 171.218 352.479C172.085 352.173 172.901 351.833 173.649 351.459C174.499 351.969 175.502 352.666 176.148 353.244C174.244 354.094 171.966 354.604 169.518 354.859C169.824 355.335 170.215 356.151 170.368 356.712C176.199 355.913 181.078 353.907 183.135 348.858L181.775 348.161ZM187.861 343.316C187.181 345.271 186.042 347.447 184.92 348.807C185.413 349.028 186.28 349.504 186.688 349.793C187.742 348.314 188.949 345.968 189.782 343.809L187.861 343.316ZM195.715 344.081C196.803 345.832 198.146 348.229 198.775 349.725L200.509 348.705C199.829 347.209 198.503 344.982 197.347 343.231L195.715 344.081ZM196.667 349.572C194.559 353.023 190.292 354.247 184.614 354.723C184.988 355.25 185.379 356.066 185.549 356.661C191.601 355.964 196.106 354.417 198.52 350.388L196.667 349.572ZM191.448 340.834V351.408H193.454V340.834H191.448ZM203.926 345.084C204.351 344.574 204.776 344.03 205.133 343.469C205.915 343.962 206.714 344.54 207.309 345.084H203.926ZM205.949 353.686V349.725H207.955V348.008H205.949V346.767H207.394V345.169C207.547 345.305 207.683 345.441 207.802 345.56L208.618 343.911C208.023 343.35 207.037 342.619 206.017 342.007C206.119 341.803 206.221 341.599 206.323 341.395L204.878 340.715C204.13 342.262 202.804 343.741 201.563 344.659C201.801 345.169 202.158 346.291 202.26 346.733C202.532 346.512 202.804 346.257 203.076 346.002V346.767H204.334V348.008H202.124V349.725H204.334V353.958C203.416 354.128 202.566 354.281 201.886 354.383L202.26 356.202C203.892 355.828 206.051 355.386 208.074 354.91L207.972 353.312L205.949 353.686ZM202.243 350.694C202.498 351.612 202.719 352.819 202.77 353.635L204.062 353.244C203.96 352.479 203.722 351.255 203.433 350.354L202.243 350.694ZM207.207 353.414C207.445 352.7 207.751 351.561 208.057 350.575L206.68 350.184C206.561 351.051 206.306 352.275 206.085 353.04L207.207 353.414ZM214.789 351.85C214.415 352.326 213.939 352.751 213.378 353.125C213.191 352.785 213.004 352.428 212.851 352.02L214.789 351.85ZM214.755 344.404C214.415 344.778 213.99 345.118 213.514 345.39C213.361 345.152 213.208 344.88 213.072 344.557L214.755 344.404ZM215.027 351.833L217.56 351.595L217.424 350.031L215.214 350.218L216.03 349.283C215.52 348.943 214.534 348.484 213.803 348.178L212.868 349.249C213.463 349.521 214.245 349.929 214.738 350.269L212.375 350.473C212.205 349.759 212.103 349.011 212.069 348.212H211.083C211.695 347.991 212.341 347.753 212.936 347.464C213.701 348.178 214.602 348.603 215.571 348.603C216.795 348.603 217.305 348.229 217.56 346.563C217.118 346.427 216.574 346.189 216.251 345.866C216.166 346.716 216.047 346.971 215.656 346.971C215.282 346.971 214.908 346.835 214.568 346.563C215.333 346.087 216.013 345.509 216.54 344.863L215.095 344.37L217.39 344.166L217.237 342.602L215.299 342.772L216.098 341.854C215.639 341.514 214.755 341.055 214.075 340.783L213.089 341.854C213.65 342.109 214.347 342.483 214.789 342.806L212.528 343.01C212.375 342.33 212.256 341.616 212.222 340.851H210.454C210.505 341.65 210.607 342.415 210.777 343.146L208.788 343.316L208.924 344.931L211.253 344.71C211.423 345.254 211.661 345.73 211.933 346.172C210.862 346.631 209.638 346.988 208.431 347.243C208.788 347.583 209.332 348.297 209.553 348.688C209.808 348.62 210.046 348.552 210.301 348.467C210.352 349.215 210.454 349.929 210.607 350.609L208.703 350.779L208.839 352.394L211.049 352.19C211.253 352.853 211.542 353.465 211.848 354.009C210.726 354.519 209.451 354.944 208.159 355.233C208.516 355.59 209.06 356.338 209.264 356.712C210.471 356.355 211.695 355.896 212.834 355.318C213.633 356.185 214.602 356.695 215.656 356.695C216.931 356.695 217.475 356.27 217.73 354.417C217.305 354.281 216.727 354.026 216.353 353.686C216.285 354.689 216.166 355.029 215.741 355.029C215.282 355.029 214.806 354.808 214.381 354.4C215.214 353.805 215.979 353.125 216.557 352.36L215.027 351.833ZM222.337 344.183V350.15H221.045V344.183H222.337ZM224.139 352.02V342.313H219.26V353.414H221.045V352.02H224.139ZM224.785 356.151C225.499 355.148 225.839 353.499 226.043 352.054L224.547 351.629C224.377 352.989 223.986 354.502 223.34 355.454L224.785 356.151ZM226.417 351.969C226.655 353.074 226.791 354.502 226.723 355.437L228.117 355.216C228.151 354.281 227.998 352.853 227.726 351.748L226.417 351.969ZM228.287 351.833C228.661 352.768 228.984 354.026 229.052 354.842L230.344 354.434C230.242 353.652 229.902 352.428 229.494 351.493L228.287 351.833ZM232.214 353.533C232.044 352.904 231.653 351.935 231.211 351.221L230.14 351.595C230.531 352.326 230.905 353.312 231.041 353.975L232.214 353.533ZM226.995 348.331H228.814V349.351H226.995V348.331ZM228.814 343.231V344.2H226.995V343.231H228.814ZM228.814 346.767H226.995V345.781H228.814V346.767ZM230.684 349.351V348.331H233.421V346.767H230.684V345.781H233.421V344.2H230.684V343.231H233.897V341.48H225.091V351.034H232.469C232.35 353.55 232.197 354.536 231.976 354.808C231.84 354.978 231.687 355.012 231.466 355.012C231.211 355.012 230.752 355.012 230.191 354.961C230.463 355.42 230.65 356.134 230.667 356.678C231.381 356.695 232.027 356.678 232.435 356.61C232.877 356.542 233.217 356.406 233.54 355.998C233.965 355.454 234.169 353.907 234.322 350.082C234.339 349.844 234.356 349.351 234.356 349.351H230.684ZM242.363 350.847H244.556C244.301 348.484 248.007 348.195 248.007 345.696C248.007 343.435 246.205 342.296 243.74 342.296C241.921 342.296 240.425 343.112 239.354 344.37L240.748 345.662C241.581 344.778 242.414 344.319 243.468 344.319C244.794 344.319 245.61 344.897 245.61 345.917C245.61 347.566 242.006 348.178 242.363 350.847ZM243.468 355.369C244.335 355.369 244.964 354.757 244.964 353.873C244.964 352.972 244.335 352.36 243.468 352.36C242.618 352.36 241.972 352.972 241.972 353.873C241.972 354.757 242.601 355.369 243.468 355.369Z" fill="white"/>
<path d="M275.247 888.528C275.247 868.858 259.046 852.888 239.092 852.82H38.2938V852.888H38.2243C18.2696 852.888 2 868.858 2 888.596C2 908.335 18.2001 924.305 38.2243 924.305H38.2938H210.794L255.57 943.153L246.81 923.414C263.079 919.918 275.247 905.594 275.247 888.528Z" stroke="#40798C" stroke-width="4" stroke-miterlimit="10" stroke-linecap="round" stroke-linejoin="round"/>
<path d="M69.3334 881.469C68.2774 884.967 66.6054 887.717 64.4274 889.873C62.2494 887.585 60.6874 884.725 59.6314 881.469H69.3334ZM70.7634 878.741L70.3234 878.873H55.5174V881.469H57.5634L56.9474 881.645C58.2234 885.649 59.9174 889.015 62.3154 891.677C59.9394 893.415 57.1454 894.603 54.0434 895.417C54.6154 895.945 55.4294 897.221 55.6934 897.881C58.8834 896.957 61.7654 895.571 64.2734 893.591C66.5834 895.549 69.4434 897.001 72.9634 897.925C73.3594 897.221 74.1514 896.033 74.7454 895.505C71.4234 894.713 68.6514 893.437 66.4074 891.655C69.2894 888.707 71.4234 884.725 72.5894 879.577L70.7634 878.741ZM88.0554 882.767C88.5834 882.239 89.1114 881.623 89.5954 880.919H92.1474L90.9814 881.403C91.3774 881.799 91.7954 882.327 92.0814 882.767H88.0554ZM88.8914 892.557H84.2714V891.215H88.8914V892.557ZM81.5874 888.839H91.3554V889.653H81.5874V888.839ZM81.5874 886.551H91.3554V887.365H81.5874V886.551ZM81.5874 884.329H91.3554V885.099H81.5874V884.329ZM86.4274 880.941C86.1414 881.249 85.8334 881.535 85.5034 881.777C86.0094 881.997 86.8234 882.415 87.4174 882.767H82.8414L84.3594 882.239C84.1834 881.865 83.8754 881.359 83.5674 880.941H86.4274ZM96.2834 879.027H90.7174C90.8714 878.719 91.0254 878.389 91.1574 878.059L88.6494 877.465C88.1874 878.697 87.3954 879.929 86.4714 880.897V879.049H81.2354C81.3894 878.763 81.5214 878.499 81.6534 878.213L79.2774 877.465C78.5074 879.159 77.1874 880.831 75.8014 881.909C76.3074 882.393 77.1434 883.449 77.4954 883.955C78.3534 883.185 79.2774 882.107 80.0914 880.941H82.7534L81.2354 881.469C81.5214 881.843 81.8294 882.371 82.0054 882.767H78.9474V891.215H81.6314V892.557H76.3954V894.625H80.8394C80.2014 895.285 78.9914 895.879 76.8794 896.319C77.4514 896.803 78.1774 897.683 78.5074 898.233C81.8514 897.331 83.3474 896.033 83.9414 894.625H88.8914V898.145H91.5974V894.625H96.2394V892.557H91.5974V891.215H94.1274V882.767H93.1374L94.3914 882.217C94.1494 881.843 93.7534 881.337 93.3354 880.919H96.2834V879.027ZM100.947 883.163C101.519 882.503 102.069 881.821 102.553 881.073C103.587 881.711 104.621 882.459 105.413 883.163H100.947ZM103.609 894.295V889.169H106.249V886.947H103.609V885.341H105.523V883.273C105.721 883.449 105.919 883.625 106.073 883.779L107.151 881.645C106.359 880.919 105.083 879.973 103.719 879.203C103.873 878.917 104.005 878.653 104.137 878.389L102.201 877.509C101.211 879.511 99.4734 881.425 97.8454 882.613C98.1534 883.273 98.6154 884.725 98.7474 885.297C99.0994 885.011 99.4734 884.681 99.8254 884.351V885.341H101.475V886.947H98.5494V889.169H101.475V894.669C100.265 894.867 99.1654 895.065 98.2634 895.197L98.7474 897.551C100.903 897.067 103.741 896.495 106.403 895.879L106.271 893.811L103.609 894.295ZM98.7254 890.423C99.0334 891.611 99.3634 893.173 99.4294 894.229L101.123 893.723C101.013 892.733 100.683 891.149 100.309 889.983L98.7254 890.423ZM105.281 893.943C105.611 892.997 106.007 891.545 106.425 890.269L104.577 889.763C104.445 890.885 104.093 892.469 103.807 893.459L105.281 893.943ZM114.939 890.269V891.721H110.385V890.269H114.939ZM110.385 895.285V893.789H114.939V895.285H110.385ZM108.075 898.189H110.385V897.375H114.939V898.167H117.359V888.113H108.075V898.189ZM111.375 882.481H113.685V884.549H111.375V882.481ZM116.017 884.549V882.481H117.909V880.193H116.017V877.663H113.685V880.193H111.375V877.663H109.087V880.193H107.173V882.481H109.087V884.549H106.733V886.903H118.459V884.549H116.017ZM137.225 879.027L136.653 879.181H121.385V881.755H134.079C132.627 883.053 130.735 884.461 129.019 885.363V895.109C129.019 895.483 128.843 895.615 128.359 895.615C127.875 895.615 126.071 895.637 124.509 895.571C124.927 896.275 125.433 897.441 125.565 898.211C127.677 898.233 129.239 898.167 130.339 897.771C131.417 897.375 131.769 896.671 131.769 895.175V886.683C134.519 885.055 137.313 882.723 139.337 880.567L137.225 879.027ZM149.844 896.583C151.01 896.583 151.868 895.659 151.868 894.471C151.868 893.261 151.01 892.359 149.844 892.359C148.7 892.359 147.842 893.261 147.842 894.471C147.842 895.659 148.7 896.583 149.844 896.583ZM156.998 896.583C158.164 896.583 159.022 895.659 159.022 894.471C159.022 893.261 158.164 892.359 156.998 892.359C155.854 892.359 154.996 893.261 154.996 894.471C154.996 895.659 155.854 896.583 156.998 896.583ZM164.152 896.583C165.318 896.583 166.176 895.659 166.176 894.471C166.176 893.261 165.318 892.359 164.152 892.359C163.008 892.359 162.15 893.261 162.15 894.471C162.15 895.659 163.008 896.583 164.152 896.583ZM181.197 893.921C178.777 893.921 177.237 891.721 177.237 888.069C177.237 884.571 178.777 882.481 181.197 882.481C183.617 882.481 185.157 884.571 185.157 888.069C185.157 891.721 183.617 893.921 181.197 893.921ZM186.455 900.697C187.643 900.697 188.633 900.477 189.205 900.213L188.611 897.815C188.149 897.969 187.533 898.079 186.829 898.079C185.355 898.079 183.881 897.573 183.133 896.341C186.367 895.505 188.479 892.513 188.479 888.069C188.479 882.789 185.509 879.687 181.197 879.687C176.885 879.687 173.915 882.767 173.915 888.069C173.915 892.711 176.225 895.791 179.701 896.451C180.823 898.915 183.133 900.697 186.455 900.697ZM198.127 893.921C195.707 893.921 194.167 891.721 194.167 888.069C194.167 884.571 195.707 882.481 198.127 882.481C200.547 882.481 202.087 884.571 202.087 888.069C202.087 891.721 200.547 893.921 198.127 893.921ZM203.385 900.697C204.573 900.697 205.563 900.477 206.135 900.213L205.541 897.815C205.079 897.969 204.463 898.079 203.759 898.079C202.285 898.079 200.811 897.573 200.063 896.341C203.297 895.505 205.409 892.513 205.409 888.069C205.409 882.789 202.439 879.687 198.127 879.687C193.815 879.687 190.845 882.767 190.845 888.069C190.845 892.711 193.155 895.791 196.631 896.451C197.753 898.915 200.063 900.697 203.385 900.697Z" fill="#40798C"/>
<path d="M124.388 288.055C182.719 288.055 230.006 241.493 230.006 184.057C230.006 126.62 182.719 80.0586 124.388 80.0586C66.0563 80.0586 18.7695 126.62 18.7695 184.057C18.7695 241.493 66.0563 288.055 124.388 288.055Z" fill="#CFE0C3"/>
<path d="M216.318 226.12L197.729 256.084L233.38 256.962L216.318 226.12Z" fill="#CFE0C3"/>
<path d="M121.778 164.122C152.297 164.122 177.038 139.761 177.038 109.71C177.038 79.6584 152.297 55.2971 121.778 55.2971C91.2583 55.2971 66.5176 79.6584 66.5176 109.71C66.5176 139.761 91.2583 164.122 121.778 164.122Z" fill="#1F363D"/>
<path d="M54.5488 224.49L163.032 244.111L175.828 120.241L67.2816 100.62L54.5488 224.49Z" fill="#1F363D"/>
<path d="M88.1634 281.849C107.581 234.018 141.641 202.612 164.496 211.451C166.342 212.141 168.189 212.893 169.908 213.959C171.69 215.087 172.518 216.278 173.409 218.221C175.001 221.544 174.555 224.992 173.027 228.063C172.199 229.818 171.308 231.511 170.481 233.266C169.207 235.836 167.998 238.344 166.724 240.914C165.133 244.174 163.541 247.371 162.013 250.631C160.167 254.455 158.321 258.216 156.475 262.04C154.437 266.24 152.336 270.502 150.299 274.703C148.453 278.526 146.543 282.35 144.697 286.174C166.788 281.849 185.887 271.067 200.402 256.21L215.045 256.586C212.881 249.377 210.207 241.98 207.023 234.52C186.333 186.627 150.999 155.534 128.144 165.063C105.289 155.471 70.0193 186.564 49.2649 234.52C46.9094 239.974 44.8085 245.49 43.0259 250.881C55.2493 264.861 70.7833 275.58 88.1634 281.849Z" fill="#70A9A1"/>
<path d="M203.458 198.287L165.641 220.666C163.923 221.669 161.694 221.105 160.676 219.475L147.816 198.412C146.797 196.72 147.37 194.526 149.025 193.523L186.841 171.143C188.56 170.14 190.789 170.704 191.807 172.334L204.667 193.397C205.75 195.09 205.177 197.284 203.458 198.287Z" fill="#F0CC67"/>
<path d="M195.181 180.108L153.163 204.932C152.59 205.245 151.89 205.057 151.572 204.556L151.19 203.929C150.871 203.365 151.062 202.675 151.572 202.362L193.59 177.537C194.163 177.224 194.863 177.412 195.181 177.914L195.563 178.54C195.945 179.042 195.754 179.794 195.181 180.108Z" fill="#1F363D"/>
<path d="M196.901 196.03L193.845 197.848C192.572 198.6 190.916 198.162 190.152 196.908L189.261 195.403C188.497 194.15 188.943 192.52 190.216 191.767L193.272 189.95C194.545 189.197 196.201 189.636 196.964 190.89L197.856 192.394C198.556 193.648 198.174 195.278 196.901 196.03Z" fill="white"/>
<path d="M156.601 261.977C158.447 258.153 160.294 254.392 162.14 250.568C163.731 247.308 165.323 244.111 166.851 240.852C168.124 238.281 169.334 235.774 170.607 233.204C171.435 231.448 172.326 229.756 173.154 228.001C174.618 224.929 175.064 221.481 173.536 218.159C172.644 216.278 171.817 215.024 170.034 213.896C168.315 212.83 166.469 212.078 164.623 211.389C141.704 202.55 107.707 233.956 88.29 281.786C105.798 288.118 125.279 289.936 144.887 286.112C144.887 286.112 144.887 286.112 144.951 286.112C146.797 282.288 148.707 278.464 150.553 274.64C152.463 270.44 154.564 266.177 156.601 261.977Z" fill="#F2DFD7"/>
<path d="M145.304 180.822C146.535 175.416 138.077 168.946 126.412 166.369C114.747 163.792 104.292 166.085 103.06 171.491C101.829 176.896 110.287 183.367 121.952 185.943C133.618 188.52 144.073 186.227 145.304 180.822Z" fill="#ECB1A9"/>
<path d="M103.02 171.501L145.264 180.832L152.594 148.657L110.35 139.326L103.02 171.501Z" fill="#ECB1A9"/>
<path d="M83.5793 131.838C71.2922 106.199 80.4598 76.5482 104.079 65.5779C127.635 54.6703 156.729 66.5809 168.952 92.22C173.218 101.122 175.128 111.152 174.109 120.993C173.281 129.394 170.544 139.047 167.424 144.25C162.841 151.836 153.036 157.164 148.771 158.731C123.815 167.883 95.6754 157.227 83.5793 131.838Z" fill="#F2DFD7"/>
<path d="M71.6106 119.113C68.8094 113.283 69.7644 107.077 73.6479 105.259C77.5313 103.441 83.1337 103.002 85.9349 108.832C88.7361 114.662 87.6539 124.504 83.7067 126.322C79.7596 128.14 74.4118 124.943 71.6106 119.113Z" fill="#F2DFD7"/>
<path d="M117.894 122.247C119.3 122.247 120.44 121.153 120.44 119.802C120.44 118.452 119.3 117.358 117.894 117.358C116.487 117.358 115.347 118.452 115.347 119.802C115.347 121.153 116.487 122.247 117.894 122.247Z" fill="#1F363D"/>
<path d="M132.155 136.226C132.155 138.859 134.383 140.928 137.121 140.928C138.521 140.928 139.731 140.427 140.622 139.549" stroke="#E07D5C" stroke-width="3" stroke-miterlimit="10" stroke-linecap="round" stroke-linejoin="round"/>
<path d="M155.838 115.54C157.244 115.54 158.384 114.445 158.384 113.095C158.384 111.745 157.244 110.65 155.838 110.65C154.431 110.65 153.291 111.745 153.291 113.095C153.291 114.445 154.431 115.54 155.838 115.54Z" fill="#1F363D"/>
<path d="M127.125 111.716L101.66 115.728C99.6861 116.041 98.3491 117.859 98.6675 119.803L102.042 129.519C102.36 131.462 104.206 132.779 106.18 132.465L128.08 129.018C130.054 128.704 131.391 126.886 131.072 124.943L131.263 114.662C130.945 112.782 129.099 111.465 127.125 111.716Z" stroke="#1F363D" stroke-width="3" stroke-miterlimit="10" stroke-linecap="round" stroke-linejoin="round"/>
<path d="M168.379 105.259L142.914 109.271C140.94 109.584 139.603 111.402 139.921 113.346L143.296 123.062C143.614 125.006 145.46 126.322 147.434 126.009L169.334 122.561C171.308 122.247 172.645 120.429 172.326 118.486L172.517 108.205C172.199 106.325 170.353 105.008 168.379 105.259Z" stroke="#1F363D" stroke-width="3" stroke-miterlimit="10" stroke-linecap="round" stroke-linejoin="round"/>
<path d="M131.264 114.725C131.264 114.725 135.02 109.898 139.922 113.346" stroke="#1F363D" stroke-width="3" stroke-miterlimit="10" stroke-linecap="round" stroke-linejoin="round"/>
<path d="M78.6772 103.566L98.6677 119.802" stroke="#1F363D" stroke-width="3" stroke-miterlimit="10" stroke-linecap="round" stroke-linejoin="round"/>
<path d="M175.701 108.832C175.701 108.832 175.51 68.8376 140.304 60.2494C129.735 57.6792 119.549 58.118 110.509 60.6255L110.445 60.4375C50.9834 75.7332 83.5156 131.901 83.5156 131.901C109.427 119.363 113.947 86.5154 114.711 77.1123C114.902 76.172 114.965 75.357 114.838 74.5421C114.902 74.5421 135.783 98.1125 175.701 108.832Z" fill="#1F363D"/>
<path d="M143.168 232.577C143.168 232.577 151.89 215.714 170.034 221.356" stroke="#ECB1A9" stroke-width="3" stroke-miterlimit="10" stroke-linecap="round" stroke-linejoin="round"/>
<path d="M57.9496 36.1079L77.176 48.1438L46.8721 60.8693L57.9496 36.1079Z" fill="#F0CC67"/>
<path d="M247.821 0.185829H57.436V48.7519H247.821V0.185829Z" fill="#F0CC67"/>
<path d="M247.821 48.7519C261.441 48.7519 272.482 37.88 272.482 24.4689C272.482 11.0577 261.441 0.185829 247.821 0.185829C234.201 0.185829 223.16 11.0577 223.16 24.4689C223.16 37.88 234.201 48.7519 247.821 48.7519Z" fill="#F0CC67"/>
<path d="M58.0132 48.1438C71.5149 48.1438 82.4601 37.3665 82.4601 24.0719C82.4601 10.7774 71.5149 0 58.0132 0C44.5116 0 33.5664 10.7774 33.5664 24.0719C33.5664 37.3665 44.5116 48.1438 58.0132 48.1438Z" fill="#F0CC67"/>
<path d="M67.9985 19.7192C67.5055 18.9202 66.3835 17.7982 65.4825 17.0162L63.9525 18.0532C64.8705 18.8692 65.9245 20.0762 66.3665 20.8582L67.9985 19.7192ZM65.8225 23.8332C65.3805 24.6492 64.8195 25.4142 64.2075 26.1452C64.0205 25.2782 63.8505 24.2922 63.7145 23.2722H68.1345V21.3512H63.5105C63.3745 19.8552 63.3065 18.2742 63.3405 16.6932H61.2155C61.2325 18.2402 61.2835 19.8212 61.4195 21.3512H58.1555V19.0562C59.1415 18.8522 60.0765 18.6312 60.9265 18.3762L59.5665 16.6592C57.8325 17.2202 55.1975 17.7642 52.8175 18.0872C53.0385 18.5462 53.3105 19.2942 53.3955 19.7872C54.2625 19.6852 55.1975 19.5662 56.1155 19.4132V21.3512H52.9025V23.2722H56.1155V25.5502C54.7725 25.7882 53.5485 25.9752 52.5795 26.1282L53.0725 28.1682C53.9735 27.9982 55.0275 27.7772 56.1155 27.5562V30.0212C56.1155 30.2932 56.0135 30.3782 55.7075 30.3782C55.4015 30.3952 54.4155 30.4122 53.4635 30.3612C53.7525 30.9222 54.0925 31.8402 54.1775 32.4012C55.5545 32.4182 56.5745 32.3332 57.2375 32.0102C57.9175 31.6872 58.1555 31.1432 58.1555 30.0382V27.1312L60.9265 26.5702L60.7735 24.7342C59.9065 24.8872 59.0225 25.0572 58.1555 25.2102V23.2722H61.6065C61.8105 24.9382 62.0995 26.4852 62.4735 27.8282C61.3005 28.7972 59.9915 29.6302 58.6825 30.2252C59.1755 30.6842 59.7365 31.3812 60.0255 31.8572C61.1135 31.2962 62.1845 30.5992 63.1705 29.7832C63.9015 31.4492 64.8535 32.4692 66.0945 32.4692C67.6415 32.4692 68.2705 31.7212 68.5935 28.7462C68.0495 28.5252 67.3695 28.0662 66.9275 27.5902C66.8425 29.5962 66.6385 30.4122 66.2815 30.4122C65.7715 30.4122 65.2445 29.6302 64.7855 28.3212C65.8905 27.2162 66.8425 25.9752 67.6075 24.5982L65.8225 23.8332ZM75.7675 26.4512C75.1045 26.6382 74.4075 26.8252 73.7445 27.0122V24.1052H75.5125V22.2522H73.7445V19.2942H75.6995V17.4242H69.7495V19.2942H71.7895V22.2522H69.9025V24.1052H71.7895V27.5222C70.8715 27.7602 70.0385 27.9812 69.3415 28.1342L69.8685 30.0382C71.6195 29.5282 73.8975 28.8652 76.0395 28.2362L75.7675 26.4512ZM78.2495 24.0032H82.6865V25.0572H78.2495V24.0032ZM78.2495 21.4192H82.6865V22.4732H78.2495V21.4192ZM78.2495 18.8352H82.6865V19.8892H78.2495V18.8352ZM82.8905 30.5992C82.6015 30.5992 82.5675 30.5312 82.5675 30.0382V26.7062H84.6585V17.1862H76.3625V26.7062H77.6035C77.3825 28.6952 76.8385 30.0892 73.7615 30.8542C74.1695 31.2452 74.6795 32.0272 74.8835 32.5202C78.5045 31.4492 79.2865 29.4772 79.5925 26.7062H80.6295V30.0382C80.6295 31.7552 80.9695 32.3332 82.5335 32.3332H83.8085C85.0665 32.3332 85.5085 31.7042 85.6785 29.3752C85.1685 29.2562 84.3865 28.9332 83.9955 28.6272C83.9615 30.3272 83.8765 30.5992 83.5875 30.5992H82.8905ZM91.7985 21.4532C92.8015 20.8072 93.7365 20.0932 94.5525 19.2432C95.4195 20.0422 96.4225 20.7902 97.4935 21.4532H91.7985ZM98.0545 26.8932C97.7145 27.7772 97.0855 28.9672 96.5585 29.7322L97.6975 30.2082H95.5725V26.8932H98.0545ZM93.3965 26.8932V30.2082H90.9145L92.3085 29.5962C92.0705 28.8482 91.4245 27.7262 90.8295 26.8932H93.3965ZM98.9895 23.3062V22.3032C99.7545 22.6772 100.536 23.0172 101.301 23.2892C101.607 22.7622 102.236 21.9632 102.695 21.5212C100.145 20.8072 97.3915 19.3962 95.7255 17.9002C95.8955 17.6622 96.0485 17.4412 96.2015 17.2202L94.2805 16.3532C92.6655 18.8862 89.6055 20.6032 86.4095 21.5212C86.9195 22.0312 87.4805 22.7962 87.7525 23.3912C88.5005 23.1192 89.2315 22.8132 89.9455 22.4732V23.3062H93.3965V25.0742H87.9905V26.8932H90.4555L89.1125 27.4542C89.6735 28.3042 90.2515 29.4262 90.5235 30.2082H87.1745V32.0612H101.879V30.2082H98.2245C98.7515 29.4772 99.4145 28.4572 100.009 27.5052L98.3095 26.8932H100.995V25.0742H95.5725V23.3062H98.9895ZM112.606 23.0852V21.3172C112.963 20.8072 113.303 20.2802 113.592 19.7532H118.879V17.6792H104.14V19.7532H110.923C109.342 22.3542 106.69 24.9892 103.596 26.4342C104.038 26.8932 104.667 27.7262 104.99 28.2702C107.03 27.2162 108.849 25.7372 110.396 24.0882V32.3842H112.606V23.5782C114.442 24.9892 116.754 26.9272 117.808 28.1852L119.525 26.6382C118.301 25.2952 115.683 23.3402 113.864 22.0312L112.606 23.0852ZM126.427 26.0262C126.121 26.6722 125.73 27.2502 125.288 27.7602C124.88 27.3862 124.387 26.9612 123.911 26.5872C124.115 26.4002 124.319 26.2132 124.506 26.0262H126.427ZM125.798 19.6852C125.526 20.1442 125.203 20.5692 124.846 20.9602C124.421 20.6032 123.877 20.2292 123.384 19.9062L123.588 19.6852H125.798ZM127.294 24.3262H125.866C126.07 24.0032 126.257 23.6802 126.444 23.3572L125.118 23.1022C126.495 21.9632 127.617 20.4672 128.246 18.5632L127.056 18.0022L126.716 18.0702H124.795C125.05 17.6622 125.288 17.2372 125.509 16.8462L123.758 16.5232C123.129 17.7812 122.007 19.2772 120.358 20.3992C120.766 20.6372 121.327 21.1982 121.582 21.5552C121.82 21.3852 122.041 21.1982 122.262 21.0112C122.772 21.3852 123.248 21.7762 123.605 22.1332C122.721 22.8302 121.684 23.3572 120.63 23.7142C120.987 24.0542 121.446 24.7002 121.684 25.1252C122.551 24.7852 123.367 24.3602 124.149 23.8502C123.367 24.9722 122.177 26.1112 120.511 26.9782C120.885 27.2332 121.446 27.8282 121.667 28.2362C121.99 28.0492 122.296 27.8452 122.585 27.6412C123.112 28.0832 123.639 28.5932 124.013 29.0182C122.976 29.8512 121.752 30.4462 120.443 30.8202C120.8 31.1942 121.259 31.8572 121.463 32.3162C124.948 31.1262 127.719 28.8482 128.858 24.7682L127.634 24.2412L127.294 24.3262ZM131.765 23.7482V26.7912H130.643V23.7482H131.765ZM136.134 18.9712H131.102C131.357 18.3252 131.595 17.6792 131.799 16.9992L129.929 16.5402C129.334 18.7162 128.229 20.8242 126.903 22.1332C127.328 22.4392 128.11 23.0682 128.433 23.4082C128.637 23.1872 128.841 22.9322 129.028 22.6772V29.5452H130.643V28.3722H133.38V22.1502H129.402C129.708 21.7082 129.98 21.2492 130.252 20.7392H134.23C134.128 27.2332 134.026 29.6642 133.652 30.1402C133.482 30.3952 133.329 30.4802 133.057 30.4632C132.7 30.4632 132.02 30.4632 131.238 30.3952C131.561 30.9392 131.799 31.7722 131.833 32.3162C132.649 32.3502 133.465 32.3502 134.009 32.2482C134.587 32.1462 134.995 31.9592 135.369 31.3472C135.93 30.5142 136.015 27.8112 136.134 19.8892V18.9712ZM153.62 24.3432H154.776L154.3 24.5642C154.436 24.7172 154.572 24.8702 154.708 25.0402L153.62 25.0572V24.3432ZM150.526 23.2552V22.5752H151.903V23.2552H150.526ZM150.526 20.8752H151.903V21.5382H150.526V20.8752ZM155.065 20.8752V21.5382H153.62V20.8752H155.065ZM155.065 23.2552H153.62V22.5752H155.065V23.2552ZM148.605 26.5872C150.475 26.5532 153.093 26.4852 155.643 26.4002C155.779 26.6212 155.881 26.8252 155.966 26.9952L157.377 26.2982C157.088 25.7372 156.578 24.9892 156.017 24.3432H156.731V19.7872H153.62V19.1582H157.037V17.6792H153.62V16.5572H151.903V17.6792H148.656V19.1582H151.903V19.7872H148.945V24.3432H151.903V25.0912C150.611 25.1252 149.438 25.1422 148.503 25.1422L148.605 26.5872ZM153.501 30.6162C153.501 30.8032 153.416 30.8542 153.178 30.8712C152.957 30.8712 152.175 30.8712 151.495 30.8372L152.192 30.3952C151.954 29.9192 151.478 29.2732 150.951 28.7462H153.501V30.6162ZM143.386 24.5472H144.355V25.5502H143.386V24.5472ZM143.386 22.2182H144.355V23.2212H143.386V22.2182ZM146.701 23.2212H145.664V22.2182H146.701V23.2212ZM146.701 25.5502H145.664V24.5472H146.701V25.5502ZM155.337 26.6042H153.501V27.2672H148.52V27.9642H145.902V26.9442H148.163V20.8072H145.902V19.9232H148.316V18.1722H145.902V16.5572H144.117V18.1722H141.618V19.9232H144.117V20.8072H141.941V26.9442H144.117V27.9642H141.38V29.7322H144.117V32.4182H145.902V29.7322H148.52V28.7462H150.118L149.285 29.2392C149.897 29.8512 150.475 30.7182 150.747 31.3132L151.427 30.8882C151.631 31.3472 151.869 31.9762 151.92 32.4692C153.11 32.4692 153.926 32.4522 154.555 32.2142C155.201 31.9592 155.337 31.5342 155.337 30.6672V28.7462H157.275V27.2672H155.337V26.6042ZM162.528 27.0122V21.4362H163.242V26.8422C163.242 26.9782 163.208 27.0122 163.123 27.0122H162.528ZM164.687 19.6682H162.528V16.5402H160.879V19.6682H158.754V28.8992H160.233V21.4362H160.879V32.4182H162.528V27.1482C162.732 27.6242 162.902 28.2702 162.919 28.6952C163.514 28.6952 163.905 28.6442 164.262 28.3382C164.619 28.0492 164.687 27.5222 164.687 26.8932V19.6682ZM172.456 25.9072C172.014 26.3662 171.317 26.9272 170.671 27.4032C170.365 26.9272 170.076 26.4342 169.821 25.9072H174.037V24.1902H167.832V23.3232H172.932V21.9122H167.832V21.0452H172.881V19.6342H167.832V18.8182H173.595V17.2372H165.894V24.1902H164.925V25.9072H165.571V29.2222C165.571 29.9532 165.095 30.4802 164.738 30.7012C165.078 31.1262 165.537 32.0272 165.673 32.5202C166.03 32.2652 166.625 31.9932 169.838 30.9562C169.77 30.5482 169.719 29.8172 169.719 29.3072L167.475 29.9532V25.9072H168.053C169.039 28.6612 170.688 30.9902 173 32.1972C173.306 31.6702 173.901 30.9222 174.343 30.5312C173.323 30.0892 172.405 29.4262 171.64 28.6102C172.354 28.1852 173.17 27.6922 173.935 27.1652L172.456 25.9072ZM182.214 26.5872C182.027 25.6862 181.568 24.1732 181.109 23.0342L179.647 23.5102C179.783 23.9182 179.936 24.3432 180.072 24.8022L178.287 25.0232C179.596 23.5612 180.871 21.8102 181.84 20.0762L180.14 18.9882C179.8 19.7362 179.375 20.4842 178.95 21.1812L177.794 21.2662C178.695 20.0592 179.562 18.5972 180.208 17.1692L178.389 16.4042C177.743 18.2232 176.638 20.1102 176.264 20.5862C175.924 21.0962 175.618 21.4192 175.278 21.5212C175.499 21.9972 175.788 22.8812 175.89 23.2552C176.145 23.1362 176.519 23.0342 177.811 22.8812C177.335 23.5272 176.944 24.0202 176.74 24.2412C176.196 24.8702 175.822 25.2442 175.363 25.3632C175.601 25.8732 175.924 26.8082 176.026 27.1822C176.417 26.9952 177.029 26.8422 180.463 26.3322C180.531 26.6382 180.582 26.9102 180.616 27.1482L182.214 26.5872ZM176.06 27.7092C175.958 29.1372 175.737 30.7182 175.346 31.7382C175.788 31.8742 176.604 32.1292 176.978 32.3332C177.352 31.2452 177.641 29.5622 177.76 27.9812L176.06 27.7092ZM178.117 27.9302C178.321 29.1372 178.508 30.7352 178.525 31.7722L180.123 31.4322C180.055 30.3952 179.868 28.8652 179.63 27.6412L178.117 27.9302ZM179.987 27.5902C180.327 28.6272 180.701 29.9702 180.854 30.8372L182.35 30.3272C182.163 29.4602 181.772 28.1512 181.398 27.1482L179.987 27.5902ZM188.249 27.0122V29.8342H184.628V27.0122H188.249ZM182.656 32.4522H184.628V31.6192H188.249V32.4352H190.306V25.2272H182.656V32.4522ZM184.475 22.0142C185.206 21.2152 185.835 20.3652 186.413 19.4302C187.008 20.3312 187.671 21.2152 188.385 22.0142H184.475ZM185.716 16.4892C184.832 18.7842 183.081 21.0792 180.939 22.4392C181.364 22.7792 182.027 23.4762 182.316 23.9012C182.707 23.6292 183.098 23.3232 183.455 23.0002V23.8332H189.082V22.7622C189.439 23.1192 189.796 23.4422 190.17 23.7142C190.51 23.2042 191.173 22.4562 191.666 22.0822C190.085 21.0962 188.368 19.3282 187.314 17.6452C187.416 17.4582 187.467 17.2542 187.552 17.0502L185.716 16.4892ZM195.916 16.6082C195.066 19.0222 193.587 21.4362 192.057 22.9662C192.397 23.4592 192.958 24.5642 193.145 25.0742C193.519 24.6662 193.91 24.2072 194.284 23.6972V32.3842H196.222V20.6882C196.851 19.5662 197.395 18.3762 197.837 17.2032L195.916 16.6082ZM199.061 24.1052C198.67 25.9922 197.956 27.9132 196.987 29.1032C197.48 29.3582 198.33 29.8682 198.721 30.1912C199.673 28.8142 200.54 26.6722 201.033 24.5132L199.061 24.1052ZM206.133 21.4532C206.048 22.2012 205.946 22.9152 205.861 23.4422L207.578 23.7312C207.816 22.7452 208.105 21.1642 208.309 19.7872L206.881 19.5152L206.558 19.5832H200.71C201.016 18.7502 201.288 17.9172 201.509 17.0502L199.537 16.6082C198.959 18.9372 197.939 21.2832 196.647 22.7282C197.106 23.0342 197.922 23.6972 198.279 24.0542C198.84 23.3402 199.401 22.4392 199.877 21.4532H201.849V30.1232C201.849 30.3442 201.764 30.4122 201.543 30.4122C201.305 30.4122 200.591 30.4122 199.877 30.3952C200.183 30.9392 200.489 31.8402 200.574 32.4352C201.662 32.4352 202.478 32.3502 203.073 32.0272C203.685 31.6872 203.855 31.1262 203.855 30.1572V21.4532H206.133ZM204.467 24.5472C205.283 26.2982 205.997 28.6272 206.184 30.1402L208.122 29.4772C207.884 27.9472 207.153 25.6862 206.269 23.9352L204.467 24.5472ZM213.987 21.8612C213.936 23.1872 213.732 24.7342 213.137 26.2642C212.712 25.8902 212.27 25.5162 211.845 25.1592C212.066 24.1902 212.27 23.0852 212.474 21.9632L213.987 21.8612ZM216.775 21.6742V19.8552L215.891 19.9062V18.9372H214.004V20.0082L212.78 20.0762C212.967 18.9032 213.103 17.7472 213.205 16.6592L211.199 16.5742C211.131 17.7132 210.995 18.9372 210.825 20.1612C210.315 20.1782 209.822 20.1952 209.38 20.2122L209.567 22.1332L210.519 22.0652C210.281 23.4592 209.992 24.7512 209.72 25.7712C210.485 26.4512 211.386 27.2672 212.253 28.0662C211.59 29.1372 210.655 30.1402 209.38 31.0412C209.839 31.3642 210.502 32.0272 210.808 32.4522C212.066 31.5342 212.984 30.5312 213.698 29.4602C214.395 30.1572 215.007 30.8202 215.432 31.3642L216.758 29.6812C216.265 29.0862 215.517 28.3892 214.701 27.6242C215.585 25.6012 215.823 23.4932 215.874 21.7422L216.775 21.6742ZM225.292 23.5272H221.892V22.2522C223.099 21.1302 224.221 19.7022 225.02 18.4612L223.66 17.4752L223.184 17.5772H216.877V19.4132H221.858C221.263 20.2972 220.515 21.2492 219.784 21.8952V23.5272H216.214V25.4482H219.784V30.1912C219.784 30.4462 219.699 30.5142 219.41 30.5142C219.138 30.5142 218.152 30.5142 217.302 30.4972C217.591 31.0242 217.88 31.8572 217.982 32.4182C219.308 32.4352 220.277 32.3842 220.957 32.0952C221.671 31.7722 221.892 31.2622 221.892 30.2252V25.4482H225.292V23.5272ZM230.035 19.9062V25.8732H228.743V19.9062H230.035ZM231.837 27.7432V18.0362H226.958V29.1372H228.743V27.7432H231.837ZM232.483 31.8742C233.197 30.8712 233.537 29.2222 233.741 27.7772L232.245 27.3522C232.075 28.7122 231.684 30.2252 231.038 31.1772L232.483 31.8742ZM234.115 27.6922C234.353 28.7972 234.489 30.2252 234.421 31.1602L235.815 30.9392C235.849 30.0042 235.696 28.5762 235.424 27.4712L234.115 27.6922ZM235.985 27.5562C236.359 28.4912 236.682 29.7492 236.75 30.5652L238.042 30.1572C237.94 29.3752 237.6 28.1512 237.192 27.2162L235.985 27.5562ZM239.912 29.2562C239.742 28.6272 239.351 27.6582 238.909 26.9442L237.838 27.3182C238.229 28.0492 238.603 29.0352 238.739 29.6982L239.912 29.2562ZM234.693 24.0542H236.512V25.0742H234.693V24.0542ZM236.512 18.9542V19.9232H234.693V18.9542H236.512ZM236.512 22.4902H234.693V21.5042H236.512V22.4902ZM238.382 25.0742V24.0542H241.119V22.4902H238.382V21.5042H241.119V19.9232H238.382V18.9542H241.595V17.2032H232.789V26.7572H240.167C240.048 29.2732 239.895 30.2592 239.674 30.5312C239.538 30.7012 239.385 30.7352 239.164 30.7352C238.909 30.7352 238.45 30.7352 237.889 30.6842C238.161 31.1432 238.348 31.8572 238.365 32.4012C239.079 32.4182 239.725 32.4012 240.133 32.3332C240.575 32.2652 240.915 32.1292 241.238 31.7212C241.663 31.1772 241.867 29.6302 242.02 25.8052C242.037 25.5672 242.054 25.0742 242.054 25.0742H238.382ZM250.061 26.5702H252.254C251.999 24.2072 255.705 23.9182 255.705 21.4192C255.705 19.1582 253.903 18.0192 251.438 18.0192C249.619 18.0192 248.123 18.8352 247.052 20.0932L248.446 21.3852C249.279 20.5012 250.112 20.0422 251.166 20.0422C252.492 20.0422 253.308 20.6202 253.308 21.6402C253.308 23.2892 249.704 23.9012 250.061 26.5702ZM251.166 31.0922C252.033 31.0922 252.662 30.4802 252.662 29.5962C252.662 28.6952 252.033 28.0832 251.166 28.0832C250.316 28.0832 249.67 28.6952 249.67 29.5962C249.67 30.4802 250.299 31.0922 251.166 31.0922Z" fill="#1F363D"/>
<path d="M292.51 198.469C314.029 198.469 331.474 181.291 331.474 160.102C331.474 138.912 314.029 121.735 292.51 121.735C270.99 121.735 253.545 138.912 253.545 160.102C253.545 181.291 270.99 198.469 292.51 198.469Z" fill="#40798C"/>
<path d="M262.287 138.427L271.207 128.901L258.382 126.061L262.287 138.427Z" fill="#40798C"/>
<path d="M297.222 156.806L288.566 154.325C287.565 154.042 286.867 153.123 286.867 152.102C286.867 150.822 287.925 149.786 289.232 149.786H294.545C295.523 149.786 296.485 150.077 297.286 150.61C297.775 150.932 298.432 150.854 298.849 150.453L301.638 147.784C302.207 147.242 302.127 146.339 301.494 145.86C299.53 144.352 297.078 143.512 294.561 143.504V139.735C294.561 139.044 293.984 138.479 293.279 138.479H290.714C290.009 138.479 289.432 139.044 289.432 139.735V143.504H289.232C284.126 143.504 280.023 147.799 280.496 152.895C280.832 156.515 283.653 159.46 287.212 160.481L295.427 162.836C296.429 163.127 297.126 164.037 297.126 165.058C297.126 166.338 296.068 167.375 294.762 167.375H289.448C288.47 167.375 287.508 167.084 286.707 166.55C286.218 166.228 285.561 166.307 285.144 166.707L282.355 169.377C281.786 169.919 281.866 170.822 282.499 171.301C284.463 172.808 286.915 173.648 289.432 173.656V177.425C289.432 178.116 290.009 178.682 290.714 178.682H293.279C293.984 178.682 294.561 178.116 294.561 177.425V173.641C298.296 173.57 301.798 171.395 303.033 167.932C304.756 163.095 301.863 158.133 297.222 156.806Z" fill="#F0CC67"/>
</svg>
