<svg width="364" height="401" viewBox="0 0 364 401" fill="none" xmlns="http://www.w3.org/2000/svg">
<path d="M342.421 70.4284C331.048 86.9284 308.245 91.2263 291.488 80.0281C274.731 68.8298 270.366 46.376 281.739 29.8759C293.111 13.3759 315.915 9.07797 332.672 20.2762C349.429 31.4745 353.794 53.9283 342.421 70.4284Z" fill="#70A9A1"/>
<path d="M283.693 70.6118L292.081 79.5681L280.018 82.2596L283.693 70.6118Z" fill="#70A9A1"/>
<path d="M334.758 62.7893C334.182 61.4151 332.578 60.7617 331.18 61.3343L329.665 61.954L327.012 55.0898C330.296 52.7321 331.454 48.3333 329.377 44.7968L323.441 34.6588C322.893 33.7224 321.72 33.3317 320.699 33.7426L312.864 36.9356L305.029 33.7426C304.008 33.325 302.836 33.7224 302.287 34.6588L296.351 44.7968C294.281 48.3333 295.433 52.7321 298.716 55.083L296.063 61.9473L294.549 61.3275C293.15 60.7549 291.553 61.4084 290.97 62.7826C290.854 63.0587 290.984 63.3753 291.265 63.4899L302.39 68.0301C302.671 68.1446 302.987 68.0166 303.103 67.7404C303.679 66.3662 303.021 64.79 301.623 64.2174L300.108 63.5976L302.808 56.6189C303.11 56.6526 303.412 56.7065 303.706 56.7065C307.25 56.7065 310.52 54.4768 311.48 50.9605L312.864 45.8813L314.249 50.9605C315.208 54.4768 318.478 56.7065 322.022 56.7065C322.317 56.7065 322.618 56.6526 322.92 56.6189L325.614 63.5976L324.099 64.2174C322.701 64.79 322.036 66.3662 322.618 67.7404C322.735 68.0166 323.057 68.1446 323.331 68.0301L334.463 63.4899C334.737 63.3753 334.875 63.0655 334.758 62.7893ZM309.841 44.5004L302.157 41.368L304.659 37.0973L311.137 39.7379L309.841 44.5004V44.5004ZM315.887 44.5004L314.592 39.7379L321.069 37.0973L323.571 41.368L315.887 44.5004V44.5004Z" fill="#1F363D"/>
<path d="M39.4795 134.345L45.2214 131.407C41.3099 125.602 50.6166 119.886 47.1861 113.385C44.0822 107.504 37.8004 106.956 31.3463 110.258C26.5836 112.695 23.7868 116.822 22.7095 121.529L28.1331 123.022C29.1006 119.607 30.6515 117.297 33.4112 115.885C36.8831 114.108 39.8131 114.518 41.2133 117.172C43.4771 121.461 34.8808 127.881 39.4795 134.345ZM48.5804 144.627C50.8504 143.466 51.6572 141.031 50.4437 138.732C49.2068 136.388 46.7198 135.639 44.4497 136.801C42.2241 137.939 41.3728 140.397 42.6097 142.74C43.8232 145.04 46.3103 145.789 48.5804 144.627Z" fill="#F0CC67"/>
<path d="M190.496 374.281C266.829 374.281 328.71 313.349 328.71 238.187C328.71 163.024 266.829 102.093 190.496 102.093C114.163 102.093 52.2822 163.024 52.2822 238.187C52.2822 313.349 114.163 374.281 190.496 374.281Z" fill="#70A9A1"/>
<path d="M79.976 310.34L109.962 345.507L64.0601 353.531L79.976 310.34Z" fill="#70A9A1"/>
<path d="M234.106 233.924L243.147 367.134L272.241 348.454C274.597 337.295 275.997 325.071 276.188 312.158C276.888 260.065 257.344 217.625 232.515 217.312C224.684 217.186 217.236 221.324 210.678 228.721C211.506 229.912 212.27 231.166 212.906 232.545L234.106 233.924Z" fill="white"/>
<path d="M193.743 231.166L207.877 232.106C208.832 230.852 209.786 229.724 210.741 228.596C208.959 226.088 206.858 224.02 204.311 222.452C183.366 209.351 143.385 234.426 115.055 278.369C86.7247 322.313 80.7403 368.576 101.686 381.678C108.689 386.066 117.729 386.191 127.851 382.744L119.83 381.678L193.743 231.166Z" fill="white"/>
<path d="M212.97 232.482C212.333 231.103 211.569 229.849 210.741 228.658C209.786 229.724 208.831 230.915 207.876 232.169L212.97 232.482Z" fill="white"/>
<path d="M187.186 331.528C168.915 357.857 146.696 376.475 127.916 382.869L202.784 393.087L206.158 390.893C196.418 377.541 189.478 356.352 187.186 331.528Z" fill="white"/>
<path d="M234.106 233.924L213.033 232.482C222.456 252.041 214.307 289.716 191.006 325.824C189.733 327.767 188.459 329.648 187.186 331.528C189.478 356.352 196.481 377.541 206.158 390.83L243.146 367.072L234.106 233.924Z" fill="white"/>
<path d="M187.186 331.528C186.55 324.883 186.295 317.988 186.359 310.967C186.804 277.805 195.335 248.781 207.877 232.169L193.744 231.229L119.83 381.803L127.852 382.869C146.696 376.538 168.915 357.857 187.186 331.528Z" fill="white"/>
<path d="M212.97 232.482L207.877 232.106C195.335 248.781 186.804 277.805 186.359 310.904C186.295 317.988 186.55 324.883 187.186 331.465C188.459 329.585 189.733 327.704 191.006 325.761C214.243 289.716 222.456 252.041 212.97 232.482Z" fill="white"/>
<path d="M206.158 390.893L202.784 393.087L208.513 393.839C207.686 392.899 206.922 391.896 206.158 390.893Z" fill="white"/>
<path d="M177.573 127.544C178.591 129.926 181.52 130.992 184.066 129.926C185.34 129.362 186.295 128.421 186.74 127.293" stroke="#1F363D" stroke-width="3" stroke-miterlimit="10" stroke-linecap="round" stroke-linejoin="round"/>
<path d="M214.726 239.291C227.969 236.366 237.576 229.037 236.183 222.923C234.789 216.808 222.924 214.222 209.681 217.148C196.437 220.073 186.83 227.401 188.224 233.516C189.617 239.631 201.482 242.216 214.726 239.291Z" fill="#ECB1A9"/>
<path d="M227.88 186.392L179.921 196.985L188.241 233.504L236.2 222.91L227.88 186.392Z" fill="#ECB1A9"/>
<path d="M258.235 177.944C272.177 148.795 261.737 115.132 234.998 102.72C208.259 90.3075 175.218 103.848 161.339 132.997C156.501 143.153 154.336 154.499 155.418 165.658C156.373 175.186 159.493 186.156 162.994 192.049C168.151 200.637 179.292 206.718 184.194 208.473C212.588 218.816 244.484 206.718 258.235 177.944Z" fill="#F2DFD7"/>
<path d="M271.795 163.526C274.979 156.944 273.896 149.86 269.504 147.854C265.047 145.786 258.681 145.284 255.561 151.929C252.378 158.511 253.651 169.732 258.044 171.801C262.501 173.807 268.676 170.108 271.795 163.526Z" fill="#F2DFD7"/>
<path d="M178.782 149.923C180.188 149.923 181.328 148.829 181.328 147.478C181.328 146.128 180.188 145.034 178.782 145.034C177.375 145.034 176.235 146.128 176.235 147.478C176.235 148.829 177.375 149.923 178.782 149.923Z" fill="#1F363D"/>
<path d="M217.999 151.052C219.406 151.052 220.546 149.957 220.546 148.607C220.546 147.257 219.406 146.162 217.999 146.162C216.593 146.162 215.453 147.257 215.453 148.607C215.453 149.957 216.593 151.052 217.999 151.052Z" fill="#1F363D"/>
<path d="M198.264 165.532C198.646 162.962 196.736 160.58 193.998 160.141C192.661 159.953 191.324 160.267 190.306 161.019" stroke="#E07D5C" stroke-width="3" stroke-miterlimit="10" stroke-linecap="round" stroke-linejoin="round"/>
<path d="M229.523 117.263C229.523 117.263 231.369 128.735 243.083 135.756C247.221 138.263 254.542 151.365 254.542 151.365C254.542 151.365 263.137 142.338 269.567 147.792C269.567 147.792 272.432 90.2449 199.728 96.3255C199.728 96.3255 154.208 99.5226 152.553 145.911C152.553 145.911 155.163 146.538 166.432 138.577C166.432 138.577 166.114 143.341 178.082 137.95C178.082 137.95 181.648 141.147 189.414 135.693C189.414 135.693 192.916 138.702 202.911 134.565C212.906 130.49 229.523 117.263 229.523 117.263Z" fill="#1F363D"/>
<path d="M152.553 145.911C152.553 145.911 146.632 111.308 174.772 100.275C174.772 100.275 213.034 68.4924 244.165 98.0808C244.165 98.0808 279.562 110.054 269.567 147.854L231.814 107.359L185.658 114.379L152.553 145.911Z" fill="#1F363D"/>
<path d="M139.884 208.536C139.884 208.536 149.752 185.467 161.084 185.216C161.084 185.216 171.907 186.909 168.978 193.679C166.05 200.449 162.102 209.915 162.102 209.915C162.102 209.915 147.269 220.885 139.884 208.536Z" fill="#F2DFD7"/>
<path d="M161.657 204.022C137.847 197.127 106.46 232.044 91.4995 281.943C76.5386 331.904 83.7325 377.98 107.543 384.875C107.925 385 108.307 385.063 108.689 385.189C108.816 384.812 109.007 384.374 109.134 383.997C109.644 382.556 110.217 381.177 110.726 379.735C111.617 377.415 112.508 375.096 113.4 372.776C114.546 369.705 115.755 366.633 116.901 363.499C118.302 359.8 119.766 356.039 121.167 352.34C122.758 348.14 124.35 343.878 126.005 339.678C127.724 335.101 129.507 330.525 131.226 325.949C133.072 321.122 134.918 316.358 136.701 311.531C138.547 306.641 140.457 301.752 142.303 296.8C144.149 291.91 145.996 287.083 147.842 282.193C149.624 277.492 151.407 272.79 153.19 268.151C154.845 263.763 156.5 259.375 158.219 254.987C159.747 251.038 161.211 247.089 162.739 243.139C164.012 239.754 165.286 236.432 166.559 233.047C167.578 230.414 168.596 227.718 169.615 225.085C170.315 223.267 171.015 221.449 171.652 219.694C172.862 216.497 172.989 213.049 171.143 209.852C170.06 208.034 169.169 206.906 167.259 205.903C165.477 205.151 163.567 204.587 161.657 204.022Z" fill="#F2DFD7"/>
<path d="M142.24 226.966C142.24 226.966 149.434 209.413 168.024 213.425" stroke="#ECB1A9" stroke-width="3" stroke-miterlimit="10" stroke-linecap="round" stroke-linejoin="round"/>
<path d="M162.612 185.592C162.612 185.592 167.896 185.718 169.297 191.109C170.188 194.557 168.405 196.124 168.405 196.124" stroke="#ECB1A9" stroke-width="3" stroke-miterlimit="10" stroke-linecap="round" stroke-linejoin="round"/>
<path d="M81.5043 362.37C83.2232 386.756 127.406 403.556 180.183 399.983C232.96 396.347 274.342 373.654 272.623 349.331C272.623 348.955 272.559 348.579 272.495 348.203C272.05 348.203 271.604 348.203 271.222 348.203C269.694 348.203 268.166 348.203 266.638 348.203C264.092 348.203 261.609 348.203 259.062 348.203C255.688 348.203 252.378 348.203 249.003 348.203C244.993 348.203 240.918 348.203 236.907 348.14C232.324 348.14 227.74 348.14 223.156 348.077C218.19 348.077 213.224 348.077 208.259 348.015C203.038 348.015 197.818 348.015 192.597 347.952C187.25 347.952 181.966 347.952 176.618 347.889C171.334 347.889 166.05 347.889 160.766 347.827C155.672 347.827 150.579 347.827 145.486 347.764C140.712 347.764 136 347.764 131.226 347.701C126.96 347.701 122.695 347.701 118.429 347.639C114.8 347.639 111.108 347.639 107.479 347.639C104.614 347.639 101.749 347.639 98.8209 347.639C96.8473 347.639 94.8737 347.639 92.9638 347.639C89.5259 347.639 86.1517 348.704 83.7962 351.525C82.4592 353.155 81.6953 354.409 81.4407 356.478C81.2497 358.484 81.377 360.427 81.5043 362.37Z" fill="#F2DFD7"/>
<path d="M110.09 372.338C110.09 372.338 90.8631 371.836 88.2529 353.281" stroke="#ECB1A9" stroke-width="3" stroke-miterlimit="10" stroke-linecap="round" stroke-linejoin="round"/>
<path d="M88.5713 348.14C89.7172 347.827 91.1815 347.639 93.0277 347.639C97.4842 347.639 109.453 347.639 116.838 347.639" stroke="#ECB1A9" stroke-width="3" stroke-miterlimit="10" stroke-linecap="round" stroke-linejoin="round"/>
<path d="M228.072 51.8364L202.034 68.1978L243.097 85.4368L228.072 51.8364Z" fill="#40798C"/>
<path d="M44.0797 68.2339L227.94 68.2339L227.94 2.91376L44.0797 2.91376L44.0797 68.2339Z" fill="#40798C"/>
<path d="M44.0203 68.2606C62.3389 68.2606 77.1891 53.6382 77.1891 35.6005C77.1891 17.5628 62.3389 2.94043 44.0203 2.94043C25.7017 2.94043 10.8516 17.5628 10.8516 35.6005C10.8516 53.6382 25.7017 68.2606 44.0203 68.2606Z" fill="#40798C"/>
<path d="M227.945 68.2606C246.263 68.2606 261.113 53.6382 261.113 35.6005C261.113 17.5628 246.263 2.94043 227.945 2.94043C209.626 2.94043 194.776 17.5628 194.776 35.6005C194.776 53.6382 209.626 68.2606 227.945 68.2606Z" fill="#40798C"/>
<path d="M32.2324 27.1485C31.3824 29.5625 29.9034 31.9765 28.3734 33.5065C28.7134 33.9995 29.2744 35.1045 29.4614 35.6145C29.8354 35.2065 30.2264 34.7475 30.6004 34.2375V42.9245H32.5384V31.2285C33.1674 30.1065 33.7114 28.9165 34.1534 27.7435L32.2324 27.1485ZM35.3774 34.6455C34.9864 36.5325 34.2724 38.4535 33.3034 39.6435C33.7964 39.8985 34.6464 40.4085 35.0374 40.7315C35.9894 39.3545 36.8564 37.2125 37.3494 35.0535L35.3774 34.6455ZM42.4494 31.9935C42.3644 32.7415 42.2624 33.4555 42.1774 33.9825L43.8944 34.2715C44.1324 33.2855 44.4214 31.7045 44.6254 30.3275L43.1974 30.0555L42.8744 30.1235H37.0264C37.3324 29.2905 37.6044 28.4575 37.8254 27.5905L35.8534 27.1485C35.2754 29.4775 34.2554 31.8235 32.9634 33.2685C33.4224 33.5745 34.2384 34.2375 34.5954 34.5945C35.1564 33.8805 35.7174 32.9795 36.1934 31.9935H38.1654V40.6635C38.1654 40.8845 38.0804 40.9525 37.8594 40.9525C37.6214 40.9525 36.9074 40.9525 36.1934 40.9355C36.4994 41.4795 36.8054 42.3805 36.8904 42.9755C37.9784 42.9755 38.7944 42.8905 39.3894 42.5675C40.0014 42.2275 40.1714 41.6665 40.1714 40.6975V31.9935H42.4494ZM40.7834 35.0875C41.5994 36.8385 42.3134 39.1675 42.5004 40.6805L44.4384 40.0175C44.2004 38.4875 43.4694 36.2265 42.5854 34.4755L40.7834 35.0875ZM58.9054 29.7325H57.8174V28.6445H58.9054V29.7325ZM56.2874 29.7325H55.2674V28.6445H56.2874V29.7325ZM53.7374 29.7325H52.7174V28.6445H53.7374V29.7325ZM60.6224 27.5395H51.0854V30.8375H60.6224V27.5395ZM49.9804 29.6475C49.5214 28.9675 48.6204 27.9135 47.8724 27.0975L46.3594 27.9985C47.0564 28.8315 47.9744 30.0045 48.3994 30.7185L49.9804 29.6475ZM59.5684 36.3965C59.1434 36.7535 58.5994 37.1615 58.1234 37.4675C57.6984 37.1955 57.2734 36.9065 56.8824 36.6685L55.6584 37.5185C55.9814 37.7395 56.3214 37.9605 56.6784 38.2155L54.4854 38.8445V37.6375C55.1824 37.2465 55.8114 36.8385 56.3554 36.3965H59.5684ZM53.4314 34.4245H58.1574V35.2745H53.4314V34.4245ZM61.0474 39.4905C60.6224 39.1505 59.9934 38.7255 59.3304 38.2665C59.9084 37.9435 60.5544 37.5015 61.0984 37.0765L60.0274 36.2605V33.3025H51.6464V36.3965H54.1284C52.9554 37.0425 51.4934 37.5865 50.2524 37.9095C50.5584 38.1985 50.9834 38.7255 51.2044 39.0825C51.7484 38.9125 52.3094 38.6915 52.8874 38.4365V38.8615C52.8874 39.4735 52.5814 39.6945 52.3094 39.8135C52.4624 40.0345 52.6664 40.4595 52.7684 40.8165C51.2894 40.6125 50.2184 40.1025 49.5554 38.9125C49.8784 37.8925 50.1334 36.7365 50.3034 35.4445L49.4534 35.0875L49.1474 35.1385H48.1784C48.9264 33.9995 49.8444 32.4185 50.4054 31.4665V32.7075H61.3704V31.4155H50.4394L50.4564 31.3815L49.2324 30.9055L48.9604 31.0245H45.9004V32.6395H47.9064C47.3794 33.5575 46.7674 34.5095 46.4954 34.7985C46.2234 35.1385 45.9514 35.2745 45.6964 35.3425C45.8664 35.6995 46.2234 36.5495 46.3254 36.9575C46.4614 36.8215 46.9714 36.7025 47.3624 36.7025H48.3484C47.8724 38.9635 46.9714 40.6635 45.6114 41.6665C46.0024 41.9215 46.6654 42.6015 46.9374 42.9925C47.6684 42.3975 48.3144 41.6155 48.8584 40.5785C50.1504 42.3295 52.1224 42.6695 55.2674 42.6695C57.2564 42.6695 59.4154 42.6185 61.1834 42.5165C61.2854 41.9555 61.5574 41.0545 61.8464 40.6465C59.9084 40.8335 57.1204 40.9355 55.3014 40.9355C54.5364 40.9355 53.8564 40.9185 53.2104 40.8505C53.7034 40.6465 54.6554 40.3235 57.0864 39.5925C57.0184 39.2865 56.9164 38.7765 56.8654 38.3515C57.9534 39.0995 59.1094 39.9495 59.7724 40.4935L61.0474 39.4905ZM67.1844 38.5725V40.5615H65.2464V38.5725H67.1844ZM68.9524 36.9745H63.4954V42.8395H65.2464V42.1765H68.9524V36.9745ZM63.2404 36.0905H69.2584V34.5605H63.2404V36.0905ZM63.5804 32.1465V33.6425H68.9694V32.1465H63.5804ZM67.5074 29.0355C67.2694 28.4405 66.7254 27.5735 66.1984 26.9615L64.5664 27.7435C64.9914 28.2875 65.4334 29.0185 65.6884 29.6135H62.7304V31.2115H69.8024V29.6135H66.4364L67.5074 29.0355ZM73.4064 40.8335C72.6074 40.8335 72.4544 40.7315 72.4544 40.0175V35.3255H75.6674V36.1585H77.7074V27.9305H70.3634V29.8515H75.6674V33.4045H70.4144V40.0175C70.4144 42.1595 71.0604 42.7545 73.1684 42.7545H75.9394C77.8604 42.7545 78.4214 41.9215 78.6594 39.1165C78.1154 38.9805 77.2484 38.6405 76.8064 38.3175C76.6874 40.4425 76.5684 40.8335 75.8034 40.8335H73.4064ZM92.4294 29.8345H88.0094V28.9845H92.4294V29.8345ZM92.4294 32.0445H88.0094V31.1605H92.4294V32.0445ZM94.4694 27.5735H86.0544V33.4555H94.4694V27.5735ZM83.1304 27.0975C82.4164 28.2365 80.9204 29.6135 79.5944 30.4295C79.9004 30.8545 80.3934 31.6875 80.5974 32.1465C82.1954 31.1095 83.9294 29.4435 85.0514 27.8795L83.1304 27.0975ZM83.5724 30.8035C82.5864 32.4695 80.9204 34.1185 79.4074 35.1725C79.7134 35.6655 80.2234 36.8215 80.3764 37.2635C80.8864 36.8725 81.3964 36.3965 81.9064 35.8865V42.9415H83.8614V33.7105C84.4224 32.9965 84.9324 32.2825 85.3404 31.5685L83.5724 30.8035ZM95.3704 36.8215H93.0584V35.8525H95.0304V34.2035H85.1874V35.8525H91.0014V36.8215H84.7794V38.5385H87.1594L85.9014 39.3715C86.6154 40.0855 87.4824 41.0885 87.8564 41.7345L89.3694 40.6635C88.9444 40.0685 88.1114 39.1845 87.4314 38.5385H91.0014V40.9015C91.0014 41.0885 90.9334 41.1565 90.6954 41.1735C90.4744 41.1735 89.6754 41.1735 88.9614 41.1395C89.2164 41.6495 89.5054 42.3975 89.5904 42.9415C90.7464 42.9415 91.5964 42.9415 92.2254 42.6525C92.8884 42.3635 93.0584 41.8875 93.0584 40.9525V38.5385H95.3874L95.3704 36.8215ZM105.094 30.7355C105.689 31.0755 106.352 31.4495 107.015 31.8405C106.25 32.3675 105.417 32.7925 104.584 33.0645C104.924 33.4215 105.434 34.0845 105.689 34.4925C106.709 34.0845 107.712 33.5405 108.613 32.8605C109.565 33.4725 110.398 34.0675 110.959 34.5435L112.37 33.1665C111.775 32.7075 110.942 32.1635 110.024 31.6025C110.891 30.6675 111.622 29.5625 112.098 28.2875L110.84 27.6925L110.517 27.7605H105.621V29.3585H109.497C109.191 29.8175 108.851 30.2595 108.443 30.6675C107.712 30.2425 107.015 29.8515 106.386 29.5285L105.094 30.7355ZM100.181 32.8435V32.1975H102.544V32.6565L100.181 32.8435ZM102.544 28.7635V29.3585H100.181V28.7635H102.544ZM100.181 30.4805H102.544V31.0755H100.181V30.4805ZM102.544 34.6625H104.363V28.7635H105.332V27.3355H97.0874V28.7635H98.3794V32.9795C97.7844 33.0135 97.2404 33.0475 96.7474 33.0815L96.9684 34.5265C98.5154 34.3905 100.538 34.2205 102.544 34.0165V34.6625ZM100.011 37.0085C99.5014 38.5725 98.4134 39.7795 97.1044 40.5105C97.3424 40.9525 97.6824 41.9555 97.8014 42.3975C98.8044 41.7855 99.6544 40.9525 100.334 39.9155C100.929 40.6295 101.541 41.3605 101.864 41.8875L103.088 40.7825C102.68 40.1535 101.864 39.2525 101.116 38.5045C101.269 38.1645 101.405 37.8075 101.524 37.4505L100.011 37.0085ZM109.361 34.2545C106.607 34.7815 101.779 35.0875 97.8864 35.0705C98.2604 35.4955 98.7704 36.4305 99.0424 36.8725C100.436 36.8215 102.034 36.7195 103.632 36.6005V42.9415H105.655V36.3965C107.593 36.1925 109.446 35.9375 110.908 35.5975L109.361 34.2545ZM108.783 36.3285C108.307 38.0795 107.287 39.4735 105.978 40.3235C106.216 40.7655 106.573 41.7515 106.692 42.2105C107.661 41.5305 108.46 40.6295 109.123 39.5245C109.701 40.5105 110.432 41.3945 111.214 41.9725C111.503 41.5305 112.047 40.9185 112.472 40.5955C111.452 40.0005 110.483 38.9465 109.905 37.8755C110.058 37.5185 110.177 37.1275 110.296 36.7365L108.783 36.3285ZM119.068 30.5825C118.66 31.0755 118.15 31.5005 117.572 31.9085C117.215 31.6195 116.722 31.2965 116.28 31.0415C116.433 30.8885 116.569 30.7355 116.722 30.5825H119.068ZM120.224 29.4265L119.918 29.4945H118.847V28.9505H121.601V27.7435H118.847V27.0635H117.147V29.2735L116.11 29.0695C115.617 29.8175 114.767 30.6165 113.611 31.2455C113.951 31.4495 114.444 31.9425 114.665 32.2825C114.886 32.1465 115.09 32.0105 115.294 31.8575C115.651 32.0955 116.042 32.3675 116.331 32.6395C115.583 33.0305 114.767 33.3365 113.985 33.5575C114.308 33.8465 114.75 34.4075 114.954 34.7815C117.521 33.9485 120.122 32.4015 121.346 30.0215L120.224 29.4265ZM117.878 35.9035C118.473 35.6145 119.068 35.3085 119.629 34.9855L119.612 35.5295H123.76V35.0195C124.355 35.3255 125.001 35.6315 125.63 35.9035H117.878ZM126.31 39.7455C126.038 39.9835 125.766 40.2215 125.511 40.4595C124.814 40.2045 124.117 39.9665 123.437 39.7455H126.31ZM118.932 40.9695V39.7455H121.924L121.329 40.4255C121.567 40.4935 121.822 40.5785 122.094 40.6465L118.932 40.9695ZM118.932 38.1815H124.593V38.7085H118.932V38.1815ZM118.932 36.9575H124.593V37.4165H118.932V36.9575ZM120.292 34.5605C120.734 34.2715 121.159 33.9825 121.533 33.6595C121.975 33.9655 122.451 34.2715 122.927 34.5605H120.292ZM128.928 32.5035C128.384 32.0445 127.602 31.5515 126.752 31.0585C127.568 30.2425 128.231 29.2565 128.656 28.0665L127.534 27.6075L127.245 27.6585H122.145V29.0355H126.327C126.021 29.4775 125.647 29.8685 125.239 30.2085C124.508 29.8515 123.777 29.4945 123.114 29.2055L121.992 30.2935C122.553 30.5485 123.148 30.8545 123.76 31.1775C123.318 31.3985 122.859 31.5855 122.417 31.7215C122.502 31.7895 122.604 31.9085 122.706 32.0445L121.601 31.4665C119.918 33.4045 116.705 34.8495 113.73 35.6145C114.121 36.0055 114.563 36.6175 114.784 37.0595C115.532 36.8215 116.263 36.5665 116.994 36.2775V40.4595C116.994 41.1055 116.722 41.3775 116.433 41.5135C116.671 41.8025 116.977 42.4995 117.045 42.9075C117.47 42.7035 118.116 42.5845 122.196 42.1085C122.179 41.7515 122.196 41.1395 122.23 40.6975C124.253 41.3605 126.599 42.3125 127.823 43.0095L128.792 41.8365C128.299 41.5645 127.653 41.2755 126.956 40.9865C127.483 40.6295 128.044 40.2045 128.588 39.7795L127.177 38.8785C126.99 39.0825 126.769 39.3205 126.514 39.5585V36.2435C127.245 36.4985 127.942 36.7365 128.622 36.9235C128.86 36.4985 129.353 35.8355 129.727 35.4785C127.313 34.9685 124.355 33.8805 122.587 32.7415C122.706 32.6225 122.825 32.4865 122.944 32.3675C123.131 32.6225 123.301 32.8945 123.403 33.1155C124.1 32.8605 124.763 32.5205 125.392 32.1295C126.31 32.7075 127.143 33.2855 127.687 33.7615L128.928 32.5035ZM130.866 33.7615V35.9545H146.506V33.7615H130.866ZM154.343 27.0975C154.275 29.9705 154.598 37.5865 147.696 41.2755C148.376 41.7345 149.022 42.3805 149.379 42.9245C152.915 40.8505 154.7 37.7735 155.635 34.7815C156.621 37.7055 158.508 41.0205 162.282 42.8225C162.554 42.2445 163.132 41.5645 163.761 41.0715C157.828 38.4535 156.791 32.0445 156.553 29.7495C156.621 28.7295 156.655 27.8115 156.672 27.0975H154.343ZM177.327 36.1925C176.715 37.1105 175.933 37.8755 174.981 38.5045C174.369 37.9435 173.349 37.2805 172.431 36.7705C172.754 36.5835 173.043 36.3965 173.332 36.1925H177.327ZM174.947 30.0215C174.301 30.7355 173.519 31.3815 172.601 31.9425C172.04 31.4665 171.105 30.9055 170.255 30.4635C170.476 30.3105 170.68 30.1745 170.884 30.0215H174.947ZM178.789 34.4245L178.449 34.5095H175.406C175.78 34.1525 176.137 33.7785 176.46 33.3875L174.42 32.9115C175.865 31.8575 177.089 30.5825 177.922 29.0185L176.63 28.2705L176.29 28.3555H172.89C173.179 28.0665 173.451 27.7775 173.706 27.4885L171.513 27.0295C170.34 28.4235 168.249 29.8515 165.24 30.8035C165.682 31.1435 166.311 31.8405 166.6 32.2995C167.297 32.0275 167.943 31.7385 168.555 31.4155C169.337 31.8405 170.204 32.4015 170.833 32.8775C169.082 33.6765 167.093 34.2375 165.104 34.5605C165.461 35.0025 165.852 35.7845 166.039 36.2945C168.861 35.7335 171.649 34.7475 173.927 33.2515C172.567 34.7305 170.255 36.1925 166.991 37.1785C167.416 37.5185 167.994 38.2665 168.232 38.7425C169.099 38.4365 169.915 38.0965 170.663 37.7225C171.513 38.2325 172.516 38.9295 173.162 39.5075C171.258 40.3575 168.98 40.8675 166.532 41.1225C166.838 41.5985 167.229 42.4145 167.382 42.9755C173.213 42.1765 178.092 40.1705 180.149 35.1215L178.789 34.4245ZM184.875 29.5795C184.195 31.5345 183.056 33.7105 181.934 35.0705C182.427 35.2915 183.294 35.7675 183.702 36.0565C184.756 34.5775 185.963 32.2315 186.796 30.0725L184.875 29.5795ZM192.729 30.3445C193.817 32.0955 195.16 34.4925 195.789 35.9885L197.523 34.9685C196.843 33.4725 195.517 31.2455 194.361 29.4945L192.729 30.3445ZM193.681 35.8355C191.573 39.2865 187.306 40.5105 181.628 40.9865C182.002 41.5135 182.393 42.3295 182.563 42.9245C188.615 42.2275 193.12 40.6805 195.534 36.6515L193.681 35.8355ZM188.462 27.0975V37.6715H190.468V27.0975H188.462ZM200.94 31.3475C201.365 30.8375 201.79 30.2935 202.147 29.7325C202.929 30.2255 203.728 30.8035 204.323 31.3475H200.94ZM202.963 39.9495V35.9885H204.969V34.2715H202.963V33.0305H204.408V31.4325C204.561 31.5685 204.697 31.7045 204.816 31.8235L205.632 30.1745C205.037 29.6135 204.051 28.8825 203.031 28.2705C203.133 28.0665 203.235 27.8625 203.337 27.6585L201.892 26.9785C201.144 28.5255 199.818 30.0045 198.577 30.9225C198.815 31.4325 199.172 32.5545 199.274 32.9965C199.546 32.7755 199.818 32.5205 200.09 32.2655V33.0305H201.348V34.2715H199.138V35.9885H201.348V40.2215C200.43 40.3915 199.58 40.5445 198.9 40.6465L199.274 42.4655C200.906 42.0915 203.065 41.6495 205.088 41.1735L204.986 39.5755L202.963 39.9495ZM199.257 36.9575C199.512 37.8755 199.733 39.0825 199.784 39.8985L201.076 39.5075C200.974 38.7425 200.736 37.5185 200.447 36.6175L199.257 36.9575ZM204.221 39.6775C204.459 38.9635 204.765 37.8245 205.071 36.8385L203.694 36.4475C203.575 37.3145 203.32 38.5385 203.099 39.3035L204.221 39.6775ZM211.803 38.1135C211.429 38.5895 210.953 39.0145 210.392 39.3885C210.205 39.0485 210.018 38.6915 209.865 38.2835L211.803 38.1135ZM211.769 30.6675C211.429 31.0415 211.004 31.3815 210.528 31.6535C210.375 31.4155 210.222 31.1435 210.086 30.8205L211.769 30.6675ZM212.041 38.0965L214.574 37.8585L214.438 36.2945L212.228 36.4815L213.044 35.5465C212.534 35.2065 211.548 34.7475 210.817 34.4415L209.882 35.5125C210.477 35.7845 211.259 36.1925 211.752 36.5325L209.389 36.7365C209.219 36.0225 209.117 35.2745 209.083 34.4755H208.097C208.709 34.2545 209.355 34.0165 209.95 33.7275C210.715 34.4415 211.616 34.8665 212.585 34.8665C213.809 34.8665 214.319 34.4925 214.574 32.8265C214.132 32.6905 213.588 32.4525 213.265 32.1295C213.18 32.9795 213.061 33.2345 212.67 33.2345C212.296 33.2345 211.922 33.0985 211.582 32.8265C212.347 32.3505 213.027 31.7725 213.554 31.1265L212.109 30.6335L214.404 30.4295L214.251 28.8655L212.313 29.0355L213.112 28.1175C212.653 27.7775 211.769 27.3185 211.089 27.0465L210.103 28.1175C210.664 28.3725 211.361 28.7465 211.803 29.0695L209.542 29.2735C209.389 28.5935 209.27 27.8795 209.236 27.1145H207.468C207.519 27.9135 207.621 28.6785 207.791 29.4095L205.802 29.5795L205.938 31.1945L208.267 30.9735C208.437 31.5175 208.675 31.9935 208.947 32.4355C207.876 32.8945 206.652 33.2515 205.445 33.5065C205.802 33.8465 206.346 34.5605 206.567 34.9515C206.822 34.8835 207.06 34.8155 207.315 34.7305C207.366 35.4785 207.468 36.1925 207.621 36.8725L205.717 37.0425L205.853 38.6575L208.063 38.4535C208.267 39.1165 208.556 39.7285 208.862 40.2725C207.74 40.7825 206.465 41.2075 205.173 41.4965C205.53 41.8535 206.074 42.6015 206.278 42.9755C207.485 42.6185 208.709 42.1595 209.848 41.5815C210.647 42.4485 211.616 42.9585 212.67 42.9585C213.945 42.9585 214.489 42.5335 214.744 40.6805C214.319 40.5445 213.741 40.2895 213.367 39.9495C213.299 40.9525 213.18 41.2925 212.755 41.2925C212.296 41.2925 211.82 41.0715 211.395 40.6635C212.228 40.0685 212.993 39.3885 213.571 38.6235L212.041 38.0965ZM219.351 30.4465V36.4135H218.059V30.4465H219.351ZM221.153 38.2835V28.5765H216.274V39.6775H218.059V38.2835H221.153ZM221.799 42.4145C222.513 41.4115 222.853 39.7625 223.057 38.3175L221.561 37.8925C221.391 39.2525 221 40.7655 220.354 41.7175L221.799 42.4145ZM223.431 38.2325C223.669 39.3375 223.805 40.7655 223.737 41.7005L225.131 41.4795C225.165 40.5445 225.012 39.1165 224.74 38.0115L223.431 38.2325ZM225.301 38.0965C225.675 39.0315 225.998 40.2895 226.066 41.1055L227.358 40.6975C227.256 39.9155 226.916 38.6915 226.508 37.7565L225.301 38.0965ZM229.228 39.7965C229.058 39.1675 228.667 38.1985 228.225 37.4845L227.154 37.8585C227.545 38.5895 227.919 39.5755 228.055 40.2385L229.228 39.7965ZM224.009 34.5945H225.828V35.6145H224.009V34.5945ZM225.828 29.4945V30.4635H224.009V29.4945H225.828ZM225.828 33.0305H224.009V32.0445H225.828V33.0305ZM227.698 35.6145V34.5945H230.435V33.0305H227.698V32.0445H230.435V30.4635H227.698V29.4945H230.911V27.7435H222.105V37.2975H229.483C229.364 39.8135 229.211 40.7995 228.99 41.0715C228.854 41.2415 228.701 41.2755 228.48 41.2755C228.225 41.2755 227.766 41.2755 227.205 41.2245C227.477 41.6835 227.664 42.3975 227.681 42.9415C228.395 42.9585 229.041 42.9415 229.449 42.8735C229.891 42.8055 230.231 42.6695 230.554 42.2615C230.979 41.7175 231.183 40.1705 231.336 36.3455C231.353 36.1075 231.37 35.6145 231.37 35.6145H227.698ZM239.377 37.1105H241.57C241.315 34.7475 245.021 34.4585 245.021 31.9595C245.021 29.6985 243.219 28.5595 240.754 28.5595C238.935 28.5595 237.439 29.3755 236.368 30.6335L237.762 31.9255C238.595 31.0415 239.428 30.5825 240.482 30.5825C241.808 30.5825 242.624 31.1605 242.624 32.1805C242.624 33.8295 239.02 34.4415 239.377 37.1105ZM240.482 41.6325C241.349 41.6325 241.978 41.0205 241.978 40.1365C241.978 39.2355 241.349 38.6235 240.482 38.6235C239.632 38.6235 238.986 39.2355 238.986 40.1365C238.986 41.0205 239.615 41.6325 240.482 41.6325Z" fill="white"/>
</svg>
