<svg width="1083" height="497" viewBox="0 0 1083 497" fill="none" xmlns="http://www.w3.org/2000/svg">
<path d="M967.5 390.1C967.4 390.1 967.4 390.1 967.5 390.1L754.4 390.2V390.1C733.2 390.1 716 372.9 716 351.7C716 333.3 728.9 318 746.2 314.2L736.9 293L784.4 313.3H967.4H967.5C988.7 313.3 1005.9 330.5 1005.9 351.7C1005.9 372.9 988.7 390.1 967.5 390.1Z" stroke="#F0CC67" stroke-width="4" stroke-miterlimit="10" stroke-linecap="round" stroke-linejoin="round"/>
<path d="M772.232 343.984V346.382H780.944V343.984H772.232ZM772.078 341.3C771.506 343.94 770.318 346.47 768.69 348.032C769.284 348.362 770.34 349.176 770.78 349.616C772.474 347.79 773.86 344.908 774.63 341.784L772.078 341.3ZM777.05 349.286L774.784 349.572C775.422 354.83 776.588 359.23 779.47 361.562C779.866 360.88 780.658 359.868 781.274 359.384C778.722 357.536 777.6 353.598 777.05 349.286ZM779.25 350.496C778.392 351.596 776.896 353.026 775.84 353.84L777.38 355.336C778.48 354.522 779.932 353.29 781.098 352.146L779.25 350.496ZM771.198 361.826C771.638 361.43 772.386 361.1 776.412 359.384C776.258 358.834 776.126 357.734 776.126 357.008L771.77 358.724L770.934 359.538L771.198 361.826ZM763.718 341.982C764.158 342.95 764.598 344.204 764.752 345.04L767.128 344.226C766.93 343.412 766.468 342.18 766.006 341.278L763.718 341.982ZM760.902 344.754V347.196H769.592V344.754H760.902ZM764.51 349.33V351.728H768.03V349.33H764.51ZM766.952 349.33V349.792C766.82 356.436 766.644 358.746 766.292 359.252C766.116 359.516 765.962 359.582 765.676 359.582C765.346 359.582 764.774 359.56 764.092 359.516C764.444 360.11 764.686 361.1 764.73 361.76C765.588 361.804 766.38 361.782 766.908 361.694C767.524 361.584 767.942 361.364 768.36 360.77C768.932 359.956 769.108 357.382 769.284 350.342C769.306 350.034 769.306 349.33 769.306 349.33H766.952ZM762.97 346.074V350.188C762.97 353.202 762.684 357.074 760.352 360.506C760.968 360.902 761.826 361.518 762.266 361.98C764.928 358.262 765.346 353.84 765.346 350.232V346.074H762.97ZM778.634 346.646C776.786 347.57 773.684 348.494 770.868 349.044C771.154 349.572 771.506 350.452 771.638 351.002C774.63 350.43 778.084 349.594 780.658 348.494L778.634 346.646ZM771.198 361.826C771.198 360.88 773.398 359.054 773.398 359.054V349.044H770.868V357.646C770.868 358.812 770.318 359.56 769.878 359.956C770.274 360.33 770.978 361.276 771.198 361.826ZM788.336 344.182V346.338H795.728V344.182H788.336ZM791.24 348.032V350.166H794.232V348.032H791.24ZM793.44 348.032V348.428C793.286 353.906 793.132 355.82 792.802 356.26C792.648 356.48 792.494 356.546 792.252 356.546C791.966 356.546 791.526 356.546 790.976 356.48C791.284 357.052 791.504 357.954 791.548 358.592C792.296 358.614 792.978 358.592 793.44 358.526C793.968 358.416 794.364 358.24 794.738 357.712C795.266 356.986 795.464 354.808 795.64 348.934C795.64 348.648 795.662 348.032 795.662 348.032H793.44ZM796.784 343.544V345.7H803.274V343.544H796.784ZM795.992 351.31V353.378H803.23V351.31H795.992ZM796.608 346.998V348.912H801.426V346.998H796.608ZM797.51 341.212C796.982 343.104 796.08 345.106 795.068 346.426C795.596 346.756 796.476 347.46 796.872 347.856C797.928 346.36 799.028 343.984 799.688 341.806L797.51 341.212ZM798.456 350.056V356.04C798.456 356.238 798.39 356.304 798.126 356.304C797.884 356.304 797.048 356.304 796.256 356.282C796.564 356.898 796.916 357.822 796.982 358.46C798.214 358.46 799.138 358.416 799.82 358.064C800.546 357.712 800.678 357.096 800.678 356.062V350.056H798.456ZM800.766 346.998V347.394C800.326 348.186 799.336 349.352 798.456 350.056C798.808 350.364 799.402 350.98 799.666 351.42C800.854 350.518 802.174 349.154 803.12 347.944L801.734 346.866L801.316 346.998H800.766ZM790.03 345.172V348.208C790.03 350.584 789.832 354.148 788.006 356.612C788.49 356.92 789.238 357.624 789.59 358.086C791.834 355.27 792.12 351.068 792.12 348.252V345.172H790.03ZM790.58 341.696C790.91 342.62 791.262 343.852 791.416 344.644L793.77 344.138C793.616 343.368 793.22 342.202 792.868 341.3L790.58 341.696ZM783.386 342.444C784.266 343.544 785.322 345.084 785.806 346.03L787.918 344.71C787.39 343.808 786.312 342.4 785.41 341.366L783.386 342.444ZM782.924 346.448V348.56H787.566V346.448H782.924ZM787.39 356.018L785.63 356.722C787.258 360.946 789.986 361.606 795.09 361.606C797.664 361.606 800.48 361.562 802.79 361.408C802.922 360.704 803.252 359.516 803.626 358.988C801.118 359.23 797.488 359.362 795.134 359.362C791.152 359.34 788.556 358.988 787.39 356.018ZM786.334 351.794V352.19C785.85 356.018 784.53 358.812 782.418 360.286C782.924 360.638 783.782 361.54 784.134 362.046C786.422 360.308 788.006 356.986 788.622 352.19L787.522 351.75L787.126 351.794H786.334ZM783.43 354.192C783.628 353.994 784.266 353.84 784.794 353.84H787.61L787.632 351.794H784.376L783.43 352.3V354.192ZM783.43 354.192C783.43 353.598 785.212 352.718 785.212 352.718C786.4 351.31 788.16 348.494 789.128 346.998L787.478 346.316L786.818 346.58V346.668C786.136 347.878 784.31 350.694 783.694 351.332C783.298 351.75 782.946 351.926 782.572 352.014C782.836 352.498 783.298 353.62 783.43 354.192ZM816.012 342.048C816.65 343.17 817.332 344.666 817.574 345.59L820.148 344.666C819.862 343.698 819.092 342.29 818.432 341.212L816.012 342.048ZM809.522 341.41C808.4 344.556 806.486 347.68 804.462 349.682C804.924 350.342 805.672 351.838 805.914 352.498C808.334 349.99 810.644 345.964 812.074 342.224L809.522 341.41ZM807.3 347.482V361.958H809.962V344.842L809.94 344.82L807.3 347.482ZM811.612 345.458V347.966H825.076V345.458H811.612ZM812.338 351.86V354.368H824.46V351.86H812.338ZM811.128 358.768V361.276H825.406V358.768H811.128ZM817.002 346.338V360.374H819.686V346.338H817.002ZM827.562 343.192V347.372H830.158V345.414H843.754V346.844H846.46V343.192H827.562ZM833.942 347.262V349.594H846.79V347.262H833.942ZM835.812 354.962V357.096H844.348V354.962H835.812ZM835.812 358.834V361.078H844.348V358.834H835.812ZM834.602 351.112V361.98H837.11V353.334H843.16V361.87H845.8V351.112H834.602ZM838.76 348.384C838.628 349.594 838.254 351.244 837.924 352.344L840.234 352.982C840.652 351.992 841.18 350.496 841.73 349.022L838.76 348.384ZM831.632 345.986C830.466 348.582 828.508 351.09 826.44 352.674C826.902 353.246 827.694 354.566 827.958 355.138C830.334 353.158 832.644 349.968 834.074 346.8L831.632 345.986ZM829.63 350.584V361.98H832.138V348.34L831.962 348.252L829.63 350.584ZM834.976 341.872C835.372 342.84 835.878 344.116 836.076 344.93L839.024 344.028C838.782 343.258 838.21 342.026 837.792 341.124L834.976 341.872ZM863.004 357.624C864.5 358.922 866.436 360.792 867.294 361.958L869.362 360.33C868.394 359.164 866.392 357.404 864.94 356.194L863.004 357.624ZM865.248 347.592C863.862 350.54 860.76 353.532 857.152 355.138C857.57 355.6 858.208 356.458 858.516 356.986C862.432 355.094 865.666 351.838 867.558 348.318L865.248 347.592ZM866.502 351.794C864.83 355.336 860.914 358.46 855.986 360C856.426 360.506 857.108 361.452 857.416 362.046C862.674 360.22 866.7 356.81 869.032 352.652L866.502 351.794ZM857.658 343.918V346.338H869.164V343.918H857.658ZM858.252 352.278C858.252 351.618 861.046 350.804 861.046 350.804C861.926 349.352 863.312 346.734 864.126 345.282H861.53C861.046 346.25 859.726 348.714 859.264 349.242C858.912 349.682 858.23 349.836 857.746 349.946C857.922 350.518 858.164 351.684 858.252 352.278ZM858.252 352.278C858.736 352.058 859.55 351.904 863.994 351.618C864.104 351.09 864.412 350.166 864.676 349.572L859.33 349.836L858.186 350.496L858.252 352.278ZM861.728 341.872C862.168 342.84 862.586 344.094 862.718 344.908L865.138 344.116C865.006 343.324 864.5 342.092 864.038 341.19L861.728 341.872ZM849.694 348.032V350.034H856.338V348.032H849.694ZM849.694 351.024V353.004H856.382V351.024H849.694ZM848.792 344.974V347.064H857.262V344.974H848.792ZM850.816 354.06V356.172H854.27V358.636H850.816V360.748H856.404V354.06H850.816ZM849.716 354.06V361.694H851.916V354.06H849.716ZM851.08 342.202C851.63 343.148 852.268 344.49 852.554 345.326L854.534 344.16C854.226 343.346 853.588 342.136 852.994 341.212L851.08 342.202ZM875.786 355.116V358.57C875.786 360.924 876.578 361.65 879.746 361.65C880.406 361.65 883.442 361.65 884.124 361.65C886.566 361.65 887.336 360.946 887.688 358.152C886.94 357.998 885.84 357.624 885.29 357.228C885.158 359.032 884.982 359.318 883.904 359.318C883.112 359.318 880.56 359.318 879.966 359.318C878.624 359.318 878.382 359.208 878.382 358.526V355.116H875.786ZM879.064 354.962C880.252 355.908 881.88 357.25 882.65 358.064L884.41 356.216C883.574 355.424 881.88 354.17 880.736 353.334L879.064 354.962ZM886.39 355.27C887.248 357.14 888.304 359.626 888.766 361.1L891.472 360.242C890.922 358.768 889.778 356.37 888.898 354.588L886.39 355.27ZM872.816 354.83C872.398 356.524 871.628 358.614 870.902 360.044L873.366 361.166C874.026 359.67 874.686 357.404 875.17 355.754L872.816 354.83ZM875.566 343.5V345.766H890.526V343.5H875.566ZM880.076 347.02V349.088H889.272V347.02H880.076ZM880.098 350.386V352.564H889.866V350.386H880.098ZM878.426 344.468V354.192H881.088V344.468H878.426ZM875.522 341.256C874.664 344.182 873.036 346.932 871.012 348.604C871.628 349.022 872.706 349.946 873.168 350.452C875.258 348.472 877.128 345.304 878.206 341.894L875.522 341.256ZM895.63 342.95V345.238H912.922V342.95H895.63ZM894.2 342.95V349.044C894.2 352.322 894.112 357.074 892.66 360.352C893.21 360.616 894.31 361.452 894.75 361.914C896.4 358.328 896.708 352.652 896.708 349.044V342.95H894.2ZM902.142 341.608C902.34 342.334 902.604 343.28 902.692 343.896L905.464 343.302C905.354 342.708 905.068 341.806 904.826 341.124L902.142 341.608ZM897.39 346.712V348.692H904.474V346.712H897.39ZM905.024 346.712V348.692H912.79V346.712H905.024ZM899.81 345.722V353.312H901.79V345.722H899.81ZM907.686 345.722V353.356H909.666V345.722H907.686ZM907.4 357.294C908.566 358.68 910.128 360.616 910.854 361.76L912.9 360.682C912.064 359.56 910.458 357.668 909.314 356.37L907.4 357.294ZM897.61 361.65C898.402 361.364 899.678 361.342 910.744 360.55C910.678 360.11 910.634 359.208 910.678 358.636L898.842 359.428L897.566 360.11L897.61 361.65ZM897.61 361.65C897.61 361.254 899.04 360.726 899.04 360.726V360.66C902.472 359.362 906.19 357.448 909.578 354.984L907.642 353.664C904.76 355.996 900.844 358.042 899.612 358.57C898.468 359.12 897.72 359.428 896.994 359.538C897.214 360.11 897.522 361.21 897.61 361.65ZM898.38 357.734C898.82 357.558 899.568 357.426 904.672 357.162C904.804 356.81 905.112 356.128 905.376 355.71L899.282 355.996L898.358 356.48L898.38 357.734ZM898.38 357.734C898.38 357.338 899.502 356.81 899.502 356.81V356.766C901.306 356.04 903.264 354.94 904.892 353.686L903.132 352.564C901.746 353.818 899.832 354.918 899.238 355.204C898.666 355.512 898.204 355.71 897.764 355.754C897.984 356.326 898.292 357.316 898.38 357.734ZM897.742 349.374V350.232C897.742 351.002 897.61 352.08 896.774 352.718C897.17 352.916 897.786 353.422 898.05 353.752C899.062 352.784 899.216 351.442 899.216 350.298V349.374H897.742ZM905.596 349.33V350.166C905.596 350.87 905.464 351.882 904.606 352.454C904.98 352.652 905.618 353.158 905.86 353.466C906.894 352.586 907.048 351.31 907.048 350.232V349.33H905.596ZM902.318 349.462V351.31C902.318 352.344 902.516 352.828 903.55 352.828C903.792 352.828 903.792 352.828 903.946 352.828C904.254 352.828 904.584 352.806 904.738 352.762C904.716 352.41 904.716 352.036 904.694 351.706C904.474 351.772 904.078 351.794 903.924 351.794C903.836 351.794 904.056 351.794 903.968 351.794C903.77 351.794 903.748 351.684 903.748 351.332V349.462H902.318ZM910.216 349.352V351.552C910.216 352.652 910.436 353.18 911.58 353.18C911.844 353.18 912.13 353.18 912.35 353.18C912.68 353.18 913.076 353.158 913.252 353.07C913.208 352.718 913.186 352.322 913.186 351.97C912.966 352.058 912.526 352.08 912.306 352.08C912.174 352.08 912.086 352.08 911.998 352.08C911.734 352.08 911.712 351.948 911.712 351.574V349.352H910.216ZM916.178 342.686V345.304H933.756V342.686H916.178ZM914.99 352.014V354.676H935.032V352.014H914.99ZM917.498 346.712C918.202 348.186 918.906 350.122 919.126 351.31L921.678 350.496C921.436 349.286 920.666 347.416 919.896 346.008L917.498 346.712ZM930.038 345.942C929.62 347.394 928.806 349.33 928.124 350.606L930.434 351.288C931.16 350.144 932.062 348.34 932.854 346.668L930.038 345.942ZM923.592 343.786V361.958H926.342V343.786H923.592ZM940.268 349.396V351.97H952.17V349.396H940.268ZM951.312 349.396V349.88C951.114 355.996 950.872 358.46 950.344 359.032C950.102 359.274 949.86 359.34 949.464 359.34C948.914 359.34 947.77 359.318 946.538 359.208C947.022 359.956 947.374 361.1 947.418 361.87C948.716 361.914 949.992 361.936 950.762 361.826C951.598 361.694 952.214 361.496 952.764 360.748C953.534 359.846 953.798 357.228 954.04 350.54C954.062 350.21 954.084 349.396 954.084 349.396H951.312ZM944.206 350.144C943.854 354.06 943.326 357.778 937.43 359.714C938.046 360.286 938.816 361.408 939.146 362.134C945.702 359.692 946.648 355.094 947.066 350.144H944.206ZM941.874 342.07C940.862 345.392 938.882 348.362 936.396 350.122C937.012 350.584 938.134 351.574 938.618 352.102C941.148 349.99 943.392 346.58 944.646 342.752L941.874 342.07ZM945.79 341.674V344.116H950.828V341.674H945.79ZM948.298 341.674V343.038H948.87C950.058 346.448 952.434 349.968 955.712 352.036C956.152 351.31 957.032 350.166 957.604 349.594C954.502 348.01 952.258 344.886 951.224 341.674H948.298ZM967.306 354.346H970.166C969.814 351.31 974.632 350.914 974.632 347.702C974.632 344.776 972.3 343.28 969.11 343.28C966.756 343.28 964.82 344.358 963.412 345.986L965.216 347.636C966.294 346.514 967.394 345.898 968.736 345.898C970.474 345.898 971.53 346.646 971.53 347.988C971.53 350.122 966.844 350.892 967.306 354.346ZM968.758 360.22C969.858 360.22 970.694 359.406 970.694 358.262C970.694 357.118 969.858 356.326 968.758 356.326C967.636 356.326 966.8 357.118 966.8 358.262C966.8 359.406 967.614 360.22 968.758 360.22Z" fill="#40798C"/>
<path d="M611.22 444.319L609.542 435.865H575.788H552.103L548.876 444.319L534.613 482.203H564.559H618.771L611.22 444.319Z" fill="white" stroke="#D2D5DA" stroke-width="3" stroke-miterlimit="10" stroke-linecap="round" stroke-linejoin="round"/>
<path d="M534.613 482.203L548.876 444.319H512.993L490.727 482.203L482.918 495.498H529.579H561.332L564.558 482.203H534.613Z" fill="white" stroke="#D2D5DA" stroke-width="3" stroke-miterlimit="10" stroke-linecap="round" stroke-linejoin="round"/>
<path d="M410.851 428.068L355.09 465.629H363.932H434.02L457.319 434.005L461.707 428.068H410.851ZM432.149 461.95H411.174L412.206 460.595C412.335 459.239 409.818 459.046 407.108 459.046H390.78C388.069 459.046 386.004 459.562 383.616 461.046L382.067 462.015H367.094L412.013 431.811H454.543L432.149 461.95Z" fill="white" stroke="#D2D5DA" stroke-width="3" stroke-miterlimit="10" stroke-linecap="round" stroke-linejoin="round"/>
<path d="M434.666 470.663L434.02 471.566C434.278 471.244 434.472 470.985 434.666 470.663Z" stroke="#1F363D" stroke-width="3" stroke-miterlimit="10" stroke-linecap="round" stroke-linejoin="round"/>
<path d="M434.02 465.629H363.932H355.09C355.09 465.629 352.638 467.242 355.09 471.566H434.02L434.666 470.663C436.15 468.081 434.02 465.629 434.02 465.629Z" fill="#D2D5DA" stroke="#D2D5DA" stroke-width="3" stroke-miterlimit="10" stroke-linecap="round" stroke-linejoin="round"/>
<path d="M461.707 428.068L457.318 434.005L434.02 465.629C434.02 465.629 436.15 468.146 434.666 470.663L461.707 434.005C461.707 434.005 464.224 431.101 461.707 428.068Z" fill="#1F363D" stroke="#1F363D" stroke-width="3" stroke-miterlimit="10" stroke-linecap="round" stroke-linejoin="round"/>
<path d="M367.094 461.95H382.067L383.616 460.982C385.939 459.498 388.069 458.981 390.78 458.981H407.108C409.818 458.981 412.335 459.239 412.206 460.53L411.174 461.885H432.149L454.479 431.682H411.948L367.094 461.95Z" fill="#1F363D" stroke="white" stroke-width="3" stroke-miterlimit="10" stroke-linecap="round" stroke-linejoin="round"/>
<path d="M526.61 294.139C565.747 294.139 597.473 262.413 597.473 223.276C597.473 184.14 565.747 152.413 526.61 152.413C487.474 152.413 455.747 184.14 455.747 223.276C455.747 262.413 487.474 294.139 526.61 294.139Z" fill="#1F363D"/>
<path d="M648.523 388.817L523.125 411.921L458.974 243.864L594.956 204.56L648.523 388.817Z" fill="#1F363D"/>
<path d="M681.05 382.105C680.792 379.265 680.469 376.361 680.146 373.457C673.563 321.503 650.846 281.619 629.419 284.394C610.058 286.846 598.376 323.439 601.281 368.874C601.603 373.586 602.055 378.426 602.636 383.331C602.765 384.493 602.959 385.654 603.088 386.816C605.282 402.047 608.832 416.181 613.285 428.378H676.08C679.501 426.12 680.534 422.506 680.598 418.891C680.727 419.02 680.856 419.214 681.05 419.343C682.211 408.049 682.211 395.4 681.05 382.105ZM680.082 413.599C680.082 413.535 680.017 413.47 680.017 413.406C680.017 413.47 680.017 413.535 680.082 413.599ZM679.824 412.696C679.824 412.631 679.759 412.567 679.759 412.438C679.824 412.502 679.824 412.567 679.824 412.696ZM679.63 411.728C679.63 411.663 679.63 411.599 679.565 411.534C679.565 411.599 679.565 411.663 679.63 411.728ZM679.049 409.985C679.049 409.921 678.985 409.856 678.985 409.856C679.049 409.856 679.049 409.921 679.049 409.985ZM678.791 409.275C678.791 409.211 678.726 409.146 678.726 409.082C678.791 409.146 678.791 409.211 678.791 409.275ZM678.597 408.63C678.597 408.565 678.597 408.565 678.533 408.501C678.533 408.565 678.597 408.63 678.597 408.63ZM678.146 407.597C678.146 407.533 678.146 407.533 678.081 407.533C678.146 407.533 678.146 407.597 678.146 407.597ZM678.017 407.275V407.21C678.017 407.275 678.017 407.275 678.017 407.275ZM680.663 417.665C680.663 417.73 680.663 417.859 680.663 417.923C680.663 417.859 680.663 417.73 680.663 417.665ZM680.404 415.6C680.404 415.664 680.404 415.729 680.404 415.794C680.469 415.729 680.404 415.664 680.404 415.6ZM680.534 416.568C680.534 416.633 680.534 416.762 680.534 416.826C680.534 416.762 680.534 416.697 680.534 416.568Z" fill="#CFE0C3"/>
<path d="M490.057 389.629C541.958 371.774 577.309 337.757 569.016 313.65C560.723 289.543 511.926 284.474 460.025 302.329C408.124 320.184 372.772 354.2 381.066 378.308C389.359 402.415 438.156 407.484 490.057 389.629Z" fill="#CFE0C3"/>
<path d="M533.838 297.56C526.158 319.825 555.846 350.61 601.281 368.874C598.376 323.439 610.058 286.846 629.419 284.394C631.614 284.136 633.808 284.265 636.002 284.846C636.002 284.846 636.002 284.781 635.938 284.781C586.953 269.098 541.841 274.519 533.838 297.56Z" fill="#CFE0C3"/>
<path d="M485.37 341.123V428.443H676.145L651.943 324.666L485.37 341.123Z" fill="#CFE0C3"/>
<path d="M677.888 407.016C658.913 380.297 627.483 380.039 603.088 386.816C588.115 391.011 575.853 397.787 570.883 402.821C564.3 409.404 568.689 415.406 571.141 420.117C573.594 424.829 574.175 428.378 574.175 428.378H613.349H676.145C685.18 422.441 677.888 407.016 677.888 407.016Z" fill="#F2DFD7"/>
<path d="M559.256 302.755C572.403 297.147 580.928 287.604 578.299 281.44C575.67 275.276 562.88 274.827 549.734 280.435C536.587 286.044 528.061 295.587 530.691 301.75C533.32 307.914 546.109 308.364 559.256 302.755Z" fill="#ECB1A9"/>
<path d="M562.575 244.67L515.026 264.955L530.727 301.759L578.277 281.474L562.575 244.67Z" fill="#ECB1A9"/>
<path d="M573.836 432.684L573.836 432.683L583.065 388.023C583.065 388.023 583.065 388.023 583.065 388.023C583.28 386.985 584.342 386.251 585.492 386.479C586.528 386.696 587.26 387.756 587.032 388.905C587.032 388.907 587.031 388.908 587.031 388.91L577.804 433.496L577.804 433.496L577.802 433.506C577.65 434.267 576.855 436.393 575.822 438.318C575.311 439.27 574.793 440.074 574.334 440.597C574.303 440.632 574.273 440.665 574.245 440.696C574.233 440.66 574.22 440.621 574.207 440.581C573.999 439.914 573.847 438.961 573.758 437.88C573.577 435.69 573.685 433.417 573.836 432.684ZM573.824 441.058C573.824 441.058 573.826 441.057 573.828 441.056C573.826 441.058 573.824 441.058 573.824 441.058ZM574.48 441.205C574.483 441.207 574.484 441.209 574.484 441.209C574.484 441.209 574.483 441.208 574.48 441.205Z" fill="white" stroke="#D2D5DA" stroke-width="3"/>
<path d="M576.498 403.144C576.498 403.144 578.95 405.919 577.014 409.275" stroke="#ECB1A9" stroke-width="3" stroke-miterlimit="10" stroke-linecap="round" stroke-linejoin="round"/>
<path d="M555.265 118.724C565.527 114.013 580.306 119.821 588.889 125.759C591.471 127.566 594.311 130.858 592.503 134.213C591.729 135.698 590.116 136.472 588.567 137.053C579.338 140.474 568.302 138.473 560.88 131.955C560.557 131.632 560.17 131.309 560.105 130.858C559.46 127.953 569.076 130.148 570.431 130.47C574.562 131.503 580.112 133.116 582.887 136.537C583.404 137.118 583.791 137.828 583.92 138.602C584.049 139.57 583.662 140.603 583.145 141.442C581.532 143.83 578.563 144.991 575.659 144.991C572.819 144.991 570.044 144.023 567.398 142.926C566.624 142.603 565.656 142.023 565.656 141.184C565.72 137.311 575.53 142.216 576.692 143.12C577.531 143.765 578.305 144.54 578.563 145.572C578.886 146.734 578.305 148.025 577.337 148.799C575.272 150.477 572.755 150.025 570.69 148.799C570.367 148.606 569.98 148.347 569.915 147.96C569.786 147.315 570.625 146.798 571.335 146.863C574.755 147.057 574.239 151.381 571.916 152.736C570.69 153.446 569.205 153.575 567.785 153.317" stroke="#1F363D" stroke-width="3" stroke-miterlimit="10" stroke-linecap="round" stroke-linejoin="round"/>
<path d="M570.883 232.634C570.883 198.235 545.649 170.419 514.541 170.419C483.434 170.419 458.2 198.3 458.2 232.634C458.2 244.574 461.297 256.513 467.428 266.839C472.656 275.617 480.594 284.846 486.661 288.911C495.503 294.913 508.862 295.753 514.283 295.301C545.971 292.59 570.883 266.581 570.883 232.634Z" fill="#F2DFD7"/>
<path d="M577.208 212.563C577.208 204.754 573.013 198.429 567.85 198.429C562.687 198.429 556.426 200.817 556.426 208.626C556.426 216.435 562.687 226.697 567.85 226.697C573.013 226.697 577.208 220.372 577.208 212.563Z" fill="#F2DFD7"/>
<path d="M527.191 203.527C526.933 206.174 524.48 208.11 521.705 207.852C520.285 207.722 519.124 207.077 518.285 206.109" stroke="#1F363D" stroke-width="3" stroke-miterlimit="10" stroke-linecap="round" stroke-linejoin="round"/>
<path d="M475.109 244.316L491.372 252.125" stroke="#1F363D" stroke-width="3" stroke-miterlimit="10" stroke-linecap="round" stroke-linejoin="round"/>
<path d="M486.855 240.185L479.046 256.513" stroke="#1F363D" stroke-width="3" stroke-miterlimit="10" stroke-linecap="round" stroke-linejoin="round"/>
<path d="M523.318 227.278L539.582 235.087" stroke="#1F363D" stroke-width="3" stroke-miterlimit="10" stroke-linecap="round" stroke-linejoin="round"/>
<path d="M535.064 223.147L527.255 239.411" stroke="#1F363D" stroke-width="3" stroke-miterlimit="10" stroke-linecap="round" stroke-linejoin="round"/>
<path d="M519.382 267.291C520.807 267.291 521.963 266.164 521.963 264.774C521.963 263.384 520.807 262.257 519.382 262.257C517.956 262.257 516.8 263.384 516.8 264.774C516.8 266.164 517.956 267.291 519.382 267.291Z" stroke="#E07D5C" stroke-width="3" stroke-miterlimit="10" stroke-linecap="round" stroke-linejoin="round"/>
<path d="M516.155 182.23C516.155 182.23 500.666 216.822 458.845 243.154C458.845 243.154 444.905 196.686 482.079 174.485C519.253 152.284 564.3 170.355 567.85 198.493C567.85 198.493 557.459 199.978 556.427 208.69C556.427 208.626 517.768 194.04 516.155 182.23Z" fill="#1F363D"/>
<path d="M463.814 211.595C440.387 202.366 405.536 235.409 385.917 285.297C366.297 335.185 369.395 383.137 392.822 392.302C393.21 392.431 393.597 392.56 393.92 392.689C394.113 392.302 394.307 391.914 394.5 391.527C395.146 390.107 395.856 388.688 396.501 387.332C397.598 385.009 398.695 382.75 399.793 380.427C401.277 377.393 402.697 374.296 404.181 371.262C405.924 367.584 407.731 363.905 409.473 360.226C411.474 356.031 413.475 351.836 415.475 347.706C417.67 343.188 419.799 338.606 421.994 334.088C424.253 329.312 426.576 324.537 428.835 319.761C431.158 314.92 433.482 310.016 435.805 305.175C438.128 300.335 440.452 295.559 442.71 290.719C444.969 286.072 447.164 281.425 449.422 276.778C451.488 272.454 453.617 268.066 455.683 263.742C457.554 259.805 459.426 255.933 461.297 251.996C462.911 248.64 464.524 245.348 466.073 241.992C467.364 239.346 468.59 236.765 469.881 234.119C470.72 232.312 471.624 230.569 472.463 228.762C473.947 225.6 474.399 222.05 472.85 218.629C471.946 216.693 471.107 215.403 469.3 214.241C467.622 213.079 465.686 212.305 463.814 211.595Z" fill="#F2DFD7"/>
<path d="M442.13 233.409C442.13 233.409 450.971 216.048 469.365 221.856" stroke="#ECB1A9" stroke-width="3" stroke-miterlimit="10" stroke-linecap="round" stroke-linejoin="round"/>
<path d="M590.245 403.08C590.245 403.08 572.368 405.79 571.916 422.054C571.464 438.253 582.823 429.54 582.823 429.54C582.823 429.54 590.438 433.864 606.25 427.733" fill="#F2DFD7"/>
<path d="M590.245 403.08C590.245 403.08 572.368 405.79 571.916 422.054C571.464 438.253 582.823 429.54 582.823 429.54C582.823 429.54 590.438 433.864 606.25 427.733" stroke="#ECB1A9" stroke-width="3" stroke-miterlimit="10" stroke-linecap="round" stroke-linejoin="round"/>
<path d="M569.725 254.688C569.725 254.688 554.956 356.541 620.564 349.023C620.564 349.023 631.902 345.583 624.799 340.174C617.696 334.765 611.439 331.619 610.643 310.135C609.926 288.641 594.791 262.049 594.533 243.5L569.725 254.688Z" fill="#20363D"/>
<path d="M151.283 465.565C191.203 465.565 223.565 433.203 223.565 393.283C223.565 353.362 191.203 321 151.283 321C111.362 321 79 353.362 79 393.283C79 433.203 111.362 465.565 151.283 465.565Z" fill="#70A9A1"/>
<path d="M216.595 369.984L222.146 393.734L239.958 377.084L216.595 369.984Z" fill="#70A9A1"/>
<path d="M195.31 417.699C194.175 414.948 191.013 413.639 188.257 414.786L185.27 416.026L180.041 402.285C186.513 397.565 188.797 388.759 184.703 381.679L173.001 361.384C171.92 359.509 169.61 358.727 167.597 359.55L152.152 365.942L136.708 359.55C134.695 358.713 132.384 359.509 131.303 361.384L119.602 381.679C115.521 388.759 117.791 397.565 124.263 402.271L119.034 416.013L116.048 414.772C113.292 413.626 110.143 414.934 108.995 417.685C108.765 418.238 109.022 418.872 109.576 419.101L131.506 428.19C132.06 428.419 132.681 428.163 132.911 427.61C134.046 424.859 132.749 421.704 129.993 420.557L127.006 419.317L132.33 405.346C132.925 405.413 133.519 405.521 134.1 405.521C141.086 405.521 147.531 401.058 149.423 394.018L152.152 383.85L154.882 394.018C156.773 401.058 163.219 405.521 170.204 405.521C170.785 405.521 171.38 405.413 171.974 405.346L177.285 419.317L174.299 420.557C171.542 421.704 170.231 424.859 171.38 427.61C171.61 428.163 172.245 428.419 172.785 428.19L194.729 419.101C195.269 418.872 195.539 418.251 195.31 417.699ZM146.194 381.086L131.047 374.815L135.978 366.265L148.747 371.552L146.194 381.086V381.086ZM158.111 381.086L155.557 371.552L168.326 366.265L173.258 374.815L158.111 381.086V381.086Z" fill="#1F363D"/>
<path d="M724.664 265.329C755.959 265.329 781.329 239.959 781.329 208.665C781.329 177.37 755.959 152 724.664 152C693.37 152 668 177.37 668 208.665C668 239.959 693.37 265.329 724.664 265.329Z" fill="#F0CC67"/>
<path d="M680.714 240.675L693.686 254.745L675.035 258.94L680.714 240.675Z" fill="#F0CC67"/>
<path fill-rule="evenodd" clip-rule="evenodd" d="M725.116 185.771L697.448 209.931C697.325 210.041 697.182 210.115 697.038 210.19C696.942 210.24 696.846 210.29 696.755 210.351V233.533C696.755 234.641 697.662 235.538 698.781 235.538H702.802V233.622C702.802 229.296 706.4 225.785 710.835 225.785H711.414C712.871 226.465 714.475 226.874 716.191 226.874C717.906 226.874 719.517 226.465 720.967 225.785H721.546C725.981 225.785 729.579 229.296 729.579 233.622V235.538H731.81V233.622C731.81 230.996 730.743 228.622 729.042 226.833C730.192 226.187 731.503 225.785 732.926 225.785H733.191C734.16 226.112 735.185 226.329 736.273 226.329C737.361 226.329 738.386 226.112 739.355 225.785H739.62C743.936 225.785 747.43 229.193 747.43 233.405C747.43 234.22 747.123 234.966 746.616 235.538H751.451C752.57 235.538 753.477 234.641 753.477 233.533V210.356C753.389 210.297 753.295 210.248 753.201 210.199C753.063 210.129 752.926 210.058 752.811 209.955L725.116 185.771ZM760.908 200.978L753.477 194.481V177.378C753.477 176.27 752.57 175.372 751.451 175.372H743.348C742.229 175.372 741.322 176.27 741.322 177.378V183.857L728.503 172.654C727.537 171.794 726.326 171.363 725.116 171.361C723.906 171.36 722.698 171.789 721.735 172.649L689.324 200.978C688.492 201.719 688.423 202.986 689.171 203.811L691.881 206.796C692.628 207.62 693.909 207.689 694.742 206.948L723.776 181.593C724.542 180.925 725.691 180.925 726.457 181.593L755.491 206.947C756.323 207.686 757.604 207.619 758.353 206.795L761.062 203.81C761.809 202.986 761.741 201.717 760.908 200.978ZM724 215.989C724 220.2 720.507 223.608 716.191 223.608C711.874 223.608 708.381 220.2 708.381 215.989C708.381 211.778 711.874 208.37 716.191 208.37C720.507 208.37 724 211.778 724 215.989ZM742.967 217.077C742.967 220.683 739.969 223.608 736.273 223.608C732.577 223.608 729.579 220.683 729.579 217.077C729.579 213.472 732.577 210.547 736.273 210.547C739.969 210.547 742.967 213.472 742.967 217.077Z" fill="#1F363D"/>
<path d="M324.587 400.367L330.354 397.369C326.463 391.616 335.764 385.768 332.398 379.29C329.332 373.389 323.061 372.816 316.628 376.159C311.88 378.626 309.106 382.829 307.972 387.588L313.34 389.025C314.338 385.633 315.911 383.237 318.617 381.831C322.122 380.01 325.036 380.411 326.442 383.118C328.678 387.421 320.035 393.885 324.587 400.367ZM333.671 410.691C335.889 409.538 336.722 407.02 335.523 404.713C334.324 402.406 331.808 401.685 329.59 402.838C327.327 404.014 326.471 406.487 327.67 408.794C328.869 411.101 331.364 411.89 333.671 410.691Z" fill="#F0CC67"/>
<path d="M962.942 436.136L932.783 428.158L931.636 432.496L961.794 440.475L962.942 436.136ZM930.139 438.154L928.991 442.492L959.149 450.471L960.297 446.132L930.139 438.154Z" fill="#1F363D"/>
<path d="M279 263.763C279 243.511 262.577 227.071 242.349 227H38.7924V227.071H38.7219C18.4931 227.071 2 243.511 2 263.833C2 284.155 18.4226 300.596 38.7219 300.596H38.7924H213.662L259.053 320L250.172 299.678C266.665 296.08 279 281.332 279 263.763Z" stroke="#40798C" stroke-width="4" stroke-miterlimit="10" stroke-linecap="round" stroke-linejoin="round"/>
<path d="M60.16 256.644L57.586 257.348C60.27 265.796 64.868 271.406 73.712 273.716C74.086 273.012 74.9 271.824 75.494 271.274C67.134 269.316 62.338 264.036 60.16 256.644ZM56.156 254.554V257.172H71.314V254.554H56.156ZM70.566 254.554V255.104C68.564 264.432 62.69 269.096 54.66 271.186C55.254 271.736 56.068 272.99 56.332 273.672C64.582 271.274 70.962 265.73 73.338 255.258L71.49 254.422L71.05 254.554H70.566ZM77.056 268.304V270.394H96.988V268.304H77.056ZM82.27 262.298H92.06V263.09H82.27V262.298ZM82.27 264.586H92.06V265.4H82.27V264.586ZM82.27 260.032H92.06V260.824H82.27V260.032ZM79.608 258.448V266.984H94.854V258.448H79.608ZM89.596 266.566V273.936H92.324V266.566H89.596ZM79.85 254.73V256.644H87.176V254.73H79.85ZM88.804 254.708V256.622H97.032V254.708H88.804ZM79.938 253.146C79.168 254.84 77.826 256.512 76.462 257.59C76.946 258.074 77.804 259.152 78.134 259.658C79.696 258.25 81.346 256.05 82.336 253.894L79.938 253.146ZM89.354 253.146C88.738 254.774 87.572 256.424 86.186 257.48C86.824 257.744 87.968 258.316 88.518 258.712C89.772 257.546 91.114 255.676 91.862 253.74L89.354 253.146ZM81.918 257.15C82.248 257.634 82.622 258.294 82.776 258.712L85.042 257.92C84.866 257.502 84.448 256.864 84.096 256.424L81.918 257.15ZM91.708 257.106C92.214 257.634 92.764 258.36 93.006 258.822L95.118 257.92C94.832 257.436 94.216 256.732 93.71 256.248L91.708 257.106ZM82.292 266.544V268.612C82.292 269.778 81.588 271.252 77.518 272.088C78.112 272.594 78.816 273.452 79.168 274.024C83.854 272.748 84.954 270.746 84.954 268.678V266.544H82.292ZM107.834 255.874V258.162H118.68V255.874H107.834ZM107.394 260.252V262.606H119.208V260.252H107.394ZM109.792 253.322V261.484H112.08V253.322H109.792ZM114.412 253.322V261.484H116.766V253.322H114.412ZM108.78 263.86V273.958H111.09V266.016H115.666V273.936H118.086V263.86H108.78ZM110.122 267.49V269.558H116.59V267.49H110.122ZM110.122 271.054V273.144H116.37V271.054H110.122ZM100.464 258.866V261.066H106.206V258.866H100.464ZM99.21 262.694V264.916H106.932V262.694H99.21ZM99.364 266.17C99.694 267.38 100.002 268.964 100.068 270.02L101.784 269.492C101.674 268.48 101.344 266.918 100.97 265.73L99.364 266.17ZM98.902 270.988L99.408 273.342C101.564 272.88 104.424 272.264 107.086 271.67L106.954 269.58C103.984 270.13 100.904 270.68 98.902 270.988ZM105.238 265.51C105.106 266.632 104.754 268.216 104.468 269.25L105.964 269.712C106.294 268.766 106.69 267.314 107.108 266.016L105.238 265.51ZM102.136 259.768V271.934L104.27 271.538V259.768H102.136ZM102.862 253.168C101.85 255.192 100.134 257.128 98.484 258.316C98.792 258.976 99.276 260.45 99.408 261.022C101.432 259.394 103.522 256.688 104.798 254.07L102.862 253.168ZM102.312 256.226C103.918 257.128 105.744 258.47 106.756 259.504L107.834 257.326C106.822 256.402 104.996 255.148 103.302 254.29L102.312 256.226ZM129.702 261.088V270.9C129.702 271.274 129.548 271.384 129.064 271.384C128.558 271.406 126.754 271.406 125.192 271.34C125.61 272.066 126.094 273.232 126.248 274.002C128.36 274.024 129.944 273.98 131.044 273.584C132.144 273.188 132.496 272.462 132.496 270.966V261.088H129.702ZM122.046 254.862V257.458H137.424V254.862H122.046ZM136.632 254.862V255.5C135.378 257.172 132.342 259.68 129.702 261.088C130.23 261.528 131.066 262.408 131.462 262.98C134.52 261.374 137.82 258.69 140.064 256.27L137.974 254.708L137.38 254.862H136.632ZM150.548 272.308C151.692 272.308 152.572 271.406 152.572 270.196C152.572 268.986 151.692 268.106 150.548 268.106C149.382 268.106 148.546 268.986 148.546 270.196C148.546 271.406 149.382 272.308 150.548 272.308ZM157.703 272.308C158.847 272.308 159.727 271.406 159.727 270.196C159.727 268.986 158.847 268.106 157.703 268.106C156.537 268.106 155.701 268.986 155.701 270.196C155.701 271.406 156.537 272.308 157.703 272.308ZM164.857 272.308C166.001 272.308 166.881 271.406 166.881 270.196C166.881 268.986 166.001 268.106 164.857 268.106C163.691 268.106 162.855 268.986 162.855 270.196C162.855 271.406 163.691 272.308 164.857 272.308ZM181.902 272.308C186.214 272.308 189.162 269.096 189.162 263.794C189.162 258.514 186.214 255.434 181.902 255.434C177.568 255.434 174.62 258.492 174.62 263.794C174.62 269.096 177.568 272.308 181.902 272.308ZM181.902 269.646C179.46 269.646 177.942 267.468 177.942 263.794C177.942 260.318 179.46 258.228 181.902 258.228C184.322 258.228 185.862 260.318 185.862 263.794C185.862 267.468 184.322 269.646 181.902 269.646ZM187.16 276.422C188.348 276.422 189.316 276.224 189.91 275.938L189.316 273.54C188.832 273.716 188.238 273.826 187.512 273.826C185.884 273.826 184.212 273.166 183.596 271.582L180.296 271.912C181.33 274.508 183.706 276.422 187.16 276.422ZM198.831 272.308C203.143 272.308 206.091 269.096 206.091 263.794C206.091 258.514 203.143 255.434 198.831 255.434C194.497 255.434 191.549 258.492 191.549 263.794C191.549 269.096 194.497 272.308 198.831 272.308ZM198.831 269.646C196.389 269.646 194.871 267.468 194.871 263.794C194.871 260.318 196.389 258.228 198.831 258.228C201.251 258.228 202.791 260.318 202.791 263.794C202.791 267.468 201.251 269.646 198.831 269.646ZM204.089 276.422C205.277 276.422 206.245 276.224 206.839 275.938L206.245 273.54C205.761 273.716 205.167 273.826 204.441 273.826C202.813 273.826 201.141 273.166 200.525 271.582L197.225 271.912C198.259 274.508 200.635 276.422 204.089 276.422Z" fill="#40798C"/>
<path d="M823.664 492.329C854.959 492.329 880.329 466.959 880.329 435.664C880.329 404.37 854.959 379 823.664 379C792.37 379 767 404.37 767 435.664C767 466.959 792.37 492.329 823.664 492.329Z" fill="#40798C"/>
<path d="M779.714 403.654L792.686 389.584L774.035 385.389L779.714 403.654Z" fill="#40798C"/>
<path d="M830.518 430.797L817.93 427.132C816.473 426.715 815.459 425.358 815.459 423.85C815.459 421.96 816.998 420.429 818.898 420.429H826.625C828.047 420.429 829.446 420.858 830.611 421.647C831.322 422.122 832.278 422.006 832.884 421.415L836.94 417.472C837.768 416.672 837.651 415.338 836.73 414.631C833.875 412.404 830.308 411.163 826.648 411.152V405.585C826.648 404.565 825.809 403.73 824.784 403.73H821.054C820.028 403.73 819.189 404.565 819.189 405.585V411.152H818.898C811.473 411.152 805.506 417.495 806.194 425.021C806.683 430.367 810.786 434.716 815.961 436.224L827.907 439.703C829.364 440.132 830.378 441.477 830.378 442.985C830.378 444.875 828.84 446.406 826.94 446.406H819.212C817.79 446.406 816.392 445.977 815.226 445.188C814.515 444.713 813.56 444.829 812.954 445.42L808.898 449.363C808.07 450.163 808.187 451.497 809.107 452.204C811.963 454.431 815.529 455.671 819.189 455.683V461.25C819.189 462.27 820.028 463.105 821.054 463.105H824.784C825.809 463.105 826.648 462.27 826.648 461.25V455.66C832.08 455.556 837.173 452.343 838.968 447.229C841.474 440.086 837.266 432.756 830.518 430.797V430.797Z" fill="#F0CC67"/>
</svg>
