<svg width="1081" height="496" viewBox="0 0 1081 496" fill="none" xmlns="http://www.w3.org/2000/svg">
<path d="M940.789 297.332C1018.17 297.332 1080.9 234.602 1080.9 157.22C1080.9 79.8378 1018.17 17.1074 940.789 17.1074C863.407 17.1074 800.677 79.8378 800.677 157.22C800.677 234.602 863.407 297.332 940.789 297.332Z" fill="#70A9A1"/>
<path d="M828.751 231.503L859.149 267.709L812.616 275.97L828.751 231.503Z" fill="#70A9A1"/>
<path d="M984.999 152.831L994.163 289.975L1023.66 270.742C1026.04 259.255 1027.46 246.67 1027.66 233.375C1028.37 179.744 1008.56 136.051 983.385 135.728C975.447 135.599 967.896 139.859 961.249 147.474C962.088 148.701 962.862 149.991 963.507 151.411L984.999 152.831Z" fill="white"/>
<path d="M944.081 149.991L958.409 150.96C959.377 149.669 960.345 148.507 961.313 147.345C959.506 144.764 957.376 142.634 954.794 141.021C933.561 127.532 893.031 153.347 864.312 198.589C835.593 243.83 829.526 291.459 850.759 304.948C857.858 309.465 867.023 309.594 877.284 306.045L869.152 304.948L944.081 149.991Z" fill="white"/>
<path d="M963.572 151.347C962.926 149.927 962.152 148.636 961.313 147.41C960.345 148.507 959.377 149.733 958.409 151.024L963.572 151.347Z" fill="white"/>
<path d="M937.434 253.317C918.911 280.423 896.388 299.591 877.349 306.174L953.246 316.694L956.666 314.435C946.792 300.688 939.757 278.874 937.434 253.317Z" fill="white"/>
<path d="M984.998 152.831L963.636 151.347C973.188 171.483 964.927 210.27 941.306 247.444C940.015 249.445 938.724 251.381 937.434 253.317C939.757 278.874 946.856 300.688 956.666 314.37L994.163 289.91L984.998 152.831Z" fill="white"/>
<path d="M937.434 253.317C936.788 246.476 936.53 239.377 936.595 232.149C937.046 198.008 945.695 168.127 958.409 151.024L944.081 150.056L869.152 305.077L877.284 306.174C896.387 299.655 918.911 280.423 937.434 253.317Z" fill="white"/>
<path d="M963.572 151.347L958.409 150.96C945.695 168.127 937.047 198.008 936.595 232.084C936.53 239.377 936.789 246.476 937.434 253.252C938.725 251.316 940.015 249.38 941.306 247.38C964.863 210.27 973.188 171.483 963.572 151.347Z" fill="white"/>
<path d="M956.666 314.435L953.245 316.693L959.054 317.468C958.215 316.5 957.44 315.467 956.666 314.435Z" fill="white"/>
<path d="M927.688 43.3098C928.721 45.7623 931.69 46.8594 934.271 45.7623C935.562 45.1815 936.53 44.2134 936.982 43.0517" stroke="#1F363D" stroke-width="3" stroke-miterlimit="10" stroke-linecap="round" stroke-linejoin="round"/>
<path d="M965.351 158.357C978.777 155.345 988.515 147.8 987.103 141.505C985.691 135.21 973.663 132.548 960.237 135.559C946.812 138.571 937.073 146.116 938.485 152.411C939.898 158.707 951.926 161.369 965.351 158.357Z" fill="#ECB1A9"/>
<path d="M978.686 103.895L930.069 114.802L938.503 152.399L987.12 141.492L978.686 103.895Z" fill="#ECB1A9"/>
<path d="M1009.46 95.1986C1023.59 65.1883 1013.01 30.5313 985.902 17.7527C958.796 4.97419 925.301 18.9144 911.231 48.9247C906.326 59.3799 904.132 71.0613 905.229 82.5491C906.197 92.3589 909.36 103.653 912.909 109.72C918.137 118.561 929.431 124.822 934.4 126.629C963.185 137.277 995.518 124.822 1009.46 95.1986Z" fill="#F2DFD7"/>
<path d="M1023.2 80.3547C1026.43 73.5782 1025.33 66.2854 1020.88 64.2202C1016.36 62.0904 1009.91 61.5741 1006.75 68.4152C1003.52 75.1917 1004.81 86.744 1009.26 88.8738C1013.78 90.939 1020.04 87.1313 1023.2 80.3547Z" fill="#F2DFD7"/>
<path d="M928.915 66.35C930.34 66.35 931.496 65.2231 931.496 63.833C931.496 62.4429 930.34 61.316 928.915 61.316C927.489 61.316 926.333 62.4429 926.333 63.833C926.333 65.2231 927.489 66.35 928.915 66.35Z" fill="#1F363D"/>
<path d="M968.67 67.5117C970.096 67.5117 971.252 66.3848 971.252 64.9947C971.252 63.6046 970.096 62.4777 968.67 62.4777C967.244 62.4777 966.089 63.6046 966.089 64.9947C966.089 66.3848 967.244 67.5117 968.67 67.5117Z" fill="#1F363D"/>
<path d="M948.663 82.42C949.05 79.7739 947.114 77.3215 944.339 76.8697C942.984 76.6761 941.629 76.9988 940.596 77.7732" stroke="#E07D5C" stroke-width="3" stroke-miterlimit="10" stroke-linecap="round" stroke-linejoin="round"/>
<path d="M980.352 32.7256C980.352 32.7256 982.223 44.5361 994.098 51.7644C998.293 54.3459 1005.72 67.8344 1005.72 67.8344C1005.72 67.8344 1014.43 58.5409 1020.95 64.1557C1020.95 64.1557 1023.85 4.90967 950.148 11.1699C950.148 11.1699 904.003 14.4613 902.325 62.2196C902.325 62.2196 904.971 62.8649 916.394 54.6686C916.394 54.6686 916.072 59.5735 928.205 54.0232C928.205 54.0232 931.819 57.3147 939.693 51.6998C939.693 51.6998 943.242 54.7977 953.375 50.5382C963.507 46.3432 980.352 32.7256 980.352 32.7256Z" fill="#1F363D"/>
<path d="M902.325 62.2196C902.325 62.2196 896.323 26.5945 924.849 15.2358C924.849 15.2358 963.636 -17.4851 995.195 12.9769C995.195 12.9769 1031.08 25.3037 1020.95 64.2203L982.675 22.5286L935.885 29.7569L902.325 62.2196Z" fill="#1F363D"/>
<path d="M889.482 126.693C889.482 126.693 899.485 102.943 910.973 102.685C910.973 102.685 921.945 104.428 918.976 111.398C916.007 118.368 912.006 128.113 912.006 128.113C912.006 128.113 896.968 139.407 889.482 126.693Z" fill="#F2DFD7"/>
<path d="M911.554 122.046C887.417 114.947 855.599 150.895 840.433 202.267C825.266 253.704 832.559 301.14 856.696 308.239C857.084 308.368 857.471 308.433 857.858 308.562C857.987 308.175 858.181 307.723 858.31 307.336C858.826 305.851 859.407 304.431 859.923 302.947C860.827 300.559 861.73 298.171 862.634 295.783C863.796 292.621 865.022 289.458 866.184 286.232C867.603 282.424 869.088 278.552 870.508 274.744C872.121 270.42 873.735 266.031 875.413 261.707C877.155 256.996 878.962 252.284 880.705 247.573C882.576 242.604 884.448 237.699 886.255 232.729C888.127 227.695 890.063 222.661 891.934 217.563C893.806 212.529 895.678 207.56 897.549 202.526C899.356 197.685 901.163 192.845 902.97 188.069C904.648 183.551 906.326 179.034 908.069 174.516C909.618 170.45 911.102 166.384 912.651 162.318C913.942 158.833 915.233 155.413 916.523 151.928C917.556 149.217 918.589 146.442 919.621 143.731C920.331 141.86 921.041 139.988 921.686 138.181C922.913 134.89 923.042 131.34 921.17 128.049C920.073 126.177 919.169 125.015 917.233 123.983C915.426 123.208 913.49 122.627 911.554 122.046Z" fill="#F2DFD7"/>
<path d="M891.87 145.667C891.87 145.667 899.163 127.597 918.008 131.727" stroke="#ECB1A9" stroke-width="3" stroke-miterlimit="10" stroke-linecap="round" stroke-linejoin="round"/>
<path d="M912.522 103.072C912.522 103.072 917.879 103.201 919.298 108.752C920.202 112.301 918.395 113.915 918.395 113.915" stroke="#ECB1A9" stroke-width="3" stroke-miterlimit="10" stroke-linecap="round" stroke-linejoin="round"/>
<path d="M830.3 285.07C832.043 310.175 876.832 327.471 930.335 323.793C983.837 320.05 1025.79 296.687 1024.04 271.646C1024.04 271.259 1023.98 270.871 1023.91 270.484C1023.46 270.484 1023.01 270.484 1022.62 270.484C1021.08 270.484 1019.53 270.484 1017.98 270.484C1015.4 270.484 1012.88 270.484 1010.3 270.484C1006.88 270.484 1003.52 270.484 1000.1 270.484C996.034 270.484 991.904 270.484 987.838 270.42C983.191 270.42 978.545 270.42 973.898 270.355C968.864 270.355 963.83 270.355 958.796 270.291C953.504 270.291 948.212 270.291 942.919 270.226C937.498 270.226 932.142 270.226 926.72 270.162C921.364 270.162 916.007 270.162 910.65 270.097C905.487 270.097 900.324 270.097 895.161 270.032C890.321 270.032 885.545 270.032 880.705 269.968C876.381 269.968 872.057 269.968 867.732 269.903C864.054 269.903 860.311 269.903 856.632 269.903C853.728 269.903 850.824 269.903 847.855 269.903C845.854 269.903 843.853 269.903 841.917 269.903C838.432 269.903 835.012 271.001 832.624 273.905C831.268 275.583 830.494 276.873 830.236 279.003C830.042 281.068 830.171 283.069 830.3 285.07Z" fill="#F2DFD7"/>
<path d="M859.278 295.331C859.278 295.331 839.787 294.815 837.141 275.712" stroke="#ECB1A9" stroke-width="3" stroke-miterlimit="10" stroke-linecap="round" stroke-linejoin="round"/>
<path d="M837.464 270.42C838.626 270.097 840.11 269.903 841.982 269.903C846.499 269.903 858.633 269.903 866.119 269.903" stroke="#ECB1A9" stroke-width="3" stroke-miterlimit="10" stroke-linecap="round" stroke-linejoin="round"/>
<path d="M833.204 96.6828L806.808 113.527L848.435 131.275L833.204 96.6828Z" fill="#40798C"/>
<path d="M646.684 113.564L833.071 113.564L833.071 46.3157L646.684 46.3157L646.684 113.564Z" fill="#40798C"/>
<path d="M646.624 113.592C665.195 113.592 680.249 98.5378 680.249 79.9675C680.249 61.3973 665.195 46.3431 646.624 46.3431C628.054 46.3431 613 61.3973 613 79.9675C613 98.5378 628.054 113.592 646.624 113.592Z" fill="#40798C"/>
<path d="M833.075 113.592C851.645 113.592 866.699 98.5377 866.699 79.9674C866.699 61.3972 851.645 46.343 833.075 46.343C814.505 46.343 799.451 61.3972 799.451 79.9674C799.451 98.5377 814.505 113.592 833.075 113.592Z" fill="#40798C"/>
<path d="M638.223 72.0768C637.645 74.4398 636.608 76.7858 635.316 78.2478C635.775 78.5538 636.591 79.2168 636.948 79.5738C638.308 77.8908 639.515 75.2218 640.229 72.5358L638.223 72.0768ZM637.747 79.6418C637.356 81.5288 636.625 83.4668 635.673 84.6568C636.149 84.9118 637.016 85.4388 637.407 85.7618C638.359 84.3848 639.243 82.2088 639.719 80.0498L637.747 79.6418ZM638.597 75.0688L637.832 76.9558H645.567V75.0688H638.597ZM640.552 75.9018V85.6938C640.552 85.9148 640.467 85.9658 640.246 85.9658C640.008 85.9658 639.294 85.9828 638.58 85.9488C638.869 86.5098 639.175 87.4108 639.277 88.0058C640.365 88.0058 641.198 87.9208 641.793 87.5978C642.405 87.2578 642.575 86.6968 642.575 85.7108V75.9018H640.552ZM643.17 80.0838C644.003 81.8348 644.717 84.1808 644.904 85.7108L646.859 85.0308C646.621 83.4838 645.89 81.2228 645.006 79.4718L643.17 80.0838ZM645.023 75.0688V75.3408C644.904 76.5308 644.717 78.0438 644.564 78.9618L646.315 79.2678C646.536 78.2478 646.842 76.6668 647.046 75.2728L645.618 75.0178L645.295 75.0688H645.023ZM634.585 72.0938C633.718 74.5248 632.239 76.9388 630.692 78.4858C631.049 78.9788 631.593 80.1008 631.78 80.5938C633.633 78.6558 635.401 75.5958 636.506 72.6888L634.585 72.0938ZM632.936 76.7858V87.9718H634.891V74.8648L634.874 74.8478L632.936 76.7858ZM652.775 76.3778V77.6868H663.791V76.3778H652.775ZM655.818 79.4038H660.561V80.2538H655.818V79.4038ZM654.016 78.2818V81.3928H662.448V78.2818H654.016ZM660.238 73.5898H661.309V74.6778H660.238V73.5898ZM657.654 73.5898H658.691V74.6778H657.654V73.5898ZM655.087 73.5898H656.107V74.6778H655.087V73.5898ZM653.438 72.4678V75.7998H663.043V72.4678H653.438ZM662.278 81.1208C661.751 81.5968 660.85 82.2938 660.221 82.6678L661.292 83.5348C661.938 83.1778 662.822 82.6508 663.536 82.0728L662.278 81.1208ZM657.79 80.5598C656.634 81.5118 654.39 82.4468 652.605 82.9058C652.928 83.1948 653.37 83.7388 653.591 84.0788C655.41 83.5008 657.722 82.3448 659.031 81.1548L657.79 80.5598ZM655.223 86.0848C655.563 85.8468 656.124 85.6428 659.473 84.6058C659.388 84.2488 659.286 83.6028 659.252 83.1778L655.716 84.1808L655.07 84.7078L655.223 86.0848ZM658.062 82.5318C659.405 83.4328 661.275 84.7418 662.193 85.5238L663.485 84.5038C662.499 83.7388 660.595 82.4978 659.286 81.6648L658.062 82.5318ZM655.223 86.0848C655.223 85.5918 656.889 84.9288 656.889 84.9288V82.3448H655.274V83.8578C655.274 84.4868 654.968 84.7078 654.696 84.8098C654.9 85.0818 655.155 85.7278 655.223 86.0848ZM648.678 72.9268C649.392 73.7768 650.31 74.9668 650.735 75.6978L652.333 74.6098C651.874 73.9128 650.973 72.8418 650.208 72.0258L648.678 72.9268ZM648.236 75.9868V77.6188H651.551V75.9868H648.236ZM651.67 83.3818L650.31 83.9258C651.568 87.1898 653.676 87.6998 657.654 87.6998C659.643 87.6998 661.836 87.6658 663.621 87.5468C663.723 87.0028 663.978 86.0848 664.267 85.6768C662.329 85.8638 659.524 85.9658 657.688 85.9658C654.577 85.9488 652.571 85.6768 651.67 83.3818ZM650.888 80.1178V80.4238C650.548 83.3648 649.545 85.5238 647.947 86.6798C648.338 86.9518 649.001 87.6488 649.273 88.0228C651.007 86.6798 652.197 84.1128 652.673 80.4238L651.823 80.0838L651.5 80.1178H650.888ZM648.661 81.9708C648.814 81.8178 649.307 81.6988 649.715 81.6988H651.874V80.1178H649.392L648.661 80.5088V81.9708ZM648.661 81.9708C648.661 81.5118 650.004 80.8488 650.004 80.8488C650.854 79.7608 652.146 77.5338 652.826 76.3438L651.585 75.8678L651.092 76.0888V76.1228C650.599 77.0748 649.273 79.3018 648.831 79.7778C648.559 80.1178 648.287 80.2538 648.015 80.3388C648.202 80.6788 648.559 81.5458 648.661 81.9708ZM673.6 78.3838V80.3048H679.142V78.3838H673.6ZM672.801 78.3838V85.0308C672.801 87.2068 673.447 87.7848 675.555 87.7848C675.997 87.7848 677.867 87.7848 678.343 87.7848C680.281 87.7848 680.842 86.9688 681.097 84.1298C680.519 84.0108 679.652 83.6538 679.21 83.3308C679.091 85.4728 678.972 85.8638 678.19 85.8638C677.731 85.8638 676.184 85.8638 675.81 85.8638C674.994 85.8638 674.858 85.7448 674.858 85.0138V78.3838H672.801ZM672.733 72.8758V74.8138H678.071V81.1548H680.128V72.8758H672.733ZM665.916 77.1088V78.6218H671.339V77.1088H665.916ZM665.576 79.5568V81.0868H671.628V79.5568H665.576ZM665.083 74.5758V76.1908H672.189V74.5758H665.083ZM666.817 81.9708V83.5858H669.537V85.5748H666.817V87.1898H671.322V81.9708H666.817ZM665.831 81.9708V87.8698H667.599V81.9708H665.831ZM666.919 72.6888C667.429 73.3518 667.956 74.3038 668.177 74.8988L669.877 73.9978C669.639 73.3858 669.095 72.5358 668.551 71.8898L666.919 72.6888ZM690.396 76.1398H694.833V77.0068H690.396V76.1398ZM690.396 73.9468H694.833V74.7968H690.396V73.9468ZM688.424 72.5188V78.4348H696.89V72.5188H688.424ZM687.574 79.1828V80.8488H697.451V79.1828H687.574ZM687.132 81.8178V83.5518H697.791V81.8178H687.132ZM693.405 80.6448V85.9148C693.405 86.1188 693.337 86.1698 693.082 86.1868C692.861 86.2038 692.062 86.2038 691.348 86.1698C691.603 86.6798 691.892 87.4278 691.977 87.9888C693.15 87.9888 694 87.9718 694.629 87.6828C695.292 87.3938 695.462 86.9008 695.462 85.9658V80.6448H693.405ZM688.271 84.3848C688.968 85.1158 689.852 86.1188 690.226 86.7648L691.756 85.6768C691.314 85.0478 690.413 84.0958 689.682 83.4328L688.271 84.3848ZM685.942 75.7828C684.922 77.4318 683.256 79.1148 681.76 80.1688C682.066 80.6618 682.576 81.8178 682.712 82.2598C684.497 80.8658 686.486 78.6218 687.727 76.5308L685.942 75.7828ZM685.483 72.0428C684.769 73.1818 683.256 74.5758 681.93 75.3918C682.253 75.8168 682.729 76.6498 682.95 77.1088C684.548 76.0718 686.282 74.4058 687.421 72.8248L685.483 72.0428ZM684.259 79.5738V87.9888H686.231V77.7378L686.146 77.6868L684.259 79.5738ZM699.406 72.2808V73.7088H707.719V72.2808H699.406ZM701.616 74.3038V75.4428H705.815V74.3038H701.616ZM701.616 76.0208V77.1598H705.815V76.0208H701.616ZM708.008 72.7058V74.3378H713.159V72.7058H708.008ZM704.914 72.8418V79.6418H706.733V72.8418H704.914ZM712.581 72.7058V73.0118C711.731 75.2898 709.368 77.2108 706.937 78.0438C707.311 78.4008 707.821 79.0468 708.076 79.4718C710.847 78.3498 713.38 76.2928 714.519 73.2328L713.244 72.6378L712.921 72.7058H712.581ZM699.066 78.0608L699.287 79.5228C701.123 79.3528 703.588 79.1488 705.951 78.9108V77.5508C703.435 77.7548 700.817 77.9588 699.066 78.0608ZM707.464 75.6978C709.453 76.7858 712.105 78.4518 713.363 79.5398L714.774 78.1458C713.414 77.0578 710.694 75.4938 708.773 74.4908L707.464 75.6978ZM711.765 79.2338C708.977 79.7608 704.132 80.0838 700.222 80.0668C700.596 80.4748 701.106 81.4268 701.378 81.8688C705.101 81.7328 710.116 81.3078 713.312 80.5938L711.765 79.2338ZM700.715 72.8418V78.7748L702.534 78.5878V72.8418H700.715ZM705.985 81.3758V87.9718H708.042V80.6788L707.022 80.3388L705.985 81.3758ZM701.888 84.0618C702.704 84.9288 703.741 86.1528 704.217 86.9178L705.458 85.7958C704.965 85.0478 703.877 83.9088 703.061 83.0928L701.888 84.0618ZM702.364 82.0048C701.854 83.5858 700.749 84.7928 699.423 85.5238C699.678 85.9658 700.018 86.9858 700.137 87.4278C701.871 86.3738 703.18 84.6058 703.877 82.4468L702.364 82.0048ZM711.17 81.3248C710.694 83.0928 709.674 84.4868 708.365 85.3368C708.586 85.7788 708.96 86.7818 709.079 87.2408C710.796 86.0508 712.02 84.0958 712.7 81.7328L711.17 81.3248ZM712.19 82.5998L710.779 83.0588C711.374 84.5888 712.445 86.1698 713.618 87.0028C713.907 86.5608 714.468 85.9318 714.876 85.6088C713.771 84.9798 712.717 83.7558 712.19 82.5998ZM719.5 72.0258V75.0348H721.217V72.0258H719.5ZM720.248 72.7058V73.9128H723.988V72.7058H720.248ZM724.515 72.6208V73.9978H729.768V72.6208H724.515ZM718.446 74.0318C717.953 74.7628 717.103 75.5958 715.947 76.2078C716.287 76.4118 716.763 76.9218 717.001 77.2618C718.344 76.4288 719.296 75.4428 719.993 74.3378L718.446 74.0318ZM718.718 74.4568L717.834 75.5618H722.407V74.4568H718.718ZM721.982 74.4568V74.7118C721.064 76.4628 718.616 77.9078 716.304 78.5198C716.644 78.8258 717.086 79.4038 717.29 79.7778C719.874 78.9448 722.492 77.3808 723.716 74.9838L722.594 74.3718L722.288 74.4568H721.982ZM729.326 72.6208V72.8588C728.68 74.6438 726.844 76.0718 724.787 76.6838C725.127 77.0238 725.586 77.6698 725.79 78.0948C728.153 77.2108 730.176 75.5788 731.077 73.0118L729.955 72.5528L729.649 72.6208H729.326ZM717.443 76.7178C718.004 77.0748 718.735 77.6188 719.075 77.9928L720.146 77.0918C719.789 76.7348 719.041 76.2248 718.463 75.9018L717.443 76.7178ZM724.362 75.2728C726.385 76.1908 728.901 77.6868 730.108 78.7578L731.349 77.4828C730.04 76.4118 727.473 75.0008 725.501 74.1678L724.362 75.2728ZM720.384 80.8828V81.9538H726.997V83.7048H720.384V84.7588H728.918V80.8828H720.384ZM729.581 83.9088C728.969 84.5718 727.898 85.5238 727.082 86.0678L728.136 86.8158C728.986 86.3228 730.057 85.5408 731.009 84.7928L729.581 83.9088ZM720.35 82.4298V83.1948H727.558V82.4298H720.35ZM724.549 77.4148L723.24 78.1628C725.161 79.7268 728.408 81.2228 731.026 81.9368C731.264 81.5118 731.791 80.8318 732.165 80.4918C729.496 79.8968 726.232 78.6728 724.549 77.4148ZM723.971 76.4458C722.288 78.3668 719.058 79.8288 716.049 80.6108C716.457 81.0018 716.899 81.6308 717.12 82.0728C720.282 81.1038 723.478 79.4548 725.467 77.2108L723.971 76.4458ZM723.716 85.4558C725.926 86.1018 728.816 87.2238 730.244 88.0568L731.213 86.8668C729.666 86.0508 726.759 84.9968 724.617 84.4188L723.716 85.4558ZM719.398 87.9378C719.398 87.3598 721.285 86.5268 721.285 86.5268V80.8828H719.347V85.4728C719.347 86.1358 719.075 86.4078 718.786 86.5438C719.024 86.8158 719.33 87.5468 719.398 87.9378ZM719.398 87.9378C719.823 87.7508 720.469 87.6148 724.583 87.1388C724.549 86.7648 724.566 86.1188 724.617 85.6598L720.18 86.1018L719.347 86.6458L719.398 87.9378ZM721.982 79.5398V80.5258H726.147V79.5398H721.982ZM733.202 78.7238V80.9508H748.944V78.7238H733.202ZM756.713 72.0428C756.628 74.9498 756.951 82.5828 750.032 86.3058C750.695 86.7648 751.358 87.4108 751.732 87.9548C758.838 83.7728 758.94 75.5618 759.042 72.0428H756.713ZM758.855 74.1168L756.883 74.3378C757.138 76.0378 757.699 84.5378 764.669 87.8528C764.975 87.2748 765.553 86.5778 766.165 86.1018C759.535 83.1438 758.991 75.4938 758.855 74.1168ZM770.636 76.2418C771.673 76.7858 772.999 77.6358 773.611 78.2308L775.056 76.9728C774.393 76.3778 773.033 75.5958 772.013 75.1028L770.636 76.2418ZM778.303 73.3008V73.5898C776.62 76.7688 772.03 78.8088 767.44 79.5398C767.797 79.9818 768.205 80.7808 768.375 81.2908C773.322 80.2878 778.133 78.0778 780.343 73.9808L779.017 73.2158L778.694 73.3008H778.303ZM772.931 73.3008V74.9668H778.762V73.3008H772.931ZM773.866 71.9748C772.71 73.3688 770.602 74.7968 767.576 75.7828C768.018 76.1058 768.647 76.8028 768.936 77.2788C772.115 76.0208 774.359 74.4228 776.093 72.4508L773.866 71.9748ZM772.948 82.6848C774.002 83.2968 775.328 84.2488 775.923 84.8948L777.504 83.6368C776.824 82.9738 775.464 82.1068 774.427 81.5458L772.948 82.6848ZM780.445 79.5058V79.7948C778.864 83.8068 774.257 85.5918 768.868 86.1528C769.208 86.6118 769.582 87.4448 769.735 88.0058C775.583 87.1898 780.496 85.1838 782.57 80.1178L781.21 79.4208L780.853 79.5058H780.445ZM775.447 79.5058V81.2058H780.989V79.5058H775.447ZM776.637 77.8568C775.328 79.4718 772.897 81.1038 769.344 82.1748C769.769 82.5318 770.347 83.2798 770.585 83.7558C774.342 82.3958 776.96 80.5938 778.864 78.3668L776.637 77.8568ZM787.228 74.5248C786.531 76.5138 785.392 78.7068 784.27 80.0838C784.763 80.2878 785.647 80.7638 786.038 81.0528C787.109 79.5568 788.333 77.2108 789.166 75.0518L787.228 74.5248ZM795.099 75.3068C796.221 77.0748 797.564 79.4888 798.176 80.9848L799.927 79.9478C799.264 78.4688 797.904 76.2078 796.748 74.4568L795.099 75.3068ZM796.068 80.8318C793.96 84.2998 789.659 85.5408 783.947 86.0168C784.321 86.5268 784.729 87.3598 784.899 87.9548C790.985 87.2748 795.524 85.7108 797.938 81.6478L796.068 80.8318ZM790.815 72.0428V82.6678H792.855V72.0428H790.815ZM802.426 76.3098V78.0098H806.778V76.3098H802.426ZM801.474 79.2678V80.9848H807.339V79.2678H801.474ZM801.593 81.9538C801.848 82.8888 802.069 84.1128 802.12 84.9288L803.429 84.5208C803.327 83.7388 803.089 82.5318 802.8 81.6138L801.593 81.9538ZM801.236 85.6768L801.627 87.4958C803.259 87.1388 805.418 86.6628 807.458 86.2038L807.356 84.5888C805.095 85.0138 802.749 85.4388 801.236 85.6768ZM806.047 81.4438C805.928 82.3108 805.673 83.5348 805.452 84.3338L806.591 84.6908C806.829 83.9598 807.152 82.8378 807.441 81.8348L806.047 81.4438ZM803.701 77.0068V86.4078L805.316 86.1018V77.0068H803.701ZM804.245 71.9068C803.48 73.4708 802.154 74.9668 800.913 75.8848C801.151 76.3948 801.525 77.5338 801.61 77.9758C803.157 76.7178 804.738 74.6268 805.707 72.6038L804.245 71.9068ZM803.837 74.2698C805.044 74.9668 806.421 76.0038 807.186 76.8028L808.002 75.1198C807.254 74.4058 805.86 73.4368 804.568 72.7738L803.837 74.2698ZM808.189 74.5418L808.325 76.1568L816.808 75.3918L816.672 73.8108L808.189 74.5418ZM808.087 82.0388L808.206 83.6538L816.995 82.8718L816.876 81.2738L808.087 82.0388ZM809.855 72.0428C810.127 76.5138 812.184 79.8628 814.972 79.8628C816.213 79.8628 816.723 79.4888 816.995 77.8058C816.553 77.6698 816.009 77.4148 815.652 77.1088C815.567 77.9588 815.448 78.2138 815.074 78.2138C813.459 78.2308 811.81 75.5278 811.64 72.0428H809.855ZM809.668 79.4718C809.94 84.2318 812.15 87.9718 815.057 87.9888C816.349 87.9888 816.893 87.5638 817.148 85.7108C816.723 85.5578 816.162 85.3028 815.788 84.9628C815.703 85.9828 815.567 86.3228 815.159 86.3228C813.459 86.3228 811.64 83.2628 811.47 79.4718H809.668ZM812.524 73.0458C813.204 73.3688 814.088 73.8618 814.496 74.2358L815.516 73.0628C815.057 72.7058 814.173 72.2468 813.476 71.9748L812.524 73.0458ZM812.252 80.5088C813 80.8318 813.969 81.3588 814.445 81.7158L815.465 80.5428C814.955 80.1858 813.969 79.7268 813.238 79.4378L812.252 80.5088ZM814.275 75.5108C813.034 76.9728 810.416 77.9418 807.832 78.4688C808.172 78.8258 808.716 79.5568 808.937 79.9308C811.623 79.1998 814.428 77.9588 815.975 76.0888L814.275 75.5108ZM814.275 83.0418C812.983 84.7418 810.28 85.8978 807.526 86.5268C807.883 86.8838 808.444 87.6318 808.631 88.0228C811.504 87.1728 814.411 85.7448 815.992 83.6198L814.275 83.0418ZM819.63 73.5218V75.4088H821.704V81.4098H819.63V83.2968H823.54V73.5218H819.63ZM818.61 73.5218V84.6908H820.412V73.5218H818.61ZM825.614 75.4258V77.0068H832.856V75.4258H825.614ZM825.614 78.0098V79.5908H832.856V78.0098H825.614ZM824.475 80.6108V82.3108H832.346V80.6108H824.475ZM824.475 72.7058V81.5288H826.396V74.4568H833.332V72.7058H824.475ZM828.215 73.6578V81.3928H830.085V73.6578H828.215ZM831.955 80.6108V80.9168C831.819 84.4698 831.649 85.7788 831.394 86.0848C831.258 86.2718 831.105 86.3058 830.884 86.3058C830.629 86.3058 830.153 86.2888 829.609 86.2378C829.864 86.7138 830.051 87.4448 830.085 87.9718C830.799 87.9888 831.462 87.9718 831.853 87.9208C832.312 87.8358 832.652 87.7168 832.975 87.3088C833.4 86.7478 833.604 85.1838 833.774 81.3418C833.791 81.1208 833.808 80.6108 833.808 80.6108H831.955ZM823.931 82.8888C823.744 84.2828 823.353 85.7788 822.707 86.7308L824.169 87.4618C824.883 86.4418 825.223 84.7758 825.427 83.3138L823.931 82.8888ZM825.801 83.2288C826.039 84.3508 826.175 85.7958 826.107 86.7308L827.518 86.4928C827.552 85.5578 827.416 84.1298 827.144 83.0248L825.801 83.2288ZM827.688 83.1098C828.062 84.0618 828.385 85.3028 828.453 86.1358L829.762 85.7278C829.66 84.9288 829.32 83.6878 828.912 82.7528L827.688 83.1098ZM829.541 82.8718C829.949 83.6028 830.323 84.5888 830.459 85.2518L831.632 84.8268C831.462 84.1808 831.071 83.2118 830.646 82.4808L829.541 82.8718ZM841.747 82.0898H843.957C843.685 79.7438 847.408 79.4378 847.408 76.9558C847.408 74.6948 845.606 73.5388 843.141 73.5388C841.322 73.5388 839.826 74.3718 838.738 75.6298L840.132 76.9048C840.965 76.0378 841.815 75.5618 842.852 75.5618C844.195 75.5618 845.011 76.1398 845.011 77.1768C845.011 78.8258 841.39 79.4208 841.747 82.0898ZM842.869 86.6288C843.719 86.6288 844.365 85.9998 844.365 85.1158C844.365 84.2318 843.719 83.6198 842.869 83.6198C842.002 83.6198 841.356 84.2318 841.356 85.1158C841.356 85.9998 841.985 86.6288 842.869 86.6288Z" fill="white"/>
</svg>
