<svg width="42" height="12" viewBox="0 0 42 12" fill="none" xmlns="http://www.w3.org/2000/svg">
<path d="M6.67577 2.60068H5.67236C5.50853 2.60068 5.38567 2.72354 5.38567 2.88737V9.11262C5.38567 9.27645 5.50853 9.39931 5.67236 9.39931H6.67577C6.83959 9.39931 6.96246 9.27645 6.96246 9.11262V2.88737C6.96246 2.72354 6.83959 2.60068 6.67577 2.60068Z" fill="white"/>
<path d="M4.25939 7.843H1.55631V2.88737C1.55631 2.72354 1.43345 2.60068 1.26962 2.60068H0.286689C0.122867 2.60068 0 2.72354 0 2.88737V9.11262C0 9.27645 0.122867 9.39931 0.286689 9.39931H4.25939C4.42321 9.39931 4.54608 9.27645 4.54608 9.11262V8.10921C4.5256 7.96587 4.40273 7.843 4.25939 7.843Z" fill="white"/>
<path d="M19.1468 4.15699C19.3106 4.15699 19.4335 4.03413 19.4335 3.8703V2.86689C19.4335 2.70307 19.3106 2.5802 19.1468 2.5802H15.1536C14.9898 2.5802 14.8669 2.70307 14.8669 2.86689V9.09215C14.8669 9.25597 14.9898 9.37883 15.1536 9.37883H19.1263C19.2901 9.37883 19.413 9.25597 19.413 9.09215V8.08873C19.413 7.92491 19.2901 7.80204 19.1263 7.80204H16.4437V6.7372H19.1468C19.3106 6.7372 19.4335 6.61433 19.4335 6.45051V5.44709C19.4335 5.28327 19.3106 5.16041 19.1468 5.16041H16.4437V4.09556H19.1468V4.15699Z" fill="white"/>
<path d="M13.5563 2.60068H12.5529C12.3891 2.60068 12.2662 2.72354 12.2662 2.88737V6.49146L9.64505 2.74402C9.56314 2.64163 9.46075 2.60068 9.33789 2.60068C9.31741 2.60068 9.29693 2.60068 9.29693 2.60068H8.29352C8.1297 2.60068 8.00683 2.72354 8.00683 2.88737V9.11262C8.00683 9.27645 8.1297 9.39931 8.29352 9.39931H9.29693C9.46075 9.39931 9.58362 9.27645 9.58362 9.11262V5.34471L12.3072 9.25597C12.3072 9.27645 12.3276 9.27645 12.3481 9.29692C12.3891 9.35836 12.471 9.39931 12.5324 9.39931C12.5529 9.39931 12.5734 9.39931 12.5734 9.39931H13.5358C13.6997 9.39931 13.8225 9.27645 13.8225 9.11262V2.88737C13.8225 2.72354 13.6997 2.60068 13.5563 2.60068Z" fill="white"/>
<path d="M40.4642 0H22.7304C22.3413 0 22.0341 0.307167 22.0341 0.696246V11.3038C22.0341 11.6928 22.3413 12 22.7304 12H40.4642C40.8533 12 41.1604 11.6928 41.1604 11.3038V0.696246C41.1604 0.307167 40.8533 0 40.4642 0ZM26.9898 6.63481H26.2116V8.19113C26.2116 8.29352 26.1297 8.3959 26.0068 8.3959H25.0034C24.901 8.3959 24.7986 8.31399 24.7986 8.19113V2.90785C24.7986 2.80546 24.8806 2.70307 25.0034 2.70307H26.9693C28.0956 2.70307 28.9761 3.56314 28.9761 4.66894C28.9966 5.77474 28.116 6.63481 26.9898 6.63481ZM33.5836 8.3959H32.4983C32.4369 8.3959 32.3754 8.33447 32.3754 8.27304V8.10922C32.0887 8.37543 31.7201 8.49829 31.2696 8.49829C30.1638 8.49829 29.3038 7.55631 29.3038 6.34812C29.3038 5.13993 30.1638 4.19795 31.2696 4.19795C31.7201 4.19795 32.1092 4.32082 32.3754 4.58703V4.42321C32.3754 4.36177 32.4369 4.30034 32.4983 4.30034H33.5836C33.6451 4.30034 33.7065 4.36177 33.7065 4.42321V8.29352C33.7065 8.33447 33.6451 8.3959 33.5836 8.3959ZM36.6143 9.9727H35.4881C35.4061 9.9727 35.3447 9.89079 35.3857 9.80887L35.9795 8.31399L34.4027 4.46416C34.3618 4.38225 34.4232 4.30034 34.5051 4.30034H35.6314C35.6928 4.30034 35.7748 4.3413 35.7952 4.40273L36.6963 6.59386L37.5563 4.40273C37.5768 4.3413 37.6382 4.30034 37.7201 4.30034H38.8464C38.9283 4.30034 38.9898 4.38225 38.9488 4.46416L36.7986 9.87031C36.7577 9.93174 36.6963 9.9727 36.6143 9.9727Z" fill="white"/>
<path d="M31.5154 5.44711C30.9829 5.44711 30.6348 5.81571 30.6348 6.34814C30.6348 6.88056 30.9829 7.24916 31.5154 7.24916C32.0478 7.24916 32.3959 6.88056 32.3959 6.34814C32.3959 5.81571 32.0273 5.44711 31.5154 5.44711Z" fill="white"/>
<path d="M26.9898 4.03412H26.2116V5.32422H26.9693C27.3174 5.32422 27.5836 5.03753 27.5836 4.66893C27.6041 4.30033 27.3379 4.03412 26.9898 4.03412Z" fill="white"/>
</svg>
