<svg width="110" height="32" viewBox="0 0 110 32" fill="none" xmlns="http://www.w3.org/2000/svg">
<path d="M17.802 6.93518H15.1263C14.6894 6.93518 14.3618 7.26283 14.3618 7.69969V24.3004C14.3618 24.7372 14.6894 25.0649 15.1263 25.0649H17.802C18.2389 25.0649 18.5665 24.7372 18.5665 24.3004V7.69969C18.5665 7.26283 18.2389 6.93518 17.802 6.93518Z" fill="white"/>
<path d="M11.3584 20.9147H4.15017V7.69969C4.15017 7.26283 3.82253 6.93518 3.38567 6.93518H0.764505C0.327645 6.93518 0 7.26283 0 7.69969V24.3004C0 24.7372 0.327645 25.0649 0.764505 25.0649H11.3584C11.7952 25.0649 12.1229 24.7372 12.1229 24.3004V21.6246C12.0683 21.2423 11.7406 20.9147 11.3584 20.9147Z" fill="white"/>
<path d="M51.058 11.0853C51.4949 11.0853 51.8225 10.7577 51.8225 10.3208V7.64506C51.8225 7.2082 51.4949 6.88055 51.058 6.88055H40.4096C39.9727 6.88055 39.6451 7.2082 39.6451 7.64506V24.2457C39.6451 24.6826 39.9727 25.0102 40.4096 25.0102H51.0034C51.4403 25.0102 51.7679 24.6826 51.7679 24.2457V21.57C51.7679 21.1331 51.4403 20.8055 51.0034 20.8055H43.8498V17.9659H51.058C51.4949 17.9659 51.8225 17.6382 51.8225 17.2014V14.5256C51.8225 14.0887 51.4949 13.7611 51.058 13.7611H43.8498V10.9215H51.058V11.0853Z" fill="white"/>
<path d="M36.1502 6.93518H33.4744C33.0375 6.93518 32.7099 7.26283 32.7099 7.69969V17.3106L25.7201 7.31743C25.5017 7.0444 25.2287 6.93518 24.901 6.93518C24.8464 6.93518 24.7918 6.93518 24.7918 6.93518H22.116C21.6792 6.93518 21.3515 7.26283 21.3515 7.69969V24.3004C21.3515 24.7372 21.6792 25.0649 22.116 25.0649H24.7918C25.2287 25.0649 25.5563 24.7372 25.5563 24.3004V14.2526L32.8191 24.6826C32.8191 24.7372 32.8737 24.7372 32.9283 24.7918C33.0375 24.9557 33.256 25.0649 33.4198 25.0649C33.4744 25.0649 33.529 25.0649 33.529 25.0649H36.0956C36.5324 25.0649 36.8601 24.7372 36.8601 24.3004V7.69969C36.8601 7.26283 36.5324 6.93518 36.1502 6.93518Z" fill="white"/>
<path d="M107.904 0H60.6143C59.5768 0 58.7577 0.819113 58.7577 1.85666V30.1433C58.7577 31.1809 59.5768 32 60.6143 32H107.904C108.942 32 109.761 31.1809 109.761 30.1433V1.85666C109.761 0.819113 108.942 0 107.904 0ZM71.9727 17.6928H69.8976V21.843C69.8976 22.116 69.6792 22.3891 69.3515 22.3891H66.6758C66.4027 22.3891 66.1297 22.1706 66.1297 21.843V7.75427C66.1297 7.48123 66.3481 7.20819 66.6758 7.20819H71.9181C74.9215 7.20819 77.2696 9.50171 77.2696 12.4505C77.3242 15.3993 74.9761 17.6928 71.9727 17.6928ZM89.5563 22.3891H86.6621C86.4983 22.3891 86.3345 22.2253 86.3345 22.0614V21.6246C85.57 22.3345 84.587 22.6621 83.3857 22.6621C80.4369 22.6621 78.1434 20.1502 78.1434 16.9283C78.1434 13.7065 80.4369 11.1945 83.3857 11.1945C84.587 11.1945 85.6246 11.5222 86.3345 12.2321V11.7952C86.3345 11.6314 86.4983 11.4676 86.6621 11.4676H89.5563C89.7201 11.4676 89.884 11.6314 89.884 11.7952V22.116C89.884 22.2253 89.7201 22.3891 89.5563 22.3891ZM97.6382 26.5939H94.6348C94.4164 26.5939 94.2526 26.3754 94.3618 26.157L95.9454 22.1706L91.7406 11.9044C91.6314 11.686 91.7952 11.4676 92.0137 11.4676H95.0171C95.1809 11.4676 95.3993 11.5768 95.4539 11.7406L97.8567 17.5836L100.15 11.7406C100.205 11.5768 100.369 11.4676 100.587 11.4676H103.59C103.809 11.4676 103.973 11.686 103.863 11.9044L98.1297 26.3208C98.0205 26.4846 97.8567 26.5939 97.6382 26.5939Z" fill="white"/>
<path d="M84.041 14.5256C82.6212 14.5256 81.6929 15.5085 81.6929 16.9283C81.6929 18.3481 82.6212 19.331 84.041 19.331C85.4608 19.331 86.3891 18.3481 86.3891 16.9283C86.3891 15.5085 85.4062 14.5256 84.041 14.5256Z" fill="white"/>
<path d="M71.9727 10.7577H69.8976V14.198H71.9181C72.8464 14.198 73.5563 13.4335 73.5563 12.4505C73.6109 11.4676 72.901 10.7577 71.9727 10.7577Z" fill="white"/>
</svg>
