<svg width="298" height="46" viewBox="0 0 298 46" fill="none" xmlns="http://www.w3.org/2000/svg">
<path d="M225.456 21.7742L225.048 18.5822L223.2 19.0142V16.1342H225.408V12.9182H223.2V8.50222H219.696V12.9182H216.96V16.1342H219.696V19.7822C218.568 20.0222 217.536 20.2382 216.648 20.4062L217.512 23.7422L219.696 23.2142V27.5342C219.696 27.8702 219.576 27.9902 219.24 27.9902C218.928 27.9902 217.92 27.9902 217.08 27.9422C217.512 28.8542 217.968 30.2942 218.064 31.2062C219.816 31.2062 221.064 31.1102 222 30.5822C222.936 30.0302 223.2 29.1902 223.2 27.5582V22.3502L225.456 21.7742ZM239.376 24.8222C238.584 23.8862 237.12 22.4942 235.848 21.2462V19.1102H239.016V15.8222H229.56V13.4222C232.752 12.9422 236.136 12.1982 238.896 11.1902L235.704 8.55022C233.352 9.53422 229.536 10.3982 225.984 10.9022V18.8702C225.984 22.0862 225.84 26.3102 223.776 29.1182C224.568 29.5502 226.104 30.7502 226.704 31.4222C229.104 28.2782 229.536 22.9022 229.56 19.1102H232.368V31.2782H235.848V25.5902C236.424 26.2142 236.928 26.8142 237.264 27.2942L239.376 24.8222ZM251.64 23.0942V15.8942H252.192V22.8542C252.192 23.0462 252.144 23.0942 252.024 23.0942H251.64ZM254.616 12.8462H251.64V8.50222H248.808V12.8462H245.784V26.2862H248.28V15.8942H248.808V31.3022H251.64V24.0062C251.856 24.6782 252 25.4222 252.024 25.9742C252.84 25.9742 253.392 25.8782 253.968 25.3742C254.52 24.8702 254.616 23.9582 254.616 22.9502V12.8462ZM258.936 27.1742V22.1822H259.272C259.824 23.7662 260.496 25.2542 261.336 26.5502L258.936 27.1742ZM265.08 22.1822C264.528 22.6622 263.832 23.2142 263.16 23.6942C262.848 23.2142 262.584 22.7102 262.344 22.1822H265.08ZM265.776 22.1822H267.816V19.2542H259.392V18.4382H266.184V16.0382H259.392V15.2222H266.16V12.8462H259.392V12.1022H267.168V9.41422H256.032V19.2542H254.832V22.1822H255.672V26.0222C255.672 27.1022 254.856 27.9662 254.256 28.3502C254.832 29.0702 255.624 30.6302 255.864 31.4702C256.416 31.0622 257.352 30.6542 261.864 29.2862C261.768 28.7342 261.696 27.8702 261.696 27.1022C262.848 28.7342 264.264 30.1022 266.016 31.0142C266.52 30.1262 267.552 28.8062 268.32 28.1582C266.976 27.5822 265.8 26.7662 264.816 25.7582C265.776 25.2782 266.856 24.6542 267.96 24.0542L265.776 22.1822ZM286.848 20.3822H287.736V21.8222L286.848 22.0382V20.3822ZM287.736 12.2222V13.6862H286.848V12.2222H287.736ZM290.448 15.3662V12.2222H290.928V13.7582H293.736C293.616 14.5982 293.472 15.4142 293.328 16.2062C293.064 15.6782 292.8 15.1742 292.56 14.6942L290.448 15.3662ZM290.448 16.1102C291.072 17.3822 291.696 18.7982 292.272 20.1902C291.768 21.6542 291.168 22.9262 290.448 23.9822V16.1102ZM286.848 16.2782H287.736V17.7902H286.848V16.2782ZM281.664 23.2382H283.32L283.848 25.6862C285.024 25.3502 286.368 24.9422 287.736 24.5342V27.0542H290.448V25.3982C291 25.9502 291.576 26.6942 291.888 27.1742C292.584 26.3582 293.208 25.3262 293.76 24.1262C294.024 24.9422 294.264 25.7102 294.408 26.3582L297.096 25.3742C296.712 23.9582 296.016 22.1342 295.2 20.2382C295.944 17.6702 296.472 14.7182 296.784 11.5262L295.008 10.9502L294.504 11.0462H291.216V9.31822H283.32V12.2222H284.184V22.6862L283.392 22.8542V20.2382H281.664V18.2222H283.416V15.1742H280.944V13.7102H282.984V10.7102H280.944V8.50222H277.848V10.7102H275.088V13.7102H277.848V15.1742H274.536V18.2222H278.64V23.6942C278.424 23.2382 278.232 22.7582 278.04 22.2062C278.064 21.3902 278.04 20.5742 278.016 19.7582L275.136 19.5902C275.28 22.9022 275.184 26.5262 273.72 29.2382C274.392 29.5502 275.52 30.6302 275.952 31.3502C276.696 30.1022 277.2 28.7342 277.512 27.2702C279.552 30.1262 282.576 30.6782 286.968 30.6782H295.824C296.04 29.6222 296.616 28.0142 297.144 27.2222C294.696 27.3662 289.104 27.3422 287.016 27.3422C284.88 27.3422 283.104 27.2222 281.664 26.6222V23.2382Z" fill="#40798C"/>
<path d="M22.45 26.953H8.80617L9.6589 21.9684H20.9249L22.1056 15.3168H10.8396L11.8071 9.55651H25.4346L26.6153 2.90491H5.37881L0 33.6046C0 33.6046 8.24861 31.0628 22.2368 28.1249L22.45 26.953Z" fill="#40798C"/>
<path d="M32.4369 26.0617C32.4369 25.5996 32.4697 25.253 32.5189 24.9889L33.0764 21.7869C33.4372 19.6907 34.7163 18.6344 36.881 18.6344C38.0453 18.6344 38.7668 18.9975 39.0784 19.7072L38.1273 25.1044C40.5215 24.6918 42.9977 24.2956 45.5559 23.916L47.4582 13.1051H41.0299L40.8167 14.376C39.8819 13.1546 38.1109 12.5439 35.5035 12.5439C32.896 12.5439 30.7806 13.3032 29.1571 14.8217C27.5336 16.3401 26.5005 18.3868 26.0413 20.9451L25.1558 25.9297C25.0574 26.5073 24.9918 27.052 24.959 27.5472C27.3204 27.0685 29.8131 26.5899 32.4369 26.0947C32.4369 26.0947 32.4369 26.0782 32.4369 26.0617Z" fill="#40798C"/>
<path d="M61.8235 21.5888C60.692 21.4403 59.7409 21.2587 58.9373 21.0276C58.1502 20.7966 57.7566 20.4334 57.7566 19.9218C57.7566 18.6179 58.8226 17.9577 60.938 17.9577C61.6431 17.9577 62.2171 18.0732 62.6763 18.3208C63.1354 18.5684 63.3486 18.882 63.3486 19.2781C63.3486 19.6742 63.2338 19.9548 63.0043 20.1363H69.941C70.4985 19.3441 70.7937 18.4693 70.7937 17.5285C70.7937 14.145 67.9075 12.4614 62.1187 12.4614C58.3634 12.4614 55.4936 13.1546 53.5093 14.5576C51.5251 15.944 50.5247 17.9412 50.5247 20.5325C50.5247 21.5393 50.7543 22.3976 51.1971 23.1238C54.854 22.6286 58.675 22.15 62.6107 21.7043C62.3483 21.6548 62.0859 21.6218 61.8235 21.5888Z" fill="#40798C"/>
<path d="M94.7196 13.1052H87.5205L86.3562 19.7898C88.734 19.6742 91.161 19.5752 93.6045 19.4927L94.7196 13.1052Z" fill="#40798C"/>
<path d="M81.8957 13.1052H74.6966L73.3683 20.6645C75.7625 20.4665 78.206 20.2849 80.6658 20.1199L81.8957 13.1052Z" fill="#40798C"/>
<path d="M139.439 19.7072C139.898 18.9975 140.849 18.6344 142.325 18.6344C143.227 18.6344 143.867 18.882 144.228 19.3606C144.588 19.8393 144.785 20.3014 144.785 20.7306C144.785 21.0112 144.769 21.2587 144.752 21.4898C147.097 21.7704 149.442 22.0675 151.787 22.3976L152.033 20.9616C152.181 20.2189 152.247 19.5257 152.247 18.8655C152.247 17.248 151.853 15.911 151.066 14.8547C149.967 13.3197 147.983 12.5605 145.097 12.5605C142.834 12.5605 141.046 13.1217 139.718 14.2605L139.931 13.1052H133.404L132.142 20.2684C134.503 20.45 136.865 20.648 139.242 20.8956L139.439 19.7072Z" fill="#40798C"/>
<path d="M166.071 1.25439H158.872L155.067 22.8597C157.396 23.2063 159.725 23.6024 162.053 24.0151L166.071 1.25439Z" fill="#40798C"/>
<path d="M176.238 13.1052H169.039L166.94 24.9229C169.252 25.3685 171.564 25.8637 173.877 26.3753L176.238 13.1052Z" fill="#40798C"/>
<path d="M173.401 9.2264C175.123 9.2264 176.386 8.81377 177.189 7.98851C177.993 7.16325 178.403 5.85934 178.403 4.06027C178.403 1.96411 177.222 0.907776 174.844 0.907776C173.155 0.907776 171.909 1.32041 171.089 2.16217C170.285 3.00394 169.875 4.32435 169.875 6.13993C169.875 8.20308 171.056 9.2264 173.401 9.2264Z" fill="#F0CC67"/>
<path d="M199.311 23.8335H192.276C192.047 25.1044 191.637 26.1277 191.03 26.9035C190.423 27.6627 189.669 28.0588 188.767 28.0588C187.078 28.0588 186.225 27.1675 186.225 25.3685C186.225 24.9393 186.274 24.4607 186.389 23.916L187.242 19.0965H198.934L200 13.0886H188.308L189.538 5.97485L181.781 9.20987L178.895 25.6986C178.796 26.3258 178.731 26.92 178.731 27.4811C184.142 28.785 189.554 30.287 194.933 31.9871C197.212 30.287 198.672 27.5802 199.311 23.8335Z" fill="#40798C"/>
<path d="M122.302 0L122.548 2.62433H121.351C121.335 2.62433 121.335 2.62433 121.318 2.62433C120.072 2.62433 118.908 2.73986 117.809 2.82239C112.775 3.23502 109.724 4.65447 108.085 7.32831C107.232 8.73125 106.756 10.4643 106.592 12.577C106.461 14.2605 107.068 16.3897 107.953 17.512C108.068 17.6606 108.183 17.7926 108.298 17.9247C107.675 17.1324 106.035 14.5576 108.675 12.1148C112.299 8.78077 118.678 9.02835 118.678 9.02835H119.99C120.023 9.02835 120.072 9.02835 120.105 9.02835H126.927H133.027L122.302 0Z" fill="#40798C"/>
<path d="M116.858 21.9354C117.006 22.0014 117.17 22.0675 117.317 22.1335C117.809 22.3646 118.252 22.5956 118.645 22.8597C119.564 23.4539 119.974 24.2296 119.908 25.1539C119.793 26.7549 118.563 27.6297 116.235 27.7783H114.792H104.575H100.787L111.528 36.8231L111.282 34.1988H113.923C118.383 34.1988 121.745 33.324 124.024 31.5745C124.68 31.0628 125.287 30.5016 125.812 29.8744C125.992 29.6599 126.156 29.4453 126.304 29.2307C126.025 29.5938 125.812 29.8744 125.812 29.8744C128.026 25.8141 116.858 21.9354 116.858 21.9354Z" fill="#6AC1AC"/>
<path d="M126.763 19.1791C125.894 18.0567 124.779 17.248 123.434 16.7693C122.368 16.3897 121.286 16.0431 120.22 15.7625C119.941 15.6965 119.679 15.6139 119.4 15.5479C118.055 15.2178 116.924 14.7722 116.005 14.211C115.087 13.6498 114.661 12.8741 114.743 11.9168C114.841 10.6789 115.53 9.83713 116.809 9.39149C116.825 9.39149 116.825 9.39148 116.842 9.37498C117.366 9.19342 117.99 9.07789 118.711 9.02837C118.711 9.02837 112.316 8.78079 108.708 12.1148C106.068 14.5576 107.707 17.1324 108.331 17.9247C109.151 18.8325 110.134 19.5257 111.299 19.9878C112.627 20.516 113.955 20.9781 115.3 21.3743C115.579 21.4568 115.858 21.5558 116.12 21.6383C116.12 21.6383 116.153 21.6549 116.186 21.6714C116.415 21.7539 116.628 21.8364 116.842 21.9189C116.858 21.9189 116.874 21.9354 116.891 21.9354C116.891 21.9354 128.042 25.8307 125.861 29.8744C125.861 29.8744 126.091 29.6104 126.353 29.2307C126.697 28.7356 127.009 28.2074 127.271 27.6297C127.763 26.5404 128.075 25.319 128.19 23.8666C128.304 22.084 127.632 20.3014 126.763 19.1791Z" fill="#F0CC67"/>
<path d="M116.858 21.9354H116.842C116.989 22.0015 117.137 22.051 117.317 22.1336C117.17 22.0675 117.022 22.0015 116.858 21.9354Z" fill="#F0CC67"/>
<path d="M116.825 21.919C116.612 21.8364 116.399 21.7539 116.169 21.6713C116.268 21.7044 116.514 21.8034 116.842 21.9355H116.858C116.842 21.919 116.825 21.919 116.825 21.919Z" fill="#F0CC67"/>
<path d="M116.169 21.6711C116.136 21.6547 116.104 21.6383 116.104 21.6383C116.12 21.6383 116.136 21.6547 116.169 21.6711Z" fill="#F0CC67"/>
<path d="M22.2368 28.1248C8.24861 31.0627 0 33.6045 0 33.6045H21.2529L22.2368 28.1248Z" fill="#6AC1AC"/>
<path d="M31.8793 34.1988C34.6179 34.1988 36.6842 33.0599 38.1109 30.7822C38.4552 33.0599 40.1771 34.1988 43.2765 34.1988C44.9656 34.1988 46.4907 33.6376 47.8518 32.5317L48.0649 27.7122C47.5566 27.9928 46.9334 28.1413 46.1791 28.1413C45.4247 28.1413 45.064 27.7782 45.064 27.0355C45.064 26.8704 45.0804 26.6889 45.1132 26.5238L45.5723 23.916C43.0141 24.2956 40.5215 24.7083 38.1437 25.1044L37.8321 26.8704C37.0941 27.6627 36.225 28.0588 35.2247 28.0588C34.2243 28.0588 33.5028 27.8443 33.0928 27.3986C32.6829 26.9695 32.4861 26.5403 32.4697 26.1112C29.8459 26.5899 27.3368 27.085 24.9918 27.5637C24.9754 27.7782 24.9754 27.9928 24.9754 28.1909C24.9426 32.2016 27.2548 34.1988 31.8793 34.1988Z" fill="#6AC1AC"/>
<path d="M54.6081 25.3685C55.756 25.6161 56.8875 25.8142 58.0354 25.9297C59.1833 26.0452 60.1509 26.1773 60.938 26.3423C61.7252 26.4909 62.1187 26.7715 62.1187 27.1676C62.1187 27.7618 61.8891 28.1744 61.4464 28.389C60.9872 28.6035 60.2657 28.7026 59.2489 28.7026C58.2322 28.7026 57.4615 28.554 56.9367 28.2569C56.4119 27.9598 56.1824 27.6132 56.2316 27.2171L49.1637 27.2996C49.0817 27.7783 49.0325 28.2569 49.0325 28.7026C49.0325 30.2871 49.59 31.5415 50.7215 32.4493C52.1646 33.6211 54.6737 34.1988 58.265 34.1988C61.8563 34.1988 64.5786 33.5881 66.4644 32.3667C68.3339 31.1454 69.285 29.3628 69.285 27.0025C69.285 25.6656 68.8914 24.6093 68.1043 23.8005C67.3172 23.0083 66.3496 22.4801 65.2181 22.1995C64.349 21.985 63.4798 21.8199 62.6107 21.6879C58.675 22.117 54.8541 22.5957 51.1971 23.1073C51.3447 23.3384 51.5087 23.553 51.7055 23.7675C52.4926 24.5763 53.4602 25.1209 54.6081 25.3685Z" fill="#6AC1AC"/>
<path d="M72.1056 29.1317C72.1056 29.99 72.2368 30.7492 72.4828 31.4259C72.9091 32.6473 73.9259 33.456 75.5329 33.8522C72.5648 35.7338 71.0889 37.8794 71.0889 40.2892C71.0889 41.9892 71.712 43.3757 72.9747 44.4155C74.2374 45.4718 76.2873 46 79.1407 46C81.9941 46 84.5195 44.9437 86.7333 42.8475C88.9472 40.7513 90.3739 37.8959 90.9806 34.2813L93.588 19.4761C91.1446 19.5587 88.734 19.6577 86.3398 19.7732L85.1263 26.6889C84.3063 27.5637 83.2732 28.0093 82.0433 28.0093C80.5182 28.0093 79.7638 27.3326 79.7638 25.9627C79.7638 25.451 79.813 24.9394 79.895 24.4277L80.6494 20.1033C78.1732 20.2684 75.7461 20.4499 73.3519 20.648L72.3188 26.5239C72.1876 27.3986 72.1056 28.2734 72.1056 29.1317ZM84.1423 32.3997L83.716 34.8755C83.1584 38.226 81.9449 39.9096 80.1246 39.9096C79.5343 39.9096 79.0751 39.728 78.7471 39.3814C78.4191 39.0183 78.2552 38.5727 78.2552 37.995C78.2552 36.1134 80.2066 34.2483 84.1423 32.3997Z" fill="#6AC1AC"/>
<path d="M134.897 45.4553L137.176 32.2842C138.111 33.5551 139.751 34.1988 142.129 34.1988C144.506 34.1988 146.474 33.4891 148.065 32.0861C149.639 30.6832 150.672 28.62 151.148 25.9297L151.755 22.3811C149.41 22.051 147.065 21.7539 144.72 21.4733C144.703 21.5888 144.687 21.6878 144.67 21.7869L144.113 24.9889C143.949 26.0122 143.522 26.7714 142.85 27.2831C142.178 27.7948 141.44 28.0423 140.653 28.0423C139.39 28.0423 138.554 27.6462 138.16 26.854L139.226 20.8791C136.848 20.648 134.487 20.4334 132.125 20.2519L127.714 45.4388H134.897V45.4553Z" fill="#6AC1AC"/>
<path d="M154.083 29.8909C154.083 30.7987 154.329 31.6405 154.805 32.3997C155.559 33.5881 157.232 34.1823 159.807 34.1823C161.496 34.1823 163.021 33.6211 164.382 32.5153L164.595 27.6957C164.087 27.9763 163.463 28.1249 162.709 28.1249C161.955 28.1249 161.594 27.7618 161.594 27.019C161.594 26.854 161.61 26.6724 161.643 26.5074L162.086 23.9986C159.757 23.5859 157.412 23.2063 155.1 22.8432L154.28 27.4812C154.149 28.1909 154.083 28.9831 154.083 29.8909Z" fill="#6AC1AC"/>
<path d="M166.317 29.8744C166.317 30.7657 166.563 31.6075 167.071 32.4162C167.826 33.6046 169.498 34.1988 172.073 34.1988C173.762 34.1988 175.271 33.6376 176.599 32.5318L176.812 27.7122C176.304 27.9928 175.73 28.1414 175.074 28.1414C174.221 28.1414 173.811 27.7617 173.811 26.986C173.811 26.8375 173.827 26.6889 173.86 26.5239L173.893 26.3753C171.581 25.8636 169.269 25.385 166.956 24.9229L166.497 27.4977C166.382 28.1909 166.317 28.9831 166.317 29.8744Z" fill="#6AC1AC"/>
<path d="M180.338 31.9871C181.781 33.4726 184.142 34.1988 187.406 34.1988C190.505 34.1988 193.014 33.4561 194.933 32.0036C189.554 30.3036 184.142 28.8181 178.731 27.4977C178.731 27.5472 178.731 27.5802 178.731 27.6297C178.731 29.4453 179.272 30.8978 180.338 31.9871Z" fill="#6AC1AC"/>
<path d="M127.255 27.6297C126.992 28.2074 126.681 28.7356 126.337 29.2307C126.697 28.7356 127.14 28.0753 127.255 27.6297Z" fill="#F0CC67"/>
</svg>
