<svg width="133" height="40" viewBox="0 0 133 40" fill="none" xmlns="http://www.w3.org/2000/svg">
<path d="M60.456 22.752L60.048 19.56L58.2 19.992V17.112H60.408V13.896H58.2V9.48H54.696V13.896H51.96V17.112H54.696V20.76C53.568 21 52.536 21.216 51.648 21.384L52.512 24.72L54.696 24.192V28.512C54.696 28.848 54.576 28.968 54.24 28.968C53.928 28.968 52.92 28.968 52.08 28.92C52.512 29.832 52.968 31.272 53.064 32.184C54.816 32.184 56.064 32.088 57 31.56C57.936 31.008 58.2 30.168 58.2 28.536V23.328L60.456 22.752ZM74.376 25.8C73.584 24.864 72.12 23.472 70.848 22.224V20.088H74.016V16.8H64.56V14.4C67.752 13.92 71.136 13.176 73.896 12.168L70.704 9.528C68.352 10.512 64.536 11.376 60.984 11.88V19.848C60.984 23.064 60.84 27.288 58.776 30.096C59.568 30.528 61.104 31.728 61.704 32.4C64.104 29.256 64.536 23.88 64.56 20.088H67.368V32.256H70.848V26.568C71.424 27.192 71.928 27.792 72.264 28.272L74.376 25.8ZM86.64 24.072V16.872H87.192V23.832C87.192 24.024 87.144 24.072 87.024 24.072H86.64ZM89.616 13.824H86.64V9.48H83.808V13.824H80.784V27.264H83.28V16.872H83.808V32.28H86.64V24.984C86.856 25.656 87 26.4 87.024 26.952C87.84 26.952 88.392 26.856 88.968 26.352C89.52 25.848 89.616 24.936 89.616 23.928V13.824ZM93.936 28.152V23.16H94.272C94.824 24.744 95.496 26.232 96.336 27.528L93.936 28.152ZM100.08 23.16C99.528 23.64 98.832 24.192 98.16 24.672C97.848 24.192 97.584 23.688 97.344 23.16H100.08ZM100.776 23.16H102.816V20.232H94.392V19.416H101.184V17.016H94.392V16.2H101.16V13.824H94.392V13.08H102.168V10.392H91.032V20.232H89.832V23.16H90.672V27C90.672 28.08 89.856 28.944 89.256 29.328C89.832 30.048 90.624 31.608 90.864 32.448C91.416 32.04 92.352 31.632 96.864 30.264C96.768 29.712 96.696 28.848 96.696 28.08C97.848 29.712 99.264 31.08 101.016 31.992C101.52 31.104 102.552 29.784 103.32 29.136C101.976 28.56 100.8 27.744 99.816 26.736C100.776 26.256 101.856 25.632 102.96 25.032L100.776 23.16ZM121.848 21.36H122.736V22.8L121.848 23.016V21.36ZM122.736 13.2V14.664H121.848V13.2H122.736ZM125.448 16.344V13.2H125.928V14.736H128.736C128.616 15.576 128.472 16.392 128.328 17.184C128.064 16.656 127.8 16.152 127.56 15.672L125.448 16.344ZM125.448 17.088C126.072 18.36 126.696 19.776 127.272 21.168C126.768 22.632 126.168 23.904 125.448 24.96V17.088ZM121.848 17.256H122.736V18.768H121.848V17.256ZM116.664 24.216H118.32L118.848 26.664C120.024 26.328 121.368 25.92 122.736 25.512V28.032H125.448V26.376C126 26.928 126.576 27.672 126.888 28.152C127.584 27.336 128.208 26.304 128.76 25.104C129.024 25.92 129.264 26.688 129.408 27.336L132.096 26.352C131.712 24.936 131.016 23.112 130.2 21.216C130.944 18.648 131.472 15.696 131.784 12.504L130.008 11.928L129.504 12.024H126.216V10.296H118.32V13.2H119.184V23.664L118.392 23.832V21.216H116.664V19.2H118.416V16.152H115.944V14.688H117.984V11.688H115.944V9.48H112.848V11.688H110.088V14.688H112.848V16.152H109.536V19.2H113.64V24.672C113.424 24.216 113.232 23.736 113.04 23.184C113.064 22.368 113.04 21.552 113.016 20.736L110.136 20.568C110.28 23.88 110.184 27.504 108.72 30.216C109.392 30.528 110.52 31.608 110.952 32.328C111.696 31.08 112.2 29.712 112.512 28.248C114.552 31.104 117.576 31.656 121.968 31.656H130.824C131.04 30.6 131.616 28.992 132.144 28.2C129.696 28.344 124.104 28.32 122.016 28.32C119.88 28.32 118.104 28.2 116.664 27.6V24.216Z" fill="#40798C"/>
<path d="M23.3689 0L23.636 2.85202H22.318C22.3002 2.85202 22.3002 2.85202 22.2824 2.85202C20.9287 2.85202 19.664 2.97758 18.4706 3.06726C13.0024 3.5157 9.68948 5.0583 7.90831 7.96413C6.98211 9.48879 6.46555 11.3722 6.28743 13.6682C6.14494 15.4978 6.80398 17.8117 7.76581 19.0314C7.89049 19.1928 8.01517 19.3363 8.13985 19.4798C7.46301 18.6188 5.68185 15.8206 8.54953 13.1659C12.4859 9.5426 19.4147 9.81166 19.4147 9.81166H20.8396C20.8752 9.81166 20.9287 9.81166 20.9643 9.81166H28.3739H34.9999L23.3689 0Z" fill="#40798C"/>
<path d="M17.4555 23.8206C17.6158 23.8924 17.7939 23.9641 17.9542 24.0359C18.4885 24.287 18.9695 24.5381 19.397 24.8251C20.3944 25.4708 20.8397 26.3139 20.7684 27.3184C20.6438 29.0583 19.3079 30.009 16.7786 30.1704H15.2112H4.1145H0L11.6667 40L11.3995 37.148H14.2672C19.112 37.148 22.7634 36.1973 25.2392 34.296C25.9517 33.7399 26.6107 33.13 27.1807 32.4484C27.3766 32.2152 27.5547 31.9821 27.715 31.7489C27.4122 32.1435 27.1807 32.4484 27.1807 32.4484C29.5674 28.0538 17.4555 23.8206 17.4555 23.8206Z" fill="#6AC1AC"/>
<path d="M28.2138 20.8251C27.2698 19.6054 26.0586 18.7265 24.598 18.2063C23.4402 17.7937 22.2647 17.4171 21.1069 17.1121C20.8041 17.0404 20.5191 16.9507 20.2163 16.8789C18.7558 16.5202 17.5267 16.0359 16.5293 15.426C15.5318 14.8162 15.0687 13.9731 15.1578 12.9328C15.2647 11.5875 16.0127 10.6727 17.4021 10.1884C17.4199 10.1884 17.4199 10.1884 17.4377 10.1704C18.0077 9.97312 18.6845 9.84756 19.4682 9.79374C19.4682 9.79374 12.5217 9.52469 8.60307 13.148C5.73539 15.8027 7.51657 18.6009 8.19342 19.4619C9.084 20.4485 10.1527 21.2018 11.4173 21.7041C12.8601 22.2781 14.3028 22.7803 15.7634 23.2108C16.0662 23.3005 16.369 23.4081 16.654 23.4978C16.654 23.4978 16.6896 23.5157 16.7252 23.5337C16.9746 23.6233 17.2061 23.713 17.4377 23.8027C17.4555 23.8027 17.4733 23.8207 17.4911 23.8207C17.4911 23.8207 29.6031 28.0538 27.2341 32.4485C27.2341 32.4485 27.4835 32.1615 27.7685 31.7489C28.1425 31.2108 28.481 30.6368 28.7659 30.009C29.3003 28.8251 29.6387 27.4978 29.7634 25.9193C29.8881 24 29.1578 22.0628 28.2138 20.8251Z" fill="#F0CC67"/>
<path d="M17.4556 23.8206H17.4377C17.598 23.8924 17.7583 23.9462 17.9543 24.0359C17.7761 23.9821 17.6159 23.8924 17.4556 23.8206Z" fill="#F0CC67"/>
<path d="M17.402 23.8027C17.1705 23.713 16.9389 23.6233 16.6896 23.5336C16.7964 23.5695 17.0636 23.6771 17.4199 23.8206H17.4377C17.4377 23.8206 17.4199 23.8206 17.402 23.8027Z" fill="#F0CC67"/>
<path d="M16.6895 23.5336C16.6539 23.5157 16.6183 23.4977 16.6183 23.4977C16.6539 23.5157 16.6717 23.5336 16.6895 23.5336Z" fill="#F0CC67"/>
</svg>
