<svg width="64" height="64" viewBox="0 0 64 64" fill="none" xmlns="http://www.w3.org/2000/svg">
<rect width="64" height="64" rx="16" fill="#D2D5DA"/>
<path d="M24.5 41C24.1 41 23.75 40.85 23.45 40.55C23.15 40.25 23 39.9 23 39.5V24.5C23 24.1 23.15 23.75 23.45 23.45C23.75 23.15 24.1 23 24.5 23H39.5C39.9 23 40.25 23.15 40.55 23.45C40.85 23.75 41 24.1 41 24.5V39.5C41 39.9 40.85 40.25 40.55 40.55C40.25 40.85 39.9 41 39.5 41H24.5ZM25.9 37.075H38.125L34.45 32.175L31.15 36.45L28.825 33.275L25.9 37.075Z" fill="white"/>
</svg>
