<svg width="133" height="40" viewBox="0 0 133 40" fill="none" xmlns="http://www.w3.org/2000/svg">
<path d="M60.456 23.752L60.048 20.56L58.2 20.992V18.112H60.408V14.896H58.2V10.48H54.696V14.896H51.96V18.112H54.696V21.76C53.568 22 52.536 22.216 51.648 22.384L52.512 25.72L54.696 25.192V29.512C54.696 29.848 54.576 29.968 54.24 29.968C53.928 29.968 52.92 29.968 52.08 29.92C52.512 30.832 52.968 32.272 53.064 33.184C54.816 33.184 56.064 33.088 57 32.56C57.936 32.008 58.2 31.168 58.2 29.536V24.328L60.456 23.752ZM74.376 26.8C73.584 25.864 72.12 24.472 70.848 23.224V21.088H74.016V17.8H64.56V15.4C67.752 14.92 71.136 14.176 73.896 13.168L70.704 10.528C68.352 11.512 64.536 12.376 60.984 12.88V20.848C60.984 24.064 60.84 28.288 58.776 31.096C59.568 31.528 61.104 32.728 61.704 33.4C64.104 30.256 64.536 24.88 64.56 21.088H67.368V33.256H70.848V27.568C71.424 28.192 71.928 28.792 72.264 29.272L74.376 26.8ZM86.64 25.072V17.872H87.192V24.832C87.192 25.024 87.144 25.072 87.024 25.072H86.64ZM89.616 14.824H86.64V10.48H83.808V14.824H80.784V28.264H83.28V17.872H83.808V33.28H86.64V25.984C86.856 26.656 87 27.4 87.024 27.952C87.84 27.952 88.392 27.856 88.968 27.352C89.52 26.848 89.616 25.936 89.616 24.928V14.824ZM93.936 29.152V24.16H94.272C94.824 25.744 95.496 27.232 96.336 28.528L93.936 29.152ZM100.08 24.16C99.528 24.64 98.832 25.192 98.16 25.672C97.848 25.192 97.584 24.688 97.344 24.16H100.08ZM100.776 24.16H102.816V21.232H94.392V20.416H101.184V18.016H94.392V17.2H101.16V14.824H94.392V14.08H102.168V11.392H91.032V21.232H89.832V24.16H90.672V28C90.672 29.08 89.856 29.944 89.256 30.328C89.832 31.048 90.624 32.608 90.864 33.448C91.416 33.04 92.352 32.632 96.864 31.264C96.768 30.712 96.696 29.848 96.696 29.08C97.848 30.712 99.264 32.08 101.016 32.992C101.52 32.104 102.552 30.784 103.32 30.136C101.976 29.56 100.8 28.744 99.816 27.736C100.776 27.256 101.856 26.632 102.96 26.032L100.776 24.16ZM121.848 22.36H122.736V23.8L121.848 24.016V22.36ZM122.736 14.2V15.664H121.848V14.2H122.736ZM125.448 17.344V14.2H125.928V15.736H128.736C128.616 16.576 128.472 17.392 128.328 18.184C128.064 17.656 127.8 17.152 127.56 16.672L125.448 17.344ZM125.448 18.088C126.072 19.36 126.696 20.776 127.272 22.168C126.768 23.632 126.168 24.904 125.448 25.96V18.088ZM121.848 18.256H122.736V19.768H121.848V18.256ZM116.664 25.216H118.32L118.848 27.664C120.024 27.328 121.368 26.92 122.736 26.512V29.032H125.448V27.376C126 27.928 126.576 28.672 126.888 29.152C127.584 28.336 128.208 27.304 128.76 26.104C129.024 26.92 129.264 27.688 129.408 28.336L132.096 27.352C131.712 25.936 131.016 24.112 130.2 22.216C130.944 19.648 131.472 16.696 131.784 13.504L130.008 12.928L129.504 13.024H126.216V11.296H118.32V14.2H119.184V24.664L118.392 24.832V22.216H116.664V20.2H118.416V17.152H115.944V15.688H117.984V12.688H115.944V10.48H112.848V12.688H110.088V15.688H112.848V17.152H109.536V20.2H113.64V25.672C113.424 25.216 113.232 24.736 113.04 24.184C113.064 23.368 113.04 22.552 113.016 21.736L110.136 21.568C110.28 24.88 110.184 28.504 108.72 31.216C109.392 31.528 110.52 32.608 110.952 33.328C111.696 32.08 112.2 30.712 112.512 29.248C114.552 32.104 117.576 32.656 121.968 32.656H130.824C131.04 31.6 131.616 29.992 132.144 29.2C129.696 29.344 124.104 29.32 122.016 29.32C119.88 29.32 118.104 29.2 116.664 28.6V25.216Z" fill="white"/>
<path d="M23.3689 0L23.6361 2.85202H22.318C22.3002 2.85202 22.3002 2.85202 22.2824 2.85202C20.9287 2.85202 19.6641 2.97758 18.4707 3.06726C13.0025 3.5157 9.68955 5.0583 7.90838 7.96413C6.98217 9.48879 6.46561 11.3722 6.28749 13.6682C6.145 15.4978 6.80404 17.8117 7.76587 19.0314C7.89055 19.1928 8.01523 19.3363 8.13991 19.4798C7.46307 18.6188 5.68191 15.8206 8.54959 13.1659C12.486 9.5426 19.4147 9.81166 19.4147 9.81166H20.8397C20.8753 9.81166 20.9287 9.81166 20.9643 9.81166H28.374H35L23.3689 0Z" fill="white"/>
<path d="M17.4555 23.8206C17.6158 23.8924 17.7939 23.9641 17.9542 24.0359C18.4885 24.287 18.9695 24.5381 19.397 24.8251C20.3944 25.4708 20.8397 26.3139 20.7684 27.3184C20.6438 29.0583 19.3079 30.009 16.7786 30.1704H15.2112H4.1145H0L11.6667 40L11.3995 37.148H14.2672C19.112 37.148 22.7634 36.1973 25.2392 34.296C25.9517 33.7399 26.6107 33.13 27.1807 32.4484C27.3766 32.2152 27.5547 31.9821 27.715 31.7489C27.4122 32.1435 27.1807 32.4484 27.1807 32.4484C29.5674 28.0538 17.4555 23.8206 17.4555 23.8206Z" fill="white"/>
<path d="M28.2138 20.8251C27.2697 19.6054 26.0585 18.7265 24.598 18.2063C23.4402 17.7937 22.2646 17.417 21.1069 17.1121C20.8041 17.0404 20.5191 16.9507 20.2163 16.8789C18.7557 16.5202 17.5267 16.0359 16.5293 15.426C15.5318 14.8162 15.0687 13.9731 15.1578 12.9327C15.2646 11.5875 16.0127 10.6727 17.402 10.1883C17.4198 10.1883 17.4199 10.1883 17.4377 10.1704C18.0076 9.9731 18.6845 9.84754 19.4682 9.79373C19.4682 9.79373 12.5216 9.52467 8.60304 13.148C5.73536 15.8027 7.51654 18.6009 8.19339 19.4619C9.08397 20.4484 10.1527 21.2018 11.4173 21.704C12.8601 22.278 14.3028 22.7803 15.7634 23.2108C16.0662 23.3005 16.369 23.4081 16.6539 23.4978C16.6539 23.4978 16.6896 23.5157 16.7252 23.5336C16.9746 23.6233 17.2061 23.713 17.4377 23.8027C17.4555 23.8027 17.4733 23.8206 17.4911 23.8206C17.4911 23.8206 29.6031 28.0538 27.2341 32.4484C27.2341 32.4484 27.4835 32.1614 27.7685 31.7489C28.1425 31.2108 28.4809 30.6368 28.7659 30.009C29.3003 28.8251 29.6387 27.4978 29.7634 25.9193C29.888 24 29.1578 22.0628 28.2138 20.8251Z" fill="white"/>
<path d="M17.4555 23.8206H17.4377C17.598 23.8924 17.7583 23.9462 17.9542 24.0359C17.7761 23.9821 17.6158 23.8924 17.4555 23.8206Z" fill="white"/>
<path d="M17.402 23.8027C17.1705 23.713 16.9389 23.6233 16.6896 23.5336C16.7964 23.5695 17.0636 23.6771 17.4199 23.8206H17.4377C17.4377 23.8206 17.4199 23.8206 17.402 23.8027Z" fill="white"/>
<path d="M16.6896 23.5336C16.6539 23.5157 16.6183 23.4978 16.6183 23.4978C16.6539 23.5157 16.6718 23.5336 16.6896 23.5336Z" fill="white"/>
</svg>
