<svg width="39" height="42" viewBox="0 0 39 42" fill="none" xmlns="http://www.w3.org/2000/svg">
<g filter="url(#filter0_d_1250_9352)">
<circle cx="16" cy="19" r="16" fill="#40798C"/>
<path d="M5.68 28C7.36 26.9333 9.02 26.1267 10.66 25.58C12.3 25.0333 14.08 24.76 16 24.76C17.92 24.76 19.7067 25.0333 21.36 25.58C23.0133 26.1267 24.68 26.9333 26.36 28C27.5333 26.56 28.3667 25.1067 28.86 23.64C29.3533 22.1733 29.6 20.6267 29.6 19C29.6 15.1333 28.3 11.9 25.7 9.3C23.1 6.7 19.8667 5.4 16 5.4C12.1333 5.4 8.9 6.7 6.3 9.3C3.7 11.9 2.4 15.1333 2.4 19C2.4 20.6267 2.65333 22.1733 3.16 23.64C3.66667 25.1067 4.50667 26.56 5.68 28ZM16 20.2C14.4533 20.2 13.1533 19.6733 12.1 18.62C11.0467 17.5667 10.52 16.2667 10.52 14.72C10.52 13.1733 11.0467 11.8733 12.1 10.82C13.1533 9.76667 14.4533 9.24 16 9.24C17.5467 9.24 18.8467 9.76667 19.9 10.82C20.9533 11.8733 21.48 13.1733 21.48 14.72C21.48 16.2667 20.9533 17.5667 19.9 18.62C18.8467 19.6733 17.5467 20.2 16 20.2ZM16 35C13.76 35 11.6667 34.58 9.72 33.74C7.77333 32.9 6.08 31.7533 4.64 30.3C3.2 28.8467 2.06667 27.1467 1.24 25.2C0.413334 23.2533 0 21.1733 0 18.96C0 16.7733 0.42 14.7067 1.26 12.76C2.1 10.8133 3.24667 9.12 4.7 7.68C6.15333 6.24 7.85333 5.1 9.8 4.26C11.7467 3.42 13.8267 3 16.04 3C18.2267 3 20.2933 3.42 22.24 4.26C24.1867 5.1 25.88 6.24 27.32 7.68C28.76 9.12 29.9 10.8133 30.74 12.76C31.58 14.7067 32 16.7867 32 19C32 21.1867 31.58 23.2533 30.74 25.2C29.9 27.1467 28.76 28.8467 27.32 30.3C25.88 31.7533 24.1867 32.9 22.24 33.74C20.2933 34.58 18.2133 35 16 35Z" fill="white"/>
</g>
<defs>
<filter id="filter0_d_1250_9352" x="-3" y="0" width="42" height="42" filterUnits="userSpaceOnUse" color-interpolation-filters="sRGB">
<feFlood flood-opacity="0" result="BackgroundImageFix"/>
<feColorMatrix in="SourceAlpha" type="matrix" values="0 0 0 0 0 0 0 0 0 0 0 0 0 0 0 0 0 0 127 0" result="hardAlpha"/>
<feOffset dx="2" dy="2"/>
<feGaussianBlur stdDeviation="2.5"/>
<feComposite in2="hardAlpha" operator="out"/>
<feColorMatrix type="matrix" values="0 0 0 0 0 0 0 0 0 0 0 0 0 0 0 0 0 0 0.25 0"/>
<feBlend mode="normal" in2="BackgroundImageFix" result="effect1_dropShadow_1250_9352"/>
<feBlend mode="normal" in="SourceGraphic" in2="effect1_dropShadow_1250_9352" result="shape"/>
</filter>
</defs>
</svg>
