<svg width="43" height="40" viewBox="0 0 43 40" fill="none" xmlns="http://www.w3.org/2000/svg">
<path d="M29.5 19.35C30.1 19.35 30.6167 19.1333 31.05 18.7C31.4833 18.2667 31.7 17.75 31.7 17.15C31.7 16.5167 31.4833 15.9917 31.05 15.575C30.6167 15.1583 30.1 14.95 29.5 14.95C28.8667 14.95 28.3333 15.1583 27.9 15.575C27.4667 15.9917 27.25 16.5167 27.25 17.15C27.25 17.75 27.4667 18.2667 27.9 18.7C28.3333 19.1333 28.8667 19.35 29.5 19.35ZM13.1 14.45H23.5V11.15H13.1V14.45ZM6.00001 39.3C4.86668 35.4667 3.74168 31.6333 2.62501 27.8C1.50835 23.9667 0.950012 20.0333 0.950012 16C0.950012 12.8667 2.05001 10.2 4.25001 8.00001C6.45001 5.80001 9.11668 4.70001 12.25 4.70001H22.55C23.55 3.43335 24.75 2.45001 26.15 1.75001C27.55 1.05001 29.0667 0.700012 30.7 0.700012C31.6 0.700012 32.375 1.01668 33.025 1.65001C33.675 2.28335 34 3.06668 34 4.00001C34 4.20001 33.975 4.40001 33.925 4.60001C33.875 4.80001 33.8167 5.00001 33.75 5.20001C33.6167 5.53335 33.5 5.88335 33.4 6.25001C33.3 6.61668 33.2167 6.98335 33.15 7.35001L37.45 11.7H42.05V26.2L36.3 28.05L32.9 39.3H21.4V35.3H17.55V39.3H6.00001ZM8.60001 35.9H14.2V31.9H24.75V35.9H30.35L33.5 25.4L38.65 23.7V15.1H36.05L29.65 8.70001C29.6833 7.86668 29.7833 7.05835 29.95 6.27501C30.1167 5.49168 30.3167 4.70001 30.55 3.90001C29.2833 4.26668 28.0917 4.77501 26.975 5.42501C25.8583 6.07501 25 6.96668 24.4 8.10001H12.25C10.05 8.10001 8.18335 8.86668 6.65001 10.4C5.11668 11.9333 4.35001 13.8 4.35001 16C4.35001 19.4333 4.83335 22.7833 5.80001 26.05C6.76668 29.3167 7.70001 32.6 8.60001 35.9Z" fill="white"/>
</svg>
