<svg width="41" height="40" viewBox="0 0 41 40" fill="none" xmlns="http://www.w3.org/2000/svg">
<path d="M15.15 23C13.25 23 11.625 22.325 10.275 20.975C8.925 19.625 8.25 18 8.25 16.1C8.25 14.2 8.925 12.575 10.275 11.225C11.625 9.875 13.25 9.2 15.15 9.2C17.05 9.2 18.675 9.875 20.025 11.225C21.375 12.575 22.05 14.2 22.05 16.1C22.05 18 21.375 19.625 20.025 20.975C18.675 22.325 17.05 23 15.15 23ZM15.15 20C16.25 20 17.175 19.6167 17.925 18.85C18.675 18.0833 19.05 17.1667 19.05 16.1C19.05 15 18.675 14.075 17.925 13.325C17.175 12.575 16.25 12.2 15.15 12.2C14.0833 12.2 13.1667 12.575 12.4 13.325C11.6333 14.075 11.25 15 11.25 16.1C11.25 17.1667 11.6333 18.0833 12.4 18.85C13.1667 19.6167 14.0833 20 15.15 20ZM30.2 25.3C28.7333 25.3 27.4833 24.7833 26.45 23.75C25.4167 22.7167 24.9 21.4667 24.9 20C24.9 18.5333 25.4167 17.2833 26.45 16.25C27.4833 15.2167 28.7333 14.7 30.2 14.7C31.6667 14.7 32.9167 15.2167 33.95 16.25C34.9833 17.2833 35.5 18.5333 35.5 20C35.5 21.4667 34.9833 22.7167 33.95 23.75C32.9167 24.7833 31.6667 25.3 30.2 25.3ZM17.6 36.8C19.2 33.8333 21.2417 31.8083 23.725 30.725C26.2083 29.6417 28.3667 29.1 30.2 29.1C30.9667 29.1 31.675 29.1583 32.325 29.275C32.975 29.3917 33.65 29.55 34.35 29.75C35.2167 28.5167 35.9583 27.05 36.575 25.35C37.1917 23.65 37.5 21.8667 37.5 20C37.5 15.2667 35.85 11.25 32.55 7.95C29.25 4.65 25.2333 3 20.5 3C15.7667 3 11.75 4.65 8.45 7.95C5.15 11.25 3.5 15.2667 3.5 20C3.5 21.7 3.75 23.3417 4.25 24.925C4.75 26.5083 5.43333 27.9333 6.3 29.2C7.56667 28.5333 8.98333 28 10.55 27.6C12.1167 27.2 13.65 27 15.15 27C16.05 27 16.925 27.0583 17.775 27.175C18.625 27.2917 19.4167 27.4833 20.15 27.75C19.5167 28.0833 18.9333 28.4417 18.4 28.825C17.8667 29.2083 17.3833 29.6167 16.95 30.05C16.6167 30.0167 16.3 30 16 30H15.15C14.0167 30 12.7917 30.1583 11.475 30.475C10.1583 30.7917 9.01667 31.1833 8.05 31.65C9.31667 32.9833 10.775 34.1083 12.425 35.025C14.075 35.9417 15.8 36.5333 17.6 36.8ZM20.5 40C17.7667 40 15.1833 39.475 12.75 38.425C10.3167 37.375 8.19167 35.9417 6.375 34.125C4.55833 32.3083 3.125 30.1833 2.075 27.75C1.025 25.3167 0.5 22.7333 0.5 20C0.5 17.2333 1.025 14.6417 2.075 12.225C3.125 9.80833 4.55833 7.69167 6.375 5.875C8.19167 4.05833 10.3167 2.625 12.75 1.575C15.1833 0.525 17.7667 0 20.5 0C23.2667 0 25.8583 0.525 28.275 1.575C30.6917 2.625 32.8083 4.05833 34.625 5.875C36.4417 7.69167 37.875 9.80833 38.925 12.225C39.975 14.6417 40.5 17.2333 40.5 20C40.5 22.7333 39.975 25.3167 38.925 27.75C37.875 30.1833 36.4417 32.3083 34.625 34.125C32.8083 35.9417 30.6917 37.375 28.275 38.425C25.8583 39.475 23.2667 40 20.5 40Z" fill="white"/>
</svg>
