<svg width="37" height="30" viewBox="0 0 37 30" fill="none" xmlns="http://www.w3.org/2000/svg">
<path d="M13.15 17.15C13.7834 17.15 14.3 16.9417 14.7 16.525C15.1 16.1083 15.3 15.6 15.3 15C15.3 14.4 15.0917 13.8917 14.675 13.475C14.2584 13.0583 13.75 12.85 13.15 12.85C12.5167 12.85 12 13.0583 11.6 13.475C11.2 13.8917 11 14.4 11 15C11 15.6 11.2 16.1083 11.6 16.525C12 16.9417 12.5167 17.15 13.15 17.15ZM20.85 17.15C21.45 17.15 21.9584 16.9417 22.375 16.525C22.7917 16.1083 23 15.6 23 15C23 14.4 22.7917 13.8917 22.375 13.475C21.9584 13.0583 21.45 12.85 20.85 12.85C20.2167 12.85 19.7 13.0583 19.3 13.475C18.9 13.8917 18.7 14.4 18.7 15C18.7 15.6 18.9 16.1083 19.3 16.525C19.7 16.9417 20.2167 17.15 20.85 17.15ZM28.55 17.15C29.15 17.15 29.6584 16.9417 30.075 16.525C30.4917 16.1083 30.7 15.6 30.7 15C30.7 14.4 30.4917 13.8917 30.075 13.475C29.6584 13.0583 29.15 12.85 28.55 12.85C27.9167 12.85 27.4 13.0583 27 13.475C26.6 13.8917 26.4 14.4 26.4 15C26.4 15.6 26.6 16.1083 27 16.525C27.4 16.9417 27.9167 17.15 28.55 17.15ZM0.150024 15L8.70002 2.90001C9.20002 2.23335 9.77502 1.70001 10.425 1.30001C11.075 0.900013 11.8 0.700012 12.6 0.700012H33.45C34.3834 0.700012 35.1834 1.03335 35.85 1.70001C36.5167 2.36668 36.85 3.16668 36.85 4.10001V25.9C36.85 26.8333 36.5167 27.6333 35.85 28.3C35.1834 28.9667 34.3834 29.3 33.45 29.3H12.6C11.8 29.3 11.075 29.0917 10.425 28.675C9.77502 28.2583 9.20002 27.7333 8.70002 27.1L0.150024 15ZM4.40002 15L12.05 25.9H33.45V4.10001H12.05L4.40002 15ZM33.45 15V4.10001V25.9V15Z" fill="white"/>
</svg>
