<svg width="37" height="38" viewBox="0 0 37 38" fill="none" xmlns="http://www.w3.org/2000/svg">
<path d="M18.3 30.7C18.8667 30.7 19.3417 30.5083 19.725 30.125C20.1083 29.7417 20.3 29.2667 20.3 28.7C20.3 28.1333 20.1083 27.6583 19.725 27.275C19.3417 26.8917 18.8667 26.7 18.3 26.7C17.7333 26.7 17.2583 26.8917 16.875 27.275C16.4917 27.6583 16.3 28.1333 16.3 28.7C16.3 29.2667 16.5 29.7417 16.9 30.125C17.3 30.5083 17.7667 30.7 18.3 30.7ZM16.55 23.3H19.6C19.6 22.3 19.7583 21.4667 20.075 20.8C20.3917 20.1333 20.9833 19.3833 21.85 18.55C22.8833 17.5167 23.625 16.575 24.075 15.725C24.525 14.875 24.75 13.9667 24.75 13C24.75 11.2 24.175 9.78335 23.025 8.75001C21.875 7.71668 20.35 7.20001 18.45 7.20001C16.6833 7.20001 15.1917 7.62501 13.975 8.47501C12.7583 9.32501 11.85 10.4667 11.25 11.9L14.1 13.1C14.5667 12.2 15.1583 11.5 15.875 11C16.5917 10.5 17.4333 10.25 18.4 10.25C19.4333 10.25 20.2333 10.5083 20.8 11.025C21.3667 11.5417 21.65 12.2333 21.65 13.1C21.65 13.7667 21.4667 14.4 21.1 15C20.7333 15.6 20.1667 16.2833 19.4 17.05C18.1333 18.25 17.3417 19.2583 17.025 20.075C16.7083 20.8917 16.55 21.9667 16.55 23.3ZM3.60001 37.3C2.70001 37.3 1.90835 36.9583 1.22501 36.275C0.541679 35.5917 0.200012 34.8 0.200012 33.9V4.10001C0.200012 3.16668 0.541679 2.36668 1.22501 1.70001C1.90835 1.03335 2.70001 0.700012 3.60001 0.700012H33.4C34.3333 0.700012 35.1333 1.03335 35.8 1.70001C36.4667 2.36668 36.8 3.16668 36.8 4.10001V33.9C36.8 34.8 36.4667 35.5917 35.8 36.275C35.1333 36.9583 34.3333 37.3 33.4 37.3H3.60001ZM3.60001 33.9H33.4V4.10001H3.60001V33.9ZM3.60001 4.10001V33.9V4.10001Z" fill="white"/>
</svg>
