<svg width="49" height="33" viewBox="0 0 49 33" fill="none" xmlns="http://www.w3.org/2000/svg">
<path d="M24.3 15.55C25.2 14.4167 25.875 13.2583 26.325 12.075C26.775 10.8917 27 9.53335 27 8.00001C27 6.43335 26.775 5.05835 26.325 3.87501C25.875 2.69168 25.1834 1.55001 24.25 0.450012C26.8834 -0.0499878 29.1667 0.391679 31.1 1.77501C33.0334 3.15835 34 5.23335 34 8.00001C34 10.7667 33.0334 12.85 31.1 14.25C29.1667 15.65 26.9 16.0833 24.3 15.55ZM35.25 32.45V27.5C35.25 25.7 34.8167 24.0583 33.95 22.575C33.0834 21.0917 31.5667 19.8167 29.4 18.75C35.2667 19.45 39.2584 20.5417 41.375 22.025C43.4917 23.5083 44.55 25.3333 44.55 27.5V32.45H35.25ZM40.85 17.3V12.3H35.8V9.30001H40.85V4.25001H43.85V9.30001H48.85V12.3H43.85V17.3H40.85ZM16.2 15.8C13.9 15.8 12.025 15.075 10.575 13.625C9.12502 12.175 8.40002 10.3 8.40002 8.00001C8.40002 5.70001 9.12502 3.82501 10.575 2.37501C12.025 0.925012 13.9 0.200012 16.2 0.200012C18.4667 0.200012 20.3334 0.925012 21.8 2.37501C23.2667 3.82501 24 5.70001 24 8.00001C24 10.3 23.2667 12.175 21.8 13.625C20.3334 15.075 18.4667 15.8 16.2 15.8ZM0.150024 32.45V27.45C0.150024 26.2167 0.466691 25.1 1.10002 24.1C1.73336 23.1 2.60002 22.35 3.70002 21.85C6.10002 20.7833 8.25836 20.0167 10.175 19.55C12.0917 19.0833 14.1 18.85 16.2 18.85C18.3 18.85 20.2917 19.0833 22.175 19.55C24.0584 20.0167 26.2 20.7833 28.6 21.85C29.7 22.35 30.5834 23.1 31.25 24.1C31.9167 25.1 32.25 26.2167 32.25 27.45V32.45H0.150024ZM16.2 12.4C17.4667 12.4 18.5084 11.9833 19.325 11.15C20.1417 10.3167 20.55 9.26668 20.55 8.00001C20.55 6.73335 20.1417 5.68335 19.325 4.85001C18.5084 4.01668 17.4667 3.60001 16.2 3.60001C14.9334 3.60001 13.8834 4.01668 13.05 4.85001C12.2167 5.68335 11.8 6.73335 11.8 8.00001C11.8 9.26668 12.2084 10.3167 13.025 11.15C13.8417 11.9833 14.9 12.4 16.2 12.4ZM3.55002 29.05H28.8V27.5C28.8 26.9667 28.6667 26.4667 28.4 26C28.1334 25.5333 27.7167 25.1667 27.15 24.9C24.8834 23.8667 22.9667 23.1667 21.4 22.8C19.8334 22.4333 18.1 22.25 16.2 22.25C14.3 22.25 12.5584 22.4333 10.975 22.8C9.39169 23.1667 7.45002 23.8667 5.15002 24.9C4.65002 25.1333 4.25836 25.4917 3.97502 25.975C3.69169 26.4583 3.55002 26.9667 3.55002 27.5V29.05Z" fill="white"/>
</svg>
