<svg width="200" height="230" viewBox="0 0 200 230" fill="none" xmlns="http://www.w3.org/2000/svg">
<path d="M200 200.503L186.475 175.674C195.907 156.829 199.407 134.844 195.017 112.622C184.518 59.3473 132.732 24.6805 79.4035 35.1694C26.0754 45.6583 -8.62646 97.3919 1.87308 150.666C12.3726 203.94 64.1585 238.607 117.487 228.118C138.071 224.029 155.926 213.837 169.45 199.733L200 200.503Z" fill="#42798B"/>
<path d="M119.741 117.659L112.622 85.9549L71.5732 95.1401L78.573 126.251C78.573 126.429 78.6323 126.607 78.6323 126.785C79.8187 132.118 89.9623 134.37 101.292 131.822C112.682 129.333 120.927 122.992 119.741 117.659Z" fill="#ECB1A9"/>
<path d="M131.545 80.2661C143.468 55.0215 134.57 25.8066 111.673 15.0214C88.7755 4.23614 60.5394 16.0288 48.6755 41.2733C44.5232 50.0437 42.6843 59.9401 43.6334 69.5994C44.4639 77.8364 47.0739 87.3772 50.1585 92.4735C54.6075 99.9402 64.0986 105.214 68.251 106.755C92.4533 115.763 119.8 105.274 131.545 80.2661Z" fill="#F2DFD8"/>
<path d="M143.171 67.7624C145.9 62.0143 145.01 55.9105 141.214 54.1328C137.418 52.355 131.96 51.9402 129.291 57.6883C126.562 63.4365 127.63 73.1551 131.426 74.9328C135.163 76.7106 140.443 73.5106 143.171 67.7624Z" fill="#F2DFD8"/>
<path d="M68.726 65.392C69.9382 65.392 70.9209 64.4634 70.9209 63.3179C70.9209 62.1724 69.9382 61.2438 68.726 61.2438C67.5139 61.2438 66.5312 62.1724 66.5312 63.3179C66.5312 64.4634 67.5139 65.392 68.726 65.392Z" fill="#20363D"/>
<path d="M103.665 63.8511C104.878 63.8511 105.86 62.9225 105.86 61.777C105.86 60.6315 104.878 59.7029 103.665 59.7029C102.453 59.7029 101.471 60.6315 101.471 61.777C101.471 62.9225 102.453 63.8511 103.665 63.8511Z" fill="#20363D"/>
<path d="M90.1401 81.1551C91.6231 82.8736 94.2925 82.9921 96.0721 81.4514C96.9619 80.681 97.4957 79.6143 97.5551 78.5476" stroke="#E07D5C" stroke-width="3.6718" stroke-miterlimit="10" stroke-linecap="round" stroke-linejoin="round"/>
<path d="M106.928 27.5845C106.928 27.5845 108.53 37.5401 118.555 43.6438C122.114 45.8364 128.342 57.2143 128.342 57.2143C128.342 57.2143 135.698 49.392 141.155 54.1328C141.155 54.1328 143.587 4.23626 81.4207 9.45109C81.4207 9.45109 42.4478 12.2363 41.0835 52.4735C41.0835 52.4735 43.2783 53.0068 52.9474 46.1327C52.9474 46.1327 52.6508 50.2809 62.9131 45.5994C62.9131 45.5994 65.9383 48.3846 72.5821 43.6438C72.5821 43.6438 75.6074 46.2512 84.1494 42.6364C92.7507 39.0808 106.928 27.5845 106.928 27.5845Z" fill="#20363D"/>
<path d="M41.1429 52.4734C41.1429 52.4734 36.1007 22.4881 60.1251 12.8288C60.1251 12.8288 92.8694 -14.7269 119.445 10.9325C119.445 10.9325 149.697 21.3621 141.155 54.1326L108.886 18.9918L69.4383 25.0362L41.1429 52.4734Z" fill="#20363D"/>
<path d="M101.352 131.881C92.3951 133.896 84.1497 132.889 80.5312 129.748C84.9802 137.807 96.0136 150.726 96.4882 154.992C96.8441 151.141 104.793 138.518 110.013 128.918C107.462 130.163 104.556 131.17 101.352 131.881Z" fill="#20363D"/>
<path d="M175.62 179.23C163.341 150.37 145.545 127.97 128.698 117.896C133.384 126.074 138.367 137.392 136.35 138.637C133.562 140.415 120.868 124.237 118.436 126.015C116.004 127.792 99.0978 155.763 99.0978 155.763C99.0978 155.763 97.0809 160.03 96.4878 155.526C95.8946 160.089 93.8777 155.763 93.8777 155.763C93.8777 155.763 77.1496 134.192 74.6582 132.474C72.1668 130.755 59.5317 146.874 56.7437 145.096C55.0828 144.029 58.286 135.852 62.2011 128.385C49.8034 140.296 37.7615 158.015 28.7449 179.23C26.5501 184.385 24.5926 189.6 22.9316 194.696C34.0837 207.97 48.4983 218.104 64.7519 224.03C81.0647 230.015 99.2165 231.734 117.487 228.119C117.487 228.119 117.487 228.119 117.546 228.119C138.13 224.03 155.926 213.837 169.451 199.793L183.094 200.148C181.137 193.274 178.645 186.282 175.62 179.23Z" fill="#C3E6F9"/>
<path d="M128.757 117.896C126.859 114.577 124.961 111.792 123.596 110.37C121.046 107.763 117.783 106.755 117.249 106.577C117.19 106.577 117.19 106.577 117.19 106.577L115.825 112.563L114.461 118.607C114.343 120.563 112.504 124.414 110.072 128.977C104.911 138.578 96.9026 151.2 96.5467 155.052C96.0721 150.785 85.0387 137.807 80.5897 129.807C79.6406 128.977 78.9881 128.029 78.7508 126.903C78.6915 126.726 78.6915 126.548 78.6915 126.37L76.6746 117.422L75.7256 113.214C74.7764 113.511 71.9291 114.577 69.6156 116.948C67.7174 118.903 64.8701 123.526 62.26 128.503C58.4043 135.97 55.1417 144.148 56.8026 145.215C59.5906 146.992 72.2851 130.815 74.7171 132.592C77.1492 134.37 93.9366 155.881 93.9366 155.881C93.9366 155.881 95.9535 160.148 96.5467 155.644C97.1399 160.207 99.1567 155.881 99.1567 155.881C99.1567 155.881 116.063 127.852 118.495 126.133C120.927 124.414 133.621 140.533 136.409 138.755C138.367 137.392 133.443 126.074 128.757 117.896Z" fill="#C3E6F9"/>
<path d="M100.284 153.57C100.284 153.57 116.004 127.733 118.436 126.014C120.868 124.296 133.562 140.415 136.35 138.637C138.071 137.57 134.63 128.918 130.596 121.333" stroke="white" stroke-width="4" stroke-miterlimit="10" stroke-linecap="round" stroke-linejoin="round"/>
<path d="M59.9467 132.889C57.218 138.815 55.3791 144.207 56.7435 145.096C59.5315 146.874 72.2258 130.696 74.6579 132.474C77.09 134.252 87.2336 154.044 93.8774 157.659C95.2418 158.37 96.7248 157.896 97.0807 162.933C97.4366 167.97 99.1569 223.141 99.1569 223.141" stroke="white" stroke-width="4" stroke-miterlimit="10" stroke-linecap="round" stroke-linejoin="round"/>
<path d="M90.7339 183.319C91.9461 183.319 92.9287 182.39 92.9287 181.244C92.9287 180.099 91.9461 179.17 90.7339 179.17C89.5218 179.17 88.5391 180.099 88.5391 181.244C88.5391 182.39 89.5218 183.319 90.7339 183.319Z" fill="white"/>
<path d="M91.8608 211.467C93.073 211.467 94.0557 210.538 94.0557 209.392C94.0557 208.247 93.073 207.318 91.8608 207.318C90.6486 207.318 89.666 208.247 89.666 209.392C89.666 210.538 90.6486 211.467 91.8608 211.467Z" fill="white"/>
</svg>
