<svg width="35" height="40" viewBox="0 0 35 40" fill="none" xmlns="http://www.w3.org/2000/svg">
<path d="M23.369 0L23.6362 2.85202H22.3181C22.3003 2.85202 22.3003 2.85202 22.2825 2.85202C20.9288 2.85202 19.6642 2.97758 18.4708 3.06726C13.0026 3.5157 9.68961 5.0583 7.90844 7.96413C6.98223 9.48879 6.46567 11.3722 6.28755 13.6682C6.14506 15.4978 6.8041 17.8117 7.76593 19.0314C7.89062 19.1928 8.01529 19.3363 8.13998 19.4798C7.46313 18.6188 5.68197 15.8206 8.54965 13.1659C12.486 9.5426 19.4148 9.81166 19.4148 9.81166H20.8397C20.8754 9.81166 20.9288 9.81166 20.9644 9.81166H28.3741H35L23.369 0Z" fill="#40798C"/>
<path d="M17.4555 23.8206C17.6158 23.8924 17.7939 23.9641 17.9542 24.0359C18.4885 24.287 18.9695 24.5381 19.397 24.8251C20.3944 25.4708 20.8397 26.3139 20.7684 27.3184C20.6438 29.0583 19.3079 30.009 16.7786 30.1704H15.2112H4.1145H0L11.6667 40L11.3995 37.148H14.2672C19.112 37.148 22.7634 36.1973 25.2392 34.296C25.9517 33.7399 26.6107 33.13 27.1807 32.4484C27.3766 32.2152 27.5547 31.9821 27.715 31.7489C27.4122 32.1435 27.1807 32.4484 27.1807 32.4484C29.5674 28.0538 17.4555 23.8206 17.4555 23.8206Z" fill="#6AC1AC"/>
<path d="M28.2138 20.8251C27.2698 19.6054 26.0586 18.7265 24.598 18.2063C23.4402 17.7937 22.2647 17.4171 21.1069 17.1121C20.8041 17.0404 20.5191 16.9507 20.2163 16.8789C18.7558 16.5202 17.5267 16.0359 16.5293 15.426C15.5318 14.8162 15.0687 13.9731 15.1578 12.9328C15.2647 11.5875 16.0127 10.6727 17.4021 10.1884C17.4199 10.1884 17.4199 10.1884 17.4377 10.1704C18.0077 9.97312 18.6845 9.84756 19.4682 9.79374C19.4682 9.79374 12.5217 9.52469 8.60307 13.148C5.73539 15.8027 7.51657 18.6009 8.19342 19.4619C9.084 20.4485 10.1527 21.2018 11.4173 21.7041C12.8601 22.2781 14.3028 22.7803 15.7634 23.2108C16.0662 23.3005 16.369 23.4081 16.654 23.4978C16.654 23.4978 16.6896 23.5157 16.7252 23.5337C16.9746 23.6233 17.2061 23.713 17.4377 23.8027C17.4555 23.8027 17.4733 23.8207 17.4911 23.8207C17.4911 23.8207 29.6031 28.0538 27.2341 32.4485C27.2341 32.4485 27.4835 32.1615 27.7685 31.7489C28.1425 31.2108 28.481 30.6368 28.7659 30.009C29.3003 28.8251 29.6387 27.4978 29.7634 25.9193C29.8881 24 29.1578 22.0628 28.2138 20.8251Z" fill="#F0CC67"/>
<path d="M17.4554 23.8206H17.4376C17.5979 23.8924 17.7582 23.9462 17.9541 24.0359C17.776 23.9821 17.6157 23.8924 17.4554 23.8206Z" fill="#F0CC67"/>
<path d="M17.402 23.8027C17.1705 23.713 16.9389 23.6233 16.6896 23.5336C16.7964 23.5695 17.0636 23.6771 17.4199 23.8206H17.4377C17.4377 23.8206 17.4199 23.8206 17.402 23.8027Z" fill="#F0CC67"/>
<path d="M16.6895 23.5336C16.6539 23.5157 16.6183 23.4977 16.6183 23.4977C16.6539 23.5157 16.6717 23.5336 16.6895 23.5336Z" fill="#F0CC67"/>
</svg>
