<svg width="280" height="188" viewBox="0 0 280 188" fill="none" xmlns="http://www.w3.org/2000/svg">
<path d="M225.354 97.573C228.892 97.573 231.486 96.7591 233.137 95.1313C234.788 93.5035 235.63 90.9317 235.63 87.3831C235.63 83.2485 233.204 81.165 228.319 81.165C224.849 81.165 222.289 81.9789 220.604 83.6392C218.953 85.2995 218.111 87.904 218.111 91.4851C218.111 95.5545 220.537 97.573 225.354 97.573Z" fill="white"/>
<path d="M155.582 118.246C156.525 116.846 158.479 116.13 161.511 116.13C163.364 116.13 164.678 116.618 165.419 117.562C166.16 118.506 166.565 119.418 166.565 120.264C166.565 120.818 166.531 121.306 166.497 121.762C171.315 122.315 176.133 122.901 180.95 123.552L181.456 120.72C181.759 119.255 181.894 117.888 181.894 116.585C181.894 113.395 181.085 110.758 179.468 108.674C177.211 105.647 173.134 104.149 167.205 104.149C162.556 104.149 158.883 105.256 156.154 107.502L156.592 105.224H143.184L140.589 119.353C145.441 119.711 150.292 120.101 155.177 120.59L155.582 118.246Z" fill="white"/>
<path d="M210.295 81.8486H195.505L187.689 124.464C192.473 125.148 197.257 125.929 202.041 126.743L210.295 81.8486Z" fill="white"/>
<path d="M231.183 105.224H216.393L212.114 128.533C216.864 129.412 221.615 130.389 226.365 131.398L231.183 105.224Z" fill="white"/>
<path d="M278.585 126.385H264.132C263.66 128.891 262.818 130.91 261.571 132.44C260.325 133.938 258.775 134.719 256.922 134.719C253.452 134.719 251.7 132.961 251.7 129.412C251.7 128.566 251.801 127.622 252.037 126.547L253.789 117.041H277.81L280 105.191H255.979L258.505 91.1595L242.57 97.5404L236.64 130.063C236.438 131.301 236.304 132.473 236.304 133.58C247.421 136.151 258.539 139.114 269.59 142.467C274.273 139.114 277.271 133.742 278.585 126.385Z" fill="white"/>
<path d="M120.409 79.3744L120.914 84.5507H118.421C118.388 84.5507 118.388 84.5507 118.354 84.5507C115.794 84.5507 113.402 84.7786 111.144 84.9414C100.801 85.7553 94.535 88.5551 91.1659 93.8291C89.414 96.5963 88.437 100.015 88.1001 104.182C87.8306 107.502 89.0771 111.702 90.8964 113.916C91.1322 114.209 91.3681 114.469 91.6039 114.73C90.3237 113.167 86.9546 108.088 92.3788 103.27C99.8243 96.694 112.93 97.1823 112.93 97.1823H115.625C115.692 97.1823 115.794 97.1823 115.861 97.1823H129.876H142.409L120.409 79.3744Z" fill="white"/>
<path d="M109.19 122.608C109.493 122.738 109.83 122.869 110.134 122.999C111.144 123.455 112.054 123.91 112.862 124.431C114.749 125.603 115.591 127.133 115.457 128.957C115.221 132.114 112.694 133.84 107.91 134.133H104.945H83.9562H76.1737L98.2408 151.973L97.7355 146.797H103.16C112.323 146.797 119.23 145.072 123.913 141.621C125.26 140.612 126.507 139.505 127.585 138.267C127.956 137.844 128.293 137.421 128.596 136.998C128.023 137.714 127.585 138.267 127.585 138.267C132.133 130.291 109.19 122.608 109.19 122.608Z" fill="white"/>
<path d="M129.539 117.171C127.754 114.958 125.463 113.362 122.7 112.418C120.51 111.67 118.287 111.018 116.097 110.432C115.524 110.302 114.985 110.139 114.412 110.009C111.65 109.358 109.325 108.479 107.438 107.372C105.552 106.265 104.676 104.735 104.844 102.847C105.046 100.405 106.461 98.745 109.089 97.866C109.123 97.866 109.123 97.866 109.156 97.8335C110.235 97.4753 111.515 97.2475 112.997 97.1498C112.997 97.1498 99.858 96.6614 92.4461 103.238C87.022 108.056 90.391 113.135 91.6712 114.697C93.3557 116.488 95.3772 117.855 97.7692 118.767C100.498 119.809 103.227 120.72 105.99 121.501C106.562 121.664 107.135 121.86 107.674 122.022C107.674 122.022 107.741 122.055 107.809 122.087C108.281 122.25 108.719 122.413 109.156 122.576C109.19 122.576 109.224 122.608 109.258 122.608C109.258 122.608 132.167 130.291 127.686 138.268C127.686 138.268 128.158 137.747 128.697 136.998C129.404 136.021 130.044 134.979 130.584 133.84C131.594 131.691 132.234 129.282 132.47 126.417C132.706 122.901 131.325 119.385 129.539 117.171Z" fill="white"/>
<path d="M109.19 122.608H109.156C109.46 122.738 109.763 122.836 110.134 122.999C109.83 122.901 109.527 122.738 109.19 122.608Z" fill="white"/>
<path d="M109.123 122.576C108.685 122.413 108.247 122.25 107.775 122.087C107.977 122.152 108.483 122.348 109.157 122.608H109.19C109.157 122.608 109.157 122.608 109.123 122.576Z" fill="white"/>
<path d="M107.776 122.088C107.708 122.055 107.64 122.022 107.64 122.022C107.674 122.055 107.708 122.088 107.776 122.088Z" fill="white"/>
<path d="M146.283 169L150.966 143.021C152.886 145.527 156.255 146.797 161.14 146.797C166.026 146.797 170.068 145.397 173.336 142.63C176.571 139.863 178.693 135.793 179.67 130.487L180.917 123.487C176.099 122.836 171.281 122.25 166.464 121.697C166.43 121.925 166.396 122.12 166.362 122.315L165.217 128.631C164.88 130.649 164.004 132.147 162.623 133.156C161.242 134.165 159.726 134.654 158.108 134.654C155.514 134.654 153.796 133.872 152.987 132.31L155.177 120.525C150.292 120.069 145.441 119.646 140.589 119.288L131.527 168.967H146.283V169Z" fill="white"/>
<path d="M185.667 138.333C185.667 140.123 186.172 141.783 187.149 143.281C188.699 145.625 192.136 146.797 197.425 146.797C200.895 146.797 204.028 145.69 206.825 143.509L207.263 134.003C206.218 134.556 204.938 134.849 203.388 134.849C201.838 134.849 201.097 134.133 201.097 132.668C201.097 132.342 201.131 131.984 201.198 131.659L202.108 126.71C197.324 125.896 192.506 125.148 187.756 124.431L186.071 133.58C185.802 134.979 185.667 136.542 185.667 138.333Z" fill="white"/>
<path d="M210.8 138.3C210.8 140.058 211.306 141.718 212.35 143.314C213.9 145.658 217.336 146.83 222.625 146.83C226.096 146.83 229.195 145.723 231.924 143.542L232.362 134.035C231.318 134.589 230.138 134.882 228.791 134.882C227.039 134.882 226.197 134.133 226.197 132.603C226.197 132.31 226.23 132.017 226.298 131.691L226.365 131.398C221.615 130.389 216.864 129.445 212.114 128.533L211.171 133.612C210.935 134.979 210.8 136.51 210.8 138.3Z" fill="white"/>
<path d="M239.605 142.435C242.57 145.365 247.421 146.797 254.126 146.797C260.493 146.797 265.648 145.332 269.59 142.467C258.539 139.114 247.421 136.184 236.304 133.58C236.304 133.677 236.304 133.742 236.304 133.84C236.304 137.454 237.415 140.319 239.605 142.435Z" fill="white"/>
<path d="M130.55 133.872C130.011 135.012 129.371 136.054 128.663 137.03C129.404 136.054 130.314 134.751 130.55 133.872Z" fill="white"/>
<path d="M46.122 50.0132H18.0917L19.8436 39.6467H42.9888L45.4145 25.8132H22.2693L24.257 13.8334H52.2536L54.6793 0H11.0504L0 63.8466C0 63.8466 16.9462 58.5604 45.684 52.4504L46.122 50.0132Z" fill="white"/>
<path d="M66.6394 48.1596C66.6394 47.1985 66.7068 46.4776 66.8078 45.9284L67.9533 39.2691C68.6945 34.9097 71.3223 32.7128 75.7694 32.7128C78.1615 32.7128 79.6438 33.468 80.284 34.944L78.3299 46.1687C83.2487 45.3105 88.3359 44.4867 93.5916 43.6972L97.4997 21.2136H84.2931L83.8551 23.8567C81.9348 21.3166 78.2962 20.0465 72.9395 20.0465C67.5827 20.0465 63.2367 21.6255 59.9013 24.7835C56.566 27.9415 54.4435 32.1979 53.5002 37.5185L51.6809 47.885C51.4788 49.0864 51.344 50.2192 51.2766 51.249C56.128 50.2535 61.2489 49.258 66.6394 48.2283C66.6394 48.2283 66.6394 48.1939 66.6394 48.1596Z" fill="white"/>
<path d="M127.012 38.8572C124.688 38.5483 122.734 38.1707 121.083 37.6901C119.466 37.2096 118.657 36.4544 118.657 35.3903C118.657 32.6785 120.847 31.3054 125.193 31.3054C126.642 31.3054 127.821 31.5457 128.764 32.0606C129.708 32.5755 130.146 33.2277 130.146 34.0515C130.146 34.8754 129.91 35.4589 129.438 35.8365H143.689C144.835 34.1888 145.441 32.3696 145.441 30.413C145.441 23.3761 139.512 19.8748 127.619 19.8748C119.904 19.8748 114.008 21.3165 109.931 24.2343C105.855 27.1177 103.8 31.2711 103.8 36.6603C103.8 38.7542 104.271 40.5392 105.181 42.0495C112.694 41.0198 120.544 40.0243 128.63 39.0975C128.09 38.9945 127.551 38.9259 127.012 38.8572Z" fill="white"/>
<path d="M194.595 21.2136H179.805L177.413 35.1157C182.298 34.8754 187.284 34.6694 192.304 34.4978L194.595 21.2136Z" fill="white"/>
<path d="M168.249 21.2136H153.459L150.73 36.9349C155.649 36.523 160.669 36.1454 165.723 35.8022L168.249 21.2136Z" fill="white"/>
<path d="M45.684 52.4504C16.9462 58.5604 0 63.8466 0 63.8466H43.6626L45.684 52.4504Z" fill="white"/>
<path d="M65.4939 65.0824C71.1202 65.0824 75.3651 62.7139 78.2962 57.9769C79.0037 62.7139 82.5412 65.0824 88.9086 65.0824C92.3787 65.0824 95.5119 63.9153 98.3082 61.6154L98.7462 51.5922C97.7018 52.1758 96.4216 52.4847 94.8718 52.4847C93.3221 52.4847 92.5809 51.7295 92.5809 50.1848C92.5809 49.8416 92.6146 49.464 92.682 49.1207L93.6253 43.6972C88.3696 44.4867 83.2487 45.3449 78.3636 46.1687L77.7235 49.8416C76.2074 51.4892 74.4218 52.313 72.3667 52.313C70.3116 52.313 68.8292 51.8668 67.987 50.94C67.1447 50.0475 66.7404 49.155 66.7067 48.2626C61.3163 49.258 56.1617 50.2878 51.344 51.2833C51.3103 51.7295 51.3103 52.1757 51.3103 52.5877C51.2429 60.9289 55.9932 65.0824 65.4939 65.0824Z" fill="white"/>
<path d="M112.189 46.7179C114.547 47.2328 116.872 47.6447 119.23 47.885C121.588 48.1253 123.576 48.3999 125.193 48.7431C126.81 49.0521 127.619 49.6356 127.619 50.4595C127.619 51.6952 127.147 52.5533 126.238 52.9996C125.294 53.4458 123.812 53.6518 121.723 53.6518C119.634 53.6518 118.051 53.3428 116.973 52.725C115.895 52.1071 115.423 51.3863 115.524 50.5624L101.004 50.7341C100.835 51.7295 100.734 52.725 100.734 53.6518C100.734 56.9471 101.879 59.5559 104.204 61.4438C107.169 63.881 112.323 65.0824 119.702 65.0824C127.08 65.0824 132.672 63.8123 136.547 61.2722C140.387 58.7321 142.342 55.0248 142.342 50.1162C142.342 47.3358 141.533 45.1389 139.916 43.4569C138.299 41.8093 136.311 40.7108 133.986 40.1273C132.201 39.681 130.415 39.3378 128.63 39.0632C120.544 39.9557 112.694 40.9511 105.181 42.0152C105.484 42.4958 105.821 42.942 106.226 43.3883C107.843 45.0702 109.83 46.203 112.189 46.7179Z" fill="white"/>
<path d="M148.136 54.5443C148.136 56.3292 148.406 57.9082 148.911 59.3156C149.787 61.8557 151.876 63.5377 155.177 64.3615C149.079 68.2747 146.047 72.7371 146.047 77.7487C146.047 81.2843 147.328 84.1677 149.922 86.3303C152.516 88.5272 156.727 89.6256 162.589 89.6256C168.451 89.6256 173.64 87.4287 178.188 83.0693C182.736 78.7099 185.667 72.7714 186.914 65.254L192.27 34.4635C187.251 34.6351 182.298 34.841 177.379 35.0813L174.886 49.464C173.202 51.2833 171.079 52.2101 168.552 52.2101C165.419 52.2101 163.87 50.8027 163.87 47.9536C163.87 46.8895 163.971 45.8254 164.139 44.7613L165.689 35.7678C160.602 36.1111 155.615 36.4887 150.697 36.9006L148.574 49.1207C148.305 50.9743 148.136 52.7593 148.136 54.5443ZM172.865 61.3408L171.989 66.4897C170.843 73.458 168.35 76.9592 164.611 76.9592C163.398 76.9592 162.455 76.5816 161.781 75.8608C161.107 75.1056 160.77 74.1788 160.77 72.9774C160.77 69.0642 164.779 65.1854 172.865 61.3408Z" fill="white"/>
<path d="M207.456 173.752L207.048 170.56L205.2 170.992V168.112H207.408V164.896H205.2V160.48H201.696V164.896H198.96V168.112H201.696V171.76C200.568 172 199.536 172.216 198.648 172.384L199.512 175.72L201.696 175.192V179.512C201.696 179.848 201.576 179.968 201.24 179.968C200.928 179.968 199.92 179.968 199.08 179.92C199.512 180.832 199.968 182.272 200.064 183.184C201.816 183.184 203.064 183.088 204 182.56C204.936 182.008 205.2 181.168 205.2 179.536V174.328L207.456 173.752ZM221.376 176.8C220.584 175.864 219.12 174.472 217.848 173.224V171.088H221.016V167.8H211.56V165.4C214.752 164.92 218.136 164.176 220.896 163.168L217.704 160.528C215.352 161.512 211.536 162.376 207.984 162.88V170.848C207.984 174.064 207.84 178.288 205.776 181.096C206.568 181.528 208.104 182.728 208.704 183.4C211.104 180.256 211.536 174.88 211.56 171.088H214.368V183.256H217.848V177.568C218.424 178.192 218.928 178.792 219.264 179.272L221.376 176.8ZM233.64 175.072V167.872H234.192V174.832C234.192 175.024 234.144 175.072 234.024 175.072H233.64ZM236.616 164.824H233.64V160.48H230.808V164.824H227.784V178.264H230.28V167.872H230.808V183.28H233.64V175.984C233.856 176.656 234 177.4 234.024 177.952C234.84 177.952 235.392 177.856 235.968 177.352C236.52 176.848 236.616 175.936 236.616 174.928V164.824ZM240.936 179.152V174.16H241.272C241.824 175.744 242.496 177.232 243.336 178.528L240.936 179.152ZM247.08 174.16C246.528 174.64 245.832 175.192 245.16 175.672C244.848 175.192 244.584 174.688 244.344 174.16H247.08ZM247.776 174.16H249.816V171.232H241.392V170.416H248.184V168.016H241.392V167.2H248.16V164.824H241.392V164.08H249.168V161.392H238.032V171.232H236.832V174.16H237.672V178C237.672 179.08 236.856 179.944 236.256 180.328C236.832 181.048 237.624 182.608 237.864 183.448C238.416 183.04 239.352 182.632 243.864 181.264C243.768 180.712 243.696 179.848 243.696 179.08C244.848 180.712 246.264 182.08 248.016 182.992C248.52 182.104 249.552 180.784 250.32 180.136C248.976 179.56 247.8 178.744 246.816 177.736C247.776 177.256 248.856 176.632 249.96 176.032L247.776 174.16ZM268.848 172.36H269.736V173.8L268.848 174.016V172.36ZM269.736 164.2V165.664H268.848V164.2H269.736ZM272.448 167.344V164.2H272.928V165.736H275.736C275.616 166.576 275.472 167.392 275.328 168.184C275.064 167.656 274.8 167.152 274.56 166.672L272.448 167.344ZM272.448 168.088C273.072 169.36 273.696 170.776 274.272 172.168C273.768 173.632 273.168 174.904 272.448 175.96V168.088ZM268.848 168.256H269.736V169.768H268.848V168.256ZM263.664 175.216H265.32L265.848 177.664C267.024 177.328 268.368 176.92 269.736 176.512V179.032H272.448V177.376C273 177.928 273.576 178.672 273.888 179.152C274.584 178.336 275.208 177.304 275.76 176.104C276.024 176.92 276.264 177.688 276.408 178.336L279.096 177.352C278.712 175.936 278.016 174.112 277.2 172.216C277.944 169.648 278.472 166.696 278.784 163.504L277.008 162.928L276.504 163.024H273.216V161.296H265.32V164.2H266.184V174.664L265.392 174.832V172.216H263.664V170.2H265.416V167.152H262.944V165.688H264.984V162.688H262.944V160.48H259.848V162.688H257.088V165.688H259.848V167.152H256.536V170.2H260.64V175.672C260.424 175.216 260.232 174.736 260.04 174.184C260.064 173.368 260.04 172.552 260.016 171.736L257.136 171.568C257.28 174.88 257.184 178.504 255.72 181.216C256.392 181.528 257.52 182.608 257.952 183.328C258.696 182.08 259.2 180.712 259.512 179.248C261.552 182.104 264.576 182.656 268.968 182.656H277.824C278.04 181.6 278.616 179.992 279.144 179.2C276.696 179.344 271.104 179.32 269.016 179.32C266.88 179.32 265.104 179.2 263.664 178.6V175.216Z" fill="white"/>
</svg>
