<svg width="440" height="75" viewBox="0 0 440 75" fill="none" xmlns="http://www.w3.org/2000/svg">
<g clip-path="url(#clip0_78_1896)">
<path d="M1.936 28H4.336L6.032 21.84C6.384 20.608 6.72 19.248 7.04 17.968H7.104C7.44 19.232 7.776 20.608 8.128 21.84L9.824 28H12.304L8.512 16.16H5.728L1.936 28ZM4.288 24.96H9.92V23.136H4.288V24.96ZM16.061 28.224C17.277 28.224 18.125 27.632 18.909 26.72H18.957L19.133 28H21.053V19.056H18.717V25.088C18.109 25.888 17.629 26.208 16.893 26.208C16.013 26.208 15.629 25.728 15.629 24.352V19.056H13.277V24.64C13.277 26.896 14.125 28.224 16.061 28.224ZM26.7125 31.888C29.7045 31.888 31.6085 30.528 31.6085 28.72C31.6085 27.136 30.4245 26.48 28.2645 26.48H26.7285C25.6885 26.48 25.3205 26.208 25.3205 25.744C25.3205 25.376 25.4645 25.184 25.7045 24.96C26.1045 25.104 26.5045 25.168 26.8565 25.168C28.7925 25.168 30.3285 24.16 30.3285 22.128C30.3285 21.584 30.1525 21.088 29.9125 20.784H31.4485V19.056H28.2165C27.8485 18.912 27.3685 18.832 26.8565 18.832C24.9685 18.832 23.2405 19.952 23.2405 22.064C23.2405 23.12 23.8325 23.968 24.4565 24.416V24.48C23.8965 24.864 23.4485 25.472 23.4485 26.144C23.4485 26.88 23.8005 27.36 24.2645 27.664V27.744C23.4325 28.192 22.9845 28.848 22.9845 29.6C22.9845 31.168 24.6165 31.888 26.7125 31.888ZM26.8565 23.728C26.0725 23.728 25.4485 23.12 25.4485 22.064C25.4485 21.008 26.0725 20.432 26.8565 20.432C27.6565 20.432 28.2645 21.008 28.2645 22.064C28.2645 23.12 27.6405 23.728 26.8565 23.728ZM27.0805 30.4C25.7685 30.4 24.9365 29.984 24.9365 29.232C24.9365 28.864 25.1125 28.512 25.5285 28.176C25.8485 28.272 26.2165 28.304 26.7605 28.304H27.8485C28.8085 28.304 29.3365 28.48 29.3365 29.12C29.3365 29.808 28.4245 30.4 27.0805 30.4Z" fill="#20363D"/>
<path d="M10.08 60.336C13.68 60.336 16.08 57.192 16.08 51.048C16.08 44.928 13.68 41.928 10.08 41.928C6.456 41.928 4.056 44.928 4.056 51.048C4.056 57.192 6.456 60.336 10.08 60.336ZM10.08 57.576C8.544 57.576 7.392 56.04 7.392 51.048C7.392 46.08 8.544 44.64 10.08 44.64C11.616 44.64 12.744 46.08 12.744 51.048C12.744 56.04 11.616 57.576 10.08 57.576ZM23.7803 60.336C27.0443 60.336 29.9963 58.056 29.9963 54.12C29.9963 50.232 27.5003 48.48 24.5243 48.48C23.7083 48.48 23.0843 48.648 22.3883 48.96L22.7243 45.192H29.1803V42.24H19.6763L19.1723 50.856L20.8043 51.912C21.8363 51.24 22.4123 50.976 23.4683 50.976C25.2443 50.976 26.4443 52.128 26.4443 54.192C26.4443 56.304 25.1723 57.48 23.3003 57.48C21.6683 57.48 20.3963 56.664 19.4123 55.68L17.7563 57.912C19.1003 59.232 20.9723 60.336 23.7803 60.336Z" fill="#20363D"/>
<g clip-path="url(#clip1_78_1896)">
<rect x="44" y="10" width="55" height="55" rx="10" fill="#ECFCCB"/>
<path d="M60.35 46.075V41.9C60.35 41.3667 60.5375 40.9167 60.9125 40.55C61.2875 40.1833 61.7333 40 62.25 40H65.775C66.025 40 66.2625 40.0583 66.4875 40.175C66.7125 40.2917 66.9 40.4583 67.05 40.675C67.5666 41.4083 68.2166 41.9792 69 42.3875C69.7833 42.7958 70.6166 43 71.5 43C72.3833 43 73.2208 42.7958 74.0125 42.3875C74.8041 41.9792 75.4666 41.4083 76 40.675C76.1333 40.4583 76.3083 40.2917 76.525 40.175C76.7416 40.0583 76.975 40 77.225 40H80.75C81.2833 40 81.7375 40.1833 82.1125 40.55C82.4875 40.9167 82.675 41.3667 82.675 41.9V46.075H75.85V43.275C75.25 43.775 74.5791 44.1583 73.8375 44.425C73.0958 44.6917 72.3166 44.825 71.5 44.825C70.7 44.825 69.9291 44.6917 69.1875 44.425C68.4458 44.1583 67.775 43.7833 67.175 43.3V46.075H60.35ZM71.5 41.25C70.95 41.25 70.4291 41.1208 69.9375 40.8625C69.4458 40.6042 69.0416 40.25 68.725 39.8C68.425 39.3833 68.0708 39.05 67.6625 38.8C67.2541 38.55 66.8166 38.3833 66.35 38.3C66.9 37.8333 67.6791 37.4708 68.6875 37.2125C69.6958 36.9542 70.6333 36.825 71.5 36.825C72.3833 36.825 73.325 36.9542 74.325 37.2125C75.325 37.4708 76.1166 37.8333 76.7 38.3C76.2166 38.3833 75.7708 38.55 75.3625 38.8C74.9541 39.05 74.6083 39.3833 74.325 39.8C74.0083 40.25 73.6 40.6042 73.1 40.8625C72.6 41.1208 72.0666 41.25 71.5 41.25V41.25ZM63.5 37.75C62.7 37.75 62.0166 37.4625 61.45 36.8875C60.8833 36.3125 60.6 35.625 60.6 34.825C60.6 34.025 60.8833 33.3417 61.45 32.775C62.0166 32.2083 62.7 31.925 63.5 31.925C64.3166 31.925 65.0083 32.2083 65.575 32.775C66.1416 33.3417 66.425 34.025 66.425 34.825C66.425 35.625 66.1416 36.3125 65.575 36.8875C65.0083 37.4625 64.3166 37.75 63.5 37.75ZM79.5 37.75C78.7 37.75 78.0166 37.4625 77.45 36.8875C76.8833 36.3125 76.6 35.625 76.6 34.825C76.6 34.025 76.8833 33.3417 77.45 32.775C78.0166 32.2083 78.7 31.925 79.5 31.925C80.3166 31.925 81.0083 32.2083 81.575 32.775C82.1416 33.3417 82.425 34.025 82.425 34.825C82.425 35.625 82.1416 36.3125 81.575 36.8875C81.0083 37.4625 80.3166 37.75 79.5 37.75ZM71.5 34.575C70.7 34.575 70.0166 34.2917 69.45 33.725C68.8833 33.1583 68.6 32.475 68.6 31.675C68.6 30.8583 68.8833 30.1667 69.45 29.6C70.0166 29.0333 70.7 28.75 71.5 28.75C72.3166 28.75 73.0083 29.0333 73.575 29.6C74.1416 30.1667 74.425 30.8583 74.425 31.675C74.425 32.475 74.1416 33.1583 73.575 33.725C73.0083 34.2917 72.3166 34.575 71.5 34.575Z" fill="#84CC16"/>
<path d="M129.768 30.082V32.08H140.406V30.082H129.768ZM132.468 21.046V22.99H137.616V21.046H132.468ZM132.468 25.528V27.472H137.616V25.528H132.468ZM131.442 16.618V31.234H133.53V18.616H136.662V31.234H138.858V16.618H131.442ZM126.276 17.392V32.602H128.328V17.392H126.276ZM123.576 20.776V22.792H130.578V20.776H123.576ZM126.402 21.586C125.844 23.584 124.584 26.194 123.342 27.634C123.684 28.174 124.152 29.074 124.368 29.704C125.736 27.922 126.978 24.718 127.662 22.144L126.402 21.586ZM129.534 15.88C128.04 16.492 125.772 17.05 123.72 17.356C123.936 17.824 124.206 18.544 124.296 19.03C126.402 18.778 128.868 18.328 130.74 17.644L129.534 15.88ZM128.328 23.008L127.392 23.872C127.968 24.7 129.102 26.626 129.552 27.616L130.794 25.906C130.434 25.42 128.796 23.458 128.328 23.008ZM142.242 17.194V19.156H157.722V17.194H142.242ZM141.81 28.264V30.208H158.262V28.264H141.81ZM148.812 15.718V32.638H151.044V15.718H148.812ZM145.68 24.448H154.194V25.564H145.68V24.448ZM145.68 21.748H154.194V22.846H145.68V21.748ZM143.61 20.02V27.292H156.372V20.02H143.61ZM170.016 28.912V31H174.642V28.912H170.016ZM159.882 18.94V21.064H166.488V18.94H159.882ZM169.062 17.77V32.26H171.132V19.858H173.436V32.116H175.614V17.77H169.062ZM165.948 18.94V19.426C165.822 26.698 165.678 29.29 165.3 29.83C165.12 30.082 164.958 30.172 164.688 30.154C164.346 30.154 163.698 30.154 162.978 30.082C163.338 30.694 163.572 31.63 163.608 32.26C164.436 32.296 165.246 32.296 165.786 32.17C166.38 32.062 166.758 31.846 167.172 31.252C167.748 30.406 167.874 27.634 168.036 19.93C168.036 19.66 168.036 18.94 168.036 18.94H165.948ZM162.024 15.97C162.006 22.558 162.15 27.868 159.342 31.036C159.882 31.378 160.602 32.098 160.944 32.62C164.058 29.038 164.13 23.062 164.148 15.97H162.024ZM184.614 29.38V31.45H192.786V29.38H184.614ZM184.668 24.358V26.428H192.714V24.358H184.668ZM187.494 15.79V30.802H189.6V15.79H187.494ZM183.39 19.444V32.53H185.424V21.514H191.724V32.404H193.83V19.444H183.39ZM178.62 17.518C179.754 18.112 181.374 19.03 182.148 19.606L183.426 17.842C182.598 17.284 180.942 16.456 179.862 15.934L178.62 17.518ZM177.612 22.486C178.746 23.062 180.366 23.944 181.122 24.502L182.328 22.702C181.518 22.162 179.88 21.37 178.782 20.884L177.612 22.486ZM178.26 30.946L180.15 32.332C181.068 30.748 182.022 28.93 182.814 27.238L181.158 25.852C180.24 27.724 179.07 29.722 178.26 30.946ZM196.98 20.254V22.054H201.588V20.254H196.98ZM195.972 23.386V25.204H202.182V23.386H195.972ZM196.098 26.23C196.368 27.22 196.602 28.516 196.656 29.38L198.042 28.948C197.934 28.12 197.682 26.842 197.376 25.87L196.098 26.23ZM195.72 30.172L196.134 32.098C197.862 31.72 200.148 31.216 202.308 30.73L202.2 29.02C199.806 29.47 197.322 29.92 195.72 30.172ZM200.814 25.69C200.688 26.608 200.418 27.904 200.184 28.75L201.39 29.128C201.642 28.354 201.984 27.166 202.29 26.104L200.814 25.69ZM198.33 20.992V30.946L200.04 30.622V20.992H198.33ZM198.906 15.592C198.096 17.248 196.692 18.832 195.378 19.804C195.63 20.344 196.026 21.55 196.116 22.018C197.754 20.686 199.428 18.472 200.454 16.33L198.906 15.592ZM198.474 18.094C199.752 18.832 201.21 19.93 202.02 20.776L202.884 18.994C202.092 18.238 200.616 17.212 199.248 16.51L198.474 18.094ZM203.082 18.382L203.226 20.092L212.208 19.282L212.064 17.608L203.082 18.382ZM202.974 26.32L203.1 28.03L212.406 27.202L212.28 25.51L202.974 26.32ZM204.846 15.736C205.134 20.47 207.312 24.016 210.264 24.016C211.578 24.016 212.118 23.62 212.406 21.838C211.938 21.694 211.362 21.424 210.984 21.1C210.894 22 210.768 22.27 210.372 22.27C208.662 22.288 206.916 19.426 206.736 15.736H204.846ZM204.648 23.602C204.936 28.642 207.276 32.602 210.354 32.62C211.722 32.62 212.298 32.17 212.568 30.208C212.118 30.046 211.524 29.776 211.128 29.416C211.038 30.496 210.894 30.856 210.462 30.856C208.662 30.856 206.736 27.616 206.556 23.602H204.648ZM207.672 16.798C208.392 17.14 209.328 17.662 209.76 18.058L210.84 16.816C210.354 16.438 209.418 15.952 208.68 15.664L207.672 16.798ZM207.384 24.7C208.176 25.042 209.202 25.6 209.706 25.978L210.786 24.736C210.246 24.358 209.202 23.872 208.428 23.566L207.384 24.7ZM209.526 19.408C208.212 20.956 205.44 21.982 202.704 22.54C203.064 22.918 203.64 23.692 203.874 24.088C206.718 23.314 209.688 22 211.326 20.02L209.526 19.408ZM209.526 27.382C208.158 29.182 205.296 30.406 202.38 31.072C202.758 31.45 203.352 32.242 203.55 32.656C206.592 31.756 209.67 30.244 211.344 27.994L209.526 27.382Z" fill="#1F363D"/>
<path d="M124.026 52.266V53.454H140.01V52.266H124.026ZM131.244 50.88V58.44H132.648V50.88H131.244ZM130.722 52.77C129.21 54.588 126.24 56.28 123.594 57.036C123.9 57.324 124.296 57.828 124.512 58.188C127.158 57.27 130.128 55.38 131.784 53.274L130.722 52.77ZM133.224 52.824L132.198 53.274C133.8 55.38 136.716 57.162 139.416 58.026C139.614 57.666 140.028 57.144 140.334 56.856C137.616 56.172 134.7 54.606 133.224 52.824ZM137.58 45.462C134.664 46.146 129.138 46.524 124.62 46.65C124.746 46.938 124.908 47.46 124.926 47.802C129.552 47.694 135.15 47.298 138.66 46.506L137.58 45.462ZM125.448 48.666C126.114 49.476 126.798 50.61 127.032 51.384L128.238 50.844C127.986 50.088 127.284 48.99 126.582 48.198L125.448 48.666ZM130.416 48.18C130.92 49.008 131.388 50.106 131.514 50.826L132.774 50.376C132.63 49.656 132.144 48.594 131.604 47.784L130.416 48.18ZM137.508 47.514C137.04 48.576 136.158 50.106 135.474 51.024L136.518 51.492C137.238 50.61 138.138 49.224 138.876 48.018L137.508 47.514ZM123.954 43.194V44.364H131.406V43.194H123.954ZM127.77 41.898V45.642H129.084V41.898H127.77ZM135.06 41.898V45.516H136.356V41.898H135.06ZM132.432 43.194V44.346H139.92V43.194H132.432ZM141.792 49.242V50.718H158.262V49.242H141.792ZM161.412 42.618V43.644H174.57V42.618H161.412ZM167.316 43.032V48.45H168.648V43.032H167.316ZM160.368 44.652V47.802H161.592V45.588H174.372V47.802H175.65V44.652H160.368ZM164.346 51.474V52.356H171.672V51.474H164.346ZM164.634 55.776C166.578 56.586 169.206 57.792 170.556 58.53L171.132 57.54C169.782 56.838 167.118 55.686 165.192 54.93L164.634 55.776ZM161.988 53.22V54.264H172.284V53.22H161.988ZM172.032 53.22V53.454C171.204 54.444 169.206 55.812 167.838 56.442C168.108 56.658 168.504 57.054 168.684 57.324C170.106 56.568 172.23 55.11 173.31 53.706L172.446 53.148L172.248 53.22H172.032ZM168.036 48.36C166.11 49.89 162.744 51.15 159.702 51.87C160.044 52.104 160.53 52.572 160.782 52.842C163.626 51.996 167.082 50.646 169.224 48.936L168.036 48.36ZM168.342 48.954L167.568 49.62C169.152 50.754 172.5 52.158 175.56 52.734C175.74 52.41 176.1 51.888 176.37 51.618C173.274 51.15 169.836 49.98 168.342 48.954ZM161.808 48.468L162.222 49.494C163.5 49.152 164.994 48.756 166.506 48.306L166.416 47.478C164.688 47.856 162.996 48.252 161.808 48.468ZM162.438 46.56C163.608 46.812 165.138 47.226 165.966 47.532L166.344 46.686C165.516 46.398 163.968 46.002 162.816 45.822L162.438 46.56ZM173.094 45.804C172.176 46.092 170.61 46.56 169.548 46.758L170.016 47.442C171.096 47.262 172.608 46.956 173.67 46.56L173.094 45.804ZM169.44 48.162C170.916 48.486 172.86 49.062 173.886 49.476L174.246 48.594C173.202 48.18 171.258 47.658 169.8 47.388L169.44 48.162Z" fill="#1F363D"/>
<path d="M195.705 45.894V47.262H206.685V45.894H195.705ZM203.031 42.096V56.604C203.031 57.018 202.869 57.126 202.437 57.162C202.023 57.18 200.529 57.18 198.999 57.126C199.215 57.504 199.467 58.116 199.539 58.476C201.501 58.494 202.725 58.476 203.427 58.242C204.111 58.044 204.399 57.63 204.399 56.604V42.096H203.031ZM196.839 49.71C197.757 51.15 198.927 53.094 199.467 54.21L200.727 53.526C200.151 52.428 198.945 50.556 198.009 49.152L196.839 49.71ZM192.843 46.794V58.404H194.211V45.462L194.193 45.426L192.843 46.794ZM194.805 42.006C193.761 44.814 192.033 47.568 190.179 49.332C190.431 49.656 190.863 50.34 191.025 50.664C193.023 48.63 194.913 45.534 196.119 42.402L194.805 42.006ZM215.865 48.18V56.676C215.865 57 215.739 57.09 215.361 57.108C214.947 57.126 213.561 57.144 212.049 57.09C212.265 57.468 212.517 58.062 212.589 58.44C214.425 58.458 215.631 58.44 216.333 58.224C217.035 58.008 217.269 57.612 217.269 56.694V48.18H215.865ZM209.241 43.302V44.616H222.255V43.302H209.241ZM221.841 43.302V43.626C220.635 45.084 218.061 47.082 215.865 48.18C216.135 48.396 216.549 48.828 216.765 49.116C219.141 47.928 221.859 45.876 223.569 43.986L222.525 43.212L222.219 43.302H221.841Z" fill="#1F363D"/>
<path d="M238.951 57.252C241.291 57.252 242.803 55.83 242.803 53.688C242.803 49.368 237.187 50.178 237.187 47.244C237.187 46.092 237.979 45.318 239.221 45.318C240.319 45.318 240.931 45.714 241.669 46.452L242.533 45.48C241.723 44.598 240.769 43.95 239.167 43.95C237.061 43.95 235.585 45.3 235.585 47.334C235.585 51.258 241.201 50.52 241.201 53.814C241.201 55.074 240.445 55.884 238.951 55.884C237.727 55.884 236.701 55.272 235.855 54.552L235.063 55.668C236.017 56.55 237.511 57.252 238.951 57.252ZM238.501 59.214H239.707V56.676H238.501V59.214ZM238.501 44.544H239.707V41.97H238.501V44.544ZM248.839 57H257.119V55.596H253.465C252.799 55.596 252.007 55.65 251.305 55.722C254.419 52.788 256.489 50.106 256.489 47.46C256.489 45.102 255.013 43.572 252.655 43.572C250.981 43.572 249.829 44.346 248.749 45.516L249.703 46.434C250.441 45.57 251.377 44.904 252.457 44.904C254.095 44.904 254.869 46.02 254.869 47.532C254.869 49.782 252.979 52.428 248.839 56.046V57ZM263.449 57.252C265.483 57.252 267.229 55.524 267.229 52.968C267.229 50.196 265.789 48.828 263.557 48.828C262.495 48.828 261.271 49.476 260.461 50.538L260.515 51.852C261.397 50.538 262.459 50.034 263.305 50.034C264.889 50.034 265.681 51.168 265.681 52.968C265.681 54.75 264.709 55.956 263.449 55.956C261.595 55.956 260.569 54.102 260.569 50.718C260.569 46.398 262.117 44.94 263.971 44.94C264.763 44.94 265.573 45.318 266.077 45.93L266.995 44.922C266.275 44.148 265.267 43.572 263.899 43.572C261.343 43.572 259.021 45.552 259.021 50.718C259.021 55.074 260.911 57.252 263.449 57.252ZM273.038 57.252C275.504 57.252 277.178 55.758 277.178 53.832C277.178 52.032 276.098 51.024 274.946 50.358V50.268C275.738 49.656 276.71 48.486 276.71 47.082C276.71 45.066 275.342 43.626 273.092 43.626C271.022 43.626 269.456 44.958 269.456 46.956C269.456 48.342 270.284 49.35 271.256 50.016V50.088C270.05 50.736 268.826 51.96 268.826 53.742C268.826 55.776 270.608 57.252 273.038 57.252ZM273.938 49.854C272.39 49.242 270.968 48.54 270.968 46.956C270.968 45.696 271.85 44.832 273.056 44.832C274.478 44.832 275.306 45.876 275.306 47.172C275.306 48.162 274.838 49.062 273.938 49.854ZM273.074 56.01C271.49 56.01 270.302 54.984 270.302 53.58C270.302 52.32 271.04 51.276 272.12 50.592C273.974 51.348 275.594 52.014 275.594 53.778C275.594 55.092 274.586 56.01 273.074 56.01ZM282.212 57.252C284.696 57.252 287 55.2 287 49.836C287 45.642 285.11 43.572 282.572 43.572C280.52 43.572 278.792 45.3 278.792 47.856C278.792 50.592 280.214 51.996 282.428 51.996C283.562 51.996 284.732 51.312 285.56 50.268L285.47 48.954C284.606 50.268 283.58 50.79 282.698 50.79C281.132 50.79 280.34 49.62 280.34 47.856C280.34 46.038 281.312 44.85 282.572 44.85C284.426 44.85 285.452 46.596 285.452 49.836C285.452 54.354 283.922 55.884 282.158 55.884C281.312 55.884 280.502 55.506 279.944 54.858L279.026 55.902C279.764 56.676 280.772 57.252 282.212 57.252ZM290.468 57.252C291.134 57.252 291.674 56.73 291.674 55.992C291.674 55.236 291.134 54.732 290.468 54.732C289.82 54.732 289.298 55.236 289.298 55.992C289.298 56.73 289.82 57.252 290.468 57.252ZM297.998 57.252C300.482 57.252 302.084 54.966 302.084 50.358C302.084 45.786 300.482 43.572 297.998 43.572C295.478 43.572 293.876 45.786 293.876 50.358C293.876 54.966 295.478 57.252 297.998 57.252ZM297.998 55.92C296.486 55.92 295.46 54.246 295.46 50.358C295.46 46.524 296.486 44.886 297.998 44.886C299.492 44.886 300.5 46.524 300.5 50.358C300.5 54.246 299.492 55.92 297.998 55.92ZM307.983 57.252C310.467 57.252 312.069 54.966 312.069 50.358C312.069 45.786 310.467 43.572 307.983 43.572C305.463 43.572 303.861 45.786 303.861 50.358C303.861 54.966 305.463 57.252 307.983 57.252ZM307.983 55.92C306.471 55.92 305.445 54.246 305.445 50.358C305.445 46.524 306.471 44.886 307.983 44.886C309.477 44.886 310.485 46.524 310.485 50.358C310.485 54.246 309.477 55.92 307.983 55.92Z" fill="#1F363D"/>
</g>
<path d="M396.344 14.56C395.8 16.864 394.856 19.12 393.656 20.56C394.008 20.784 394.616 21.28 394.872 21.536C396.12 19.936 397.192 17.44 397.832 14.896L396.344 14.56ZM395.992 21.488C395.576 23.344 394.856 25.216 393.896 26.4C394.264 26.592 394.904 26.992 395.192 27.232C396.136 25.904 396.984 23.872 397.464 21.792L395.992 21.488ZM396.408 17.488L395.848 18.896H403.336V17.488H396.408ZM398.616 18.096V27.584C398.616 27.792 398.536 27.856 398.344 27.856C398.12 27.856 397.432 27.872 396.712 27.84C396.936 28.256 397.16 28.928 397.24 29.36C398.248 29.36 398.984 29.312 399.464 29.072C399.976 28.816 400.12 28.384 400.12 27.6V18.096H398.616ZM401.016 21.808C401.848 23.472 402.6 25.712 402.824 27.168L404.264 26.672C404.008 25.2 403.256 23.024 402.376 21.36L401.016 21.808ZM402.904 17.488V17.696C402.776 18.784 402.584 20.16 402.424 20.992L403.72 21.232C403.928 20.32 404.216 18.896 404.424 17.648L403.368 17.44L403.112 17.488H402.904ZM393.032 14.56C392.168 16.928 390.728 19.28 389.192 20.784C389.464 21.136 389.88 21.952 390.024 22.32C391.768 20.512 393.416 17.728 394.456 15.008L393.032 14.56ZM391.432 18.816V29.328H392.872V17.392L392.856 17.376L391.432 18.816ZM409.208 14.336C408.536 17.04 407.336 19.632 405.768 21.216C406.168 21.44 406.888 21.92 407.208 22.192C408.728 20.432 410.04 17.632 410.84 14.672L409.208 14.336ZM418.232 17.04V17.344C417.816 18.832 417.08 20.64 416.392 21.76L417.736 22.336C418.568 21.072 419.384 19.152 419.976 17.36L418.776 16.96L418.504 17.04H418.232ZM409.336 17.04L408.584 18.528H418.776V17.04H409.336ZM412.136 19.408V20.448C412.136 22.624 411.624 26.048 405.592 28.144C405.928 28.448 406.408 29.008 406.584 29.36C413.064 27.072 413.704 23.104 413.704 20.48V19.408H412.136ZM413.592 21.344L412.296 21.616C413.432 25.648 415.496 28.304 419.464 29.36C419.672 28.944 420.104 28.304 420.456 27.984C416.664 27.136 414.552 24.768 413.592 21.344ZM428.264 20.112V27.488C428.264 27.76 428.152 27.856 427.8 27.856C427.432 27.872 426.168 27.888 424.92 27.84C425.16 28.256 425.448 28.928 425.528 29.36C427.112 29.376 428.216 29.344 428.92 29.12C429.624 28.88 429.848 28.448 429.848 27.52V20.112H428.264ZM422.52 15.696V17.184H433.912V15.696H422.52ZM433.464 15.696V16.064C432.456 17.328 430.2 19.12 428.264 20.112C428.568 20.368 429.048 20.864 429.272 21.184C431.432 20.08 433.848 18.208 435.416 16.496L434.216 15.6L433.88 15.696H433.464Z" fill="#1F363D"/>
<path d="M372.4 55.224C374.672 55.224 376.032 53.88 376.032 51.912C376.032 48.184 371.088 48.728 371.088 46.392C371.088 45.432 371.712 44.856 372.752 44.856C373.664 44.856 374.208 45.192 374.864 45.832L375.824 44.744C375.056 43.928 374.144 43.336 372.672 43.336C370.656 43.336 369.312 44.584 369.312 46.488C369.312 49.912 374.24 49.464 374.24 52.056C374.24 53.08 373.632 53.704 372.4 53.704C371.376 53.704 370.512 53.224 369.696 52.552L368.848 53.816C369.744 54.648 371.168 55.224 372.4 55.224ZM371.952 56.984H373.248V54.52H371.952V56.984ZM371.952 43.96H373.248V41.56H371.952V43.96Z" fill="#B91C1C"/>
<path d="M392.017 55H393.745V43.224H391.601L386.929 50.6V51.848H395.249V50.408H388.785L391.089 46.872C391.425 46.264 391.745 45.64 392.033 45.048H392.113C392.065 45.688 392.017 46.696 392.017 47.32V55ZM401.142 55H402.87V43.224H400.726L396.054 50.6V51.848H404.374V50.408H397.91L400.214 46.872C400.55 46.264 400.87 45.64 401.158 45.048H401.238C401.19 45.688 401.142 46.696 401.142 47.32V55ZM409.435 55.224C411.707 55.224 413.243 53.88 413.243 52.136C413.243 50.52 412.315 49.608 411.259 49.016V48.936C411.979 48.376 412.795 47.368 412.795 46.152C412.795 44.312 411.531 43.048 409.483 43.048C407.547 43.048 406.107 44.248 406.107 46.088C406.107 47.32 406.811 48.216 407.691 48.84V48.904C406.603 49.48 405.595 50.536 405.595 52.088C405.595 53.912 407.211 55.224 409.435 55.224ZM410.203 48.472C408.891 47.944 407.771 47.352 407.771 46.088C407.771 45.032 408.491 44.376 409.451 44.376C410.587 44.376 411.259 45.192 411.259 46.264C411.259 47.064 410.907 47.816 410.203 48.472ZM409.467 53.88C408.187 53.88 407.211 53.064 407.211 51.896C407.211 50.872 407.787 50.008 408.603 49.432C410.203 50.104 411.499 50.648 411.499 52.072C411.499 53.176 410.667 53.88 409.467 53.88ZM416.368 55.224C417.056 55.224 417.6 54.68 417.6 53.928C417.6 53.16 417.056 52.632 416.368 52.632C415.664 52.632 415.136 53.16 415.136 53.928C415.136 54.68 415.664 55.224 416.368 55.224ZM420.11 55H426.846V53.48H424.542V43.224H423.15C422.462 43.64 421.694 43.928 420.574 44.12V45.288H422.702V53.48H420.11V55ZM430.947 55H432.835C433.043 50.408 433.475 47.8 436.227 44.344V43.224H428.659V44.792H434.195C431.907 47.96 431.155 50.712 430.947 55Z" fill="#B91C1C"/>
</g>
<defs>
<clipPath id="clip0_78_1896">
<rect width="440" height="75" fill="white"/>
</clipPath>
<clipPath id="clip1_78_1896">
<rect width="279" height="55" fill="white" transform="translate(44 10)"/>
</clipPath>
</defs>
</svg>
