<svg width="440" height="75" viewBox="0 0 440 75" fill="none" xmlns="http://www.w3.org/2000/svg">
<g clip-path="url(#clip0_78_1892)">
<g clip-path="url(#clip1_78_1892)">
<rect x="44" y="9" width="55" height="55" rx="10" fill="#D1FAE5"/>
<path d="M69.5 40.5V32.5C69.5 31.4 70.39 30.5 71.5 30.5H80.5V29.5C80.5 28.4 79.6 27.5 78.5 27.5H64.5C63.39 27.5 62.5 28.4 62.5 29.5V43.5C62.5 44.6 63.39 45.5 64.5 45.5H78.5C79.6 45.5 80.5 44.6 80.5 43.5V42.5H71.5C70.39 42.5 69.5 41.6 69.5 40.5ZM72.5 32.5C71.95 32.5 71.5 32.95 71.5 33.5V39.5C71.5 40.05 71.95 40.5 72.5 40.5H81.5V32.5H72.5ZM75.5 38C74.67 38 74 37.33 74 36.5C74 35.67 74.67 35 75.5 35C76.33 35 77 35.67 77 36.5C77 37.33 76.33 38 75.5 38Z" fill="#10B981"/>
<path d="M116.81 44.5H118.484V39.262H120.644C123.542 39.262 125.522 37.966 125.522 35.194C125.522 32.296 123.524 31.306 120.572 31.306H116.81V44.5ZM118.484 37.912V32.674H120.356C122.696 32.674 123.866 33.268 123.866 35.194C123.866 37.066 122.75 37.912 120.446 37.912H118.484ZM131.453 44.752C132.785 44.752 133.811 44.302 134.675 43.744L134.081 42.646C133.361 43.132 132.587 43.438 131.651 43.438C129.779 43.438 128.519 42.088 128.393 40.018H134.981C135.035 39.766 135.053 39.424 135.053 39.082C135.053 36.274 133.649 34.492 131.165 34.492C128.915 34.492 126.773 36.454 126.773 39.64C126.773 42.844 128.843 44.752 131.453 44.752ZM128.375 38.83C128.591 36.904 129.815 35.806 131.183 35.806C132.731 35.806 133.613 36.868 133.613 38.83H128.375ZM140.292 44.752C140.904 44.752 141.552 44.572 142.092 44.374L141.768 43.15C141.462 43.276 141.012 43.42 140.67 43.42C139.536 43.42 139.158 42.718 139.158 41.53V36.058H141.804V34.726H139.158V31.972H137.772L137.592 34.726L136.062 34.834V36.058H137.52V41.494C137.52 43.438 138.204 44.752 140.292 44.752ZM147.643 44.752C148.975 44.752 150.001 44.302 150.865 43.744L150.271 42.646C149.551 43.132 148.777 43.438 147.841 43.438C145.969 43.438 144.709 42.088 144.583 40.018H151.171C151.225 39.766 151.243 39.424 151.243 39.082C151.243 36.274 149.839 34.492 147.355 34.492C145.105 34.492 142.963 36.454 142.963 39.64C142.963 42.844 145.033 44.752 147.643 44.752ZM144.565 38.83C144.781 36.904 146.005 35.806 147.373 35.806C148.921 35.806 149.803 36.868 149.803 38.83H144.565ZM153.668 44.5H155.306V38.236C155.954 36.562 156.962 35.968 157.772 35.968C158.168 35.968 158.384 36.022 158.726 36.13L159.032 34.69C158.708 34.546 158.42 34.492 157.988 34.492C156.89 34.492 155.882 35.266 155.216 36.508H155.162L155 34.726H153.668V44.5Z" fill="#1F363D"/>
<path d="M171.968 37.264L170.726 37.732C173.03 42.322 177.314 44.932 183.506 45.85C183.686 45.472 184.046 44.878 184.352 44.554C178.304 43.78 173.984 41.35 171.968 37.264ZM169.196 36.256V37.57H180.932V36.256H169.196ZM168.368 32.134V33.484H183.56V32.134H168.368ZM175.262 29.398V36.868H176.648V29.398H175.262ZM180.608 36.256V36.526C178.682 41.422 173.516 43.726 167.63 44.662C167.9 44.968 168.26 45.598 168.386 45.94C174.38 44.842 179.798 42.286 182.102 36.76L181.166 36.202L180.896 36.256H180.608ZM191.192 33.394V34.762H202.172V33.394H191.192ZM198.518 29.596V44.104C198.518 44.518 198.356 44.626 197.924 44.662C197.51 44.68 196.016 44.68 194.486 44.626C194.702 45.004 194.954 45.616 195.026 45.976C196.988 45.994 198.212 45.976 198.914 45.742C199.598 45.544 199.886 45.13 199.886 44.104V29.596H198.518ZM192.326 37.21C193.244 38.65 194.414 40.594 194.954 41.71L196.214 41.026C195.638 39.928 194.432 38.056 193.496 36.652L192.326 37.21ZM188.33 34.294V45.904H189.698V32.962L189.68 32.926L188.33 34.294ZM190.292 29.506C189.248 32.314 187.52 35.068 185.666 36.832C185.918 37.156 186.35 37.84 186.512 38.164C188.51 36.13 190.4 33.034 191.606 29.902L190.292 29.506Z" fill="#1F363D"/>
<path d="M216.724 35.824V37.048H222.664V35.824H216.724ZM221.26 37.912L220.612 38.416C221.044 39.19 222.16 41.584 222.52 42.538L223.366 41.584C223.06 40.972 221.638 38.47 221.26 37.912ZM219.226 29.578V45.67H220.378V29.578H219.226ZM221.8 30.766C221.602 31.954 221.17 33.7 220.828 34.762L221.674 35.05C222.07 34.024 222.556 32.386 222.952 31.072L221.8 30.766ZM216.85 31C217.264 32.278 217.57 33.898 217.588 34.978L218.614 34.762C218.56 33.7 218.236 32.062 217.804 30.82L216.85 31ZM218.326 37.804C217.93 39.388 217.048 41.404 216.238 42.43C216.454 42.772 216.742 43.366 216.85 43.726C217.768 42.466 218.668 40.036 219.1 38.128L218.326 37.804ZM226.624 37.966V38.182C226.462 42.466 226.282 44.05 225.958 44.41C225.796 44.572 225.634 44.626 225.346 44.608C225.022 44.608 224.23 44.608 223.366 44.518C223.582 44.878 223.726 45.382 223.744 45.76C224.59 45.814 225.436 45.814 225.886 45.778C226.408 45.724 226.714 45.598 227.038 45.22C227.506 44.662 227.668 43.024 227.848 38.542C227.866 38.362 227.866 37.966 227.866 37.966H226.624ZM223.438 34.024C223.33 35.662 223.132 37.804 222.934 39.118H224.068C224.248 37.84 224.428 35.698 224.554 34.024H223.438ZM215.14 37.966V38.182C214.996 42.556 214.834 44.14 214.51 44.518C214.366 44.68 214.204 44.716 213.916 44.716C213.628 44.716 212.836 44.698 212.008 44.626C212.206 44.95 212.35 45.436 212.368 45.778C213.178 45.832 213.988 45.85 214.42 45.796C214.924 45.76 215.248 45.652 215.518 45.274C215.986 44.734 216.148 43.096 216.31 38.524C216.328 38.344 216.328 37.966 216.328 37.966H215.14ZM212.242 34.024C212.188 35.662 212.008 37.804 211.828 39.118H212.944C213.106 37.84 213.268 35.698 213.358 34.024H212.242ZM212.476 37.966L212.368 39.118H215.698V37.966H212.476ZM223.6 37.966L223.51 39.118H227.182V37.966H223.6ZM212.62 34.024V35.248H216.292V29.866H211.972V31.09H215.086V34.024H212.62ZM223.888 34.024V35.248H227.776V29.83H222.988V31.072H226.552V34.024H223.888ZM238.504 33.61L237.874 34.366C239.53 35.5 243.886 38.992 245.272 40.18L246.01 38.974C244.912 38.11 239.98 34.564 238.504 33.61ZM237.28 29.38V40.738H238.702V29.38H237.28ZM230.332 32.17V33.484H245.65V32.17H230.332ZM236.524 32.818C235.138 35.464 232.474 38.056 229.864 39.262C230.17 39.55 230.602 40.072 230.836 40.414C233.464 38.974 236.128 36.22 237.586 33.232L236.524 32.818ZM235.102 42.178C235.498 43.276 235.894 44.77 236.038 45.634L237.298 45.328C237.154 44.464 236.722 43.024 236.29 41.944L235.102 42.178ZM238.864 42.178C239.422 43.258 239.98 44.698 240.214 45.598L241.492 45.238C241.258 44.356 240.646 42.934 240.07 41.872L238.864 42.178ZM242.482 42.034C243.436 43.222 244.462 44.896 244.876 45.94L246.118 45.382C245.686 44.32 244.624 42.718 243.67 41.53L242.482 42.034ZM232.204 41.62C231.718 43.024 230.872 44.536 229.972 45.418L231.214 45.94C232.168 44.95 232.978 43.384 233.482 41.944L232.204 41.62ZM254.668 34.366V35.518H261.616V34.366H254.668ZM253.174 37.12V45.94H254.398V38.29H262.498V37.12H253.174ZM253.768 40.72V41.854H262.444V40.72H253.768ZM261.85 37.12V44.356C261.85 44.5 261.796 44.554 261.652 44.554C261.508 44.554 261.094 44.554 260.608 44.554C260.752 44.878 260.914 45.382 260.932 45.724C261.742 45.724 262.264 45.706 262.642 45.508C262.984 45.292 263.074 44.95 263.074 44.374V37.12H261.85ZM256.144 37.498V45.634H257.206V37.498H256.144ZM258.988 37.498V45.598H260.068V37.498H258.988ZM258.106 29.29C256.792 31.486 254.164 33.772 251.788 34.834C252.13 35.14 252.508 35.626 252.724 35.986C255.118 34.744 257.8 32.296 259.186 29.992L258.106 29.29ZM258.664 30.136L257.584 30.604C258.916 32.692 261.292 34.87 263.47 35.896C263.704 35.536 264.154 34.996 264.478 34.726C262.3 33.88 259.87 31.954 258.664 30.136ZM251.662 29.452C250.726 32.17 249.196 34.87 247.54 36.634C247.792 36.958 248.188 37.66 248.332 37.966C250.15 35.932 251.86 32.872 252.94 29.83L251.662 29.452ZM249.808 34.222V45.904H251.086V32.962L251.068 32.944L249.808 34.222Z" fill="#1F363D"/>
<path d="M277.943 44.752C280.283 44.752 281.795 43.33 281.795 41.188C281.795 36.868 276.179 37.678 276.179 34.744C276.179 33.592 276.971 32.818 278.213 32.818C279.311 32.818 279.923 33.214 280.661 33.952L281.525 32.98C280.715 32.098 279.761 31.45 278.159 31.45C276.053 31.45 274.577 32.8 274.577 34.834C274.577 38.758 280.193 38.02 280.193 41.314C280.193 42.574 279.437 43.384 277.943 43.384C276.719 43.384 275.693 42.772 274.847 42.052L274.055 43.168C275.009 44.05 276.503 44.752 277.943 44.752ZM277.493 46.714H278.699V44.176H277.493V46.714ZM277.493 32.044H278.699V29.47H277.493V32.044ZM290.585 44.5H292.295C292.511 39.352 293.069 36.274 296.165 32.296V31.306H287.921V32.71H294.311C291.719 36.31 290.819 39.514 290.585 44.5ZM302.441 44.752C304.475 44.752 306.221 43.024 306.221 40.468C306.221 37.696 304.781 36.328 302.549 36.328C301.487 36.328 300.263 36.976 299.453 38.038L299.507 39.352C300.389 38.038 301.451 37.534 302.297 37.534C303.881 37.534 304.673 38.668 304.673 40.468C304.673 42.25 303.701 43.456 302.441 43.456C300.587 43.456 299.561 41.602 299.561 38.218C299.561 33.898 301.109 32.44 302.963 32.44C303.755 32.44 304.565 32.818 305.069 33.43L305.987 32.422C305.267 31.648 304.259 31.072 302.891 31.072C300.335 31.072 298.013 33.052 298.013 38.218C298.013 42.574 299.903 44.752 302.441 44.752ZM312.03 44.752C314.496 44.752 316.17 43.258 316.17 41.332C316.17 39.532 315.09 38.524 313.938 37.858V37.768C314.73 37.156 315.702 35.986 315.702 34.582C315.702 32.566 314.334 31.126 312.084 31.126C310.014 31.126 308.448 32.458 308.448 34.456C308.448 35.842 309.276 36.85 310.248 37.516V37.588C309.042 38.236 307.818 39.46 307.818 41.242C307.818 43.276 309.6 44.752 312.03 44.752ZM312.93 37.354C311.382 36.742 309.96 36.04 309.96 34.456C309.96 33.196 310.842 32.332 312.048 32.332C313.47 32.332 314.298 33.376 314.298 34.672C314.298 35.662 313.83 36.562 312.93 37.354ZM312.066 43.51C310.482 43.51 309.294 42.484 309.294 41.08C309.294 39.82 310.032 38.776 311.112 38.092C312.966 38.848 314.586 39.514 314.586 41.278C314.586 42.592 313.578 43.51 312.066 43.51ZM319.476 44.752C320.142 44.752 320.682 44.23 320.682 43.492C320.682 42.736 320.142 42.232 319.476 42.232C318.828 42.232 318.306 42.736 318.306 43.492C318.306 44.23 318.828 44.752 319.476 44.752ZM325.548 44.5H327.258C327.474 39.352 328.032 36.274 331.128 32.296V31.306H322.884V32.71H329.274C326.682 36.31 325.782 39.514 325.548 44.5ZM336.684 44.752C338.898 44.752 341.004 43.096 341.004 40.216C341.004 37.3 339.222 36.004 337.026 36.004C336.234 36.004 335.64 36.202 335.046 36.526L335.388 32.71H340.374V31.306H333.948L333.534 37.48L334.416 38.038C335.172 37.534 335.73 37.246 336.612 37.246C338.25 37.246 339.33 38.38 339.33 40.27C339.33 42.178 338.088 43.384 336.522 43.384C335.01 43.384 334.038 42.682 333.3 41.908L332.472 42.988C333.372 43.888 334.632 44.752 336.684 44.752Z" fill="#1F363D"/>
</g>
<path d="M397.344 13.56C396.8 15.864 395.856 18.12 394.656 19.56C395.008 19.784 395.616 20.28 395.872 20.536C397.12 18.936 398.192 16.44 398.832 13.896L397.344 13.56ZM396.992 20.488C396.576 22.344 395.856 24.216 394.896 25.4C395.264 25.592 395.904 25.992 396.192 26.232C397.136 24.904 397.984 22.872 398.464 20.792L396.992 20.488ZM397.408 16.488L396.848 17.896H404.336V16.488H397.408ZM399.616 17.096V26.584C399.616 26.792 399.536 26.856 399.344 26.856C399.12 26.856 398.432 26.872 397.712 26.84C397.936 27.256 398.16 27.928 398.24 28.36C399.248 28.36 399.984 28.312 400.464 28.072C400.976 27.816 401.12 27.384 401.12 26.6V17.096H399.616ZM402.016 20.808C402.848 22.472 403.6 24.712 403.824 26.168L405.264 25.672C405.008 24.2 404.256 22.024 403.376 20.36L402.016 20.808ZM403.904 16.488V16.696C403.776 17.784 403.584 19.16 403.424 19.992L404.72 20.232C404.928 19.32 405.216 17.896 405.424 16.648L404.368 16.44L404.112 16.488H403.904ZM394.032 13.56C393.168 15.928 391.728 18.28 390.192 19.784C390.464 20.136 390.88 20.952 391.024 21.32C392.768 19.512 394.416 16.728 395.456 14.008L394.032 13.56ZM392.432 17.816V28.328H393.872V16.392L393.856 16.376L392.432 17.816ZM414.832 16.552V17.992H421.376V16.552H414.832ZM415.216 13.496C414.784 16.248 413.952 18.824 412.592 20.424C412.928 20.728 413.456 21.4 413.664 21.72C415.216 19.832 416.224 16.904 416.768 13.752L415.216 13.496ZM418.88 17.304C418.176 22.168 416.544 25.384 412.896 27.144C413.216 27.448 413.696 28.072 413.872 28.392C417.696 26.312 419.504 22.824 420.368 17.512L418.88 17.304ZM415.424 17.816L414.192 18.088C415.264 22.664 417.168 26.44 420.464 28.28C420.688 27.896 421.168 27.336 421.504 27.048C418.336 25.48 416.384 21.896 415.424 17.816ZM411.072 13.736V28.36H412.576V13.736H411.072ZM407.472 25.576C407.856 25.288 408.432 24.984 412.16 23.688C412.032 23.368 411.856 22.792 411.76 22.392L407.936 23.592L407.312 24.152L407.472 25.576ZM407.472 25.576C407.472 25.048 408.944 24.296 408.944 24.296V15.256H407.456V23.08C407.456 23.72 407.136 24.04 406.88 24.2C407.104 24.52 407.376 25.208 407.472 25.576ZM423.456 21.832V23.16H431.008V21.832H423.456ZM426.512 20.232V26.552H427.952V20.232H426.512ZM422.912 26.216L423.248 27.64C425.376 27.24 428.432 26.664 431.264 26.12L431.184 24.808C428.176 25.352 424.96 25.912 422.912 26.216ZM423.056 14.504V15.832H431.344V14.504H423.056ZM427.888 16.76C428.752 17.864 429.744 19.368 430.176 20.312L431.328 19.56C430.896 18.632 429.856 17.176 428.976 16.104L427.888 16.76ZM432.128 14.936V24.632H433.52V14.936H432.128ZM435.248 13.72V26.248C435.248 26.52 435.168 26.6 434.88 26.6C434.608 26.616 433.728 26.616 432.832 26.584C433.056 26.984 433.296 27.656 433.376 28.056C434.576 28.056 435.44 28.008 436 27.768C436.528 27.528 436.72 27.112 436.72 26.248V13.72H435.248ZM423.888 20.088C423.888 19.784 424.752 19.336 424.752 19.336V19.304C425.616 18.312 426.576 16.824 427.232 15.432L425.76 14.856C425.28 16.232 424.432 17.624 424.16 17.992C423.888 18.376 423.648 18.632 423.392 18.696C423.568 19.08 423.792 19.784 423.888 20.088ZM423.888 20.088C424.336 19.896 425.008 19.832 430.368 19.352C430.192 19.048 429.92 18.552 429.744 18.168L424.592 18.568L423.856 19.016L423.888 20.088Z" fill="#1F363D"/>
<path d="M372.4 59.224C374.672 59.224 376.032 57.88 376.032 55.912C376.032 52.184 371.088 52.728 371.088 50.392C371.088 49.432 371.712 48.856 372.752 48.856C373.664 48.856 374.208 49.192 374.864 49.832L375.824 48.744C375.056 47.928 374.144 47.336 372.672 47.336C370.656 47.336 369.312 48.584 369.312 50.488C369.312 53.912 374.24 53.464 374.24 56.056C374.24 57.08 373.632 57.704 372.4 57.704C371.376 57.704 370.512 57.224 369.696 56.552L368.848 57.816C369.744 58.648 371.168 59.224 372.4 59.224ZM371.952 60.984H373.248V58.52H371.952V60.984ZM371.952 47.96H373.248V45.56H371.952V47.96Z" fill="#70A9A1"/>
<path d="M392.017 59H393.745V47.224H391.601L386.929 54.6V55.848H395.249V54.408H388.785L391.089 50.872C391.425 50.264 391.745 49.64 392.033 49.048H392.113C392.065 49.688 392.017 50.696 392.017 51.32V59ZM401.142 59H402.87V47.224H400.726L396.054 54.6V55.848H404.374V54.408H397.91L400.214 50.872C400.55 50.264 400.87 49.64 401.158 49.048H401.238C401.19 49.688 401.142 50.696 401.142 51.32V59ZM409.435 59.224C411.707 59.224 413.243 57.88 413.243 56.136C413.243 54.52 412.315 53.608 411.259 53.016V52.936C411.979 52.376 412.795 51.368 412.795 50.152C412.795 48.312 411.531 47.048 409.483 47.048C407.547 47.048 406.107 48.248 406.107 50.088C406.107 51.32 406.811 52.216 407.691 52.84V52.904C406.603 53.48 405.595 54.536 405.595 56.088C405.595 57.912 407.211 59.224 409.435 59.224ZM410.203 52.472C408.891 51.944 407.771 51.352 407.771 50.088C407.771 49.032 408.491 48.376 409.451 48.376C410.587 48.376 411.259 49.192 411.259 50.264C411.259 51.064 410.907 51.816 410.203 52.472ZM409.467 57.88C408.187 57.88 407.211 57.064 407.211 55.896C407.211 54.872 407.787 54.008 408.603 53.432C410.203 54.104 411.499 54.648 411.499 56.072C411.499 57.176 410.667 57.88 409.467 57.88ZM416.368 59.224C417.056 59.224 417.6 58.68 417.6 57.928C417.6 57.16 417.056 56.632 416.368 56.632C415.664 56.632 415.136 57.16 415.136 57.928C415.136 58.68 415.664 59.224 416.368 59.224ZM420.11 59H426.846V57.48H424.542V47.224H423.15C422.462 47.64 421.694 47.928 420.574 48.12V49.288H422.702V57.48H420.11V59ZM430.947 59H432.835C433.043 54.408 433.475 51.8 436.227 48.344V47.224H428.659V48.792H434.195C431.907 51.96 431.155 54.712 430.947 59Z" fill="#70A9A1"/>
<path d="M1.936 25H4.336L6.032 18.84C6.384 17.608 6.72 16.248 7.04 14.968H7.104C7.44 16.232 7.776 17.608 8.128 18.84L9.824 25H12.304L8.512 13.16H5.728L1.936 25ZM4.288 21.96H9.92V20.136H4.288V21.96ZM16.061 25.224C17.277 25.224 18.125 24.632 18.909 23.72H18.957L19.133 25H21.053V16.056H18.717V22.088C18.109 22.888 17.629 23.208 16.893 23.208C16.013 23.208 15.629 22.728 15.629 21.352V16.056H13.277V21.64C13.277 23.896 14.125 25.224 16.061 25.224ZM26.7125 28.888C29.7045 28.888 31.6085 27.528 31.6085 25.72C31.6085 24.136 30.4245 23.48 28.2645 23.48H26.7285C25.6885 23.48 25.3205 23.208 25.3205 22.744C25.3205 22.376 25.4645 22.184 25.7045 21.96C26.1045 22.104 26.5045 22.168 26.8565 22.168C28.7925 22.168 30.3285 21.16 30.3285 19.128C30.3285 18.584 30.1525 18.088 29.9125 17.784H31.4485V16.056H28.2165C27.8485 15.912 27.3685 15.832 26.8565 15.832C24.9685 15.832 23.2405 16.952 23.2405 19.064C23.2405 20.12 23.8325 20.968 24.4565 21.416V21.48C23.8965 21.864 23.4485 22.472 23.4485 23.144C23.4485 23.88 23.8005 24.36 24.2645 24.664V24.744C23.4325 25.192 22.9845 25.848 22.9845 26.6C22.9845 28.168 24.6165 28.888 26.7125 28.888ZM26.8565 20.728C26.0725 20.728 25.4485 20.12 25.4485 19.064C25.4485 18.008 26.0725 17.432 26.8565 17.432C27.6565 17.432 28.2645 18.008 28.2645 19.064C28.2645 20.12 27.6405 20.728 26.8565 20.728ZM27.0805 27.4C25.7685 27.4 24.9365 26.984 24.9365 26.232C24.9365 25.864 25.1125 25.512 25.5285 25.176C25.8485 25.272 26.2165 25.304 26.7605 25.304H27.8485C28.8085 25.304 29.3365 25.48 29.3365 26.12C29.3365 26.808 28.4245 27.4 27.0805 27.4Z" fill="#20363D"/>
<path d="M4.944 57H15.648V54.144H12.312V39.24H9.696C8.544 39.936 7.344 40.392 5.544 40.728V42.912H8.784V54.144H4.944V57ZM24.2363 57.336C27.8363 57.336 30.2363 54.192 30.2363 48.048C30.2363 41.928 27.8363 38.928 24.2363 38.928C20.6123 38.928 18.2123 41.928 18.2123 48.048C18.2123 54.192 20.6123 57.336 24.2363 57.336ZM24.2363 54.576C22.7003 54.576 21.5483 53.04 21.5483 48.048C21.5483 43.08 22.7003 41.64 24.2363 41.64C25.7723 41.64 26.9003 43.08 26.9003 48.048C26.9003 53.04 25.7723 54.576 24.2363 54.576Z" fill="#20363D"/>
</g>
<defs>
<clipPath id="clip0_78_1892">
<rect width="440" height="75" fill="white"/>
</clipPath>
<clipPath id="clip1_78_1892">
<rect width="304" height="55" fill="white" transform="translate(44 9)"/>
</clipPath>
</defs>
</svg>
