<svg width="440" height="75" viewBox="0 0 440 75" fill="none" xmlns="http://www.w3.org/2000/svg">
<g clip-path="url(#clip0_78_1897)">
<path d="M1.936 28H4.336L6.032 21.84C6.384 20.608 6.72 19.248 7.04 17.968H7.104C7.44 19.232 7.776 20.608 8.128 21.84L9.824 28H12.304L8.512 16.16H5.728L1.936 28ZM4.288 24.96H9.92V23.136H4.288V24.96ZM16.061 28.224C17.277 28.224 18.125 27.632 18.909 26.72H18.957L19.133 28H21.053V19.056H18.717V25.088C18.109 25.888 17.629 26.208 16.893 26.208C16.013 26.208 15.629 25.728 15.629 24.352V19.056H13.277V24.64C13.277 26.896 14.125 28.224 16.061 28.224ZM26.7125 31.888C29.7045 31.888 31.6085 30.528 31.6085 28.72C31.6085 27.136 30.4245 26.48 28.2645 26.48H26.7285C25.6885 26.48 25.3205 26.208 25.3205 25.744C25.3205 25.376 25.4645 25.184 25.7045 24.96C26.1045 25.104 26.5045 25.168 26.8565 25.168C28.7925 25.168 30.3285 24.16 30.3285 22.128C30.3285 21.584 30.1525 21.088 29.9125 20.784H31.4485V19.056H28.2165C27.8485 18.912 27.3685 18.832 26.8565 18.832C24.9685 18.832 23.2405 19.952 23.2405 22.064C23.2405 23.12 23.8325 23.968 24.4565 24.416V24.48C23.8965 24.864 23.4485 25.472 23.4485 26.144C23.4485 26.88 23.8005 27.36 24.2645 27.664V27.744C23.4325 28.192 22.9845 28.848 22.9845 29.6C22.9845 31.168 24.6165 31.888 26.7125 31.888ZM26.8565 23.728C26.0725 23.728 25.4485 23.12 25.4485 22.064C25.4485 21.008 26.0725 20.432 26.8565 20.432C27.6565 20.432 28.2645 21.008 28.2645 22.064C28.2645 23.12 27.6405 23.728 26.8565 23.728ZM27.0805 30.4C25.7685 30.4 24.9365 29.984 24.9365 29.232C24.9365 28.864 25.1125 28.512 25.5285 28.176C25.8485 28.272 26.2165 28.304 26.7605 28.304H27.8485C28.8085 28.304 29.3365 28.48 29.3365 29.12C29.3365 29.808 28.4245 30.4 27.0805 30.4Z" fill="#20363D"/>
<path d="M10.08 60.336C13.68 60.336 16.08 57.192 16.08 51.048C16.08 44.928 13.68 41.928 10.08 41.928C6.456 41.928 4.056 44.928 4.056 51.048C4.056 57.192 6.456 60.336 10.08 60.336ZM10.08 57.576C8.544 57.576 7.392 56.04 7.392 51.048C7.392 46.08 8.544 44.64 10.08 44.64C11.616 44.64 12.744 46.08 12.744 51.048C12.744 56.04 11.616 57.576 10.08 57.576ZM19.1003 60H29.8043V57.144H26.4683V42.24H23.8523C22.7003 42.936 21.5003 43.392 19.7003 43.728V45.912H22.9403V57.144H19.1003V60Z" fill="#20363D"/>
<g clip-path="url(#clip1_78_1897)">
<rect x="44" y="10" width="55" height="55" rx="10" fill="#FFEDD5"/>
<path d="M66.375 47.8V38.475C65.475 38.2583 64.7125 37.7833 64.0875 37.05C63.4625 36.3167 63.15 35.45 63.15 34.45V27.3H64.975V34.45H66.375V27.3H68.2V34.45H69.6V27.3H71.425V34.45C71.425 35.45 71.1125 36.3167 70.4875 37.05C69.8625 37.7833 69.1 38.2583 68.2 38.475V47.8H66.375ZM77.075 47.8V39.725H74V31.875C74 30.4583 74.4542 29.3292 75.3625 28.4875C76.2709 27.6458 77.45 27.2417 78.9 27.275V47.8H77.075Z" fill="#FB923C"/>
<path d="M124.594 15.736C123.982 17.374 122.848 19.282 121.03 20.704C121.498 20.992 122.182 21.676 122.488 22.144C124.54 20.38 125.836 18.238 126.682 16.078L124.594 15.736ZM125.044 17.284L123.964 19.066H128.788V17.284H125.044ZM126.196 20.938C125.98 25.6 125.728 29.146 120.094 30.91C120.562 31.342 121.12 32.134 121.354 32.692C127.438 30.55 127.978 26.32 128.23 20.938H126.196ZM126.898 25.276V29.866C126.898 31.72 127.294 32.332 129.004 32.332C129.328 32.332 130.174 32.332 130.534 32.332C131.902 32.332 132.424 31.648 132.622 29.092C132.082 28.948 131.218 28.624 130.822 28.282C130.768 30.172 130.696 30.424 130.318 30.424C130.12 30.424 129.49 30.424 129.346 30.424C128.986 30.424 128.932 30.37 128.932 29.83V25.276H126.898ZM117.25 17.068V18.958H119.59V27.328H117.25V29.218H121.534V17.068H117.25ZM117.304 22.144V24.016H120.4V22.144H117.304ZM116.17 17.068V30.604H118.078V17.068H116.17ZM124.396 22.144H129.922V24.52H124.396V22.144ZM122.524 20.362V26.284H131.92V20.362H122.524ZM128.104 17.284V17.644C127.798 18.436 127.132 19.714 126.538 20.524C126.952 20.74 127.582 21.118 127.96 21.406C128.68 20.542 129.634 19.156 130.156 18.058L128.842 17.212L128.536 17.284H128.104ZM137.176 15.718V18.904H138.994V15.718H137.176ZM137.968 16.438V17.716H141.928V16.438H137.968ZM142.486 16.348V17.806H148.048V16.348H142.486ZM136.06 17.842C135.538 18.616 134.638 19.498 133.414 20.146C133.774 20.362 134.278 20.902 134.53 21.262C135.952 20.38 136.96 19.336 137.698 18.166L136.06 17.842ZM136.348 18.292L135.412 19.462H140.254V18.292H136.348ZM139.804 18.292V18.562C138.832 20.416 136.24 21.946 133.792 22.594C134.152 22.918 134.62 23.53 134.836 23.926C137.572 23.044 140.344 21.388 141.64 18.85L140.452 18.202L140.128 18.292H139.804ZM147.58 16.348V16.6C146.896 18.49 144.952 20.002 142.774 20.65C143.134 21.01 143.62 21.694 143.836 22.144C146.338 21.208 148.48 19.48 149.434 16.762L148.246 16.276L147.922 16.348H147.58ZM134.998 20.686C135.592 21.064 136.366 21.64 136.726 22.036L137.86 21.082C137.482 20.704 136.69 20.164 136.078 19.822L134.998 20.686ZM142.324 19.156C144.466 20.128 147.13 21.712 148.408 22.846L149.722 21.496C148.336 20.362 145.618 18.868 143.53 17.986L142.324 19.156ZM138.112 25.096V26.23H145.114V28.084H138.112V29.2H147.148V25.096H138.112ZM147.85 28.3C147.202 29.002 146.068 30.01 145.204 30.586L146.32 31.378C147.22 30.856 148.354 30.028 149.362 29.236L147.85 28.3ZM138.076 26.734V27.544H145.708V26.734H138.076ZM142.522 21.424L141.136 22.216C143.17 23.872 146.608 25.456 149.38 26.212C149.632 25.762 150.19 25.042 150.586 24.682C147.76 24.052 144.304 22.756 142.522 21.424ZM141.91 20.398C140.128 22.432 136.708 23.98 133.522 24.808C133.954 25.222 134.422 25.888 134.656 26.356C138.004 25.33 141.388 23.584 143.494 21.208L141.91 20.398ZM141.64 29.938C143.98 30.622 147.04 31.81 148.552 32.692L149.578 31.432C147.94 30.568 144.862 29.452 142.594 28.84L141.64 29.938ZM137.068 32.566C137.068 31.954 139.066 31.072 139.066 31.072V25.096H137.014V29.956C137.014 30.658 136.726 30.946 136.42 31.09C136.672 31.378 136.996 32.152 137.068 32.566ZM137.068 32.566C137.518 32.368 138.202 32.224 142.558 31.72C142.522 31.324 142.54 30.64 142.594 30.154L137.896 30.622L137.014 31.198L137.068 32.566ZM139.804 23.674V24.718H144.214V23.674H139.804Z" fill="#1F363D"/>
<path d="M123.37 41.97C122.776 44.616 121.732 47.208 120.4 48.882C120.706 49.08 121.246 49.512 121.48 49.746C122.866 47.91 124 45.138 124.702 42.258L123.37 41.97ZM123.064 49.602C122.56 51.762 121.696 53.904 120.58 55.29C120.904 55.452 121.48 55.812 121.75 56.028C122.848 54.516 123.82 52.23 124.378 49.872L123.064 49.602ZM123.208 45.354L122.686 46.614H131.308V45.354H123.208ZM125.998 45.876V56.802C125.998 57.036 125.926 57.108 125.692 57.108C125.44 57.108 124.666 57.126 123.82 57.09C124.018 57.486 124.216 58.08 124.306 58.458C125.422 58.458 126.196 58.422 126.682 58.188C127.186 57.972 127.348 57.576 127.348 56.802V45.876H125.998ZM128.644 49.872C129.634 51.762 130.534 54.3 130.822 55.956L132.1 55.524C131.794 53.85 130.894 51.366 129.85 49.476L128.644 49.872ZM130.912 45.354V45.552C130.732 46.74 130.498 48.252 130.3 49.152L131.47 49.368C131.704 48.396 132.01 46.848 132.262 45.516L131.326 45.318L131.092 45.354H130.912ZM119.752 41.952C118.744 44.688 117.052 47.388 115.27 49.134C115.522 49.44 115.9 50.16 116.044 50.466C117.988 48.45 119.842 45.408 121.03 42.348L119.752 41.952ZM117.88 46.596V58.422H119.176V45.336L119.14 45.318L117.88 46.596Z" fill="#1F363D"/>
<path d="M151.705 45.894V47.262H162.685V45.894H151.705ZM159.031 42.096V56.604C159.031 57.018 158.869 57.126 158.437 57.162C158.023 57.18 156.529 57.18 154.999 57.126C155.215 57.504 155.467 58.116 155.539 58.476C157.501 58.494 158.725 58.476 159.427 58.242C160.111 58.044 160.399 57.63 160.399 56.604V42.096H159.031ZM152.839 49.71C153.757 51.15 154.927 53.094 155.467 54.21L156.727 53.526C156.151 52.428 154.945 50.556 154.009 49.152L152.839 49.71ZM148.843 46.794V58.404H150.211V45.462L150.193 45.426L148.843 46.794ZM150.805 42.006C149.761 44.814 148.033 47.568 146.179 49.332C146.431 49.656 146.863 50.34 147.025 50.664C149.023 48.63 150.913 45.534 152.119 42.402L150.805 42.006ZM171.865 48.18V56.676C171.865 57 171.739 57.09 171.361 57.108C170.947 57.126 169.561 57.144 168.049 57.09C168.265 57.468 168.517 58.062 168.589 58.44C170.425 58.458 171.631 58.44 172.333 58.224C173.035 58.008 173.269 57.612 173.269 56.694V48.18H171.865ZM165.241 43.302V44.616H178.255V43.302H165.241ZM177.841 43.302V43.626C176.635 45.084 174.061 47.082 171.865 48.18C172.135 48.396 172.549 48.828 172.765 49.116C175.141 47.928 177.859 45.876 179.569 43.986L178.525 43.212L178.219 43.302H177.841Z" fill="#1F363D"/>
<path d="M194.946 57.252C197.286 57.252 198.798 55.83 198.798 53.688C198.798 49.368 193.182 50.178 193.182 47.244C193.182 46.092 193.974 45.318 195.216 45.318C196.314 45.318 196.926 45.714 197.664 46.452L198.528 45.48C197.718 44.598 196.764 43.95 195.162 43.95C193.056 43.95 191.58 45.3 191.58 47.334C191.58 51.258 197.196 50.52 197.196 53.814C197.196 55.074 196.44 55.884 194.946 55.884C193.722 55.884 192.696 55.272 191.85 54.552L191.058 55.668C192.012 56.55 193.506 57.252 194.946 57.252ZM194.496 59.214H195.702V56.676H194.496V59.214ZM194.496 44.544H195.702V41.97H194.496V44.544ZM209.46 57.252C211.494 57.252 213.24 55.524 213.24 52.968C213.24 50.196 211.8 48.828 209.568 48.828C208.506 48.828 207.282 49.476 206.472 50.538L206.526 51.852C207.408 50.538 208.47 50.034 209.316 50.034C210.9 50.034 211.692 51.168 211.692 52.968C211.692 54.75 210.72 55.956 209.46 55.956C207.606 55.956 206.58 54.102 206.58 50.718C206.58 46.398 208.128 44.94 209.982 44.94C210.774 44.94 211.584 45.318 212.088 45.93L213.006 44.922C212.286 44.148 211.278 43.572 209.91 43.572C207.354 43.572 205.032 45.552 205.032 50.718C205.032 55.074 206.922 57.252 209.46 57.252ZM215.358 60.42C216.996 59.754 217.986 58.404 217.986 56.658C217.986 55.47 217.464 54.732 216.6 54.732C215.934 54.732 215.376 55.164 215.376 55.884C215.376 56.622 215.934 57.036 216.564 57.036C216.888 57.036 217.176 56.946 217.392 56.676L216.6 55.488L216.78 56.964C216.78 58.062 216.096 58.962 214.98 59.466L215.358 60.42ZM224.04 57.252C226.524 57.252 228.126 54.966 228.126 50.358C228.126 45.786 226.524 43.572 224.04 43.572C221.52 43.572 219.918 45.786 219.918 50.358C219.918 54.966 221.52 57.252 224.04 57.252ZM224.04 55.92C222.528 55.92 221.502 54.246 221.502 50.358C221.502 46.524 222.528 44.886 224.04 44.886C225.534 44.886 226.542 46.524 226.542 50.358C226.542 54.246 225.534 55.92 224.04 55.92ZM234.025 57.252C236.509 57.252 238.111 54.966 238.111 50.358C238.111 45.786 236.509 43.572 234.025 43.572C231.505 43.572 229.903 45.786 229.903 50.358C229.903 54.966 231.505 57.252 234.025 57.252ZM234.025 55.92C232.513 55.92 231.487 54.246 231.487 50.358C231.487 46.524 232.513 44.886 234.025 44.886C235.519 44.886 236.527 46.524 236.527 50.358C236.527 54.246 235.519 55.92 234.025 55.92ZM244.009 57.252C246.493 57.252 248.095 54.966 248.095 50.358C248.095 45.786 246.493 43.572 244.009 43.572C241.489 43.572 239.887 45.786 239.887 50.358C239.887 54.966 241.489 57.252 244.009 57.252ZM244.009 55.92C242.497 55.92 241.471 54.246 241.471 50.358C241.471 46.524 242.497 44.886 244.009 44.886C245.503 44.886 246.511 46.524 246.511 50.358C246.511 54.246 245.503 55.92 244.009 55.92ZM251.473 57.252C252.139 57.252 252.679 56.73 252.679 55.992C252.679 55.236 252.139 54.732 251.473 54.732C250.825 54.732 250.303 55.236 250.303 55.992C250.303 56.73 250.825 57.252 251.473 57.252ZM259.003 57.252C261.487 57.252 263.089 54.966 263.089 50.358C263.089 45.786 261.487 43.572 259.003 43.572C256.483 43.572 254.881 45.786 254.881 50.358C254.881 54.966 256.483 57.252 259.003 57.252ZM259.003 55.92C257.491 55.92 256.465 54.246 256.465 50.358C256.465 46.524 257.491 44.886 259.003 44.886C260.497 44.886 261.505 46.524 261.505 50.358C261.505 54.246 260.497 55.92 259.003 55.92ZM268.987 57.252C271.471 57.252 273.073 54.966 273.073 50.358C273.073 45.786 271.471 43.572 268.987 43.572C266.467 43.572 264.865 45.786 264.865 50.358C264.865 54.966 266.467 57.252 268.987 57.252ZM268.987 55.92C267.475 55.92 266.449 54.246 266.449 50.358C266.449 46.524 267.475 44.886 268.987 44.886C270.481 44.886 271.489 46.524 271.489 50.358C271.489 54.246 270.481 55.92 268.987 55.92Z" fill="#1F363D"/>
</g>
<path d="M358.4 58.224C360.672 58.224 362.032 56.88 362.032 54.912C362.032 51.184 357.088 51.728 357.088 49.392C357.088 48.432 357.712 47.856 358.752 47.856C359.664 47.856 360.208 48.192 360.864 48.832L361.824 47.744C361.056 46.928 360.144 46.336 358.672 46.336C356.656 46.336 355.312 47.584 355.312 49.488C355.312 52.912 360.24 52.464 360.24 55.056C360.24 56.08 359.632 56.704 358.4 56.704C357.376 56.704 356.512 56.224 355.696 55.552L354.848 56.816C355.744 57.648 357.168 58.224 358.4 58.224ZM357.952 59.984H359.248V57.52H357.952V59.984ZM357.952 46.96H359.248V44.56H357.952V46.96Z" fill="#70A9A1"/>
<path d="M377.007 58.224C379.055 58.224 380.975 56.736 380.975 54.144C380.975 51.552 379.359 50.4 377.391 50.4C376.751 50.4 376.271 50.544 375.775 50.8L376.047 47.792H380.415V46.224H374.431L374.079 51.824L374.991 52.4C375.679 51.952 376.127 51.744 376.863 51.744C378.207 51.744 379.103 52.64 379.103 54.192C379.103 55.76 378.111 56.704 376.783 56.704C375.551 56.704 374.687 56.112 374.031 55.44L373.135 56.64C373.983 57.472 375.151 58.224 377.007 58.224ZM383.092 61.216C384.756 60.592 385.732 59.296 385.732 57.6C385.732 56.368 385.204 55.632 384.308 55.632C383.604 55.632 383.012 56.08 383.012 56.816C383.012 57.568 383.604 58 384.26 58C384.564 58 384.852 57.904 385.076 57.664L384.308 56.464L384.436 57.936C384.436 58.896 383.796 59.712 382.692 60.176L383.092 61.216ZM391.169 58.224C393.473 58.224 394.977 56.16 394.977 52.064C394.977 48 393.473 46.016 391.169 46.016C388.849 46.016 387.361 48 387.361 52.064C387.361 56.16 388.849 58.224 391.169 58.224ZM391.169 56.752C389.969 56.752 389.121 55.472 389.121 52.064C389.121 48.704 389.969 47.456 391.169 47.456C392.369 47.456 393.201 48.704 393.201 52.064C393.201 55.472 392.369 56.752 391.169 56.752ZM400.294 58.224C402.598 58.224 404.102 56.16 404.102 52.064C404.102 48 402.598 46.016 400.294 46.016C397.974 46.016 396.486 48 396.486 52.064C396.486 56.16 397.974 58.224 400.294 58.224ZM400.294 56.752C399.094 56.752 398.246 55.472 398.246 52.064C398.246 48.704 399.094 47.456 400.294 47.456C401.494 47.456 402.326 48.704 402.326 52.064C402.326 55.472 401.494 56.752 400.294 56.752ZM409.419 58.224C411.723 58.224 413.227 56.16 413.227 52.064C413.227 48 411.723 46.016 409.419 46.016C407.099 46.016 405.611 48 405.611 52.064C405.611 56.16 407.099 58.224 409.419 58.224ZM409.419 56.752C408.219 56.752 407.371 55.472 407.371 52.064C407.371 48.704 408.219 47.456 409.419 47.456C410.619 47.456 411.451 48.704 411.451 52.064C411.451 55.472 410.619 56.752 409.419 56.752ZM416.368 58.224C417.056 58.224 417.6 57.68 417.6 56.928C417.6 56.16 417.056 55.632 416.368 55.632C415.664 55.632 415.136 56.16 415.136 56.928C415.136 57.68 415.664 58.224 416.368 58.224ZM423.31 58.224C425.614 58.224 427.118 56.16 427.118 52.064C427.118 48 425.614 46.016 423.31 46.016C420.99 46.016 419.502 48 419.502 52.064C419.502 56.16 420.99 58.224 423.31 58.224ZM423.31 56.752C422.11 56.752 421.262 55.472 421.262 52.064C421.262 48.704 422.11 47.456 423.31 47.456C424.51 47.456 425.342 48.704 425.342 52.064C425.342 55.472 424.51 56.752 423.31 56.752ZM432.435 58.224C434.739 58.224 436.243 56.16 436.243 52.064C436.243 48 434.739 46.016 432.435 46.016C430.115 46.016 428.627 48 428.627 52.064C428.627 56.16 430.115 58.224 432.435 58.224ZM432.435 56.752C431.235 56.752 430.387 55.472 430.387 52.064C430.387 48.704 431.235 47.456 432.435 47.456C433.635 47.456 434.467 48.704 434.467 52.064C434.467 55.472 433.635 56.752 432.435 56.752Z" fill="#70A9A1"/>
<path d="M396.344 14.56C395.8 16.864 394.856 19.12 393.656 20.56C394.008 20.784 394.616 21.28 394.872 21.536C396.12 19.936 397.192 17.44 397.832 14.896L396.344 14.56ZM395.992 21.488C395.576 23.344 394.856 25.216 393.896 26.4C394.264 26.592 394.904 26.992 395.192 27.232C396.136 25.904 396.984 23.872 397.464 21.792L395.992 21.488ZM396.408 17.488L395.848 18.896H403.336V17.488H396.408ZM398.616 18.096V27.584C398.616 27.792 398.536 27.856 398.344 27.856C398.12 27.856 397.432 27.872 396.712 27.84C396.936 28.256 397.16 28.928 397.24 29.36C398.248 29.36 398.984 29.312 399.464 29.072C399.976 28.816 400.12 28.384 400.12 27.6V18.096H398.616ZM401.016 21.808C401.848 23.472 402.6 25.712 402.824 27.168L404.264 26.672C404.008 25.2 403.256 23.024 402.376 21.36L401.016 21.808ZM402.904 17.488V17.696C402.776 18.784 402.584 20.16 402.424 20.992L403.72 21.232C403.928 20.32 404.216 18.896 404.424 17.648L403.368 17.44L403.112 17.488H402.904ZM393.032 14.56C392.168 16.928 390.728 19.28 389.192 20.784C389.464 21.136 389.88 21.952 390.024 22.32C391.768 20.512 393.416 17.728 394.456 15.008L393.032 14.56ZM391.432 18.816V29.328H392.872V17.392L392.856 17.376L391.432 18.816ZM410.264 16.448V17.76H420.024V16.448H410.264ZM409.64 19.664V21.04H420.52V19.664H409.64ZM412.296 14.64V20.416H413.768V14.64H412.296ZM416.376 14.64V20.416H417.88V14.64H416.376ZM411.24 22.16V29.408H412.696V23.424H417.688V29.344H419.208V22.16H411.24ZM411.96 24.848V26.016H418.408V24.848H411.96ZM411.96 27.504V28.752H418.408V27.504H411.96ZM409.032 14.56C408.168 16.928 406.728 19.28 405.192 20.784C405.464 21.136 405.88 21.952 406.024 22.32C407.768 20.512 409.416 17.728 410.456 15.008L409.032 14.56ZM407.432 18.816V29.328H408.872V17.392L408.856 17.376L407.432 18.816ZM428.12 14.512V27.68H429.784V14.512H428.12ZM433.752 22.512V29.328H435.416V22.512H433.752ZM423.304 15.92V21.568H434.776V15.904H433.112V20.096H424.888V15.92H423.304ZM422.536 22.512V28.448H434.536V26.928H424.216V22.512H422.536Z" fill="#1F363D"/>
</g>
<defs>
<clipPath id="clip0_78_1897">
<rect width="440" height="75" fill="white"/>
</clipPath>
<clipPath id="clip1_78_1897">
<rect width="279" height="55" fill="white" transform="translate(44 10)"/>
</clipPath>
</defs>
</svg>
