<svg width="440" height="75" viewBox="0 0 440 75" fill="none" xmlns="http://www.w3.org/2000/svg">
<g clip-path="url(#clip0_78_1895)">
<path d="M1.936 28H4.336L6.032 21.84C6.384 20.608 6.72 19.248 7.04 17.968H7.104C7.44 19.232 7.776 20.608 8.128 21.84L9.824 28H12.304L8.512 16.16H5.728L1.936 28ZM4.288 24.96H9.92V23.136H4.288V24.96ZM16.061 28.224C17.277 28.224 18.125 27.632 18.909 26.72H18.957L19.133 28H21.053V19.056H18.717V25.088C18.109 25.888 17.629 26.208 16.893 26.208C16.013 26.208 15.629 25.728 15.629 24.352V19.056H13.277V24.64C13.277 26.896 14.125 28.224 16.061 28.224ZM26.7125 31.888C29.7045 31.888 31.6085 30.528 31.6085 28.72C31.6085 27.136 30.4245 26.48 28.2645 26.48H26.7285C25.6885 26.48 25.3205 26.208 25.3205 25.744C25.3205 25.376 25.4645 25.184 25.7045 24.96C26.1045 25.104 26.5045 25.168 26.8565 25.168C28.7925 25.168 30.3285 24.16 30.3285 22.128C30.3285 21.584 30.1525 21.088 29.9125 20.784H31.4485V19.056H28.2165C27.8485 18.912 27.3685 18.832 26.8565 18.832C24.9685 18.832 23.2405 19.952 23.2405 22.064C23.2405 23.12 23.8325 23.968 24.4565 24.416V24.48C23.8965 24.864 23.4485 25.472 23.4485 26.144C23.4485 26.88 23.8005 27.36 24.2645 27.664V27.744C23.4325 28.192 22.9845 28.848 22.9845 29.6C22.9845 31.168 24.6165 31.888 26.7125 31.888ZM26.8565 23.728C26.0725 23.728 25.4485 23.12 25.4485 22.064C25.4485 21.008 26.0725 20.432 26.8565 20.432C27.6565 20.432 28.2645 21.008 28.2645 22.064C28.2645 23.12 27.6405 23.728 26.8565 23.728ZM27.0805 30.4C25.7685 30.4 24.9365 29.984 24.9365 29.232C24.9365 28.864 25.1125 28.512 25.5285 28.176C25.8485 28.272 26.2165 28.304 26.7605 28.304H27.8485C28.8085 28.304 29.3365 28.48 29.3365 29.12C29.3365 29.808 28.4245 30.4 27.0805 30.4Z" fill="#20363D"/>
<path d="M4.944 60H15.648V57.144H12.312V42.24H9.696C8.544 42.936 7.344 43.392 5.544 43.728V45.912H8.784V57.144H4.944V60ZM24.2363 60.336C27.8363 60.336 30.2363 57.192 30.2363 51.048C30.2363 44.928 27.8363 41.928 24.2363 41.928C20.6123 41.928 18.2123 44.928 18.2123 51.048C18.2123 57.192 20.6123 60.336 24.2363 60.336ZM24.2363 57.576C22.7003 57.576 21.5483 56.04 21.5483 51.048C21.5483 46.08 22.7003 44.64 24.2363 44.64C25.7723 44.64 26.9003 46.08 26.9003 51.048C26.9003 56.04 25.7723 57.576 24.2363 57.576Z" fill="#20363D"/>
<g clip-path="url(#clip1_78_1895)">
<rect x="44" y="10" width="55" height="55" rx="10" fill="#ECFCCB"/>
<path d="M60.35 46.075V41.9C60.35 41.3667 60.5375 40.9167 60.9125 40.55C61.2875 40.1833 61.7333 40 62.25 40H65.775C66.025 40 66.2625 40.0583 66.4875 40.175C66.7125 40.2917 66.9 40.4583 67.05 40.675C67.5666 41.4083 68.2166 41.9792 69 42.3875C69.7833 42.7958 70.6166 43 71.5 43C72.3833 43 73.2208 42.7958 74.0125 42.3875C74.8041 41.9792 75.4666 41.4083 76 40.675C76.1333 40.4583 76.3083 40.2917 76.525 40.175C76.7416 40.0583 76.975 40 77.225 40H80.75C81.2833 40 81.7375 40.1833 82.1125 40.55C82.4875 40.9167 82.675 41.3667 82.675 41.9V46.075H75.85V43.275C75.25 43.775 74.5791 44.1583 73.8375 44.425C73.0958 44.6917 72.3166 44.825 71.5 44.825C70.7 44.825 69.9291 44.6917 69.1875 44.425C68.4458 44.1583 67.775 43.7833 67.175 43.3V46.075H60.35ZM71.5 41.25C70.95 41.25 70.4291 41.1208 69.9375 40.8625C69.4458 40.6042 69.0416 40.25 68.725 39.8C68.425 39.3833 68.0708 39.05 67.6625 38.8C67.2541 38.55 66.8166 38.3833 66.35 38.3C66.9 37.8333 67.6791 37.4708 68.6875 37.2125C69.6958 36.9542 70.6333 36.825 71.5 36.825C72.3833 36.825 73.325 36.9542 74.325 37.2125C75.325 37.4708 76.1166 37.8333 76.7 38.3C76.2166 38.3833 75.7708 38.55 75.3625 38.8C74.9541 39.05 74.6083 39.3833 74.325 39.8C74.0083 40.25 73.6 40.6042 73.1 40.8625C72.6 41.1208 72.0666 41.25 71.5 41.25V41.25ZM63.5 37.75C62.7 37.75 62.0166 37.4625 61.45 36.8875C60.8833 36.3125 60.6 35.625 60.6 34.825C60.6 34.025 60.8833 33.3417 61.45 32.775C62.0166 32.2083 62.7 31.925 63.5 31.925C64.3166 31.925 65.0083 32.2083 65.575 32.775C66.1416 33.3417 66.425 34.025 66.425 34.825C66.425 35.625 66.1416 36.3125 65.575 36.8875C65.0083 37.4625 64.3166 37.75 63.5 37.75ZM79.5 37.75C78.7 37.75 78.0166 37.4625 77.45 36.8875C76.8833 36.3125 76.6 35.625 76.6 34.825C76.6 34.025 76.8833 33.3417 77.45 32.775C78.0166 32.2083 78.7 31.925 79.5 31.925C80.3166 31.925 81.0083 32.2083 81.575 32.775C82.1416 33.3417 82.425 34.025 82.425 34.825C82.425 35.625 82.1416 36.3125 81.575 36.8875C81.0083 37.4625 80.3166 37.75 79.5 37.75ZM71.5 34.575C70.7 34.575 70.0166 34.2917 69.45 33.725C68.8833 33.1583 68.6 32.475 68.6 31.675C68.6 30.8583 68.8833 30.1667 69.45 29.6C70.0166 29.0333 70.7 28.75 71.5 28.75C72.3166 28.75 73.0083 29.0333 73.575 29.6C74.1416 30.1667 74.425 30.8583 74.425 31.675C74.425 32.475 74.1416 33.1583 73.575 33.725C73.0083 34.2917 72.3166 34.575 71.5 34.575Z" fill="#84CC16"/>
<path d="M126.78 26.392V27.67H137.004V26.392H126.78ZM126.798 24.142V25.582H136.104V28.462H126.798V29.92H138.246V24.142H126.798ZM130.776 24.934V29.974C130.776 31.864 131.46 32.386 133.944 32.386C134.484 32.386 137.166 32.386 137.742 32.386C139.704 32.386 140.316 31.792 140.568 29.614C140.01 29.506 139.2 29.236 138.75 28.93C138.642 30.46 138.462 30.73 137.562 30.73C136.914 30.73 134.646 30.73 134.142 30.73C133.044 30.73 132.846 30.64 132.846 29.956V24.934H130.776ZM125.718 24.142V30.712H127.788V24.142H125.718ZM124.854 16.366V17.788H139.056V16.366H124.854ZM130.884 16.708V23.656H132.99V16.708H130.884ZM124.044 18.508V22.576H126.096V19.912H137.814V22.576H139.974V18.508H124.044ZM125.97 22.414L126.51 23.926C127.662 23.656 128.994 23.35 130.344 23.026L130.272 21.82C128.67 22.054 127.104 22.288 125.97 22.414ZM126.564 20.92C127.59 21.136 128.958 21.532 129.678 21.82L130.254 20.65C129.516 20.362 128.13 20.038 127.122 19.876L126.564 20.92ZM136.662 19.714C135.87 20.002 134.502 20.488 133.584 20.686L134.268 21.712C135.186 21.532 136.518 21.226 137.508 20.83L136.662 19.714ZM133.314 22.864C134.682 23.062 136.536 23.53 137.508 23.872L137.904 22.522C136.914 22.198 135.06 21.802 133.728 21.658L133.314 22.864ZM155.652 16.024C154.716 17.464 152.934 18.904 151.404 19.75C151.944 20.146 152.592 20.776 152.934 21.244C154.662 20.164 156.444 18.598 157.704 16.852L155.652 16.024ZM156.102 20.92C155.094 22.45 153.114 23.98 151.458 24.862C151.998 25.258 152.61 25.906 152.952 26.374C154.788 25.24 156.75 23.584 158.082 21.748L156.102 20.92ZM156.408 25.96C155.31 28.012 153.204 29.776 151.062 30.802C151.602 31.234 152.214 31.954 152.556 32.476C154.914 31.144 157.056 29.164 158.406 26.698L156.408 25.96ZM141.81 22.36V24.016H151.926V22.36H141.81ZM144.888 26.014H148.938V26.95H144.888V26.014ZM142.89 24.61V28.354H151.026V24.61H142.89ZM148.218 29.038C148.776 29.974 149.406 31.216 149.676 32.008L151.278 31.234C150.99 30.478 150.306 29.29 149.73 28.39L148.218 29.038ZM144.654 19.57H149.172V20.236H144.654V19.57ZM144.654 17.662H149.172V18.328H144.654V17.662ZM142.62 16.348V21.55H151.296V16.348H142.62ZM145.806 27.562V30.658C145.806 30.82 145.77 30.874 145.572 30.874C145.392 30.892 144.816 30.892 144.294 30.874C144.528 31.36 144.798 32.062 144.888 32.602C145.86 32.602 146.616 32.584 147.192 32.314C147.786 32.044 147.93 31.594 147.93 30.712V27.562H145.806ZM143.412 28.408C143.034 29.308 142.422 30.262 141.792 30.946C142.206 31.216 142.926 31.774 143.25 32.08C143.934 31.306 144.726 30.046 145.194 28.948L143.412 28.408ZM145.626 21.838C145.86 22.288 146.094 22.936 146.184 23.332L148.326 22.882C148.236 22.45 147.948 21.856 147.678 21.424L145.626 21.838ZM170.286 29.488C171.69 30.298 173.49 31.522 174.318 32.332L176.028 31.126C175.074 30.28 173.238 29.146 171.87 28.408L170.286 29.488ZM161.988 24.124V25.762H174.012V24.124H161.988ZM159.846 26.518V28.228H176.172V26.518H159.846ZM160.098 16.312V18.004H175.812V16.312H160.098ZM163.428 28.372C162.6 29.362 161.142 30.316 159.738 30.928C160.206 31.252 160.998 31.972 161.34 32.368C162.744 31.594 164.382 30.334 165.408 29.056L163.428 28.372ZM163.158 20.506H172.734V21.838H163.158V20.506ZM161.16 18.958V23.404H174.876V18.958H161.16ZM164.958 16.96V22.774H166.938V16.96H164.958ZM168.828 16.96V22.774H170.844V16.96H168.828ZM166.902 26.968V32.638H169.044V26.968H166.902Z" fill="#1F363D"/>
<path d="M124.026 52.266V53.454H140.01V52.266H124.026ZM131.244 50.88V58.44H132.648V50.88H131.244ZM130.722 52.77C129.21 54.588 126.24 56.28 123.594 57.036C123.9 57.324 124.296 57.828 124.512 58.188C127.158 57.27 130.128 55.38 131.784 53.274L130.722 52.77ZM133.224 52.824L132.198 53.274C133.8 55.38 136.716 57.162 139.416 58.026C139.614 57.666 140.028 57.144 140.334 56.856C137.616 56.172 134.7 54.606 133.224 52.824ZM137.58 45.462C134.664 46.146 129.138 46.524 124.62 46.65C124.746 46.938 124.908 47.46 124.926 47.802C129.552 47.694 135.15 47.298 138.66 46.506L137.58 45.462ZM125.448 48.666C126.114 49.476 126.798 50.61 127.032 51.384L128.238 50.844C127.986 50.088 127.284 48.99 126.582 48.198L125.448 48.666ZM130.416 48.18C130.92 49.008 131.388 50.106 131.514 50.826L132.774 50.376C132.63 49.656 132.144 48.594 131.604 47.784L130.416 48.18ZM137.508 47.514C137.04 48.576 136.158 50.106 135.474 51.024L136.518 51.492C137.238 50.61 138.138 49.224 138.876 48.018L137.508 47.514ZM123.954 43.194V44.364H131.406V43.194H123.954ZM127.77 41.898V45.642H129.084V41.898H127.77ZM135.06 41.898V45.516H136.356V41.898H135.06ZM132.432 43.194V44.346H139.92V43.194H132.432ZM141.792 49.242V50.718H158.262V49.242H141.792ZM161.412 42.618V43.644H174.57V42.618H161.412ZM167.316 43.032V48.45H168.648V43.032H167.316ZM160.368 44.652V47.802H161.592V45.588H174.372V47.802H175.65V44.652H160.368ZM164.346 51.474V52.356H171.672V51.474H164.346ZM164.634 55.776C166.578 56.586 169.206 57.792 170.556 58.53L171.132 57.54C169.782 56.838 167.118 55.686 165.192 54.93L164.634 55.776ZM161.988 53.22V54.264H172.284V53.22H161.988ZM172.032 53.22V53.454C171.204 54.444 169.206 55.812 167.838 56.442C168.108 56.658 168.504 57.054 168.684 57.324C170.106 56.568 172.23 55.11 173.31 53.706L172.446 53.148L172.248 53.22H172.032ZM168.036 48.36C166.11 49.89 162.744 51.15 159.702 51.87C160.044 52.104 160.53 52.572 160.782 52.842C163.626 51.996 167.082 50.646 169.224 48.936L168.036 48.36ZM168.342 48.954L167.568 49.62C169.152 50.754 172.5 52.158 175.56 52.734C175.74 52.41 176.1 51.888 176.37 51.618C173.274 51.15 169.836 49.98 168.342 48.954ZM161.808 48.468L162.222 49.494C163.5 49.152 164.994 48.756 166.506 48.306L166.416 47.478C164.688 47.856 162.996 48.252 161.808 48.468ZM162.438 46.56C163.608 46.812 165.138 47.226 165.966 47.532L166.344 46.686C165.516 46.398 163.968 46.002 162.816 45.822L162.438 46.56ZM173.094 45.804C172.176 46.092 170.61 46.56 169.548 46.758L170.016 47.442C171.096 47.262 172.608 46.956 173.67 46.56L173.094 45.804ZM169.44 48.162C170.916 48.486 172.86 49.062 173.886 49.476L174.246 48.594C173.202 48.18 171.258 47.658 169.8 47.388L169.44 48.162Z" fill="#1F363D"/>
<path d="M195.705 45.894V47.262H206.685V45.894H195.705ZM203.031 42.096V56.604C203.031 57.018 202.869 57.126 202.437 57.162C202.023 57.18 200.529 57.18 198.999 57.126C199.215 57.504 199.467 58.116 199.539 58.476C201.501 58.494 202.725 58.476 203.427 58.242C204.111 58.044 204.399 57.63 204.399 56.604V42.096H203.031ZM196.839 49.71C197.757 51.15 198.927 53.094 199.467 54.21L200.727 53.526C200.151 52.428 198.945 50.556 198.009 49.152L196.839 49.71ZM192.843 46.794V58.404H194.211V45.462L194.193 45.426L192.843 46.794ZM194.805 42.006C193.761 44.814 192.033 47.568 190.179 49.332C190.431 49.656 190.863 50.34 191.025 50.664C193.023 48.63 194.913 45.534 196.119 42.402L194.805 42.006ZM215.865 48.18V56.676C215.865 57 215.739 57.09 215.361 57.108C214.947 57.126 213.561 57.144 212.049 57.09C212.265 57.468 212.517 58.062 212.589 58.44C214.425 58.458 215.631 58.44 216.333 58.224C217.035 58.008 217.269 57.612 217.269 56.694V48.18H215.865ZM209.241 43.302V44.616H222.255V43.302H209.241ZM221.841 43.302V43.626C220.635 45.084 218.061 47.082 215.865 48.18C216.135 48.396 216.549 48.828 216.765 49.116C219.141 47.928 221.859 45.876 223.569 43.986L222.525 43.212L222.219 43.302H221.841Z" fill="#1F363D"/>
<path d="M238.951 57.252C241.291 57.252 242.803 55.83 242.803 53.688C242.803 49.368 237.187 50.178 237.187 47.244C237.187 46.092 237.979 45.318 239.221 45.318C240.319 45.318 240.931 45.714 241.669 46.452L242.533 45.48C241.723 44.598 240.769 43.95 239.167 43.95C237.061 43.95 235.585 45.3 235.585 47.334C235.585 51.258 241.201 50.52 241.201 53.814C241.201 55.074 240.445 55.884 238.951 55.884C237.727 55.884 236.701 55.272 235.855 54.552L235.063 55.668C236.017 56.55 237.511 57.252 238.951 57.252ZM238.501 59.214H239.707V56.676H238.501V59.214ZM238.501 44.544H239.707V41.97H238.501V44.544ZM249.631 57H256.867V55.632H254.203V43.806H252.943C252.241 44.238 251.395 44.544 250.207 44.742V45.804H252.565V55.632H249.631V57ZM263.035 57.252C265.519 57.252 267.121 54.966 267.121 50.358C267.121 45.786 265.519 43.572 263.035 43.572C260.515 43.572 258.913 45.786 258.913 50.358C258.913 54.966 260.515 57.252 263.035 57.252ZM263.035 55.92C261.523 55.92 260.497 54.246 260.497 50.358C260.497 46.524 261.523 44.886 263.035 44.886C264.529 44.886 265.537 46.524 265.537 50.358C265.537 54.246 264.529 55.92 263.035 55.92ZM273.434 57.252C275.468 57.252 277.214 55.524 277.214 52.968C277.214 50.196 275.774 48.828 273.542 48.828C272.48 48.828 271.256 49.476 270.446 50.538L270.5 51.852C271.382 50.538 272.444 50.034 273.29 50.034C274.874 50.034 275.666 51.168 275.666 52.968C275.666 54.75 274.694 55.956 273.434 55.956C271.58 55.956 270.554 54.102 270.554 50.718C270.554 46.398 272.102 44.94 273.956 44.94C274.748 44.94 275.558 45.318 276.062 45.93L276.98 44.922C276.26 44.148 275.252 43.572 273.884 43.572C271.328 43.572 269.006 45.552 269.006 50.718C269.006 55.074 270.896 57.252 273.434 57.252ZM283.004 57.252C285.488 57.252 287.09 54.966 287.09 50.358C287.09 45.786 285.488 43.572 283.004 43.572C280.484 43.572 278.882 45.786 278.882 50.358C278.882 54.966 280.484 57.252 283.004 57.252ZM283.004 55.92C281.492 55.92 280.466 54.246 280.466 50.358C280.466 46.524 281.492 44.886 283.004 44.886C284.498 44.886 285.506 46.524 285.506 50.358C285.506 54.246 284.498 55.92 283.004 55.92ZM290.468 57.252C291.134 57.252 291.674 56.73 291.674 55.992C291.674 55.236 291.134 54.732 290.468 54.732C289.82 54.732 289.298 55.236 289.298 55.992C289.298 56.73 289.82 57.252 290.468 57.252ZM297.998 57.252C300.482 57.252 302.084 54.966 302.084 50.358C302.084 45.786 300.482 43.572 297.998 43.572C295.478 43.572 293.876 45.786 293.876 50.358C293.876 54.966 295.478 57.252 297.998 57.252ZM297.998 55.92C296.486 55.92 295.46 54.246 295.46 50.358C295.46 46.524 296.486 44.886 297.998 44.886C299.492 44.886 300.5 46.524 300.5 50.358C300.5 54.246 299.492 55.92 297.998 55.92ZM307.983 57.252C310.467 57.252 312.069 54.966 312.069 50.358C312.069 45.786 310.467 43.572 307.983 43.572C305.463 43.572 303.861 45.786 303.861 50.358C303.861 54.966 305.463 57.252 307.983 57.252ZM307.983 55.92C306.471 55.92 305.445 54.246 305.445 50.358C305.445 46.524 306.471 44.886 307.983 44.886C309.477 44.886 310.485 46.524 310.485 50.358C310.485 54.246 309.477 55.92 307.983 55.92Z" fill="#1F363D"/>
</g>
<path d="M396.344 14.56C395.8 16.864 394.856 19.12 393.656 20.56C394.008 20.784 394.616 21.28 394.872 21.536C396.12 19.936 397.192 17.44 397.832 14.896L396.344 14.56ZM395.992 21.488C395.576 23.344 394.856 25.216 393.896 26.4C394.264 26.592 394.904 26.992 395.192 27.232C396.136 25.904 396.984 23.872 397.464 21.792L395.992 21.488ZM396.408 17.488L395.848 18.896H403.336V17.488H396.408ZM398.616 18.096V27.584C398.616 27.792 398.536 27.856 398.344 27.856C398.12 27.856 397.432 27.872 396.712 27.84C396.936 28.256 397.16 28.928 397.24 29.36C398.248 29.36 398.984 29.312 399.464 29.072C399.976 28.816 400.12 28.384 400.12 27.6V18.096H398.616ZM401.016 21.808C401.848 23.472 402.6 25.712 402.824 27.168L404.264 26.672C404.008 25.2 403.256 23.024 402.376 21.36L401.016 21.808ZM402.904 17.488V17.696C402.776 18.784 402.584 20.16 402.424 20.992L403.72 21.232C403.928 20.32 404.216 18.896 404.424 17.648L403.368 17.44L403.112 17.488H402.904ZM393.032 14.56C392.168 16.928 390.728 19.28 389.192 20.784C389.464 21.136 389.88 21.952 390.024 22.32C391.768 20.512 393.416 17.728 394.456 15.008L393.032 14.56ZM391.432 18.816V29.328H392.872V17.392L392.856 17.376L391.432 18.816ZM409.208 14.336C408.536 17.04 407.336 19.632 405.768 21.216C406.168 21.44 406.888 21.92 407.208 22.192C408.728 20.432 410.04 17.632 410.84 14.672L409.208 14.336ZM418.232 17.04V17.344C417.816 18.832 417.08 20.64 416.392 21.76L417.736 22.336C418.568 21.072 419.384 19.152 419.976 17.36L418.776 16.96L418.504 17.04H418.232ZM409.336 17.04L408.584 18.528H418.776V17.04H409.336ZM412.136 19.408V20.448C412.136 22.624 411.624 26.048 405.592 28.144C405.928 28.448 406.408 29.008 406.584 29.36C413.064 27.072 413.704 23.104 413.704 20.48V19.408H412.136ZM413.592 21.344L412.296 21.616C413.432 25.648 415.496 28.304 419.464 29.36C419.672 28.944 420.104 28.304 420.456 27.984C416.664 27.136 414.552 24.768 413.592 21.344ZM428.264 20.112V27.488C428.264 27.76 428.152 27.856 427.8 27.856C427.432 27.872 426.168 27.888 424.92 27.84C425.16 28.256 425.448 28.928 425.528 29.36C427.112 29.376 428.216 29.344 428.92 29.12C429.624 28.88 429.848 28.448 429.848 27.52V20.112H428.264ZM422.52 15.696V17.184H433.912V15.696H422.52ZM433.464 15.696V16.064C432.456 17.328 430.2 19.12 428.264 20.112C428.568 20.368 429.048 20.864 429.272 21.184C431.432 20.08 433.848 18.208 435.416 16.496L434.216 15.6L433.88 15.696H433.464Z" fill="#1F363D"/>
<path d="M372.4 58.224C374.672 58.224 376.032 56.88 376.032 54.912C376.032 51.184 371.088 51.728 371.088 49.392C371.088 48.432 371.712 47.856 372.752 47.856C373.664 47.856 374.208 48.192 374.864 48.832L375.824 47.744C375.056 46.928 374.144 46.336 372.672 46.336C370.656 46.336 369.312 47.584 369.312 49.488C369.312 52.912 374.24 52.464 374.24 55.056C374.24 56.08 373.632 56.704 372.4 56.704C371.376 56.704 370.512 56.224 369.696 55.552L368.848 56.816C369.744 57.648 371.168 58.224 372.4 58.224ZM371.952 59.984H373.248V57.52H371.952V59.984ZM371.952 46.96H373.248V44.56H371.952V46.96Z" fill="#B91C1C"/>
<path d="M387.969 58H394.705V56.48H392.401V46.224H391.009C390.321 46.64 389.553 46.928 388.433 47.12V48.288H390.561V56.48H387.969V58ZM400.31 58.224C402.582 58.224 404.118 56.88 404.118 55.136C404.118 53.52 403.19 52.608 402.134 52.016V51.936C402.854 51.376 403.67 50.368 403.67 49.152C403.67 47.312 402.406 46.048 400.358 46.048C398.422 46.048 396.982 47.248 396.982 49.088C396.982 50.32 397.686 51.216 398.566 51.84V51.904C397.478 52.48 396.47 53.536 396.47 55.088C396.47 56.912 398.086 58.224 400.31 58.224ZM401.078 51.472C399.766 50.944 398.646 50.352 398.646 49.088C398.646 48.032 399.366 47.376 400.326 47.376C401.462 47.376 402.134 48.192 402.134 49.264C402.134 50.064 401.782 50.816 401.078 51.472ZM400.342 56.88C399.062 56.88 398.086 56.064 398.086 54.896C398.086 53.872 398.662 53.008 399.478 52.432C401.078 53.104 402.374 53.648 402.374 55.072C402.374 56.176 401.542 56.88 400.342 56.88ZM409.419 58.224C411.723 58.224 413.227 56.16 413.227 52.064C413.227 48 411.723 46.016 409.419 46.016C407.099 46.016 405.611 48 405.611 52.064C405.611 56.16 407.099 58.224 409.419 58.224ZM409.419 56.752C408.219 56.752 407.371 55.472 407.371 52.064C407.371 48.704 408.219 47.456 409.419 47.456C410.619 47.456 411.451 48.704 411.451 52.064C411.451 55.472 410.619 56.752 409.419 56.752ZM416.368 58.224C417.056 58.224 417.6 57.68 417.6 56.928C417.6 56.16 417.056 55.632 416.368 55.632C415.664 55.632 415.136 56.16 415.136 56.928C415.136 57.68 415.664 58.224 416.368 58.224ZM423.31 58.224C425.614 58.224 427.118 56.16 427.118 52.064C427.118 48 425.614 46.016 423.31 46.016C420.99 46.016 419.502 48 419.502 52.064C419.502 56.16 420.99 58.224 423.31 58.224ZM423.31 56.752C422.11 56.752 421.262 55.472 421.262 52.064C421.262 48.704 422.11 47.456 423.31 47.456C424.51 47.456 425.342 48.704 425.342 52.064C425.342 55.472 424.51 56.752 423.31 56.752ZM432.435 58.224C434.739 58.224 436.243 56.16 436.243 52.064C436.243 48 434.739 46.016 432.435 46.016C430.115 46.016 428.627 48 428.627 52.064C428.627 56.16 430.115 58.224 432.435 58.224ZM432.435 56.752C431.235 56.752 430.387 55.472 430.387 52.064C430.387 48.704 431.235 47.456 432.435 47.456C433.635 47.456 434.467 48.704 434.467 52.064C434.467 55.472 433.635 56.752 432.435 56.752Z" fill="#B91C1C"/>
</g>
<defs>
<clipPath id="clip0_78_1895">
<rect width="440" height="75" fill="white"/>
</clipPath>
<clipPath id="clip1_78_1895">
<rect width="279" height="55" fill="white" transform="translate(44 10)"/>
</clipPath>
</defs>
</svg>
