<svg width="248" height="88" viewBox="0 0 248 88" fill="none" xmlns="http://www.w3.org/2000/svg">
<rect width="248" height="88" rx="20" fill="#D2D5DA"/>
<path d="M126.725 35V36.5H116.5V51.5H131.5V41.3H133V51.5C133 51.9 132.85 52.25 132.55 52.55C132.25 52.85 131.9 53 131.5 53H116.5C116.1 53 115.75 52.85 115.45 52.55C115.15 52.25 115 51.9 115 51.5V36.5C115 36.1 115.15 35.75 115.45 35.45C115.75 35.15 116.1 35 116.5 35H126.725ZM131 35V37.025H133.025V38.525H131V40.55H129.5V38.525H127.475V37.025H129.5V35H131ZM118 48.95H130L126.4 44.15L123.225 48.325L120.875 45.225L118 48.95ZM116.5 36.5V51.5V36.5Z" fill="white"/>
</svg>
