<svg width="42" height="42" viewBox="0 0 42 42" fill="none" xmlns="http://www.w3.org/2000/svg">
<rect x="2.5" y="2.5" width="37" height="37" rx="18.5" fill="#FECACA"/>
<path d="M20 24H22V26H20V24ZM20 16H22V22H20V16ZM20.99 11C15.47 11 11 15.48 11 21C11 26.52 15.47 31 20.99 31C26.52 31 31 26.52 31 21C31 15.48 26.52 11 20.99 11ZM21 29C16.58 29 13 25.42 13 21C13 16.58 16.58 13 21 13C25.42 13 29 16.58 29 21C29 25.42 25.42 29 21 29Z" fill="#DC3545"/>
<rect x="2.5" y="2.5" width="37" height="37" rx="18.5" stroke="#FEE2E2" stroke-width="5"/>
</svg>
