<svg width="200" height="220" viewBox="0 0 200 220" fill="none" xmlns="http://www.w3.org/2000/svg">
<path d="M200 190.522L186.476 165.707C195.907 146.874 199.407 124.902 195.018 102.693C184.46 49.3924 132.737 14.7467 79.4136 25.2884C26.0898 35.8302 -8.66847 87.473 1.88952 140.715C12.4475 193.957 64.1698 228.602 117.494 218.12C138.076 214.033 155.929 203.847 169.453 189.752L200 190.522Z" fill="#EFCB6E"/>
<path d="M96.0211 102.812C124.456 102.812 147.506 79.7966 147.506 51.4059C147.506 23.0152 124.456 0 96.0211 0C67.5867 0 44.5361 23.0152 44.5361 51.4059C44.5361 79.7966 67.5867 102.812 96.0211 102.812Z" fill="#20363D"/>
<path d="M33.3853 159.844L134.457 178.44L146.379 61.4148L45.2482 42.8187L33.3853 159.844Z" fill="#20363D"/>
<path d="M175.622 169.26C156.345 124.014 123.425 94.639 102.131 103.641C80.8372 94.5798 47.977 123.955 28.6405 169.26C26.4458 174.413 24.4884 179.625 22.8276 184.718C33.9788 197.984 48.3922 208.111 64.6444 214.033C80.9559 220.015 99.1061 221.732 117.375 218.12C117.375 218.12 117.375 218.12 117.434 218.12C138.016 214.033 155.811 203.847 169.335 189.811L182.977 190.166C181.079 183.296 178.588 176.308 175.622 169.26Z" fill="#E07D5C"/>
<path d="M117.925 118.57C119.072 113.463 111.192 107.35 100.323 104.916C89.4551 102.481 79.7145 104.648 78.5672 109.754C77.4198 114.861 85.3003 120.974 96.1686 123.408C107.037 125.843 116.778 123.676 117.925 118.57Z" fill="#ECB1A9"/>
<path d="M78.5201 109.771L117.878 118.586L124.707 88.1886L85.3497 79.3731L78.5201 109.771Z" fill="#ECB1A9"/>
<path d="M60.4329 72.371C48.9852 48.0894 57.5265 20.0768 79.4728 9.77188C101.419 -0.532986 128.526 10.7195 139.914 34.9418C143.888 43.3516 145.668 52.8273 144.719 62.1254C143.948 70.0613 141.397 79.1817 138.491 84.0972C134.22 91.2633 125.086 96.2973 121.112 97.7778C97.9197 106.365 71.7026 96.2973 60.4329 72.371Z" fill="#F2DFD8"/>
<path d="M49.2817 60.3486C46.6719 54.8409 47.5616 48.9777 51.1798 47.2603C54.798 45.5428 60.0176 45.1282 62.6275 50.636C65.2373 56.1438 64.229 65.4419 60.5515 67.1593C56.874 68.8768 51.8915 65.8564 49.2817 60.3486Z" fill="#F2DFD8"/>
<path d="M87.896 64.1981C89.2064 64.1981 90.2686 63.164 90.2686 61.8884C90.2686 60.6127 89.2064 59.5786 87.896 59.5786C86.5857 59.5786 85.5234 60.6127 85.5234 61.8884C85.5234 63.164 86.5857 64.1981 87.896 64.1981Z" fill="#20363D"/>
<path d="M105.69 76.4573C105.69 78.9447 107.766 80.8991 110.316 80.8991C111.621 80.8991 112.748 80.4253 113.579 79.5962" stroke="#E07D5C" stroke-width="4" stroke-miterlimit="10" stroke-linecap="round" stroke-linejoin="round"/>
<path d="M123.247 57.8614C124.557 57.8614 125.62 56.8273 125.62 55.5517C125.62 54.276 124.557 53.2419 123.247 53.2419C121.937 53.2419 120.875 54.276 120.875 55.5517C120.875 56.8273 121.937 57.8614 123.247 57.8614Z" fill="#20363D"/>
<path d="M101.004 53.3604L77.2777 57.1507C75.439 57.4468 74.1934 59.1643 74.4899 61.0002L77.6336 70.1798C77.9302 72.0157 79.6503 73.2594 81.4891 72.9633L101.893 69.706C103.732 69.4099 104.978 67.6924 104.681 65.8565L104.859 56.1439C104.562 54.3079 102.842 53.0642 101.004 53.3604Z" stroke="#20363D" stroke-width="4" stroke-miterlimit="10" stroke-linecap="round" stroke-linejoin="round"/>
<path d="M139.44 47.2604L115.714 51.0507C113.875 51.3468 112.629 53.0643 112.926 54.9002L116.07 64.0798C116.366 65.9157 118.086 67.1594 119.925 66.8633L140.329 63.606C142.168 63.3099 143.414 61.5924 143.117 59.7565L143.295 50.0439C142.998 48.2079 141.278 46.9642 139.44 47.2604Z" stroke="#20363D" stroke-width="4" stroke-miterlimit="10" stroke-linecap="round" stroke-linejoin="round"/>
<path d="M104.859 56.1438C104.859 56.1438 108.359 51.5836 112.926 54.8409" stroke="#20363D" stroke-width="4" stroke-miterlimit="10" stroke-linecap="round" stroke-linejoin="round"/>
<path d="M55.8657 45.602L74.4905 60.9408" stroke="#20363D" stroke-width="4" stroke-miterlimit="10" stroke-linecap="round" stroke-linejoin="round"/>
<path d="M146.261 50.5767C146.261 50.5767 146.083 12.7922 113.282 4.6786C103.436 2.25045 93.9452 2.66501 85.5226 5.03395L85.4633 4.85627C30.0635 19.3068 60.3732 72.371 60.3732 72.371C84.5142 60.5263 88.7255 29.4932 89.4373 20.6097C89.6153 19.7214 89.6746 18.9514 89.556 18.1815C89.6153 18.1815 109.07 40.4495 146.261 50.5767Z" fill="#20363D"/>
<path d="M72.5928 120.401C72.5928 120.401 85.5827 132.246 101.776 133.016C117.968 133.786 130.009 125.317 126.51 110.807" stroke="#E0665C" stroke-width="4" stroke-miterlimit="10" stroke-linecap="round" stroke-linejoin="round"/>
</svg>
