<svg width="41" height="41" viewBox="0 0 41 41" fill="none" xmlns="http://www.w3.org/2000/svg">
<path fill-rule="evenodd" clip-rule="evenodd" d="M40.95 20.9046C40.95 19.4864 40.8201 18.1228 40.5789 16.8137H21.3582V24.55H32.3415C31.8684 27.05 30.4305 29.1682 28.2691 30.5864V35.6046H34.8647C38.7237 32.1228 40.95 26.9955 40.95 20.9046Z" fill="#4285F4"/>
<path fill-rule="evenodd" clip-rule="evenodd" d="M21.3582 40.4499C26.8684 40.4499 31.488 38.659 34.8647 35.6045L28.2691 30.5863C26.4417 31.7863 24.104 32.4954 21.3582 32.4954C16.0428 32.4954 11.5437 28.9772 9.93885 24.2499H3.12067V29.4318C6.47874 35.9681 13.3804 40.4499 21.3582 40.4499Z" fill="#34A853"/>
<path fill-rule="evenodd" clip-rule="evenodd" d="M9.93889 24.2501C9.53072 23.0501 9.29881 21.7683 9.29881 20.4501C9.29881 19.1319 9.53072 17.8501 9.93889 16.6501V11.4683H3.1207C1.73851 14.1683 0.950012 17.2228 0.950012 20.4501C0.950012 23.6774 1.73851 26.7319 3.1207 29.4319L9.93889 24.2501Z" fill="#FBBC05"/>
<path fill-rule="evenodd" clip-rule="evenodd" d="M21.3582 8.4045C24.3544 8.4045 27.0446 9.41359 29.1596 11.3954L35.0131 5.65904C31.4788 2.43177 26.8591 0.449951 21.3582 0.449951C13.3804 0.449951 6.47874 4.93177 3.12067 11.4681L9.93885 16.65C11.5437 11.9227 16.0428 8.4045 21.3582 8.4045Z" fill="#EA4335"/>
</svg>
