<svg width="171" height="476" viewBox="0 0 171 476" fill="none" xmlns="http://www.w3.org/2000/svg">
<path d="M113.664 113.329C144.959 113.329 170.329 87.9596 170.329 56.6646C170.329 25.3697 144.959 0.000106812 113.664 0.000106812C82.3695 0.000106812 57 25.3697 57 56.6646C57 87.9596 82.3695 113.329 113.664 113.329Z" fill="#F0CC67"/>
<path d="M69.714 88.6756L82.6861 102.745L64.0347 106.94L69.714 88.6756Z" fill="#F0CC67"/>
<path fill-rule="evenodd" clip-rule="evenodd" d="M114.116 33.7712L86.4477 57.9315C86.325 58.041 86.1818 58.1155 86.0384 58.1901C85.9421 58.2402 85.8456 58.2904 85.7551 58.3514V81.5327C85.7551 82.6407 86.6616 83.5382 87.7809 83.5382H91.8023V81.6223C91.8023 77.2956 95.4004 73.7853 99.8353 73.7853H100.414C101.871 74.4656 103.475 74.8738 105.191 74.8738C106.906 74.8738 108.517 74.4656 109.967 73.7853H110.546C114.981 73.7853 118.579 77.2956 118.579 81.6223V83.5382H120.81V81.6223C120.81 78.9964 119.743 76.6221 118.042 74.833C119.192 74.1867 120.503 73.7853 121.926 73.7853H122.191C123.16 74.1119 124.185 74.3295 125.273 74.3295C126.361 74.3295 127.386 74.1119 128.355 73.7853H128.62C132.936 73.7853 136.43 77.1936 136.43 81.4046C136.43 82.22 136.123 82.9658 135.616 83.5382H140.451C141.57 83.5382 142.477 82.6407 142.477 81.5327V58.3564C142.389 58.2972 142.295 58.2483 142.201 58.1996C142.063 58.1286 141.926 58.0578 141.811 57.9553L114.116 33.7712ZM149.908 48.9781L142.477 42.4814V25.3781C142.477 24.2701 141.57 23.3726 140.451 23.3726H132.348C131.229 23.3726 130.322 24.2701 130.322 25.3781V31.8572L117.503 20.6539C116.537 19.794 115.326 19.3628 114.116 19.3616C112.906 19.3603 111.698 19.789 110.735 20.6489L78.3243 48.9781C77.4925 49.7189 77.4228 50.9861 78.1711 51.8109L80.8806 54.7966C81.6276 55.6201 82.9089 55.689 83.742 54.9483L112.776 29.5935C113.542 28.9254 114.691 28.9254 115.457 29.5935L144.491 54.947C145.323 55.6865 146.604 55.6188 147.353 54.7953L150.062 51.8096C150.809 50.9861 150.741 49.7176 149.908 48.9781ZM113 63.989C113 68.2001 109.507 71.6084 105.191 71.6084C100.874 71.6084 97.3808 68.2001 97.3808 63.989C97.3808 59.778 100.874 56.3697 105.191 56.3697C109.507 56.3697 113 59.778 113 63.989ZM131.967 65.0775C131.967 68.6831 128.969 71.6084 125.273 71.6084C121.577 71.6084 118.579 68.6831 118.579 65.0775C118.579 61.4719 121.577 58.5467 125.273 58.5467C128.969 58.5467 131.967 61.4719 131.967 65.0775Z" fill="#1F363D"/>
<path d="M56.6645 475.658C87.9594 475.658 113.329 450.289 113.329 418.994C113.329 387.699 87.9594 362.329 56.6645 362.329C25.3695 362.329 0 387.699 0 418.994C0 450.289 25.3695 475.658 56.6645 475.658Z" fill="#40798C"/>
<path d="M12.714 386.983L25.6862 372.913L7.03461 368.719L12.714 386.983Z" fill="#40798C"/>
<path d="M63.518 414.126L50.9304 410.461C49.4735 410.044 48.4595 408.687 48.4595 407.179C48.4595 405.289 49.998 403.758 51.8978 403.758H59.6252C61.0471 403.758 62.4457 404.187 63.6113 404.976C64.3222 405.451 65.278 405.335 65.884 404.744L69.94 400.801C70.7676 400.001 70.651 398.667 69.7303 397.96C66.8747 395.733 63.3082 394.493 59.6485 394.481V388.915C59.6485 387.894 58.8093 387.059 57.7836 387.059H54.054C53.0283 387.059 52.1891 387.894 52.1891 388.915V394.481H51.8978C44.4734 394.481 38.5059 400.824 39.1936 408.351C39.6831 413.697 43.7857 418.045 48.9606 419.553L60.9072 423.032C62.3641 423.461 63.3782 424.806 63.3782 426.314C63.3782 428.204 61.8397 429.735 59.9399 429.735H52.2124C50.7905 429.735 49.3919 429.306 48.2264 428.517C47.5154 428.042 46.5597 428.158 45.9536 428.749L41.8976 432.692C41.07 433.492 41.1866 434.826 42.1074 435.533C44.9629 437.76 48.5294 439.001 52.1891 439.012V444.579C52.1891 445.599 53.0283 446.434 54.054 446.434H57.7836C58.8093 446.434 59.6485 445.599 59.6485 444.579V438.989C65.0798 438.885 70.1732 435.672 71.9681 430.558C74.4739 423.415 70.2664 416.086 63.518 414.126V414.126Z" fill="#F0CC67"/>
<path d="M74.5087 262.639L93.3321 257.248L91.8907 252.215L86.011 253.898L78.4767 227.588L73.866 228.908C72.2413 230.747 70.3142 232.168 67.3536 233.657L68.4559 237.506L74.124 235.883L79.7929 255.679L73.0673 257.605L74.5087 262.639ZM102.971 255.129C105.213 254.487 106.354 252.238 105.7 249.954C105.034 247.627 102.887 246.365 100.646 247.007C98.446 247.637 97.2929 249.844 97.9591 252.17C98.6132 254.455 100.772 255.759 102.971 255.129ZM111.524 252.039L132.504 246.031L131.002 240.786L124.234 242.724C122.754 243.148 120.73 243.911 119.213 244.528C123.325 237.309 126.276 229.873 124.652 224.205C122.981 218.368 117.957 215.687 112.035 217.383C107.763 218.607 105.443 221.056 103.451 224.967L107.804 227.382C108.915 225.188 110.352 223.174 112.636 222.52C115.64 221.66 117.877 223.079 118.785 226.252C120.166 231.074 116.816 238.395 110.494 248.444L111.524 252.039ZM146.374 242.7C152.338 240.992 156.415 236.209 154.767 230.456C153.592 226.353 150.134 224.506 146.345 224.538L146.284 224.327C149.208 222.071 150.409 219.072 149.44 215.688C147.913 210.358 142.95 208.53 136.901 210.262C133.221 211.316 130.642 213.657 128.613 216.801L132.876 219.699C134.24 217.432 135.769 215.896 138.01 215.254C140.675 214.491 142.61 215.493 143.313 217.946C144.112 220.738 142.82 223.259 137.067 224.906L138.339 229.348C145.15 227.398 147.526 228.823 148.398 231.868C149.209 234.702 147.5 236.885 144.328 237.794C141.494 238.605 138.81 237.863 136.428 236.578L134.636 241.347C137.55 243.213 141.424 244.117 146.374 242.7Z" fill="#70A9A1"/>
</svg>
