<svg width="120" height="120" viewBox="0 0 120 120" fill="none" xmlns="http://www.w3.org/2000/svg">
<circle cx="60" cy="60" r="60" fill="#70A9A1"/>
<path d="M88.6089 74.3928V59.1305C88.6075 45.6877 79.3541 34.4388 66.8775 31.3219C67.4105 30.265 67.7392 29.0884 67.7392 27.8261C67.7392 23.5106 64.2286 20 59.9131 20C55.5977 20 52.087 23.5106 52.087 27.8261C52.087 29.0886 52.4158 30.2648 52.9487 31.3219C40.4722 34.4388 31.2187 45.6877 31.2173 59.1305V74.3928C28.1845 75.4711 26.0011 78.3355 26 81.7392C26.0016 86.0623 29.503 89.5634 33.8261 89.565H47.132C48.3409 95.5189 53.6016 99.9986 59.9131 100C66.2244 99.9986 71.4852 95.5189 72.6942 89.565H86.0002C90.3233 89.5634 93.8247 86.0623 93.8262 81.7392C93.825 78.3355 91.6417 75.4711 88.6089 74.3928ZM59.9131 25.2173C61.35 25.2173 62.5219 26.3892 62.5219 27.8261C62.5219 29.263 61.35 30.4348 59.9131 30.4348C58.4762 30.4348 57.3044 29.263 57.3044 27.8261C57.3044 26.3892 58.4764 25.2173 59.9131 25.2173ZM46.8697 59.1305C46.8697 60.5711 45.7017 61.7392 44.2609 61.7392C42.8202 61.7392 41.6522 60.5713 41.6522 59.1305C41.657 49.0536 49.8362 40.8741 59.9131 40.8695C61.3537 40.8695 62.5219 42.0372 62.5219 43.4783C62.5219 44.9189 61.3539 46.087 59.9131 46.087V46.0867C52.7277 46.0997 46.8827 51.9448 46.8697 59.1305ZM59.9131 94.7828C56.5116 94.7766 53.65 92.5953 52.5697 89.565H67.2567C66.1762 92.5953 63.3147 94.7766 59.9131 94.7828Z" fill="white"/>
</svg>
