<svg width="120" height="120" viewBox="0 0 120 120" fill="none" xmlns="http://www.w3.org/2000/svg">
<circle cx="60" cy="60" r="60" fill="#9EC1A3"/>
<path d="M77.4998 30H87.4996C88.8821 30 89.9997 31.1199 89.9997 32.5V35.0001H74.9998V32.5C74.9998 31.1202 76.1171 30 77.4998 30Z" fill="white"/>
<path d="M25.0001 35H94.9999C97.7599 35 100 37.2401 100 40.0001V80.0001C100 82.7601 97.7599 85.0002 94.9999 85.0002H25.0001C22.2401 84.9999 20 82.7598 20 80.0001V40.0001C20 37.2401 22.2401 35 25.0001 35Z" fill="white"/>
<path d="M55.0001 31.5C70.7392 31.5 83.5 44.2608 83.5 59.9999C83.5 75.7389 70.7392 88.4997 55.0001 88.4997C39.261 88.4997 26.5002 75.7389 26.5002 59.9999C26.5002 44.2608 39.261 31.5 55.0001 31.5Z" fill="white" stroke="#9EC1A3" stroke-width="3"/>
<path d="M54.9998 39.0002C66.5987 39.0002 75.9998 48.401 75.9998 60.0002C75.9998 71.5969 66.5989 81.0002 54.9998 81.0002C43.4006 81.0002 33.9998 71.5994 33.9998 60.0002C33.9998 48.4035 43.4007 39.0002 54.9998 39.0002Z" fill="white" stroke="#9EC1A3" stroke-width="3"/>
<path d="M54.9997 45.0002C63.2846 45.0002 69.9996 51.7178 69.9996 60.0001C69.9996 68.2825 63.2846 75.0001 54.9997 75.0001C46.7171 75.0001 39.9998 68.2802 39.9998 60.0001C39.9998 51.7201 46.7171 45.0002 54.9997 45.0002Z" fill="#9EC1A3"/>
<path d="M61.2502 50C63.3202 50 65.0001 51.6801 65.0001 53.7499C65.0001 55.8222 63.32 57.4998 61.2502 57.4998C59.1804 57.4998 57.5002 55.8222 57.5002 53.7499C57.5002 51.6775 59.1801 50 61.2502 50Z" fill="white"/>
<path d="M91.2497 40.0002C93.3197 40.0002 94.9996 41.6777 94.9996 43.7501C94.9996 45.8224 93.3195 47.5 91.2497 47.5C89.1796 47.5 87.4998 45.8224 87.4998 43.7501C87.4998 41.6777 89.1799 40.0002 91.2497 40.0002Z" fill="#9EC1A3"/>
<path d="M80 30H77.5V35.0001H80V30Z" fill="white"/>
<path d="M84.9998 30H82.4998V35.0001H84.9998V30Z" fill="white"/>
<path d="M87.4998 30V35.0001H89.9998V32.5C89.9998 31.1202 88.8822 30 87.4998 30Z" fill="white"/>
</svg>
