<svg width="360" height="539" viewBox="0 0 360 539" fill="none" xmlns="http://www.w3.org/2000/svg">
<path d="M319.143 2.0976C319.044 2.0976 319.044 2.0976 319.143 2.0976L108.93 2.00049V2.0976C88.0177 2.0976 71.0508 18.8043 71.0508 39.3963C71.0508 57.2686 83.776 72.1299 100.842 75.8209L91.6676 96.4129L138.524 76.6951H319.044H319.143C340.056 76.6951 357.023 59.9883 357.023 39.3963C357.023 18.8043 340.056 2.0976 319.143 2.0976Z" stroke="#F0CC67" stroke-width="4" stroke-miterlimit="10" stroke-linecap="round" stroke-linejoin="round"/>
<path d="M127.674 38.0883C127.256 38.6383 126.64 39.2983 126.002 39.9143C125.826 39.0783 125.672 38.1983 125.562 37.3183C126.816 36.9443 128.026 36.5483 129.082 36.0863L127.08 34.2603C125.32 35.1403 122.504 35.9763 119.842 36.5483C120.436 35.8003 120.942 34.9423 121.426 33.9743H129.368V31.5983H122.438C122.702 30.8943 122.922 30.1683 123.076 29.4203L120.568 28.9363C120.084 31.0703 119.248 33.0943 118.082 34.6343V32.3683H114.166L115.64 31.8403C115.442 31.0483 114.98 29.8163 114.518 28.9143L112.252 29.6183C112.648 30.4543 113.022 31.5543 113.22 32.3683H109.458V34.7883H111.526V37.7803C111.526 40.7723 111.218 44.6223 108.908 48.0543C109.524 48.4063 110.36 49.0223 110.8 49.5063C113.088 46.2943 113.704 42.5543 113.836 39.2983H115.42C115.288 44.4463 115.112 46.3163 114.804 46.7783C114.628 47.0423 114.496 47.1083 114.188 47.1083C113.88 47.1083 113.286 47.1083 112.626 47.0423C112.956 47.6583 113.198 48.6043 113.242 49.2863C114.1 49.3083 114.892 49.3083 115.42 49.1983C116.014 49.1103 116.454 48.8903 116.85 48.2743C117.444 47.5043 117.62 44.9303 117.796 37.9563C117.796 37.6483 117.818 36.9223 117.818 36.9223H113.858V34.7883H117.95C117.708 35.0963 117.444 35.3603 117.18 35.6243C117.774 35.9543 118.808 36.7683 119.27 37.2083L119.358 37.1203V45.2163C119.358 46.3383 118.808 47.1083 118.368 47.5043C118.764 47.8783 119.446 48.8023 119.666 49.3303C120.128 48.9563 120.854 48.6043 124.858 46.9103C124.726 46.3603 124.594 45.2823 124.572 44.5563L121.866 45.6343V38.2203C122.35 38.1103 122.856 38.0223 123.318 37.9123C123.978 42.8183 125.166 46.8663 127.916 49.0663C128.29 48.3843 129.104 47.3943 129.676 46.9103C128.29 45.9203 127.322 44.2483 126.64 42.2463C127.564 41.5203 128.642 40.5963 129.522 39.7163L127.674 38.0883ZM138.52 35.8003C138.52 38.1763 138.322 41.7183 136.496 44.1603C136.98 44.4683 137.728 45.1943 138.058 45.6343C139.818 43.4343 140.39 40.3323 140.544 37.7583H141.886C141.732 41.9163 141.556 43.4123 141.292 43.8303C141.138 44.0503 140.984 44.1163 140.742 44.1163C140.456 44.1163 139.994 44.1163 139.466 44.0503C139.752 44.6223 139.972 45.5023 140.016 46.1403C140.764 46.1623 141.468 46.1403 141.908 46.0743C142.458 45.9643 142.854 45.7883 143.206 45.2603C143.734 44.5563 143.91 42.3783 144.108 36.5483C144.108 36.2623 144.13 35.6463 144.13 35.6463H140.588V33.9303H143.624L143.536 34.0403C143.954 34.3043 144.636 34.8323 145.076 35.2063V36.5263H148.068C147.716 36.9443 147.298 37.3403 146.902 37.6483V38.8803H144.46V40.9483H146.902V43.5883C146.902 43.8083 146.836 43.8743 146.572 43.8743C146.33 43.8743 145.516 43.8743 144.724 43.8523C145.054 44.4683 145.362 45.3703 145.428 46.0083C146.682 46.0083 147.606 45.9643 148.266 45.6123C148.992 45.2603 149.124 44.6663 149.124 43.6323V40.9483H151.676V38.8803H149.124V38.1543C150.004 37.3623 150.862 36.4383 151.566 35.5583L150.18 34.4803L149.762 34.6123H145.868C146.11 34.1943 146.352 33.7763 146.572 33.3143H151.72V31.1803H147.54C147.76 30.6083 147.98 30.0363 148.134 29.4643L145.956 28.8483C145.538 30.3223 144.944 31.8403 144.196 33.0503V31.7963H142.062L142.238 31.7523C142.084 30.9823 141.688 29.8163 141.358 28.9143L139.07 29.3323C139.334 30.0803 139.598 31.0483 139.774 31.7963H136.826V33.9303H138.52V35.8003ZM136.43 32.3243C135.88 31.4223 134.824 30.0363 133.922 28.9803L131.92 30.0803C132.778 31.1583 133.834 32.6983 134.34 33.6223L136.43 32.3243ZM136.034 39.3203L135.616 39.3863H134.428C135.528 37.8683 136.826 35.8003 137.596 34.5903L135.99 33.9303L135.66 34.0623H131.436V36.1523H134.164C133.416 37.3183 132.602 38.5283 132.228 38.9023C131.832 39.3423 131.48 39.5183 131.106 39.6063C131.348 40.0903 131.832 41.1903 131.964 41.7403C132.14 41.5643 132.8 41.4103 133.306 41.4103H134.582C133.966 44.3583 132.756 46.5583 130.952 47.8343C131.436 48.1643 132.316 49.0443 132.646 49.5723C133.636 48.8023 134.516 47.7243 135.242 46.3603C136.914 48.6923 139.488 49.1323 143.558 49.1323C146.132 49.1323 148.926 49.0663 151.214 48.9343C151.346 48.2083 151.676 47.0423 152.05 46.5143C149.564 46.7563 145.956 46.8883 143.602 46.8883C139.906 46.8663 137.42 46.5583 136.144 44.1603C136.584 42.8843 136.914 41.4103 137.134 39.7823L136.034 39.3203ZM158.012 29.0463C156.912 32.1703 154.998 35.2943 152.996 37.2743C153.458 37.9343 154.206 39.4303 154.448 40.0683C154.888 39.5843 155.35 39.0343 155.812 38.4843V49.4843H158.452V34.4143C159.266 32.9403 159.992 31.3783 160.564 29.8383L158.012 29.0463ZM168.132 46.3383V41.9163H172.884V39.4523H168.132V35.5803H173.5V33.0943H166.35L168.616 32.2803C168.308 31.3343 167.538 29.9043 166.878 28.8703L164.458 29.6843C165.096 30.7623 165.756 32.1703 166.02 33.0943H160.102V35.5803H165.47V39.4523H160.828V41.9163H165.47V46.3383H159.618V48.8243H173.808V46.3383H168.132ZM178.648 33.0283H192.2V34.4583H194.884V30.8283H187.184C186.898 30.1463 186.568 29.3763 186.26 28.7603L183.466 29.5303C183.642 29.9043 183.84 30.3663 183.994 30.8283H176.096V34.9643H178.648V33.0283ZM180.122 33.6003C179 36.1743 177.042 38.6823 174.974 40.2443C175.436 40.8163 176.206 42.1143 176.47 42.6863C177.042 42.2243 177.592 41.6963 178.142 41.1023V49.5283H180.628V37.9123C181.376 36.7903 182.014 35.6023 182.564 34.4143L180.122 33.6003ZM191.628 42.5323H185.578V40.9043H191.628V42.5323ZM185.578 46.3823V44.6443H191.628V46.3823H185.578ZM195.214 37.1643V34.8543H182.432V37.1643H187.03C186.942 37.6703 186.832 38.1763 186.722 38.6823H183.092V49.5283H185.578V48.6043H191.628V49.4183H194.224V38.6823H189.406C189.604 38.1983 189.78 37.6923 189.978 37.1643H195.214ZM213.694 35.1843C213.364 35.8443 212.968 36.5263 212.484 37.1863L210.152 37.3183C210.724 36.2403 211.428 34.9863 212 33.9303H217.566V31.5543H213.54C213.364 30.7403 212.902 29.6623 212.484 28.8043L210.196 29.5083C210.46 30.1243 210.746 30.8723 210.944 31.5543H206.126V33.9303H209.448C208.854 35.0523 208.062 36.4603 207.732 36.8343C207.402 37.2743 206.72 37.4503 206.214 37.5383C206.39 38.1103 206.632 39.2543 206.72 39.8483C207.138 39.6723 207.776 39.5403 210.614 39.3203C209.206 40.6843 207.49 41.8943 205.642 42.7303C206.038 43.1923 206.698 44.0283 206.984 44.5563C210.878 42.6643 214.09 39.4083 215.982 35.9103L213.694 35.1843ZM205.752 32.5883H201.66L203.046 31.7963C202.716 30.9823 202.078 29.7723 201.506 28.8703L199.592 29.8163C200.076 30.6523 200.604 31.7523 200.934 32.5883H197.326V34.6563H205.752V32.5883ZM204.828 37.6263V35.6463H198.228V37.6263H204.828ZM204.872 38.5943H198.228V40.5743H204.872V38.5943ZM202.76 46.1843H200.428V43.7203H202.76V46.1843ZM214.948 39.3863C213.298 42.7743 209.602 45.8323 204.894 47.4163V41.6303H198.25V49.2203H200.428V48.2963H204.894V48.0543C205.268 48.5383 205.686 49.1543 205.906 49.5503C208.348 48.7143 210.548 47.5043 212.44 46.0303C213.694 47.2183 215.036 48.5603 215.718 49.4843L217.786 47.8783C216.994 46.9323 215.52 45.5683 214.222 44.4683C215.498 43.1703 216.598 41.7403 217.434 40.2223L214.948 39.3863ZM226.916 33.3803V41.7623H228.324L227.554 42.5103C228.72 43.4563 230.37 44.7983 231.118 45.6123L232.834 43.7863C232.108 43.0823 230.656 42.0043 229.556 41.1683V40.1343H238.29V38.0003H229.556V36.6803H237.696V34.6343H229.556V33.3803H238.95V31.1363H226.124C226.322 30.6083 226.52 30.0583 226.696 29.5303L224.034 28.9143C223.198 31.8183 221.548 34.5463 219.524 36.2183C220.162 36.6363 221.24 37.5603 221.68 38.0443C222.934 36.8563 224.122 35.2283 225.09 33.3803H226.916ZM221.878 48.6923C222.538 47.1963 223.198 44.9523 223.66 43.3023L221.35 42.3783C220.932 44.0723 220.162 46.1403 219.414 47.5703L221.878 48.6923ZM239.874 47.7903C239.346 46.2943 238.202 43.9403 237.322 42.1363L234.858 42.8183C235.232 43.6983 235.672 44.7103 236.09 45.7003C235.364 45.5463 234.286 45.1723 233.736 44.7763C233.626 46.5583 233.428 46.8443 232.372 46.8443H228.434C227.114 46.8443 226.872 46.7343 226.872 46.0743V42.6643H224.276V46.1183C224.276 48.4283 225.068 49.1763 228.214 49.1763H232.57C234.968 49.1763 235.782 48.4723 236.112 45.7443C236.552 46.8223 236.948 47.8783 237.19 48.6263L239.874 47.7903ZM260.422 39.6503C260.158 39.6503 260.136 39.5183 260.136 39.1663V36.9443H258.662V39.1443C258.662 40.2443 258.86 40.7503 260.004 40.7503H260.774C261.104 40.7503 261.478 40.7283 261.676 40.6623C261.632 40.3103 261.61 39.8923 261.588 39.5623C261.368 39.6283 260.95 39.6503 260.73 39.6503H260.422ZM258.09 40.9263V36.2843H261.214V34.3263H258.09V33.3143H256.132V34.3263H253.492V36.2843H256.132V40.9263H258.09ZM261.368 32.8523V30.5863H253.866C253.712 30.0143 253.492 29.3323 253.272 28.7823L250.632 29.2663C250.742 29.6403 250.874 30.1243 250.984 30.5863H242.734V36.6363C242.734 39.9143 242.624 44.6223 241.194 47.9003C241.722 48.1423 242.844 48.9783 243.284 49.4403C244.912 45.8763 245.22 40.2223 245.22 36.6363V32.8523H261.368ZM250.258 40.8823V36.2843H252.92V34.3263H250.258V33.3143H248.3V34.3263H245.902V36.2843H248.3V40.8823H250.258ZM247.706 36.9663H246.276V37.8243C246.276 38.5723 246.144 39.6723 245.308 40.2883C245.682 40.4863 246.298 40.9923 246.562 41.3003C247.552 40.3543 247.706 39.0123 247.706 37.8903V36.9663ZM255.868 44.8203C256.242 45.2823 256.682 45.7883 257.1 46.2943L250.962 46.7343C253.316 45.5903 255.758 44.1823 258.024 42.5323L256.088 41.2343C255.186 41.9823 254.174 42.6643 253.162 43.3023L249.884 43.4563C251.072 42.8403 252.304 42.0703 253.36 41.2783L252.018 40.4203H252.04H252.436C252.722 40.4203 253.03 40.3983 253.206 40.3323L253.184 40.1123C253.558 40.3323 254.086 40.7503 254.328 41.0583C255.34 40.1563 255.494 38.8803 255.494 37.8243V36.9223H254.064V37.7583C254.064 38.4403 253.932 39.3643 253.184 39.9803C253.162 39.7383 253.162 39.5183 253.14 39.2983C252.942 39.3643 252.612 39.3643 252.436 39.3643C252.216 39.3643 252.194 39.2543 252.194 38.9243V37.0543H250.808V38.9023C250.808 39.6723 250.918 40.1123 251.402 40.3103C250.06 41.4983 248.278 42.5103 247.706 42.7743C247.178 43.0823 246.716 43.2803 246.276 43.3243C246.496 43.8743 246.782 44.8643 246.87 45.2603C247.222 45.1283 247.75 45.0183 250.588 44.8423C249.51 45.4583 248.586 45.8983 248.102 46.0963C246.98 46.6463 246.232 46.9543 245.484 47.0643C245.704 47.6583 246.012 48.7363 246.1 49.1543C246.892 48.8903 248.124 48.8683 258.464 48.1203C258.794 48.5383 259.08 48.9563 259.3 49.2863L261.302 48.2083C260.488 47.0863 258.882 45.2163 257.738 43.9403L255.868 44.8203ZM283.478 39.5843H274.832V32.9183H282.202V30.3223H264.69V32.9183H272.104V39.5843H263.546V42.2243H272.104V49.5063H274.832V42.2243H283.478V39.5843ZM266.032 34.3263C266.736 35.8003 267.418 37.7143 267.638 38.9023L270.19 38.1103C269.948 36.8783 269.156 35.0303 268.43 33.6223L266.032 34.3263ZM278.88 38.8583C279.628 37.7363 280.508 35.9543 281.3 34.2603L278.506 33.5563C278.088 34.9863 277.296 36.9223 276.592 38.1983L278.88 38.8583ZM294.258 29.2883V31.7303H297.756C298.526 33.5783 299.648 35.4263 301.078 36.9883H289.682C291.112 35.1183 292.322 32.8303 293.136 30.3663L290.386 29.7063C289.374 33.0063 287.416 35.9543 284.93 37.7363C285.546 38.1763 286.668 39.1443 287.13 39.6723C287.702 39.1883 288.252 38.6823 288.78 38.0883V39.5403H292.498C292.058 42.7303 290.914 45.6343 285.942 47.2403C286.58 47.8343 287.35 48.9123 287.68 49.6603C293.378 47.5263 294.808 43.7643 295.358 39.5403H299.692C299.494 44.1163 299.252 46.0743 298.812 46.5583C298.592 46.8223 298.328 46.8663 297.932 46.8663C297.382 46.8663 296.238 46.8443 295.028 46.7563C295.49 47.5043 295.842 48.6043 295.886 49.3963C297.184 49.4403 298.46 49.4403 299.208 49.3303C300.066 49.2203 300.66 49.0003 301.21 48.2743C301.98 47.3723 302.244 44.8423 302.486 38.3523C303.014 38.8143 303.586 39.2543 304.158 39.6283C304.576 38.8803 305.478 37.7583 306.006 37.2083C302.948 35.6243 300.704 32.5003 299.692 29.2883H294.258ZM315.796 41.9383H318.634C318.304 38.8803 323.1 38.5063 323.1 35.2723C323.1 32.3463 320.768 30.8723 317.578 30.8723C315.224 30.8723 313.288 31.9283 311.902 33.5563L313.706 35.2283C314.784 34.0843 315.862 33.4903 317.226 33.4903C318.942 33.4903 319.998 34.2383 319.998 35.5583C319.998 37.6923 315.334 38.4843 315.796 41.9383ZM317.226 47.7903C318.348 47.7903 319.162 46.9983 319.162 45.8543C319.162 44.6883 318.348 43.8963 317.226 43.8963C316.126 43.8963 315.29 44.6883 315.29 45.8543C315.29 46.9983 316.104 47.7903 317.226 47.7903Z" fill="#40798C"/>
<path d="M275.463 486.999L273.808 478.787H240.511H217.147L213.964 486.999L199.894 523.797H229.434H282.911L275.463 486.999Z" fill="white" stroke="#D2D5DA" stroke-width="3" stroke-miterlimit="10" stroke-linecap="round" stroke-linejoin="round"/>
<path d="M199.894 523.796L213.963 486.999H178.566L156.602 523.796L148.899 536.71H194.928H226.25L229.433 523.796H199.894Z" fill="white" stroke="#D2D5DA" stroke-width="3" stroke-miterlimit="10" stroke-linecap="round" stroke-linejoin="round"/>
<path d="M77.8096 471.214L22.8042 507.698H31.5261H100.665L123.647 476.981L127.977 471.214H77.8096ZM98.8186 504.125H78.1279L79.1465 502.808C79.2739 501.492 76.791 501.304 74.1171 501.304H58.0102C55.3363 501.304 53.2991 501.805 50.9435 503.247L49.4156 504.187H34.6456L78.9556 474.85H120.91L98.8186 504.125Z" fill="white" stroke="#D2D5DA" stroke-width="3" stroke-miterlimit="10" stroke-linecap="round" stroke-linejoin="round"/>
<path d="M101.301 512.587L100.664 513.465C100.919 513.152 101.11 512.901 101.301 512.587Z" stroke="#1F363D" stroke-width="3" stroke-miterlimit="10" stroke-linecap="round" stroke-linejoin="round"/>
<path d="M100.664 507.698H31.5257H22.8037C22.8037 507.698 20.3845 509.265 22.8037 513.465H100.664L101.301 512.587C102.765 510.08 100.664 507.698 100.664 507.698Z" fill="#D2D5DA" stroke="#D2D5DA" stroke-width="3" stroke-miterlimit="10" stroke-linecap="round" stroke-linejoin="round"/>
<path d="M127.976 471.214L123.647 476.981L100.664 507.698C100.664 507.698 102.765 510.143 101.301 512.587L127.976 476.981C127.976 476.981 130.459 474.16 127.976 471.214Z" fill="#1F363D" stroke="#1F363D" stroke-width="3" stroke-miterlimit="10" stroke-linecap="round" stroke-linejoin="round"/>
<path d="M34.6455 504.124H49.4155L50.9434 503.184C53.2353 501.742 55.3362 501.241 58.0101 501.241H74.117C76.7909 501.241 79.2738 501.492 79.1464 502.745L78.1278 504.062H98.8185L120.846 474.724H78.8918L34.6455 504.124Z" fill="#1F363D" stroke="white" stroke-width="3" stroke-miterlimit="10" stroke-linecap="round" stroke-linejoin="round"/>
<path d="M191.999 341.126C230.606 341.126 261.902 310.31 261.902 272.295C261.902 234.281 230.606 203.465 191.999 203.465C153.393 203.465 122.097 234.281 122.097 272.295C122.097 310.31 153.393 341.126 191.999 341.126Z" fill="#1F363D"/>
<path d="M312.261 433.088L188.562 455.53L125.28 292.293L259.42 254.116L312.261 433.088Z" fill="#1F363D"/>
<path d="M344.347 426.569C344.092 423.811 343.774 420.99 343.455 418.169C336.962 367.706 314.552 328.965 293.416 331.66C274.317 334.043 262.794 369.586 265.658 413.718C265.977 418.294 266.422 422.996 266.995 427.76C267.123 428.888 267.314 430.017 267.441 431.145C269.606 445.939 273.107 459.668 277.5 471.516H339.445C342.819 469.322 343.837 465.811 343.901 462.301C344.028 462.426 344.156 462.614 344.347 462.739C345.493 451.769 345.493 439.482 344.347 426.569ZM343.392 457.16C343.392 457.098 343.328 457.035 343.328 456.972C343.328 457.035 343.328 457.098 343.392 457.16ZM343.137 456.283C343.137 456.22 343.073 456.157 343.073 456.032C343.137 456.095 343.137 456.157 343.137 456.283ZM342.946 455.342C342.946 455.28 342.946 455.217 342.882 455.154C342.882 455.217 342.882 455.28 342.946 455.342ZM342.373 453.65C342.373 453.587 342.31 453.524 342.31 453.524C342.373 453.524 342.373 453.587 342.373 453.65ZM342.118 452.96C342.118 452.898 342.055 452.835 342.055 452.772C342.118 452.835 342.118 452.898 342.118 452.96ZM341.928 452.333C341.928 452.271 341.928 452.271 341.864 452.208C341.864 452.271 341.928 452.333 341.928 452.333ZM341.482 451.33C341.482 451.268 341.482 451.268 341.418 451.268C341.482 451.268 341.482 451.33 341.482 451.33ZM341.355 451.017V450.954C341.355 451.017 341.355 451.017 341.355 451.017ZM343.965 461.11C343.965 461.172 343.965 461.298 343.965 461.36C343.965 461.298 343.965 461.172 343.965 461.11ZM343.71 459.104C343.71 459.166 343.71 459.229 343.71 459.292C343.774 459.229 343.71 459.166 343.71 459.104ZM343.837 460.044C343.837 460.107 343.837 460.232 343.837 460.295C343.837 460.232 343.837 460.169 343.837 460.044Z" fill="#CFE0C3"/>
<path d="M155.942 433.877C207.14 416.534 242.012 383.493 233.831 360.077C225.65 336.661 177.515 331.738 126.317 349.081C75.1188 366.423 40.2466 399.465 48.4275 422.881C56.6084 446.296 104.744 451.22 155.942 433.877Z" fill="#CFE0C3"/>
<path d="M199.13 344.448C191.554 366.076 220.839 395.977 265.659 413.718C262.794 369.586 274.317 334.042 293.416 331.66C295.58 331.41 297.745 331.535 299.91 332.099C299.91 332.099 299.91 332.036 299.846 332.036C251.525 316.803 207.024 322.069 199.13 344.448Z" fill="#CFE0C3"/>
<path d="M151.318 386.763V471.578H339.508L315.634 370.777L151.318 386.763Z" fill="#CFE0C3"/>
<path d="M341.227 450.766C322.51 424.814 291.506 424.563 267.441 431.145C252.671 435.22 240.575 441.802 235.673 446.691C229.179 453.086 233.508 458.915 235.927 463.492C238.347 468.068 238.92 471.516 238.92 471.516H277.563H339.508C348.421 465.748 341.227 450.766 341.227 450.766Z" fill="#F2DFD7"/>
<path d="M224.203 349.495C237.171 344.047 245.582 334.778 242.988 328.791C240.394 322.804 227.778 322.367 214.81 327.815C201.841 333.262 193.431 342.532 196.025 348.519C198.618 354.506 211.234 354.943 224.203 349.495Z" fill="#ECB1A9"/>
<path d="M227.477 293.075L180.572 312.778L196.061 348.527L242.966 328.824L227.477 293.075Z" fill="#ECB1A9"/>
<path d="M238.605 475.711L238.605 475.71L247.709 432.331C247.709 432.331 247.709 432.331 247.709 432.331C247.913 431.362 248.938 430.637 250.084 430.861C251.11 431.072 251.799 432.09 251.584 433.162C251.584 433.163 251.583 433.164 251.583 433.166L242.481 476.473L242.481 476.473L242.479 476.483C242.331 477.213 241.549 479.273 240.531 481.141C240.028 482.064 239.519 482.842 239.07 483.346C239.044 483.375 239.019 483.402 238.995 483.428C238.987 483.402 238.978 483.376 238.969 483.349C238.766 482.707 238.616 481.787 238.528 480.739C238.351 478.615 238.457 476.414 238.605 475.711ZM238.574 483.789C238.574 483.789 238.575 483.788 238.577 483.787C238.575 483.788 238.574 483.789 238.574 483.789ZM239.229 483.938C239.231 483.94 239.232 483.941 239.232 483.941C239.232 483.941 239.231 483.94 239.229 483.938Z" fill="white" stroke="#D2D5DA" stroke-width="3"/>
<path d="M241.211 447.005C241.211 447.005 243.631 449.7 241.721 452.96" stroke="#ECB1A9" stroke-width="3" stroke-miterlimit="10" stroke-linecap="round" stroke-linejoin="round"/>
<path d="M102.106 207.422C91.0231 208.52 81.3495 220.652 77.0113 229.846C75.7173 232.629 74.9448 236.782 78.1577 238.705C79.5577 239.568 81.3171 239.423 82.9248 239.148C92.4843 237.477 100.875 230.375 103.934 221.266C104.048 220.837 104.216 220.376 104.045 219.966C103.144 217.216 96.0589 223.781 95.067 224.718C92.0685 227.614 88.1521 231.694 87.4989 235.924C87.3496 236.664 87.3747 237.449 87.6515 238.161C88.025 239.036 88.87 239.71 89.7282 240.16C92.2931 241.367 95.3988 240.88 97.8696 239.453C100.285 238.057 102.163 235.881 103.867 233.661C104.364 233.01 104.898 232.048 104.479 231.345C102.491 228.133 96.5938 237.064 96.0566 238.392C95.6651 239.345 95.3928 240.375 95.6888 241.367C95.9943 242.499 97.1329 243.294 98.3432 243.467C100.938 243.858 102.854 242.242 103.999 240.199C104.176 239.878 104.377 239.472 104.239 239.116C104.026 238.512 103.055 238.492 102.483 238.895C99.6694 240.738 102.268 244.107 104.921 244.1C106.319 244.092 107.646 243.47 108.725 242.556" stroke="#1F363D" stroke-width="3" stroke-miterlimit="10" stroke-linecap="round" stroke-linejoin="round"/>
<path d="M235.672 281.385C235.672 247.973 210.78 220.955 180.094 220.955C149.408 220.955 124.516 248.035 124.516 281.385C124.516 292.982 127.571 304.579 133.62 314.609C138.776 323.135 146.607 332.099 152.591 336.048C161.313 341.878 174.492 342.693 179.839 342.254C211.098 339.622 235.672 314.359 235.672 281.385Z" fill="#F2DFD7"/>
<path d="M241.912 261.89C241.912 254.304 237.774 248.161 232.681 248.161C227.588 248.161 221.412 250.481 221.412 258.066C221.412 265.651 227.588 275.618 232.681 275.618C237.774 275.618 241.912 269.475 241.912 261.89Z" fill="#F2DFD7"/>
<path d="M192.573 253.113C192.318 255.683 189.899 257.564 187.161 257.313C185.761 257.188 184.615 256.561 183.787 255.621" stroke="#1F363D" stroke-width="3" stroke-miterlimit="10" stroke-linecap="round" stroke-linejoin="round"/>
<path d="M141.196 292.731L157.239 300.316" stroke="#1F363D" stroke-width="3" stroke-miterlimit="10" stroke-linecap="round" stroke-linejoin="round"/>
<path d="M152.783 288.719L145.08 304.579" stroke="#1F363D" stroke-width="3" stroke-miterlimit="10" stroke-linecap="round" stroke-linejoin="round"/>
<path d="M188.752 276.182L204.796 283.767" stroke="#1F363D" stroke-width="3" stroke-miterlimit="10" stroke-linecap="round" stroke-linejoin="round"/>
<path d="M200.339 272.17L192.636 287.967" stroke="#1F363D" stroke-width="3" stroke-miterlimit="10" stroke-linecap="round" stroke-linejoin="round"/>
<path d="M184.869 315.048C186.276 315.048 187.416 313.954 187.416 312.603C187.416 311.253 186.276 310.159 184.869 310.159C183.463 310.159 182.323 311.253 182.323 312.603C182.323 313.954 183.463 315.048 184.869 315.048Z" stroke="#E07D5C" stroke-width="3" stroke-miterlimit="10" stroke-linecap="round" stroke-linejoin="round"/>
<path d="M181.686 232.426C181.686 232.426 166.407 266.027 125.153 291.603C125.153 291.603 111.401 246.468 148.072 224.904C184.742 203.339 229.179 220.892 232.681 248.224C232.681 248.224 222.431 249.665 221.412 258.128C221.412 258.065 183.278 243.898 181.686 232.426Z" fill="#1F363D"/>
<path d="M130.054 260.949C106.944 251.985 72.5661 284.081 53.2124 332.538C33.8586 380.995 36.9145 427.572 60.0244 436.473C60.4063 436.599 60.7883 436.724 61.1067 436.849C61.2976 436.473 61.4887 436.097 61.6796 435.721C62.3163 434.342 63.0166 432.963 63.6532 431.646C64.7355 429.39 65.8178 427.196 66.9001 424.939C68.3643 421.992 69.7649 418.983 71.2292 416.037C72.9481 412.464 74.7307 408.891 76.4496 405.318C78.4232 401.243 80.3968 397.168 82.3703 393.156C84.5349 388.768 86.6358 384.317 88.8004 379.929C91.0286 375.29 93.3205 370.652 95.5487 366.013C97.8406 361.311 100.132 356.547 102.424 351.845C104.716 347.144 107.008 342.505 109.236 337.803C111.465 333.29 113.629 328.777 115.857 324.263C117.895 320.063 119.996 315.8 122.033 311.6C123.879 307.776 125.725 304.015 127.572 300.191C129.163 296.931 130.755 293.734 132.283 290.475C133.556 287.904 134.766 285.397 136.039 282.827C136.866 281.072 137.758 279.379 138.585 277.624C140.05 274.552 140.495 271.104 138.967 267.782C138.076 265.901 137.248 264.647 135.466 263.519C133.811 262.391 131.901 261.638 130.054 260.949Z" fill="#F2DFD7"/>
<path d="M108.664 282.137C108.664 282.137 117.386 265.274 135.53 270.916" stroke="#ECB1A9" stroke-width="3" stroke-miterlimit="10" stroke-linecap="round" stroke-linejoin="round"/>
<path d="M254.772 446.942C254.772 446.942 237.137 449.575 236.691 465.372C236.246 481.107 247.45 472.644 247.45 472.644C247.45 472.644 254.963 476.844 270.56 470.889" fill="#F2DFD7"/>
<path d="M254.772 446.942C254.772 446.942 237.137 449.575 236.691 465.372C236.246 481.107 247.45 472.644 247.45 472.644C247.45 472.644 254.963 476.844 270.56 470.889" stroke="#ECB1A9" stroke-width="3" stroke-miterlimit="10" stroke-linecap="round" stroke-linejoin="round"/>
<path d="M234.53 302.806C234.53 302.806 219.962 401.738 284.681 394.436C284.681 394.436 295.865 391.094 288.858 385.84C281.852 380.586 275.679 377.531 274.894 356.663C274.186 335.785 259.257 309.956 259.002 291.94L234.53 302.806Z" fill="#20363D"/>
<path d="M279.192 223.947C279.192 204.366 295.312 188.493 315.198 188.493C335.083 188.493 351.203 204.366 351.203 223.947C351.203 243.527 335.083 259.4 315.198 259.4C295.312 259.4 279.192 243.527 279.192 223.947Z" fill="#F0CC67"/>
<path d="M294.857 251.445L285.918 243.329L283.252 254.999L294.857 251.445Z" fill="#F0CC67"/>
<path fill-rule="evenodd" clip-rule="evenodd" d="M315.484 209.623L297.903 224.739C297.825 224.808 297.734 224.855 297.643 224.901C297.582 224.933 297.521 224.964 297.463 225.002V239.506C297.463 240.199 298.039 240.761 298.75 240.761H301.306V239.562C301.306 236.855 303.592 234.659 306.41 234.659H306.778C307.704 235.084 308.723 235.34 309.813 235.34C310.903 235.34 311.926 235.084 312.848 234.659H313.216C316.034 234.659 318.32 236.855 318.32 239.562V240.761H319.738V239.562C319.738 237.919 319.06 236.434 317.979 235.314C318.71 234.91 319.543 234.659 320.447 234.659H320.615C321.231 234.863 321.882 234.999 322.573 234.999C323.265 234.999 323.916 234.863 324.532 234.659H324.7C327.443 234.659 329.663 236.791 329.663 239.426C329.663 239.936 329.468 240.403 329.146 240.761H332.218C332.929 240.761 333.505 240.199 333.505 239.506V225.005C333.449 224.968 333.389 224.938 333.329 224.907C333.242 224.863 333.155 224.818 333.082 224.754L315.484 209.623ZM338.227 219.138L333.505 215.073V204.372C333.505 203.679 332.929 203.117 332.218 203.117H327.069C326.358 203.117 325.782 203.679 325.782 204.372V208.426L317.636 201.416C317.022 200.878 316.253 200.608 315.484 200.607C314.715 200.607 313.947 200.875 313.336 201.413L292.742 219.138C292.213 219.601 292.169 220.394 292.644 220.91L294.366 222.778C294.84 223.293 295.655 223.336 296.184 222.873L314.633 207.009C315.12 206.591 315.849 206.591 316.336 207.009L334.785 222.872C335.313 223.335 336.128 223.292 336.603 222.777L338.325 220.909C338.799 220.394 338.756 219.6 338.227 219.138ZM314.775 228.529C314.775 231.164 312.555 233.297 309.813 233.297C307.07 233.297 304.85 231.164 304.85 228.529C304.85 225.895 307.07 223.762 309.813 223.762C312.555 223.762 314.775 225.895 314.775 228.529ZM326.827 229.21C326.827 231.466 324.922 233.297 322.573 233.297C320.225 233.297 318.32 231.466 318.32 229.21C318.32 226.955 320.225 225.124 322.573 225.124C324.922 225.124 326.827 226.955 326.827 229.21Z" fill="#1F363D"/>
<path d="M25.4164 285.451L35.6956 282.552L34.898 279.81L31.6872 280.715L27.5185 266.381L25.0007 267.091C24.1161 268.089 23.0654 268.859 21.4499 269.663L22.0598 271.76L25.1551 270.888L28.2916 281.673L24.6188 282.708L25.4164 285.451ZM40.9606 281.417C42.1848 281.072 42.8042 279.85 42.4423 278.605C42.0737 277.338 40.898 276.647 39.6738 276.992C38.4726 277.331 37.8465 278.53 38.2151 279.797C38.577 281.042 39.7594 281.756 40.9606 281.417ZM45.6297 279.751L57.0869 276.521L56.2559 273.663L52.56 274.705C51.7515 274.933 50.6465 275.345 49.8186 275.678C52.0523 271.756 53.6513 267.715 52.7532 264.627C51.8283 261.447 49.0769 259.978 45.843 260.89C43.51 261.548 42.2468 262.877 41.1653 265.002L43.5494 266.324C44.1524 265.132 44.9342 264.039 46.1815 263.687C47.8216 263.225 49.0471 264.001 49.5498 265.73C50.3138 268.357 48.4966 272.335 45.06 277.792L45.6297 279.751ZM64.6619 274.734C67.9189 273.816 70.1382 271.22 69.2267 268.086C68.5766 265.85 66.6828 264.838 64.6114 264.849L64.5779 264.734C66.1718 263.511 66.8226 261.882 66.2864 260.038C65.442 257.134 62.7255 256.13 59.4223 257.061C57.4127 257.628 56.0072 258.897 54.9041 260.604L57.2398 262.19C57.9814 260.958 58.8138 260.125 60.038 259.78C61.4933 259.37 62.5527 259.919 62.9415 261.255C63.3838 262.776 62.6824 264.146 59.5409 265.032L60.2446 267.452C63.9636 266.403 65.2652 267.183 65.7477 268.842C66.1968 270.386 65.2667 271.571 63.5342 272.06C61.9866 272.496 60.5181 272.087 59.2135 271.383L58.2429 273.976C59.8395 274.997 61.9593 275.496 64.6619 274.734Z" fill="#70A9A1"/>
<path d="M330.085 138.006L299.854 130.131L298.701 134.423L328.932 142.298L330.085 138.006ZM297.171 140.117L296.018 144.409L326.249 152.284L327.402 147.992L297.171 140.117Z" fill="#1F363D"/>
<path d="M275.247 155.238C275.247 135.568 259.046 119.599 239.092 119.53H38.2938V119.599H38.2243C18.2696 119.599 2 135.568 2 155.307C2 175.046 18.2001 191.015 38.2243 191.015H38.2938H210.794L255.57 209.863L246.81 190.124C263.079 186.629 275.247 172.304 275.247 155.238Z" stroke="#40798C" stroke-width="4" stroke-miterlimit="10" stroke-linecap="round" stroke-linejoin="round"/>
<path d="M69.3334 148.179C68.2774 151.677 66.6054 154.427 64.4274 156.583C62.2494 154.295 60.6874 151.435 59.6314 148.179H69.3334ZM70.7634 145.451L70.3234 145.583H55.5174V148.179H57.5634L56.9474 148.355C58.2234 152.359 59.9174 155.725 62.3154 158.387C59.9394 160.125 57.1454 161.313 54.0434 162.127C54.6154 162.655 55.4294 163.931 55.6934 164.591C58.8834 163.667 61.7654 162.281 64.2734 160.301C66.5834 162.259 69.4434 163.711 72.9634 164.635C73.3594 163.931 74.1514 162.743 74.7454 162.215C71.4234 161.423 68.6514 160.147 66.4074 158.365C69.2894 155.417 71.4234 151.435 72.5894 146.287L70.7634 145.451ZM88.0554 149.477C88.5834 148.949 89.1114 148.333 89.5954 147.629H92.1474L90.9814 148.113C91.3774 148.509 91.7954 149.037 92.0814 149.477H88.0554ZM88.8914 159.267H84.2714V157.925H88.8914V159.267ZM81.5874 155.549H91.3554V156.363H81.5874V155.549ZM81.5874 153.261H91.3554V154.075H81.5874V153.261ZM81.5874 151.039H91.3554V151.809H81.5874V151.039ZM86.4274 147.651C86.1414 147.959 85.8334 148.245 85.5034 148.487C86.0094 148.707 86.8234 149.125 87.4174 149.477H82.8414L84.3594 148.949C84.1834 148.575 83.8754 148.069 83.5674 147.651H86.4274ZM96.2834 145.737H90.7174C90.8714 145.429 91.0254 145.099 91.1574 144.769L88.6494 144.175C88.1874 145.407 87.3954 146.639 86.4714 147.607V145.759H81.2354C81.3894 145.473 81.5214 145.209 81.6534 144.923L79.2774 144.175C78.5074 145.869 77.1874 147.541 75.8014 148.619C76.3074 149.103 77.1434 150.159 77.4954 150.665C78.3534 149.895 79.2774 148.817 80.0914 147.651H82.7534L81.2354 148.179C81.5214 148.553 81.8294 149.081 82.0054 149.477H78.9474V157.925H81.6314V159.267H76.3954V161.335H80.8394C80.2014 161.995 78.9914 162.589 76.8794 163.029C77.4514 163.513 78.1774 164.393 78.5074 164.943C81.8514 164.041 83.3474 162.743 83.9414 161.335H88.8914V164.855H91.5974V161.335H96.2394V159.267H91.5974V157.925H94.1274V149.477H93.1374L94.3914 148.927C94.1494 148.553 93.7534 148.047 93.3354 147.629H96.2834V145.737ZM100.947 149.873C101.519 149.213 102.069 148.531 102.553 147.783C103.587 148.421 104.621 149.169 105.413 149.873H100.947ZM103.609 161.005V155.879H106.249V153.657H103.609V152.051H105.523V149.983C105.721 150.159 105.919 150.335 106.073 150.489L107.151 148.355C106.359 147.629 105.083 146.683 103.719 145.913C103.873 145.627 104.005 145.363 104.137 145.099L102.201 144.219C101.211 146.221 99.4734 148.135 97.8454 149.323C98.1534 149.983 98.6154 151.435 98.7474 152.007C99.0994 151.721 99.4734 151.391 99.8254 151.061V152.051H101.475V153.657H98.5494V155.879H101.475V161.379C100.265 161.577 99.1654 161.775 98.2634 161.907L98.7474 164.261C100.903 163.777 103.741 163.205 106.403 162.589L106.271 160.521L103.609 161.005ZM98.7254 157.133C99.0334 158.321 99.3634 159.883 99.4294 160.939L101.123 160.433C101.013 159.443 100.683 157.859 100.309 156.693L98.7254 157.133ZM105.281 160.653C105.611 159.707 106.007 158.255 106.425 156.979L104.577 156.473C104.445 157.595 104.093 159.179 103.807 160.169L105.281 160.653ZM114.939 156.979V158.431H110.385V156.979H114.939ZM110.385 161.995V160.499H114.939V161.995H110.385ZM108.075 164.899H110.385V164.085H114.939V164.877H117.359V154.823H108.075V164.899ZM111.375 149.191H113.685V151.259H111.375V149.191ZM116.017 151.259V149.191H117.909V146.903H116.017V144.373H113.685V146.903H111.375V144.373H109.087V146.903H107.173V149.191H109.087V151.259H106.733V153.613H118.459V151.259H116.017ZM137.225 145.737L136.653 145.891H121.385V148.465H134.079C132.627 149.763 130.735 151.171 129.019 152.073V161.819C129.019 162.193 128.843 162.325 128.359 162.325C127.875 162.325 126.071 162.347 124.509 162.281C124.927 162.985 125.433 164.151 125.565 164.921C127.677 164.943 129.239 164.877 130.339 164.481C131.417 164.085 131.769 163.381 131.769 161.885V153.393C134.519 151.765 137.313 149.433 139.337 147.277L137.225 145.737ZM149.844 163.293C151.01 163.293 151.868 162.369 151.868 161.181C151.868 159.971 151.01 159.069 149.844 159.069C148.7 159.069 147.842 159.971 147.842 161.181C147.842 162.369 148.7 163.293 149.844 163.293ZM156.998 163.293C158.164 163.293 159.022 162.369 159.022 161.181C159.022 159.971 158.164 159.069 156.998 159.069C155.854 159.069 154.996 159.971 154.996 161.181C154.996 162.369 155.854 163.293 156.998 163.293ZM164.152 163.293C165.318 163.293 166.176 162.369 166.176 161.181C166.176 159.971 165.318 159.069 164.152 159.069C163.008 159.069 162.15 159.971 162.15 161.181C162.15 162.369 163.008 163.293 164.152 163.293ZM181.197 160.631C178.777 160.631 177.237 158.431 177.237 154.779C177.237 151.281 178.777 149.191 181.197 149.191C183.617 149.191 185.157 151.281 185.157 154.779C185.157 158.431 183.617 160.631 181.197 160.631ZM186.455 167.407C187.643 167.407 188.633 167.187 189.205 166.923L188.611 164.525C188.149 164.679 187.533 164.789 186.829 164.789C185.355 164.789 183.881 164.283 183.133 163.051C186.367 162.215 188.479 159.223 188.479 154.779C188.479 149.499 185.509 146.397 181.197 146.397C176.885 146.397 173.915 149.477 173.915 154.779C173.915 159.421 176.225 162.501 179.701 163.161C180.823 165.625 183.133 167.407 186.455 167.407ZM198.127 160.631C195.707 160.631 194.167 158.431 194.167 154.779C194.167 151.281 195.707 149.191 198.127 149.191C200.547 149.191 202.087 151.281 202.087 154.779C202.087 158.431 200.547 160.631 198.127 160.631ZM203.385 167.407C204.573 167.407 205.563 167.187 206.135 166.923L205.541 164.525C205.079 164.679 204.463 164.789 203.759 164.789C202.285 164.789 200.811 164.283 200.063 163.051C203.297 162.215 205.409 159.223 205.409 154.779C205.409 149.499 202.439 146.397 198.127 146.397C193.815 146.397 190.845 149.477 190.845 154.779C190.845 159.421 193.155 162.501 196.631 163.161C197.753 165.625 200.063 167.407 203.385 167.407Z" fill="#40798C"/>
</svg>
