<svg width="313" height="289" viewBox="0 0 313 289" fill="none" xmlns="http://www.w3.org/2000/svg">
<path d="M105.618 288.055C163.949 288.055 211.236 241.493 211.236 184.057C211.236 126.62 163.949 80.0586 105.618 80.0586C47.2868 80.0586 0 126.62 0 184.057C0 241.493 47.2868 288.055 105.618 288.055Z" fill="#CFE0C3"/>
<path d="M197.549 226.12L178.959 256.084L214.611 256.962L197.549 226.12Z" fill="#CFE0C3"/>
<path d="M103.008 164.122C133.527 164.122 158.268 139.761 158.268 109.71C158.268 79.6587 133.527 55.2974 103.008 55.2974C72.4888 55.2974 47.748 79.6587 47.748 109.71C47.748 139.761 72.4888 164.122 103.008 164.122Z" fill="#1F363D"/>
<path d="M35.7793 224.49L144.262 244.111L157.059 120.241L48.512 100.62L35.7793 224.49Z" fill="#1F363D"/>
<path d="M69.3939 281.849C88.8113 234.019 122.871 202.612 145.727 211.451C147.573 212.141 149.419 212.893 151.138 213.959C152.921 215.087 153.748 216.278 154.64 218.221C156.231 221.544 155.785 224.992 154.258 228.063C153.43 229.819 152.539 231.511 151.711 233.266C150.438 235.837 149.228 238.344 147.955 240.914C146.363 244.174 144.772 247.371 143.244 250.631C141.398 254.455 139.551 258.216 137.705 262.04C135.668 266.24 133.567 270.503 131.53 274.703C129.683 278.527 127.773 282.351 125.927 286.174C148.019 281.849 167.118 271.067 181.633 256.21L196.276 256.586C194.111 249.377 191.437 241.98 188.254 234.52C167.563 186.627 132.23 155.534 109.375 165.063C86.5194 155.472 51.2498 186.564 30.4954 234.52C28.1399 239.974 26.0389 245.49 24.2563 250.882C36.4798 264.861 52.0137 275.58 69.3939 281.849Z" fill="#70A9A1"/>
<path d="M184.688 198.287L146.872 220.666C145.153 221.669 142.925 221.105 141.906 219.475L129.046 198.412C128.028 196.72 128.6 194.526 130.256 193.523L168.072 171.143C169.791 170.14 172.019 170.705 173.038 172.334L185.898 193.397C186.98 195.09 186.407 197.284 184.688 198.287Z" fill="#F0CC67"/>
<path d="M176.412 180.108L134.394 204.932C133.821 205.245 133.121 205.057 132.802 204.556L132.42 203.929C132.102 203.365 132.293 202.675 132.802 202.362L174.82 177.538C175.393 177.224 176.094 177.412 176.412 177.914L176.794 178.541C177.176 179.042 176.985 179.794 176.412 180.108Z" fill="#1F363D"/>
<path d="M178.131 196.03L175.075 197.848C173.802 198.601 172.147 198.162 171.383 196.908L170.492 195.404C169.728 194.15 170.173 192.52 171.447 191.768L174.502 189.95C175.776 189.197 177.431 189.636 178.195 190.89L179.086 192.395C179.787 193.648 179.405 195.278 178.131 196.03Z" fill="white"/>
<path d="M137.832 261.977C139.678 258.153 141.524 254.392 143.37 250.568C144.962 247.308 146.554 244.111 148.081 240.852C149.355 238.281 150.564 235.774 151.838 233.204C152.665 231.448 153.557 229.756 154.384 228.001C155.848 224.929 156.294 221.481 154.766 218.159C153.875 216.278 153.047 215.024 151.265 213.896C149.546 212.83 147.699 212.078 145.853 211.389C122.934 202.55 88.9379 233.956 69.5205 281.786C87.028 288.118 106.509 289.936 126.117 286.112C126.117 286.112 126.118 286.112 126.181 286.112C128.027 282.288 129.937 278.464 131.784 274.64C133.693 270.44 135.794 266.177 137.832 261.977Z" fill="#F2DFD7"/>
<path d="M126.534 180.822C127.766 175.417 119.308 168.946 107.642 166.369C95.9771 163.793 85.5223 166.086 84.2908 171.491C83.0593 176.896 91.5176 183.367 103.183 185.944C114.848 188.521 125.303 186.228 126.534 180.822Z" fill="#ECB1A9"/>
<path d="M84.2505 171.502L126.494 180.833L133.824 148.657L91.5808 139.326L84.2505 171.502Z" fill="#ECB1A9"/>
<path d="M64.8098 131.839C52.5227 106.2 61.6902 76.5484 85.3095 65.5782C108.865 54.6706 137.959 66.5812 150.183 92.2202C154.448 101.122 156.358 111.152 155.339 120.994C154.512 129.394 151.774 139.048 148.655 144.251C144.071 151.836 134.267 157.164 130.001 158.731C105.045 167.884 76.9059 157.227 64.8098 131.839Z" fill="#F2DFD7"/>
<path d="M52.8411 119.113C50.0399 113.283 50.9948 107.077 54.8783 105.259C58.7618 103.441 64.3642 103.003 67.1654 108.833C69.9666 114.662 68.8843 124.504 64.9372 126.322C60.99 128.14 55.6423 124.943 52.8411 119.113Z" fill="#F2DFD7"/>
<path d="M99.1242 122.248C100.531 122.248 101.671 121.153 101.671 119.803C101.671 118.452 100.531 117.358 99.1242 117.358C97.7178 117.358 96.5776 118.452 96.5776 119.803C96.5776 121.153 97.7178 122.248 99.1242 122.248Z" fill="#1F363D"/>
<path d="M113.385 136.227C113.385 138.859 115.614 140.928 118.351 140.928C119.752 140.928 120.961 140.427 121.853 139.549" stroke="#E07D5C" stroke-width="3" stroke-miterlimit="10" stroke-linecap="round" stroke-linejoin="round"/>
<path d="M137.068 115.54C138.474 115.54 139.615 114.445 139.615 113.095C139.615 111.745 138.474 110.65 137.068 110.65C135.662 110.65 134.521 111.745 134.521 113.095C134.521 114.445 135.662 115.54 137.068 115.54Z" fill="#1F363D"/>
<path d="M108.356 111.716L82.8901 115.728C80.9166 116.042 79.5796 117.86 79.8979 119.803L83.2721 129.519C83.5904 131.463 85.4367 132.779 87.4102 132.466L109.311 129.018C111.284 128.704 112.621 126.886 112.303 124.943L112.494 114.662C112.175 112.782 110.329 111.465 108.356 111.716Z" stroke="#1F363D" stroke-width="3" stroke-miterlimit="10" stroke-linecap="round" stroke-linejoin="round"/>
<path d="M149.61 105.259L124.144 109.271C122.17 109.585 120.834 111.402 121.152 113.346L124.526 123.062C124.844 125.006 126.691 126.322 128.664 126.009L150.564 122.561C152.538 122.247 153.875 120.429 153.557 118.486L153.748 108.205C153.429 106.325 151.583 105.008 149.61 105.259Z" stroke="#1F363D" stroke-width="3" stroke-miterlimit="10" stroke-linecap="round" stroke-linejoin="round"/>
<path d="M112.494 114.725C112.494 114.725 116.25 109.898 121.152 113.346" stroke="#1F363D" stroke-width="3" stroke-miterlimit="10" stroke-linecap="round" stroke-linejoin="round"/>
<path d="M59.9077 103.566L79.8981 119.802" stroke="#1F363D" stroke-width="3" stroke-miterlimit="10" stroke-linecap="round" stroke-linejoin="round"/>
<path d="M156.931 108.832C156.931 108.832 156.74 68.8379 121.534 60.2498C110.966 57.6796 100.78 58.1184 91.7394 60.6259L91.6758 60.4378C32.2139 75.7335 64.7461 131.901 64.7461 131.901C90.6572 119.364 95.1773 86.5157 95.9412 77.1126C96.1322 76.1723 96.1959 75.3574 96.0686 74.5424C96.1322 74.5424 117.014 98.1129 156.931 108.832Z" fill="#1F363D"/>
<path d="M124.399 232.577C124.399 232.577 133.121 215.714 151.265 221.356" stroke="#ECB1A9" stroke-width="3" stroke-miterlimit="10" stroke-linecap="round" stroke-linejoin="round"/>
<path d="M39.18 36.1079L58.4065 48.1439L28.1025 60.8694L39.18 36.1079Z" fill="#F0CC67"/>
<path d="M229.051 0.186035H38.6665V48.7521H229.051V0.186035Z" fill="#F0CC67"/>
<path d="M229.051 48.7521C242.671 48.7521 253.713 37.8802 253.713 24.4691C253.713 11.0579 242.671 0.186035 229.051 0.186035C215.431 0.186035 204.39 11.0579 204.39 24.4691C204.39 37.8802 215.431 48.7521 229.051 48.7521Z" fill="#F0CC67"/>
<path d="M39.2437 48.1438C52.7453 48.1438 63.6906 37.3665 63.6906 24.0719C63.6906 10.7774 52.7453 0 39.2437 0C25.7421 0 14.7969 10.7774 14.7969 24.0719C14.7969 37.3665 25.7421 48.1438 39.2437 48.1438Z" fill="#F0CC67"/>
<path d="M49.2289 19.7195C48.7359 18.9205 47.6139 17.7985 46.7129 17.0165L45.1829 18.0535C46.1009 18.8695 47.1549 20.0765 47.5969 20.8585L49.2289 19.7195ZM47.0529 23.8335C46.6109 24.6495 46.0499 25.4145 45.4379 26.1455C45.2509 25.2785 45.0809 24.2925 44.9449 23.2725H49.3649V21.3515H44.7409C44.6049 19.8555 44.5369 18.2745 44.5709 16.6935H42.4459C42.4629 18.2405 42.5139 19.8215 42.6499 21.3515H39.3859V19.0565C40.3719 18.8525 41.3069 18.6315 42.1569 18.3765L40.7969 16.6595C39.0629 17.2205 36.4279 17.7645 34.0479 18.0875C34.2689 18.5465 34.5409 19.2945 34.6259 19.7875C35.4929 19.6855 36.4279 19.5665 37.3459 19.4135V21.3515H34.1329V23.2725H37.3459V25.5505C36.0029 25.7885 34.7789 25.9755 33.8099 26.1285L34.3029 28.1685C35.2039 27.9985 36.2579 27.7775 37.3459 27.5565V30.0215C37.3459 30.2935 37.2439 30.3785 36.9379 30.3785C36.6319 30.3955 35.6459 30.4125 34.6939 30.3615C34.9829 30.9225 35.3229 31.8405 35.4079 32.4015C36.7849 32.4185 37.8049 32.3335 38.4679 32.0105C39.1479 31.6875 39.3859 31.1435 39.3859 30.0385V27.1315L42.1569 26.5705L42.0039 24.7345C41.1369 24.8875 40.2529 25.0575 39.3859 25.2105V23.2725H42.8369C43.0409 24.9385 43.3299 26.4855 43.7039 27.8285C42.5309 28.7975 41.2219 29.6305 39.9129 30.2255C40.4059 30.6845 40.9669 31.3815 41.2559 31.8575C42.3439 31.2965 43.4149 30.5995 44.4009 29.7835C45.1319 31.4495 46.0839 32.4695 47.3249 32.4695C48.8719 32.4695 49.5009 31.7215 49.8239 28.7465C49.2799 28.5255 48.5999 28.0665 48.1579 27.5905C48.0729 29.5965 47.8689 30.4125 47.5119 30.4125C47.0019 30.4125 46.4749 29.6305 46.0159 28.3215C47.1209 27.2165 48.0729 25.9755 48.8379 24.5985L47.0529 23.8335ZM56.9979 26.4515C56.3349 26.6385 55.6379 26.8255 54.9749 27.0125V24.1055H56.7429V22.2525H54.9749V19.2945H56.9299V17.4245H50.9799V19.2945H53.0199V22.2525H51.1329V24.1055H53.0199V27.5225C52.1019 27.7605 51.2689 27.9815 50.5719 28.1345L51.0989 30.0385C52.8499 29.5285 55.1279 28.8655 57.2699 28.2365L56.9979 26.4515ZM59.4799 24.0035H63.9169V25.0575H59.4799V24.0035ZM59.4799 21.4195H63.9169V22.4735H59.4799V21.4195ZM59.4799 18.8355H63.9169V19.8895H59.4799V18.8355ZM64.1209 30.5995C63.8319 30.5995 63.7979 30.5315 63.7979 30.0385V26.7065H65.8889V17.1865H57.5929V26.7065H58.8339C58.6129 28.6955 58.0689 30.0895 54.9919 30.8545C55.3999 31.2455 55.9099 32.0275 56.1139 32.5205C59.7349 31.4495 60.5169 29.4775 60.8229 26.7065H61.8599V30.0385C61.8599 31.7555 62.1999 32.3335 63.7639 32.3335H65.0389C66.2969 32.3335 66.7389 31.7045 66.9089 29.3755C66.3989 29.2565 65.6169 28.9335 65.2259 28.6275C65.1919 30.3275 65.1069 30.5995 64.8179 30.5995H64.1209ZM73.0289 21.4535C74.0319 20.8075 74.9669 20.0935 75.7829 19.2435C76.6499 20.0425 77.6529 20.7905 78.7239 21.4535H73.0289ZM79.2849 26.8935C78.9449 27.7775 78.3159 28.9675 77.7889 29.7325L78.9279 30.2085H76.8029V26.8935H79.2849ZM74.6269 26.8935V30.2085H72.1449L73.5389 29.5965C73.3009 28.8485 72.6549 27.7265 72.0599 26.8935H74.6269ZM80.2199 23.3065V22.3035C80.9849 22.6775 81.7669 23.0175 82.5319 23.2895C82.8379 22.7625 83.4669 21.9635 83.9259 21.5215C81.3759 20.8075 78.6219 19.3965 76.9559 17.9005C77.1259 17.6625 77.2789 17.4415 77.4319 17.2205L75.5109 16.3535C73.8959 18.8865 70.8359 20.6035 67.6399 21.5215C68.1499 22.0315 68.7109 22.7965 68.9829 23.3915C69.7309 23.1195 70.4619 22.8135 71.1759 22.4735V23.3065H74.6269V25.0745H69.2209V26.8935H71.6859L70.3429 27.4545C70.9039 28.3045 71.4819 29.4265 71.7539 30.2085H68.4049V32.0615H83.1099V30.2085H79.4549C79.9819 29.4775 80.6449 28.4575 81.2399 27.5055L79.5399 26.8935H82.2259V25.0745H76.8029V23.3065H80.2199ZM93.8369 23.0855V21.3175C94.1939 20.8075 94.5339 20.2805 94.8229 19.7535H100.11V17.6795H85.3709V19.7535H92.1539C90.5729 22.3545 87.9209 24.9895 84.8269 26.4345C85.2689 26.8935 85.8979 27.7265 86.2209 28.2705C88.2609 27.2165 90.0799 25.7375 91.6269 24.0885V32.3845H93.8369V23.5785C95.6729 24.9895 97.9849 26.9275 99.0389 28.1855L100.756 26.6385C99.5319 25.2955 96.9139 23.3405 95.0949 22.0315L93.8369 23.0855ZM107.658 26.0265C107.352 26.6725 106.961 27.2505 106.519 27.7605C106.111 27.3865 105.618 26.9615 105.142 26.5875C105.346 26.4005 105.55 26.2135 105.737 26.0265H107.658ZM107.029 19.6855C106.757 20.1445 106.434 20.5695 106.077 20.9605C105.652 20.6035 105.108 20.2295 104.615 19.9065L104.819 19.6855H107.029ZM108.525 24.3265H107.097C107.301 24.0035 107.488 23.6805 107.675 23.3575L106.349 23.1025C107.726 21.9635 108.848 20.4675 109.477 18.5635L108.287 18.0025L107.947 18.0705H106.026C106.281 17.6625 106.519 17.2375 106.74 16.8465L104.989 16.5235C104.36 17.7815 103.238 19.2775 101.589 20.3995C101.997 20.6375 102.558 21.1985 102.813 21.5555C103.051 21.3855 103.272 21.1985 103.493 21.0115C104.003 21.3855 104.479 21.7765 104.836 22.1335C103.952 22.8305 102.915 23.3575 101.861 23.7145C102.218 24.0545 102.677 24.7005 102.915 25.1255C103.782 24.7855 104.598 24.3605 105.38 23.8505C104.598 24.9725 103.408 26.1115 101.742 26.9785C102.116 27.2335 102.677 27.8285 102.898 28.2365C103.221 28.0495 103.527 27.8455 103.816 27.6415C104.343 28.0835 104.87 28.5935 105.244 29.0185C104.207 29.8515 102.983 30.4465 101.674 30.8205C102.031 31.1945 102.49 31.8575 102.694 32.3165C106.179 31.1265 108.95 28.8485 110.089 24.7685L108.865 24.2415L108.525 24.3265ZM112.996 23.7485V26.7915H111.874V23.7485H112.996ZM117.365 18.9715H112.333C112.588 18.3255 112.826 17.6795 113.03 16.9995L111.16 16.5405C110.565 18.7165 109.46 20.8245 108.134 22.1335C108.559 22.4395 109.341 23.0685 109.664 23.4085C109.868 23.1875 110.072 22.9325 110.259 22.6775V29.5455H111.874V28.3725H114.611V22.1505H110.633C110.939 21.7085 111.211 21.2495 111.483 20.7395H115.461C115.359 27.2335 115.257 29.6645 114.883 30.1405C114.713 30.3955 114.56 30.4805 114.288 30.4635C113.931 30.4635 113.251 30.4635 112.469 30.3955C112.792 30.9395 113.03 31.7725 113.064 32.3165C113.88 32.3505 114.696 32.3505 115.24 32.2485C115.818 32.1465 116.226 31.9595 116.6 31.3475C117.161 30.5145 117.246 27.8115 117.365 19.8895V18.9715ZM134.85 24.3435H136.006L135.53 24.5645C135.666 24.7175 135.802 24.8705 135.938 25.0405L134.85 25.0575V24.3435ZM131.756 23.2555V22.5755H133.133V23.2555H131.756ZM131.756 20.8755H133.133V21.5385H131.756V20.8755ZM136.295 20.8755V21.5385H134.85V20.8755H136.295ZM136.295 23.2555H134.85V22.5755H136.295V23.2555ZM129.835 26.5875C131.705 26.5535 134.323 26.4855 136.873 26.4005C137.009 26.6215 137.111 26.8255 137.196 26.9955L138.607 26.2985C138.318 25.7375 137.808 24.9895 137.247 24.3435H137.961V19.7875H134.85V19.1585H138.267V17.6795H134.85V16.5575H133.133V17.6795H129.886V19.1585H133.133V19.7875H130.175V24.3435H133.133V25.0915C131.841 25.1255 130.668 25.1425 129.733 25.1425L129.835 26.5875ZM134.731 30.6165C134.731 30.8035 134.646 30.8545 134.408 30.8715C134.187 30.8715 133.405 30.8715 132.725 30.8375L133.422 30.3955C133.184 29.9195 132.708 29.2735 132.181 28.7465H134.731V30.6165ZM124.616 24.5475H125.585V25.5505H124.616V24.5475ZM124.616 22.2185H125.585V23.2215H124.616V22.2185ZM127.931 23.2215H126.894V22.2185H127.931V23.2215ZM127.931 25.5505H126.894V24.5475H127.931V25.5505ZM136.567 26.6045H134.731V27.2675H129.75V27.9645H127.132V26.9445H129.393V20.8075H127.132V19.9235H129.546V18.1725H127.132V16.5575H125.347V18.1725H122.848V19.9235H125.347V20.8075H123.171V26.9445H125.347V27.9645H122.61V29.7325H125.347V32.4185H127.132V29.7325H129.75V28.7465H131.348L130.515 29.2395C131.127 29.8515 131.705 30.7185 131.977 31.3135L132.657 30.8885C132.861 31.3475 133.099 31.9765 133.15 32.4695C134.34 32.4695 135.156 32.4525 135.785 32.2145C136.431 31.9595 136.567 31.5345 136.567 30.6675V28.7465H138.505V27.2675H136.567V26.6045ZM143.758 27.0125V21.4365H144.472V26.8425C144.472 26.9785 144.438 27.0125 144.353 27.0125H143.758ZM145.917 19.6685H143.758V16.5405H142.109V19.6685H139.984V28.8995H141.463V21.4365H142.109V32.4185H143.758V27.1485C143.962 27.6245 144.132 28.2705 144.149 28.6955C144.744 28.6955 145.135 28.6445 145.492 28.3385C145.849 28.0495 145.917 27.5225 145.917 26.8935V19.6685ZM153.686 25.9075C153.244 26.3665 152.547 26.9275 151.901 27.4035C151.595 26.9275 151.306 26.4345 151.051 25.9075H155.267V24.1905H149.062V23.3235H154.162V21.9125H149.062V21.0455H154.111V19.6345H149.062V18.8185H154.825V17.2375H147.124V24.1905H146.155V25.9075H146.801V29.2225C146.801 29.9535 146.325 30.4805 145.968 30.7015C146.308 31.1265 146.767 32.0275 146.903 32.5205C147.26 32.2655 147.855 31.9935 151.068 30.9565C151 30.5485 150.949 29.8175 150.949 29.3075L148.705 29.9535V25.9075H149.283C150.269 28.6615 151.918 30.9905 154.23 32.1975C154.536 31.6705 155.131 30.9225 155.573 30.5315C154.553 30.0895 153.635 29.4265 152.87 28.6105C153.584 28.1855 154.4 27.6925 155.165 27.1655L153.686 25.9075ZM163.444 26.5875C163.257 25.6865 162.798 24.1735 162.339 23.0345L160.877 23.5105C161.013 23.9185 161.166 24.3435 161.302 24.8025L159.517 25.0235C160.826 23.5615 162.101 21.8105 163.07 20.0765L161.37 18.9885C161.03 19.7365 160.605 20.4845 160.18 21.1815L159.024 21.2665C159.925 20.0595 160.792 18.5975 161.438 17.1695L159.619 16.4045C158.973 18.2235 157.868 20.1105 157.494 20.5865C157.154 21.0965 156.848 21.4195 156.508 21.5215C156.729 21.9975 157.018 22.8815 157.12 23.2555C157.375 23.1365 157.749 23.0345 159.041 22.8815C158.565 23.5275 158.174 24.0205 157.97 24.2415C157.426 24.8705 157.052 25.2445 156.593 25.3635C156.831 25.8735 157.154 26.8085 157.256 27.1825C157.647 26.9955 158.259 26.8425 161.693 26.3325C161.761 26.6385 161.812 26.9105 161.846 27.1485L163.444 26.5875ZM157.29 27.7095C157.188 29.1375 156.967 30.7185 156.576 31.7385C157.018 31.8745 157.834 32.1295 158.208 32.3335C158.582 31.2455 158.871 29.5625 158.99 27.9815L157.29 27.7095ZM159.347 27.9305C159.551 29.1375 159.738 30.7355 159.755 31.7725L161.353 31.4325C161.285 30.3955 161.098 28.8655 160.86 27.6415L159.347 27.9305ZM161.217 27.5905C161.557 28.6275 161.931 29.9705 162.084 30.8375L163.58 30.3275C163.393 29.4605 163.002 28.1515 162.628 27.1485L161.217 27.5905ZM169.479 27.0125V29.8345H165.858V27.0125H169.479ZM163.886 32.4525H165.858V31.6195H169.479V32.4355H171.536V25.2275H163.886V32.4525ZM165.705 22.0145C166.436 21.2155 167.065 20.3655 167.643 19.4305C168.238 20.3315 168.901 21.2155 169.615 22.0145H165.705ZM166.946 16.4895C166.062 18.7845 164.311 21.0795 162.169 22.4395C162.594 22.7795 163.257 23.4765 163.546 23.9015C163.937 23.6295 164.328 23.3235 164.685 23.0005V23.8335H170.312V22.7625C170.669 23.1195 171.026 23.4425 171.4 23.7145C171.74 23.2045 172.403 22.4565 172.896 22.0825C171.315 21.0965 169.598 19.3285 168.544 17.6455C168.646 17.4585 168.697 17.2545 168.782 17.0505L166.946 16.4895ZM177.146 16.6085C176.296 19.0225 174.817 21.4365 173.287 22.9665C173.627 23.4595 174.188 24.5645 174.375 25.0745C174.749 24.6665 175.14 24.2075 175.514 23.6975V32.3845H177.452V20.6885C178.081 19.5665 178.625 18.3765 179.067 17.2035L177.146 16.6085ZM180.291 24.1055C179.9 25.9925 179.186 27.9135 178.217 29.1035C178.71 29.3585 179.56 29.8685 179.951 30.1915C180.903 28.8145 181.77 26.6725 182.263 24.5135L180.291 24.1055ZM187.363 21.4535C187.278 22.2015 187.176 22.9155 187.091 23.4425L188.808 23.7315C189.046 22.7455 189.335 21.1645 189.539 19.7875L188.111 19.5155L187.788 19.5835H181.94C182.246 18.7505 182.518 17.9175 182.739 17.0505L180.767 16.6085C180.189 18.9375 179.169 21.2835 177.877 22.7285C178.336 23.0345 179.152 23.6975 179.509 24.0545C180.07 23.3405 180.631 22.4395 181.107 21.4535H183.079V30.1235C183.079 30.3445 182.994 30.4125 182.773 30.4125C182.535 30.4125 181.821 30.4125 181.107 30.3955C181.413 30.9395 181.719 31.8405 181.804 32.4355C182.892 32.4355 183.708 32.3505 184.303 32.0275C184.915 31.6875 185.085 31.1265 185.085 30.1575V21.4535H187.363ZM185.697 24.5475C186.513 26.2985 187.227 28.6275 187.414 30.1405L189.352 29.4775C189.114 27.9475 188.383 25.6865 187.499 23.9355L185.697 24.5475ZM195.217 21.8615C195.166 23.1875 194.962 24.7345 194.367 26.2645C193.942 25.8905 193.5 25.5165 193.075 25.1595C193.296 24.1905 193.5 23.0855 193.704 21.9635L195.217 21.8615ZM198.005 21.6745V19.8555L197.121 19.9065V18.9375H195.234V20.0085L194.01 20.0765C194.197 18.9035 194.333 17.7475 194.435 16.6595L192.429 16.5745C192.361 17.7135 192.225 18.9375 192.055 20.1615C191.545 20.1785 191.052 20.1955 190.61 20.2125L190.797 22.1335L191.749 22.0655C191.511 23.4595 191.222 24.7515 190.95 25.7715C191.715 26.4515 192.616 27.2675 193.483 28.0665C192.82 29.1375 191.885 30.1405 190.61 31.0415C191.069 31.3645 191.732 32.0275 192.038 32.4525C193.296 31.5345 194.214 30.5315 194.928 29.4605C195.625 30.1575 196.237 30.8205 196.662 31.3645L197.988 29.6815C197.495 29.0865 196.747 28.3895 195.931 27.6245C196.815 25.6015 197.053 23.4935 197.104 21.7425L198.005 21.6745ZM206.522 23.5275H203.122V22.2525C204.329 21.1305 205.451 19.7025 206.25 18.4615L204.89 17.4755L204.414 17.5775H198.107V19.4135H203.088C202.493 20.2975 201.745 21.2495 201.014 21.8955V23.5275H197.444V25.4485H201.014V30.1915C201.014 30.4465 200.929 30.5145 200.64 30.5145C200.368 30.5145 199.382 30.5145 198.532 30.4975C198.821 31.0245 199.11 31.8575 199.212 32.4185C200.538 32.4355 201.507 32.3845 202.187 32.0955C202.901 31.7725 203.122 31.2625 203.122 30.2255V25.4485H206.522V23.5275ZM211.265 19.9065V25.8735H209.973V19.9065H211.265ZM213.067 27.7435V18.0365H208.188V29.1375H209.973V27.7435H213.067ZM213.713 31.8745C214.427 30.8715 214.767 29.2225 214.971 27.7775L213.475 27.3525C213.305 28.7125 212.914 30.2255 212.268 31.1775L213.713 31.8745ZM215.345 27.6925C215.583 28.7975 215.719 30.2255 215.651 31.1605L217.045 30.9395C217.079 30.0045 216.926 28.5765 216.654 27.4715L215.345 27.6925ZM217.215 27.5565C217.589 28.4915 217.912 29.7495 217.98 30.5655L219.272 30.1575C219.17 29.3755 218.83 28.1515 218.422 27.2165L217.215 27.5565ZM221.142 29.2565C220.972 28.6275 220.581 27.6585 220.139 26.9445L219.068 27.3185C219.459 28.0495 219.833 29.0355 219.969 29.6985L221.142 29.2565ZM215.923 24.0545H217.742V25.0745H215.923V24.0545ZM217.742 18.9545V19.9235H215.923V18.9545H217.742ZM217.742 22.4905H215.923V21.5045H217.742V22.4905ZM219.612 25.0745V24.0545H222.349V22.4905H219.612V21.5045H222.349V19.9235H219.612V18.9545H222.825V17.2035H214.019V26.7575H221.397C221.278 29.2735 221.125 30.2595 220.904 30.5315C220.768 30.7015 220.615 30.7355 220.394 30.7355C220.139 30.7355 219.68 30.7355 219.119 30.6845C219.391 31.1435 219.578 31.8575 219.595 32.4015C220.309 32.4185 220.955 32.4015 221.363 32.3335C221.805 32.2655 222.145 32.1295 222.468 31.7215C222.893 31.1775 223.097 29.6305 223.25 25.8055C223.267 25.5675 223.284 25.0745 223.284 25.0745H219.612ZM231.291 26.5705H233.484C233.229 24.2075 236.935 23.9185 236.935 21.4195C236.935 19.1585 235.133 18.0195 232.668 18.0195C230.849 18.0195 229.353 18.8355 228.282 20.0935L229.676 21.3855C230.509 20.5015 231.342 20.0425 232.396 20.0425C233.722 20.0425 234.538 20.6205 234.538 21.6405C234.538 23.2895 230.934 23.9015 231.291 26.5705ZM232.396 31.0925C233.263 31.0925 233.892 30.4805 233.892 29.5965C233.892 28.6955 233.263 28.0835 232.396 28.0835C231.546 28.0835 230.9 28.6955 230.9 29.5965C230.9 30.4805 231.529 31.0925 232.396 31.0925Z" fill="#1F363D"/>
<path d="M273.74 198.469C295.26 198.469 312.705 181.291 312.705 160.102C312.705 138.912 295.26 121.734 273.74 121.734C252.22 121.734 234.775 138.912 234.775 160.102C234.775 181.291 252.22 198.469 273.74 198.469Z" fill="#40798C"/>
<path d="M243.518 138.427L252.438 128.901L239.612 126.061L243.518 138.427Z" fill="#40798C"/>
<path d="M278.453 156.806L269.797 154.324C268.795 154.042 268.098 153.123 268.098 152.102C268.098 150.822 269.156 149.786 270.462 149.786H275.776C276.753 149.786 277.715 150.076 278.517 150.61C279.006 150.932 279.663 150.854 280.08 150.453L282.869 147.784C283.438 147.242 283.358 146.339 282.724 145.86C280.761 144.352 278.308 143.512 275.792 143.504V139.735C275.792 139.044 275.215 138.479 274.509 138.479H271.945C271.239 138.479 270.662 139.044 270.662 139.735V143.504H270.462C265.357 143.504 261.253 147.799 261.726 152.895C262.063 156.515 264.884 159.46 268.442 160.48L276.657 162.836C277.659 163.127 278.356 164.037 278.356 165.058C278.356 166.338 277.298 167.375 275.992 167.375H270.678C269.701 167.375 268.739 167.084 267.937 166.55C267.449 166.228 266.791 166.307 266.375 166.707L263.586 169.377C263.016 169.919 263.097 170.822 263.73 171.301C265.693 172.808 268.146 173.648 270.662 173.656V177.425C270.662 178.116 271.239 178.682 271.945 178.682H274.509C275.215 178.682 275.792 178.116 275.792 177.425V173.64C279.527 173.57 283.029 171.395 284.263 167.932C285.986 163.095 283.093 158.133 278.453 156.806V156.806Z" fill="#F0CC67"/>
</svg>
