<svg width="1084" height="497" viewBox="0 0 1084 497" fill="none" xmlns="http://www.w3.org/2000/svg">
<path d="M968.049 390.1C967.949 390.1 967.949 390.1 968.049 390.1L754.949 390.2V390.1C733.749 390.1 716.549 372.9 716.549 351.7C716.549 333.3 729.449 318 746.749 314.2L737.449 293L784.949 313.3H967.949H968.049C989.249 313.3 1006.45 330.5 1006.45 351.7C1006.45 372.9 989.249 390.1 968.049 390.1Z" stroke="#F0CC67" stroke-width="4" stroke-miterlimit="10" stroke-linecap="round" stroke-linejoin="round"/>
<path d="M779.755 350.496C779.337 351.046 778.721 351.706 778.083 352.322C777.907 351.486 777.753 350.606 777.643 349.726C778.897 349.352 780.107 348.956 781.163 348.494L779.161 346.668C777.401 347.548 774.585 348.384 771.923 348.956C772.517 348.208 773.023 347.35 773.507 346.382H781.449V344.006H774.519C774.783 343.302 775.003 342.576 775.157 341.828L772.649 341.344C772.165 343.478 771.329 345.502 770.163 347.042V344.776H766.247L767.721 344.248C767.523 343.456 767.061 342.224 766.599 341.322L764.333 342.026C764.729 342.862 765.103 343.962 765.301 344.776H761.539V347.196H763.607V350.188C763.607 353.18 763.299 357.03 760.989 360.462C761.605 360.814 762.441 361.43 762.881 361.914C765.169 358.702 765.785 354.962 765.917 351.706H767.501C767.369 356.854 767.193 358.724 766.885 359.186C766.709 359.45 766.577 359.516 766.269 359.516C765.961 359.516 765.367 359.516 764.707 359.45C765.037 360.066 765.279 361.012 765.323 361.694C766.181 361.716 766.973 361.716 767.501 361.606C768.095 361.518 768.535 361.298 768.931 360.682C769.525 359.912 769.701 357.338 769.877 350.364C769.877 350.056 769.899 349.33 769.899 349.33H765.939V347.196H770.031C769.789 347.504 769.525 347.768 769.261 348.032C769.855 348.362 770.889 349.176 771.351 349.616L771.439 349.528V357.624C771.439 358.746 770.889 359.516 770.449 359.912C770.845 360.286 771.527 361.21 771.747 361.738C772.209 361.364 772.935 361.012 776.939 359.318C776.807 358.768 776.675 357.69 776.653 356.964L773.947 358.042V350.628C774.431 350.518 774.937 350.43 775.399 350.32C776.059 355.226 777.247 359.274 779.997 361.474C780.371 360.792 781.185 359.802 781.757 359.318C780.371 358.328 779.403 356.656 778.721 354.654C779.645 353.928 780.723 353.004 781.603 352.124L779.755 350.496ZM790.601 348.208C790.601 350.584 790.403 354.126 788.577 356.568C789.061 356.876 789.809 357.602 790.139 358.042C791.899 355.842 792.471 352.74 792.625 350.166H793.967C793.813 354.324 793.637 355.82 793.373 356.238C793.219 356.458 793.065 356.524 792.823 356.524C792.537 356.524 792.075 356.524 791.547 356.458C791.833 357.03 792.053 357.91 792.097 358.548C792.845 358.57 793.549 358.548 793.989 358.482C794.539 358.372 794.935 358.196 795.287 357.668C795.815 356.964 795.991 354.786 796.189 348.956C796.189 348.67 796.211 348.054 796.211 348.054H792.669V346.338H795.705L795.617 346.448C796.035 346.712 796.717 347.24 797.157 347.614V348.934H800.149C799.797 349.352 799.379 349.748 798.983 350.056V351.288H796.541V353.356H798.983V355.996C798.983 356.216 798.917 356.282 798.653 356.282C798.411 356.282 797.597 356.282 796.805 356.26C797.135 356.876 797.443 357.778 797.509 358.416C798.763 358.416 799.687 358.372 800.347 358.02C801.073 357.668 801.205 357.074 801.205 356.04V353.356H803.757V351.288H801.205V350.562C802.085 349.77 802.943 348.846 803.647 347.966L802.261 346.888L801.843 347.02H797.949C798.191 346.602 798.433 346.184 798.653 345.722H803.801V343.588H799.621C799.841 343.016 800.061 342.444 800.215 341.872L798.037 341.256C797.619 342.73 797.025 344.248 796.277 345.458V344.204H794.143L794.319 344.16C794.165 343.39 793.769 342.224 793.439 341.322L791.151 341.74C791.415 342.488 791.679 343.456 791.855 344.204H788.907V346.338H790.601V348.208ZM788.511 344.732C787.961 343.83 786.905 342.444 786.003 341.388L784.001 342.488C784.859 343.566 785.915 345.106 786.421 346.03L788.511 344.732ZM788.115 351.728L787.697 351.794H786.509C787.609 350.276 788.907 348.208 789.677 346.998L788.071 346.338L787.741 346.47H783.517V348.56H786.245C785.497 349.726 784.683 350.936 784.309 351.31C783.913 351.75 783.561 351.926 783.187 352.014C783.429 352.498 783.913 353.598 784.045 354.148C784.221 353.972 784.881 353.818 785.387 353.818H786.663C786.047 356.766 784.837 358.966 783.033 360.242C783.517 360.572 784.397 361.452 784.727 361.98C785.717 361.21 786.597 360.132 787.323 358.768C788.995 361.1 791.569 361.54 795.639 361.54C798.213 361.54 801.007 361.474 803.295 361.342C803.427 360.616 803.757 359.45 804.131 358.922C801.645 359.164 798.037 359.296 795.683 359.296C791.987 359.274 789.501 358.966 788.225 356.568C788.665 355.292 788.995 353.818 789.215 352.19L788.115 351.728ZM810.093 341.454C808.993 344.578 807.079 347.702 805.077 349.682C805.539 350.342 806.287 351.838 806.529 352.476C806.969 351.992 807.431 351.442 807.893 350.892V361.892H810.533V346.822C811.347 345.348 812.073 343.786 812.645 342.246L810.093 341.454ZM820.213 358.746V354.324H824.965V351.86H820.213V347.988H825.581V345.502H818.431L820.697 344.688C820.389 343.742 819.619 342.312 818.959 341.278L816.539 342.092C817.177 343.17 817.837 344.578 818.101 345.502H812.183V347.988H817.551V351.86H812.909V354.324H817.551V358.746H811.699V361.232H825.889V358.746H820.213ZM830.729 345.436H844.281V346.866H846.965V343.236H839.265C838.979 342.554 838.649 341.784 838.341 341.168L835.547 341.938C835.723 342.312 835.921 342.774 836.075 343.236H828.177V347.372H830.729V345.436ZM832.203 346.008C831.081 348.582 829.123 351.09 827.055 352.652C827.517 353.224 828.287 354.522 828.551 355.094C829.123 354.632 829.673 354.104 830.223 353.51V361.936H832.709V350.32C833.457 349.198 834.095 348.01 834.645 346.822L832.203 346.008ZM843.709 354.94H837.659V353.312H843.709V354.94ZM837.659 358.79V357.052H843.709V358.79H837.659ZM847.295 349.572V347.262H834.513V349.572H839.111C839.023 350.078 838.913 350.584 838.803 351.09H835.173V361.936H837.659V361.012H843.709V361.826H846.305V351.09H841.487C841.685 350.606 841.861 350.1 842.059 349.572H847.295ZM865.775 347.592C865.445 348.252 865.049 348.934 864.565 349.594L862.233 349.726C862.805 348.648 863.509 347.394 864.081 346.338H869.647V343.962H865.621C865.445 343.148 864.983 342.07 864.565 341.212L862.277 341.916C862.541 342.532 862.827 343.28 863.025 343.962H858.207V346.338H861.529C860.935 347.46 860.143 348.868 859.813 349.242C859.483 349.682 858.801 349.858 858.295 349.946C858.471 350.518 858.713 351.662 858.801 352.256C859.219 352.08 859.857 351.948 862.695 351.728C861.287 353.092 859.571 354.302 857.723 355.138C858.119 355.6 858.779 356.436 859.065 356.964C862.959 355.072 866.171 351.816 868.063 348.318L865.775 347.592ZM857.833 344.996H853.741L855.127 344.204C854.797 343.39 854.159 342.18 853.587 341.278L851.673 342.224C852.157 343.06 852.685 344.16 853.015 344.996H849.407V347.064H857.833V344.996ZM856.909 350.034V348.054H850.309V350.034H856.909ZM856.953 351.002H850.309V352.982H856.953V351.002ZM854.841 358.592H852.509V356.128H854.841V358.592ZM867.029 351.794C865.379 355.182 861.683 358.24 856.975 359.824V354.038H850.331V361.628H852.509V360.704H856.975V360.462C857.349 360.946 857.767 361.562 857.987 361.958C860.429 361.122 862.629 359.912 864.521 358.438C865.775 359.626 867.117 360.968 867.799 361.892L869.867 360.286C869.075 359.34 867.601 357.976 866.303 356.876C867.579 355.578 868.679 354.148 869.515 352.63L867.029 351.794ZM878.997 345.788V354.17H880.405L879.635 354.918C880.801 355.864 882.451 357.206 883.199 358.02L884.915 356.194C884.189 355.49 882.737 354.412 881.637 353.576V352.542H890.371V350.408H881.637V349.088H889.777V347.042H881.637V345.788H891.031V343.544H878.205C878.403 343.016 878.601 342.466 878.777 341.938L876.115 341.322C875.279 344.226 873.629 346.954 871.605 348.626C872.243 349.044 873.321 349.968 873.761 350.452C875.015 349.264 876.203 347.636 877.171 345.788H878.997ZM873.959 361.1C874.619 359.604 875.279 357.36 875.741 355.71L873.431 354.786C873.013 356.48 872.243 358.548 871.495 359.978L873.959 361.1ZM891.955 360.198C891.427 358.702 890.283 356.348 889.403 354.544L886.939 355.226C887.313 356.106 887.753 357.118 888.171 358.108C887.445 357.954 886.367 357.58 885.817 357.184C885.707 358.966 885.509 359.252 884.453 359.252H880.515C879.195 359.252 878.953 359.142 878.953 358.482V355.072H876.357V358.526C876.357 360.836 877.149 361.584 880.295 361.584H884.651C887.049 361.584 887.863 360.88 888.193 358.152C888.633 359.23 889.029 360.286 889.271 361.034L891.955 360.198ZM912.503 352.058C912.239 352.058 912.217 351.926 912.217 351.574V349.352H910.743V351.552C910.743 352.652 910.941 353.158 912.085 353.158H912.855C913.185 353.158 913.559 353.136 913.757 353.07C913.713 352.718 913.691 352.3 913.669 351.97C913.449 352.036 913.031 352.058 912.811 352.058H912.503ZM910.171 353.334V348.692H913.295V346.734H910.171V345.722H908.213V346.734H905.573V348.692H908.213V353.334H910.171ZM913.449 345.26V342.994H905.947C905.793 342.422 905.573 341.74 905.353 341.19L902.713 341.674C902.823 342.048 902.955 342.532 903.065 342.994H894.815V349.044C894.815 352.322 894.705 357.03 893.275 360.308C893.803 360.55 894.925 361.386 895.365 361.848C896.993 358.284 897.301 352.63 897.301 349.044V345.26H913.449ZM902.339 353.29V348.692H905.001V346.734H902.339V345.722H900.381V346.734H897.983V348.692H900.381V353.29H902.339ZM899.787 349.374H898.357V350.232C898.357 350.98 898.225 352.08 897.389 352.696C897.763 352.894 898.379 353.4 898.643 353.708C899.633 352.762 899.787 351.42 899.787 350.298V349.374ZM907.949 357.228C908.323 357.69 908.763 358.196 909.181 358.702L903.043 359.142C905.397 357.998 907.839 356.59 910.105 354.94L908.169 353.642C907.267 354.39 906.255 355.072 905.243 355.71L901.965 355.864C903.153 355.248 904.385 354.478 905.441 353.686L904.099 352.828H904.121H904.517C904.803 352.828 905.111 352.806 905.287 352.74L905.265 352.52C905.639 352.74 906.167 353.158 906.409 353.466C907.421 352.564 907.575 351.288 907.575 350.232V349.33H906.145V350.166C906.145 350.848 906.013 351.772 905.265 352.388C905.243 352.146 905.243 351.926 905.221 351.706C905.023 351.772 904.693 351.772 904.517 351.772C904.297 351.772 904.275 351.662 904.275 351.332V349.462H902.889V351.31C902.889 352.08 902.999 352.52 903.483 352.718C902.141 353.906 900.359 354.918 899.787 355.182C899.259 355.49 898.797 355.688 898.357 355.732C898.577 356.282 898.863 357.272 898.951 357.668C899.303 357.536 899.831 357.426 902.669 357.25C901.591 357.866 900.667 358.306 900.183 358.504C899.061 359.054 898.313 359.362 897.565 359.472C897.785 360.066 898.093 361.144 898.181 361.562C898.973 361.298 900.205 361.276 910.545 360.528C910.875 360.946 911.161 361.364 911.381 361.694L913.383 360.616C912.569 359.494 910.963 357.624 909.819 356.348L907.949 357.228ZM935.559 351.992H926.913V345.326H934.283V342.73H916.771V345.326H924.185V351.992H915.627V354.632H924.185V361.914H926.913V354.632H935.559V351.992ZM918.113 346.734C918.817 348.208 919.499 350.122 919.719 351.31L922.271 350.518C922.029 349.286 921.237 347.438 920.511 346.03L918.113 346.734ZM930.961 351.266C931.709 350.144 932.589 348.362 933.381 346.668L930.587 345.964C930.169 347.394 929.377 349.33 928.673 350.606L930.961 351.266ZM946.339 341.696V344.138H949.837C950.607 345.986 951.729 347.834 953.159 349.396H941.763C943.193 347.526 944.403 345.238 945.217 342.774L942.467 342.114C941.455 345.414 939.497 348.362 937.011 350.144C937.627 350.584 938.749 351.552 939.211 352.08C939.783 351.596 940.333 351.09 940.861 350.496V351.948H944.579C944.139 355.138 942.995 358.042 938.023 359.648C938.661 360.242 939.431 361.32 939.761 362.068C945.459 359.934 946.889 356.172 947.439 351.948H951.773C951.575 356.524 951.333 358.482 950.893 358.966C950.673 359.23 950.409 359.274 950.013 359.274C949.463 359.274 948.319 359.252 947.109 359.164C947.571 359.912 947.923 361.012 947.967 361.804C949.265 361.848 950.541 361.848 951.289 361.738C952.147 361.628 952.741 361.408 953.291 360.682C954.061 359.78 954.325 357.25 954.567 350.76C955.095 351.222 955.667 351.662 956.239 352.036C956.657 351.288 957.559 350.166 958.087 349.616C955.029 348.032 952.785 344.908 951.773 341.696H946.339ZM967.877 354.346H970.715C970.385 351.288 975.181 350.914 975.181 347.68C975.181 344.754 972.849 343.28 969.659 343.28C967.305 343.28 965.369 344.336 963.983 345.964L965.787 347.636C966.865 346.492 967.943 345.898 969.307 345.898C971.023 345.898 972.079 346.646 972.079 347.966C972.079 350.1 967.415 350.892 967.877 354.346ZM969.307 360.198C970.429 360.198 971.243 359.406 971.243 358.262C971.243 357.096 970.429 356.304 969.307 356.304C968.207 356.304 967.371 357.096 967.371 358.262C967.371 359.406 968.185 360.198 969.307 360.198Z" fill="#40798C"/>
<path d="M611.769 444.319L610.091 435.865H576.337H552.652L549.425 444.319L535.162 482.203H565.108H619.32L611.769 444.319Z" fill="white" stroke="#D2D5DA" stroke-width="3" stroke-miterlimit="10" stroke-linecap="round" stroke-linejoin="round"/>
<path d="M535.162 482.203L549.425 444.319H513.542L491.276 482.203L483.467 495.498H530.128H561.881L565.108 482.203H535.162Z" fill="white" stroke="#D2D5DA" stroke-width="3" stroke-miterlimit="10" stroke-linecap="round" stroke-linejoin="round"/>
<path d="M411.4 428.068L355.639 465.629H364.481H434.57L457.868 434.005L462.256 428.068H411.4ZM432.698 461.95H411.723L412.756 460.595C412.885 459.239 410.368 459.046 407.657 459.046H391.329C388.618 459.046 386.553 459.562 384.165 461.046L382.616 462.015H367.643L412.562 431.811H455.093L432.698 461.95Z" fill="white" stroke="#D2D5DA" stroke-width="3" stroke-miterlimit="10" stroke-linecap="round" stroke-linejoin="round"/>
<path d="M435.215 470.663L434.569 471.566C434.828 471.244 435.021 470.985 435.215 470.663Z" stroke="#1F363D" stroke-width="3" stroke-miterlimit="10" stroke-linecap="round" stroke-linejoin="round"/>
<path d="M434.569 465.629H364.481H355.639C355.639 465.629 353.187 467.242 355.639 471.566H434.569L435.215 470.663C436.699 468.081 434.569 465.629 434.569 465.629Z" fill="#D2D5DA" stroke="#D2D5DA" stroke-width="3" stroke-miterlimit="10" stroke-linecap="round" stroke-linejoin="round"/>
<path d="M462.256 428.068L457.868 434.005L434.569 465.629C434.569 465.629 436.699 468.146 435.215 470.663L462.256 434.005C462.256 434.005 464.773 431.101 462.256 428.068Z" fill="#1F363D" stroke="#1F363D" stroke-width="3" stroke-miterlimit="10" stroke-linecap="round" stroke-linejoin="round"/>
<path d="M367.643 461.95H382.616L384.165 460.982C386.489 459.498 388.618 458.981 391.329 458.981H407.657C410.368 458.981 412.885 459.239 412.756 460.53L411.723 461.885H432.698L455.028 431.682H412.497L367.643 461.95Z" fill="#1F363D" stroke="white" stroke-width="3" stroke-miterlimit="10" stroke-linecap="round" stroke-linejoin="round"/>
<path d="M527.159 294.139C566.296 294.139 598.022 262.413 598.022 223.276C598.022 184.14 566.296 152.413 527.159 152.413C488.023 152.413 456.296 184.14 456.296 223.276C456.296 262.413 488.023 294.139 527.159 294.139Z" fill="#1F363D"/>
<path d="M649.072 388.817L523.674 411.921L459.523 243.864L595.505 204.56L649.072 388.817Z" fill="#1F363D"/>
<path d="M681.599 382.105C681.341 379.265 681.018 376.361 680.696 373.457C674.113 321.503 651.395 281.619 629.968 284.394C610.607 286.846 598.926 323.439 601.83 368.874C602.153 373.586 602.604 378.426 603.185 383.331C603.314 384.493 603.508 385.654 603.637 386.816C605.831 402.047 609.381 416.181 613.834 428.378H676.63C680.05 426.12 681.083 422.506 681.147 418.891C681.276 419.02 681.405 419.214 681.599 419.343C682.761 408.049 682.761 395.4 681.599 382.105ZM680.631 413.599C680.631 413.535 680.566 413.47 680.566 413.406C680.566 413.47 680.566 413.535 680.631 413.599ZM680.373 412.696C680.373 412.631 680.308 412.567 680.308 412.438C680.373 412.502 680.373 412.567 680.373 412.696ZM680.179 411.728C680.179 411.663 680.179 411.599 680.115 411.534C680.115 411.599 680.115 411.663 680.179 411.728ZM679.598 409.985C679.598 409.921 679.534 409.856 679.534 409.856C679.598 409.856 679.598 409.921 679.598 409.985ZM679.34 409.275C679.34 409.211 679.276 409.146 679.276 409.082C679.34 409.146 679.34 409.211 679.34 409.275ZM679.147 408.63C679.147 408.565 679.147 408.565 679.082 408.501C679.082 408.565 679.147 408.63 679.147 408.63ZM678.695 407.597C678.695 407.533 678.695 407.533 678.63 407.533C678.695 407.533 678.695 407.597 678.695 407.597ZM678.566 407.275V407.21C678.566 407.275 678.566 407.275 678.566 407.275ZM681.212 417.665C681.212 417.73 681.212 417.859 681.212 417.923C681.212 417.859 681.212 417.73 681.212 417.665ZM680.954 415.6C680.954 415.664 680.954 415.729 680.954 415.794C681.018 415.729 680.954 415.664 680.954 415.6ZM681.083 416.568C681.083 416.633 681.083 416.762 681.083 416.826C681.083 416.762 681.083 416.697 681.083 416.568Z" fill="#CFE0C3"/>
<path d="M490.606 389.629C542.508 371.774 577.859 337.757 569.565 313.65C561.272 289.543 512.475 284.474 460.574 302.329C408.673 320.184 373.322 354.2 381.615 378.308C389.908 402.415 438.705 407.484 490.606 389.629Z" fill="#CFE0C3"/>
<path d="M534.387 297.56C526.707 319.825 556.395 350.61 601.83 368.874C598.926 323.439 610.607 286.846 629.969 284.394C632.163 284.136 634.357 284.265 636.551 284.846C636.551 284.846 636.551 284.781 636.487 284.781C587.502 269.098 542.39 274.519 534.387 297.56Z" fill="#CFE0C3"/>
<path d="M485.919 341.123V428.443H676.694L652.492 324.666L485.919 341.123Z" fill="#CFE0C3"/>
<path d="M678.437 407.016C659.463 380.297 628.032 380.039 603.637 386.816C588.664 391.011 576.402 397.787 571.432 402.821C564.85 409.404 569.238 415.406 571.691 420.118C574.143 424.829 574.724 428.378 574.724 428.378H613.899H676.694C685.73 422.441 678.437 407.016 678.437 407.016Z" fill="#F2DFD7"/>
<path d="M559.805 302.755C572.952 297.147 581.478 287.604 578.848 281.44C576.219 275.276 563.43 274.827 550.283 280.435C537.136 286.044 528.61 295.587 531.24 301.75C533.869 307.914 546.658 308.364 559.805 302.755Z" fill="#ECB1A9"/>
<path d="M563.124 244.67L515.575 264.955L531.277 301.759L578.826 281.474L563.124 244.67Z" fill="#ECB1A9"/>
<path d="M574.386 432.684L574.386 432.683L583.614 388.023C583.615 388.023 583.615 388.023 583.615 388.023C583.829 386.985 584.891 386.251 586.041 386.479C587.077 386.696 587.809 387.756 587.581 388.905C587.581 388.907 587.581 388.908 587.58 388.91L578.353 433.496L578.353 433.496L578.351 433.506C578.199 434.267 577.404 436.393 576.371 438.318C575.86 439.27 575.342 440.074 574.884 440.597C574.852 440.632 574.823 440.665 574.794 440.696C574.782 440.66 574.769 440.621 574.757 440.581C574.548 439.914 574.396 438.961 574.307 437.88C574.126 435.69 574.234 433.417 574.386 432.684ZM574.374 441.058C574.374 441.058 574.375 441.057 574.377 441.056C574.375 441.058 574.374 441.058 574.374 441.058ZM575.033 441.209C575.033 441.209 575.032 441.208 575.029 441.205C575.032 441.208 575.033 441.209 575.033 441.209Z" fill="white" stroke="#D2D5DA" stroke-width="3"/>
<path d="M577.047 403.144C577.047 403.144 579.5 405.919 577.564 409.275" stroke="#ECB1A9" stroke-width="3" stroke-miterlimit="10" stroke-linecap="round" stroke-linejoin="round"/>
<path d="M555.814 118.724C566.076 114.013 580.855 119.821 589.439 125.759C592.02 127.566 594.86 130.858 593.053 134.213C592.278 135.698 590.665 136.472 589.116 137.053C579.887 140.474 568.851 138.473 561.429 131.955C561.106 131.632 560.719 131.309 560.655 130.858C560.009 127.953 569.625 130.148 570.981 130.47C575.111 131.503 580.661 133.116 583.436 136.537C583.953 137.118 584.34 137.828 584.469 138.602C584.598 139.57 584.211 140.603 583.695 141.442C582.081 143.83 579.112 144.991 576.208 144.991C573.369 144.991 570.593 144.023 567.947 142.926C567.173 142.603 566.205 142.023 566.205 141.184C566.269 137.311 576.079 142.216 577.241 143.12C578.08 143.765 578.854 144.54 579.112 145.572C579.435 146.734 578.854 148.025 577.886 148.799C575.821 150.477 573.304 150.025 571.239 148.799C570.916 148.606 570.529 148.347 570.464 147.96C570.335 147.315 571.174 146.798 571.884 146.863C575.305 147.057 574.788 151.381 572.465 152.736C571.239 153.446 569.754 153.575 568.335 153.317" stroke="#1F363D" stroke-width="3" stroke-miterlimit="10" stroke-linecap="round" stroke-linejoin="round"/>
<path d="M571.432 232.634C571.432 198.235 546.198 170.419 515.09 170.419C483.983 170.419 458.749 198.3 458.749 232.634C458.749 244.574 461.847 256.513 467.978 266.839C473.205 275.617 481.143 284.845 487.21 288.911C496.052 294.913 509.411 295.752 514.832 295.301C546.521 292.59 571.432 266.581 571.432 232.634Z" fill="#F2DFD7"/>
<path d="M577.757 212.563C577.757 204.754 573.562 198.429 568.399 198.429C563.236 198.429 556.976 200.817 556.976 208.626C556.976 216.435 563.236 226.697 568.399 226.697C573.562 226.697 577.757 220.372 577.757 212.563Z" fill="#F2DFD7"/>
<path d="M527.74 203.527C527.482 206.174 525.029 208.11 522.254 207.852C520.835 207.722 519.673 207.077 518.834 206.109" stroke="#1F363D" stroke-width="3" stroke-miterlimit="10" stroke-linecap="round" stroke-linejoin="round"/>
<path d="M475.658 244.316L491.922 252.125" stroke="#1F363D" stroke-width="3" stroke-miterlimit="10" stroke-linecap="round" stroke-linejoin="round"/>
<path d="M487.404 240.185L479.595 256.513" stroke="#1F363D" stroke-width="3" stroke-miterlimit="10" stroke-linecap="round" stroke-linejoin="round"/>
<path d="M523.868 227.278L540.131 235.087" stroke="#1F363D" stroke-width="3" stroke-miterlimit="10" stroke-linecap="round" stroke-linejoin="round"/>
<path d="M535.614 223.147L527.804 239.411" stroke="#1F363D" stroke-width="3" stroke-miterlimit="10" stroke-linecap="round" stroke-linejoin="round"/>
<path d="M519.931 267.291C521.357 267.291 522.512 266.164 522.512 264.774C522.512 263.384 521.357 262.257 519.931 262.257C518.505 262.257 517.349 263.384 517.349 264.774C517.349 266.164 518.505 267.291 519.931 267.291Z" stroke="#E07D5C" stroke-width="3" stroke-miterlimit="10" stroke-linecap="round" stroke-linejoin="round"/>
<path d="M516.704 182.23C516.704 182.23 501.215 216.822 459.394 243.154C459.394 243.154 445.454 196.686 482.628 174.485C519.802 152.284 564.85 170.355 568.399 198.493C568.399 198.493 558.008 199.978 556.976 208.69C556.976 208.626 518.317 194.04 516.704 182.23Z" fill="#1F363D"/>
<path d="M464.364 211.595C440.936 202.366 406.086 235.409 386.466 285.297C366.846 335.185 369.944 383.137 393.372 392.302C393.759 392.431 394.146 392.56 394.469 392.689C394.662 392.302 394.856 391.914 395.05 391.527C395.695 390.107 396.405 388.688 397.05 387.332C398.147 385.009 399.245 382.75 400.342 380.427C401.826 377.393 403.246 374.296 404.73 371.262C406.473 367.584 408.28 363.905 410.023 360.226C412.023 356.031 414.024 351.836 416.025 347.706C418.219 343.188 420.349 338.606 422.543 334.088C424.802 329.312 427.125 324.537 429.384 319.761C431.707 314.92 434.031 310.016 436.354 305.175C438.677 300.335 441.001 295.559 443.26 290.719C445.519 286.072 447.713 281.425 449.972 276.778C452.037 272.454 454.167 268.066 456.232 263.742C458.103 259.805 459.975 255.933 461.847 251.996C463.46 248.64 465.074 245.348 466.622 241.992C467.913 239.346 469.139 236.765 470.43 234.119C471.269 232.312 472.173 230.569 473.012 228.762C474.496 225.6 474.948 222.05 473.399 218.629C472.495 216.693 471.656 215.403 469.849 214.241C468.171 213.079 466.235 212.305 464.364 211.595Z" fill="#F2DFD7"/>
<path d="M442.679 233.409C442.679 233.409 451.52 216.048 469.914 221.856" stroke="#ECB1A9" stroke-width="3" stroke-miterlimit="10" stroke-linecap="round" stroke-linejoin="round"/>
<path d="M590.794 403.08C590.794 403.08 572.917 405.79 572.465 422.054C572.013 438.253 583.372 429.54 583.372 429.54C583.372 429.54 590.988 433.864 606.799 427.733" fill="#F2DFD7"/>
<path d="M590.794 403.08C590.794 403.08 572.917 405.79 572.465 422.054C572.013 438.253 583.372 429.54 583.372 429.54C583.372 429.54 590.988 433.864 606.799 427.733" stroke="#ECB1A9" stroke-width="3" stroke-miterlimit="10" stroke-linecap="round" stroke-linejoin="round"/>
<path d="M570.274 254.688C570.274 254.688 555.505 356.541 621.114 349.023C621.114 349.023 632.451 345.583 625.349 340.174C618.246 334.765 611.988 331.619 611.193 310.135C610.475 288.641 595.341 262.049 595.082 243.5L570.274 254.688Z" fill="#20363D"/>
<path d="M151.832 465.565C191.753 465.565 224.115 433.203 224.115 393.283C224.115 353.362 191.753 321 151.832 321C111.911 321 79.5492 353.362 79.5492 393.283C79.5492 433.203 111.911 465.565 151.832 465.565Z" fill="#70A9A1"/>
<path d="M217.145 369.984L222.695 393.734L240.507 377.084L217.145 369.984Z" fill="#70A9A1"/>
<path d="M195.859 417.699C194.724 414.948 191.562 413.64 188.806 414.786L185.82 416.026L180.59 402.285C187.063 397.565 189.346 388.759 185.252 381.679L173.551 361.384C172.47 359.509 170.159 358.727 168.146 359.55L152.702 365.942L137.257 359.55C135.244 358.713 132.933 359.509 131.852 361.384L120.151 381.679C116.07 388.759 118.34 397.565 124.813 402.271L119.584 416.013L116.597 414.772C113.841 413.626 110.693 414.934 109.544 417.685C109.314 418.238 109.571 418.872 110.125 419.101L132.055 428.19C132.609 428.42 133.231 428.163 133.46 427.61C134.595 424.859 133.298 421.704 130.542 420.558L127.556 419.317L132.879 405.346C133.474 405.413 134.068 405.521 134.649 405.521C141.635 405.521 148.08 401.058 149.972 394.018L152.702 383.85L155.431 394.018C157.323 401.058 163.768 405.521 170.754 405.521C171.335 405.521 171.929 405.413 172.524 405.346L177.834 419.317L174.848 420.558C172.091 421.704 170.781 424.859 171.929 427.61C172.159 428.163 172.794 428.42 173.334 428.19L195.278 419.101C195.818 418.872 196.089 418.252 195.859 417.699ZM146.743 381.086L131.596 374.815L136.528 366.265L149.296 371.552L146.743 381.086ZM158.66 381.086L156.107 371.552L168.875 366.265L173.807 374.815L158.66 381.086Z" fill="#1F363D"/>
<path d="M725.214 265.329C756.509 265.329 781.878 239.959 781.878 208.665C781.878 177.37 756.509 152 725.214 152C693.919 152 668.549 177.37 668.549 208.665C668.549 239.959 693.919 265.329 725.214 265.329Z" fill="#F0CC67"/>
<path d="M681.263 240.675L694.235 254.745L675.584 258.94L681.263 240.675Z" fill="#F0CC67"/>
<path fill-rule="evenodd" clip-rule="evenodd" d="M725.665 185.771L697.997 209.931C697.874 210.041 697.731 210.115 697.588 210.19C697.491 210.24 697.395 210.29 697.304 210.351V233.533C697.304 234.641 698.211 235.538 699.33 235.538H703.352V233.622C703.352 229.296 706.95 225.785 711.384 225.785H711.963C713.421 226.465 715.024 226.874 716.74 226.874C718.455 226.874 720.066 226.465 721.516 225.785H722.095C726.53 225.785 730.128 229.296 730.128 233.622V235.538H732.359V233.622C732.359 230.996 731.293 228.622 729.591 226.833C730.742 226.187 732.053 225.785 733.475 225.785H733.74C734.709 226.112 735.734 226.329 736.822 226.329C737.91 226.329 738.935 226.112 739.904 225.785H740.169C744.486 225.785 747.979 229.193 747.979 233.405C747.979 234.22 747.672 234.966 747.165 235.538H752C753.12 235.538 754.026 234.641 754.026 233.533V210.356C753.938 210.297 753.844 210.248 753.75 210.199C753.613 210.129 753.476 210.058 753.36 209.955L725.665 185.771ZM761.457 200.978L754.026 194.481V177.378C754.026 176.27 753.12 175.372 752 175.372H743.897C742.778 175.372 741.871 176.27 741.871 177.378V183.857L729.052 172.654C728.086 171.794 726.876 171.363 725.665 171.361C724.455 171.36 723.247 171.789 722.285 172.649L689.873 200.978C689.042 201.719 688.972 202.986 689.72 203.811L692.43 206.796C693.177 207.62 694.458 207.689 695.291 206.948L724.326 181.593C725.092 180.925 726.24 180.925 727.006 181.593L756.04 206.947C756.872 207.686 758.154 207.619 758.902 206.795L761.611 203.81C762.358 202.986 762.29 201.717 761.457 200.978ZM724.55 215.989C724.55 220.2 721.056 223.608 716.74 223.608C712.423 223.608 708.93 220.2 708.93 215.989C708.93 211.778 712.423 208.37 716.74 208.37C721.056 208.37 724.55 211.778 724.55 215.989ZM743.516 217.077C743.516 220.683 740.518 223.608 736.822 223.608C733.126 223.608 730.128 220.683 730.128 217.077C730.128 213.472 733.126 210.547 736.822 210.547C740.518 210.547 743.516 213.472 743.516 217.077Z" fill="#1F363D"/>
<path d="M90.15 96.2262L108.973 90.8359L107.532 85.8022L101.652 87.486L94.1179 61.1755L89.5072 62.4958C87.8825 64.3341 85.9554 65.7556 82.9948 67.2441L84.0971 71.0934L89.7653 69.4703L95.4342 89.2666L88.7085 91.1926L90.15 96.2262ZM118.612 88.7164C120.854 88.0744 121.995 85.8254 121.341 83.5412C120.675 81.2147 118.529 79.9528 116.287 80.5948C114.087 81.2247 112.934 83.4314 113.6 85.7579C114.254 88.0421 116.413 89.3463 118.612 88.7164ZM127.165 85.6266L148.146 79.6185L146.644 74.3733L139.876 76.3114C138.395 76.7353 136.371 77.4981 134.854 78.1155C138.966 70.8966 141.917 63.4609 140.294 57.7927C138.622 51.9554 133.598 49.2749 127.676 50.9707C123.404 52.1941 121.084 54.6433 119.092 58.5549L123.445 60.9698C124.556 58.7752 125.993 56.7617 128.277 56.1076C131.281 55.2476 133.518 56.6666 134.426 59.8391C135.807 64.6612 132.457 71.9824 126.135 82.0311L127.165 85.6266ZM162.015 76.2876C167.979 74.5797 172.056 69.7966 170.408 64.0438C169.233 59.9407 165.775 58.0934 161.986 58.1258L161.925 57.9143C164.849 55.6582 166.05 52.6598 165.081 49.2758C163.555 43.946 158.592 42.1177 152.543 43.8498C148.863 44.9037 146.283 47.2442 144.254 50.3882L148.517 53.2867C149.882 51.0195 151.41 49.4834 153.652 48.8414C156.317 48.0783 158.251 49.0804 158.954 51.5338C159.753 54.3256 158.461 56.8467 152.709 58.494L153.98 62.9355C160.791 60.9853 163.167 62.4102 164.039 65.4558C164.851 68.2899 163.141 70.4728 159.969 71.3813C157.135 72.1928 154.451 71.451 152.069 70.1651L150.277 74.9348C153.191 76.8006 157.066 77.7049 162.015 76.2876Z" fill="#70A9A1"/>
<path d="M325.18 400.344L330.904 397.369C327.033 391.548 336.313 385.768 332.924 379.246C329.858 373.345 323.61 372.816 317.177 376.159C312.43 378.626 309.632 382.785 308.543 387.521L313.933 389.002C314.908 385.565 316.46 383.237 319.211 381.808C322.671 380.01 325.585 380.411 326.968 383.073C329.205 387.377 320.629 393.862 325.18 400.344ZM334.197 410.647C336.46 409.471 337.271 407.02 336.072 404.713C334.85 402.362 332.379 401.618 330.116 402.794C327.898 403.946 327.042 406.42 328.264 408.771C329.463 411.078 331.934 411.822 334.197 410.647Z" fill="#F0CC67"/>
<path d="M963.534 436.148L933.333 428.158L932.196 432.454L962.397 440.444L963.534 436.148ZM930.688 438.154L929.551 442.45L959.752 450.44L960.889 446.144L930.688 438.154Z" fill="#1F363D"/>
<path d="M943.338 297.332C1020.72 297.332 1083.45 234.602 1083.45 157.22C1083.45 79.8379 1020.72 17.1074 943.338 17.1074C865.957 17.1074 803.226 79.8379 803.226 157.22C803.226 234.602 865.957 297.332 943.338 297.332Z" fill="#70A9A1"/>
<path d="M831.3 231.503L861.698 267.709L815.166 275.97L831.3 231.503Z" fill="#70A9A1"/>
<path d="M987.548 152.831L996.712 289.975L1026.21 270.742C1028.59 259.254 1030.01 246.67 1030.21 233.375C1030.92 179.743 1011.1 136.051 985.934 135.728C977.996 135.599 970.445 139.859 963.798 147.474C964.637 148.701 965.411 149.991 966.056 151.411L987.548 152.831Z" fill="white"/>
<path d="M946.63 149.991L960.958 150.959C961.926 149.669 962.894 148.507 963.862 147.345C962.055 144.764 959.925 142.634 957.344 141.021C936.111 127.532 895.581 153.347 866.861 198.589C838.142 243.83 832.075 291.459 853.308 304.947C860.407 309.465 869.572 309.594 879.833 306.045L871.702 304.947L946.63 149.991Z" fill="white"/>
<path d="M966.121 151.347C965.475 149.927 964.701 148.636 963.862 147.41C962.894 148.507 961.926 149.733 960.958 151.024L966.121 151.347Z" fill="white"/>
<path d="M939.983 253.317C921.461 280.423 898.937 299.591 879.898 306.174L955.795 316.693L959.215 314.435C949.341 300.688 942.306 278.874 939.983 253.317Z" fill="white"/>
<path d="M987.547 152.831L966.185 151.347C975.737 171.483 967.476 210.27 943.855 247.444C942.564 249.445 941.274 251.381 939.983 253.317C942.306 278.874 949.405 300.688 959.215 314.37L996.712 289.91L987.547 152.831Z" fill="white"/>
<path d="M939.983 253.317C939.337 246.476 939.079 239.377 939.144 232.148C939.596 198.008 948.244 168.127 960.958 151.024L946.63 150.056L871.702 305.077L879.833 306.174C898.937 299.655 921.46 280.423 939.983 253.317Z" fill="white"/>
<path d="M966.121 151.347L960.958 150.959C948.244 168.127 939.596 198.008 939.144 232.084C939.08 239.377 939.338 246.476 939.983 253.252C941.274 251.316 942.565 249.38 943.855 247.379C967.412 210.27 975.737 171.483 966.121 151.347Z" fill="white"/>
<path d="M959.215 314.435L955.795 316.693L961.603 317.468C960.764 316.5 959.99 315.467 959.215 314.435Z" fill="white"/>
<path d="M930.238 43.3098C931.27 45.7622 934.239 46.8594 936.82 45.7622C938.111 45.1814 939.079 44.2133 939.531 43.0516" stroke="#1F363D" stroke-width="3" stroke-miterlimit="10" stroke-linecap="round" stroke-linejoin="round"/>
<path d="M967.901 158.357C981.326 155.345 991.065 147.8 989.652 141.505C988.24 135.21 976.212 132.548 962.786 135.559C949.361 138.571 939.622 146.116 941.035 152.411C942.447 158.707 954.475 161.369 967.901 158.357Z" fill="#ECB1A9"/>
<path d="M981.236 103.895L932.618 114.802L941.052 152.399L989.67 141.492L981.236 103.895Z" fill="#ECB1A9"/>
<path d="M1012.01 95.1985C1026.14 65.1883 1015.56 30.5313 988.451 17.7527C961.345 4.97416 927.85 18.9144 913.78 48.9247C908.876 59.3798 906.681 71.0612 907.778 82.549C908.746 92.3588 911.909 103.653 915.458 109.72C920.686 118.561 931.98 124.822 936.95 126.629C965.734 137.277 998.067 124.822 1012.01 95.1985Z" fill="#F2DFD7"/>
<path d="M1025.75 80.3547C1028.98 73.5782 1027.88 66.2854 1023.43 64.2202C1018.91 62.0904 1012.46 61.5741 1009.3 68.4152C1006.07 75.1917 1007.36 86.744 1011.81 88.8738C1016.33 90.939 1022.59 87.1312 1025.75 80.3547Z" fill="#F2DFD7"/>
<path d="M931.464 66.35C932.889 66.35 934.045 65.2231 934.045 63.833C934.045 62.4429 932.889 61.316 931.464 61.316C930.038 61.316 928.882 62.4429 928.882 63.833C928.882 65.2231 930.038 66.35 931.464 66.35Z" fill="#1F363D"/>
<path d="M971.219 67.5116C972.645 67.5116 973.801 66.3848 973.801 64.9947C973.801 63.6046 972.645 62.4777 971.219 62.4777C969.793 62.4777 968.638 63.6046 968.638 64.9947C968.638 66.3848 969.793 67.5116 971.219 67.5116Z" fill="#1F363D"/>
<path d="M951.212 82.42C951.6 79.7739 949.664 77.3215 946.888 76.8697C945.533 76.6761 944.178 76.9988 943.145 77.7732" stroke="#E07D5C" stroke-width="3" stroke-miterlimit="10" stroke-linecap="round" stroke-linejoin="round"/>
<path d="M982.901 32.7256C982.901 32.7256 984.772 44.5361 996.647 51.7644C1000.84 54.3459 1008.26 67.8344 1008.26 67.8344C1008.26 67.8344 1016.98 58.5409 1023.5 64.1557C1023.5 64.1557 1026.4 4.90967 952.697 11.1699C952.697 11.1699 906.552 14.4613 904.874 62.2196C904.874 62.2196 907.52 62.8649 918.943 54.6686C918.943 54.6686 918.621 59.5735 930.754 54.0232C930.754 54.0232 934.368 57.3147 942.242 51.6998C942.242 51.6998 945.791 54.7977 955.924 50.5382C966.056 46.3432 982.901 32.7256 982.901 32.7256Z" fill="#1F363D"/>
<path d="M904.874 62.2195C904.874 62.2195 898.872 26.5944 927.398 15.2357C927.398 15.2357 966.185 -17.4851 997.744 12.9769C997.744 12.9769 1033.63 25.3037 1023.5 64.2202L985.224 22.5285L938.434 29.7568L904.874 62.2195Z" fill="#1F363D"/>
<path d="M892.031 126.693C892.031 126.693 902.035 102.943 913.522 102.685C913.522 102.685 924.494 104.427 921.525 111.398C918.556 118.368 914.555 128.113 914.555 128.113C914.555 128.113 899.518 139.407 892.031 126.693Z" fill="#F2DFD7"/>
<path d="M914.103 122.046C889.966 114.947 858.149 150.895 842.982 202.267C827.816 253.704 835.108 301.14 859.246 308.239C859.633 308.368 860.02 308.433 860.407 308.562C860.536 308.175 860.73 307.723 860.859 307.336C861.375 305.851 861.956 304.431 862.473 302.947C863.376 300.559 864.28 298.171 865.183 295.783C866.345 292.621 867.571 289.458 868.733 286.232C870.153 282.424 871.637 278.551 873.057 274.744C874.67 270.42 876.284 266.031 877.962 261.707C879.704 256.996 881.511 252.284 883.254 247.573C885.125 242.604 886.997 237.699 888.804 232.729C890.676 227.695 892.612 222.661 894.484 217.563C896.355 212.529 898.227 207.56 900.098 202.526C901.905 197.685 903.712 192.845 905.52 188.069C907.198 183.551 908.876 179.034 910.618 174.516C912.167 170.45 913.651 166.384 915.2 162.318C916.491 158.833 917.782 155.413 919.073 151.928C920.105 149.217 921.138 146.442 922.17 143.731C922.88 141.86 923.59 139.988 924.236 138.181C925.462 134.89 925.591 131.34 923.719 128.048C922.622 126.177 921.719 125.015 919.783 123.983C917.975 123.208 916.039 122.627 914.103 122.046Z" fill="#F2DFD7"/>
<path d="M894.419 145.667C894.419 145.667 901.712 127.597 920.557 131.727" stroke="#ECB1A9" stroke-width="3" stroke-miterlimit="10" stroke-linecap="round" stroke-linejoin="round"/>
<path d="M915.071 103.072C915.071 103.072 920.428 103.201 921.848 108.752C922.751 112.301 920.944 113.915 920.944 113.915" stroke="#ECB1A9" stroke-width="3" stroke-miterlimit="10" stroke-linecap="round" stroke-linejoin="round"/>
<path d="M832.85 285.07C834.592 310.175 879.382 327.471 932.884 323.793C986.386 320.049 1028.34 296.687 1026.59 271.646C1026.59 271.259 1026.53 270.871 1026.46 270.484C1026.01 270.484 1025.56 270.484 1025.17 270.484C1023.62 270.484 1022.08 270.484 1020.53 270.484C1017.95 270.484 1015.43 270.484 1012.85 270.484C1009.43 270.484 1006.07 270.484 1002.65 270.484C998.584 270.484 994.453 270.484 990.387 270.42C985.74 270.42 981.094 270.42 976.447 270.355C971.413 270.355 966.379 270.355 961.345 270.291C956.053 270.291 950.761 270.291 945.469 270.226C940.047 270.226 934.691 270.226 929.27 270.161C923.913 270.161 918.556 270.161 913.2 270.097C908.037 270.097 902.873 270.097 897.71 270.032C892.87 270.032 888.094 270.032 883.254 269.968C878.93 269.968 874.606 269.968 870.282 269.903C866.603 269.903 862.86 269.903 859.181 269.903C856.277 269.903 853.373 269.903 850.404 269.903C848.403 269.903 846.403 269.903 844.466 269.903C840.981 269.903 837.561 271 835.173 273.905C833.818 275.583 833.043 276.873 832.785 279.003C832.591 281.068 832.72 283.069 832.85 285.07Z" fill="#F2DFD7"/>
<path d="M861.827 295.331C861.827 295.331 842.337 294.815 839.691 275.712" stroke="#ECB1A9" stroke-width="3" stroke-miterlimit="10" stroke-linecap="round" stroke-linejoin="round"/>
<path d="M840.013 270.42C841.175 270.097 842.659 269.903 844.531 269.903C849.049 269.903 861.182 269.903 868.668 269.903" stroke="#ECB1A9" stroke-width="3" stroke-miterlimit="10" stroke-linecap="round" stroke-linejoin="round"/>
<path d="M835.753 96.6829L809.357 113.527L850.984 131.275L835.753 96.6829Z" fill="#40798C"/>
<path d="M649.234 113.565L835.62 113.565L835.62 46.3158L649.234 46.3158L649.234 113.565Z" fill="#40798C"/>
<path d="M649.174 113.592C667.744 113.592 682.798 98.5379 682.798 79.9677C682.798 61.3974 667.744 46.3433 649.174 46.3433C630.603 46.3433 615.549 61.3974 615.549 79.9677C615.549 98.5379 630.603 113.592 649.174 113.592Z" fill="#40798C"/>
<path d="M835.624 113.592C854.194 113.592 869.248 98.5378 869.248 79.9675C869.248 61.3973 854.194 46.3431 835.624 46.3431C817.054 46.3431 802 61.3973 802 79.9675C802 98.5378 817.054 113.592 835.624 113.592Z" fill="#40798C"/>
<path d="M637.168 72.1279C636.318 74.5419 634.839 76.9559 633.309 78.4859C633.649 78.9789 634.21 80.0839 634.397 80.5939C634.771 80.1859 635.162 79.7269 635.536 79.2169V87.9039H637.474V76.2079C638.103 75.0859 638.647 73.8959 639.089 72.7229L637.168 72.1279ZM640.313 79.6249C639.922 81.5119 639.208 83.4329 638.239 84.6229C638.732 84.8779 639.582 85.3879 639.973 85.7109C640.925 84.3339 641.792 82.1919 642.285 80.0329L640.313 79.6249ZM647.385 76.9729C647.3 77.7209 647.198 78.4349 647.113 78.9619L648.83 79.2509C649.068 78.2649 649.357 76.6839 649.561 75.3069L648.133 75.0349L647.81 75.1029H641.962C642.268 74.2699 642.54 73.4369 642.761 72.5699L640.789 72.1279C640.211 74.4569 639.191 76.8029 637.899 78.2479C638.358 78.5539 639.174 79.2169 639.531 79.5739C640.092 78.8599 640.653 77.9589 641.129 76.9729H643.101V85.6429C643.101 85.8639 643.016 85.9319 642.795 85.9319C642.557 85.9319 641.843 85.9319 641.129 85.9149C641.435 86.4589 641.741 87.3599 641.826 87.9549C642.914 87.9549 643.73 87.8699 644.325 87.5469C644.937 87.2069 645.107 86.6459 645.107 85.6769V76.9729H647.385ZM645.719 80.0669C646.535 81.8179 647.249 84.1469 647.436 85.6599L649.374 84.9969C649.136 83.4669 648.405 81.2059 647.521 79.4549L645.719 80.0669ZM663.841 74.7119H662.753V73.6239H663.841V74.7119ZM661.223 74.7119H660.203V73.6239H661.223V74.7119ZM658.673 74.7119H657.653V73.6239H658.673V74.7119ZM665.558 72.5189H656.021V75.8169H665.558V72.5189ZM654.916 74.6269C654.457 73.9469 653.556 72.8929 652.808 72.0769L651.295 72.9779C651.992 73.8109 652.91 74.9839 653.335 75.6979L654.916 74.6269ZM664.504 81.3759C664.079 81.7329 663.535 82.1409 663.059 82.4469C662.634 82.1749 662.209 81.8859 661.818 81.6479L660.594 82.4979C660.917 82.7189 661.257 82.9399 661.614 83.1949L659.421 83.8239V82.6169C660.118 82.2259 660.747 81.8179 661.291 81.3759H664.504ZM658.367 79.4039H663.093V80.2539H658.367V79.4039ZM665.983 84.4699C665.558 84.1299 664.929 83.7049 664.266 83.2459C664.844 82.9229 665.49 82.4809 666.034 82.0559L664.963 81.2399V78.2819H656.582V81.3759H659.064C657.891 82.0219 656.429 82.5659 655.188 82.8889C655.494 83.1779 655.919 83.7049 656.14 84.0619C656.684 83.8919 657.245 83.6709 657.823 83.4159V83.8409C657.823 84.4529 657.517 84.6739 657.245 84.7929C657.398 85.0139 657.602 85.4389 657.704 85.7959C656.225 85.5919 655.154 85.0819 654.491 83.8919C654.814 82.8719 655.069 81.7159 655.239 80.4239L654.389 80.0669L654.083 80.1179H653.114C653.862 78.9789 654.78 77.3979 655.341 76.4459V77.6869H666.306V76.3949H655.375L655.392 76.3609L654.168 75.8849L653.896 76.0039H650.836V77.6189H652.842C652.315 78.5369 651.703 79.4889 651.431 79.7779C651.159 80.1179 650.887 80.2539 650.632 80.3219C650.802 80.6789 651.159 81.5289 651.261 81.9369C651.397 81.8009 651.907 81.6819 652.298 81.6819H653.284C652.808 83.9429 651.907 85.6429 650.547 86.6459C650.938 86.9009 651.601 87.5809 651.873 87.9719C652.604 87.3769 653.25 86.5949 653.794 85.5579C655.086 87.3089 657.058 87.6489 660.203 87.6489C662.192 87.6489 664.351 87.5979 666.119 87.4959C666.221 86.9349 666.493 86.0339 666.782 85.6259C664.844 85.8129 662.056 85.9149 660.237 85.9149C659.472 85.9149 658.792 85.8979 658.146 85.8299C658.639 85.6259 659.591 85.3029 662.022 84.5719C661.954 84.2659 661.852 83.7559 661.801 83.3309C662.889 84.0789 664.045 84.9289 664.708 85.4729L665.983 84.4699ZM672.12 83.5519V85.5409H670.182V83.5519H672.12ZM673.888 81.9539H668.431V87.8189H670.182V87.1559H673.888V81.9539ZM668.176 81.0699H674.194V79.5399H668.176V81.0699ZM668.516 77.1259V78.6219H673.905V77.1259H668.516ZM672.443 74.0149C672.205 73.4199 671.661 72.5529 671.134 71.9409L669.502 72.7229C669.927 73.2669 670.369 73.9979 670.624 74.5929H667.666V76.1909H674.738V74.5929H671.372L672.443 74.0149ZM678.342 85.8129C677.543 85.8129 677.39 85.7109 677.39 84.9969V80.3049H680.603V81.1379H682.643V72.9099H675.299V74.8309H680.603V78.3839H675.35V84.9969C675.35 87.1389 675.996 87.7339 678.104 87.7339H680.875C682.796 87.7339 683.357 86.9009 683.595 84.0959C683.051 83.9599 682.184 83.6199 681.742 83.2969C681.623 85.4219 681.504 85.8129 680.739 85.8129H678.342ZM697.365 74.8139H692.945V73.9639H697.365V74.8139ZM697.365 77.0239H692.945V76.1399H697.365V77.0239ZM699.405 72.5529H690.99V78.4349H699.405V72.5529ZM688.066 72.0769C687.352 73.2159 685.856 74.5929 684.53 75.4089C684.836 75.8339 685.329 76.6669 685.533 77.1259C687.131 76.0889 688.865 74.4229 689.987 72.8589L688.066 72.0769ZM688.508 75.7829C687.522 77.4489 685.856 79.0979 684.343 80.1519C684.649 80.6449 685.159 81.8009 685.312 82.2429C685.822 81.8519 686.332 81.3759 686.842 80.8659V87.9209H688.797V78.6899C689.358 77.9759 689.868 77.2619 690.276 76.5479L688.508 75.7829ZM700.306 81.8009H697.994V80.8319H699.966V79.1829H690.123V80.8319H695.937V81.8009H689.715V83.5179H692.095L690.837 84.3509C691.551 85.0649 692.418 86.0679 692.792 86.7139L694.305 85.6429C693.88 85.0479 693.047 84.1639 692.367 83.5179H695.937V85.8809C695.937 86.0679 695.869 86.1359 695.631 86.1529C695.41 86.1529 694.611 86.1529 693.897 86.1189C694.152 86.6289 694.441 87.3769 694.526 87.9209C695.682 87.9209 696.532 87.9209 697.161 87.6319C697.824 87.3429 697.994 86.8669 697.994 85.9319V83.5179H700.323L700.306 81.8009ZM710.03 75.7149C710.625 76.0549 711.288 76.4289 711.951 76.8199C711.186 77.3469 710.353 77.7719 709.52 78.0439C709.86 78.4009 710.37 79.0639 710.625 79.4719C711.645 79.0639 712.648 78.5199 713.549 77.8399C714.501 78.4519 715.334 79.0469 715.895 79.5229L717.306 78.1459C716.711 77.6869 715.878 77.1429 714.96 76.5819C715.827 75.6469 716.558 74.5419 717.034 73.2669L715.776 72.6719L715.453 72.7399H710.557V74.3379H714.433C714.127 74.7969 713.787 75.2389 713.379 75.6469C712.648 75.2219 711.951 74.8309 711.322 74.5079L710.03 75.7149ZM705.117 77.8229V77.1769H707.48V77.6359L705.117 77.8229ZM707.48 73.7429V74.3379H705.117V73.7429H707.48ZM705.117 75.4599H707.48V76.0549H705.117V75.4599ZM707.48 79.6419H709.299V73.7429H710.268V72.3149H702.023V73.7429H703.315V77.9589C702.72 77.9929 702.176 78.0269 701.683 78.0609L701.904 79.5059C703.451 79.3699 705.474 79.1999 707.48 78.9959V79.6419ZM704.947 81.9879C704.437 83.5519 703.349 84.7589 702.04 85.4899C702.278 85.9319 702.618 86.9349 702.737 87.3769C703.74 86.7649 704.59 85.9319 705.27 84.8949C705.865 85.6089 706.477 86.3399 706.8 86.8669L708.024 85.7619C707.616 85.1329 706.8 84.2319 706.052 83.4839C706.205 83.1439 706.341 82.7869 706.46 82.4299L704.947 81.9879ZM714.297 79.2339C711.543 79.7609 706.715 80.0669 702.822 80.0499C703.196 80.4749 703.706 81.4099 703.978 81.8519C705.372 81.8009 706.97 81.6989 708.568 81.5799V87.9209H710.591V81.3759C712.529 81.1719 714.382 80.9169 715.844 80.5769L714.297 79.2339ZM713.719 81.3079C713.243 83.0589 712.223 84.4529 710.914 85.3029C711.152 85.7449 711.509 86.7309 711.628 87.1899C712.597 86.5099 713.396 85.6089 714.059 84.5039C714.637 85.4899 715.368 86.3739 716.15 86.9519C716.439 86.5099 716.983 85.8979 717.408 85.5749C716.388 84.9799 715.419 83.9259 714.841 82.8549C714.994 82.4979 715.113 82.1069 715.232 81.7159L713.719 81.3079ZM724.004 75.5619C723.596 76.0549 723.086 76.4799 722.508 76.8879C722.151 76.5989 721.658 76.2759 721.216 76.0209C721.369 75.8679 721.505 75.7149 721.658 75.5619H724.004ZM725.16 74.4059L724.854 74.4739H723.783V73.9299H726.537V72.7229H723.783V72.0429H722.083V74.2529L721.046 74.0489C720.553 74.7969 719.703 75.5959 718.547 76.2249C718.887 76.4289 719.38 76.9219 719.601 77.2619C719.822 77.1259 720.026 76.9899 720.23 76.8369C720.587 77.0749 720.978 77.3469 721.267 77.6189C720.519 78.0099 719.703 78.3159 718.921 78.5369C719.244 78.8259 719.686 79.3869 719.89 79.7609C722.457 78.9279 725.058 77.3809 726.282 75.0009L725.16 74.4059ZM722.814 80.8829C723.409 80.5939 724.004 80.2879 724.565 79.9649L724.548 80.5089H728.696V79.9989C729.291 80.3049 729.937 80.6109 730.566 80.8829H722.814ZM731.246 84.7249C730.974 84.9629 730.702 85.2009 730.447 85.4389C729.75 85.1839 729.053 84.9459 728.373 84.7249H731.246ZM723.868 85.9489V84.7249H726.86L726.265 85.4049C726.503 85.4729 726.758 85.5579 727.03 85.6259L723.868 85.9489ZM723.868 83.1609H729.529V83.6879H723.868V83.1609ZM723.868 81.9369H729.529V82.3959H723.868V81.9369ZM725.228 79.5399C725.67 79.2509 726.095 78.9619 726.469 78.6389C726.911 78.9449 727.387 79.2509 727.863 79.5399H725.228ZM733.864 77.4829C733.32 77.0239 732.538 76.5309 731.688 76.0379C732.504 75.2219 733.167 74.2359 733.592 73.0459L732.47 72.5869L732.181 72.6379H727.081V74.0149H731.263C730.957 74.4569 730.583 74.8479 730.175 75.1879C729.444 74.8309 728.713 74.4739 728.05 74.1849L726.928 75.2729C727.489 75.5279 728.084 75.8339 728.696 76.1569C728.254 76.3779 727.795 76.5649 727.353 76.7009C727.438 76.7689 727.54 76.8879 727.642 77.0239L726.537 76.4459C724.854 78.3839 721.641 79.8289 718.666 80.5939C719.057 80.9849 719.499 81.5969 719.72 82.0389C720.468 81.8009 721.199 81.5459 721.93 81.2569V85.4389C721.93 86.0849 721.658 86.3569 721.369 86.4929C721.607 86.7819 721.913 87.4789 721.981 87.8869C722.406 87.6829 723.052 87.5639 727.132 87.0879C727.115 86.7309 727.132 86.1189 727.166 85.6769C729.189 86.3399 731.535 87.2919 732.759 87.9889L733.728 86.8159C733.235 86.5439 732.589 86.2549 731.892 85.9659C732.419 85.6089 732.98 85.1839 733.524 84.7589L732.113 83.8579C731.926 84.0619 731.705 84.2999 731.45 84.5379V81.2229C732.181 81.4779 732.878 81.7159 733.558 81.9029C733.796 81.4779 734.289 80.8149 734.663 80.4579C732.249 79.9479 729.291 78.8599 727.523 77.7209C727.642 77.6019 727.761 77.4659 727.88 77.3469C728.067 77.6019 728.237 77.8739 728.339 78.0949C729.036 77.8399 729.699 77.4999 730.328 77.1089C731.246 77.6869 732.079 78.2649 732.623 78.7409L733.864 77.4829ZM735.802 78.7409V80.9339H751.442V78.7409H735.802ZM759.279 72.0769C759.211 74.9499 759.534 82.5659 752.632 86.2549C753.312 86.7139 753.958 87.3599 754.315 87.9039C757.851 85.8299 759.636 82.7529 760.571 79.7609C761.557 82.6849 763.444 85.9999 767.218 87.8019C767.49 87.2239 768.068 86.5439 768.697 86.0509C762.764 83.4329 761.727 77.0239 761.489 74.7289C761.557 73.7089 761.591 72.7909 761.608 72.0769H759.279ZM782.263 81.1719C781.651 82.0899 780.869 82.8549 779.917 83.4839C779.305 82.9229 778.285 82.2599 777.367 81.7499C777.69 81.5629 777.979 81.3759 778.268 81.1719H782.263ZM779.883 75.0009C779.237 75.7149 778.455 76.3609 777.537 76.9219C776.976 76.4459 776.041 75.8849 775.191 75.4429C775.412 75.2899 775.616 75.1539 775.82 75.0009H779.883ZM783.725 79.4039L783.385 79.4889H780.342C780.716 79.1319 781.073 78.7579 781.396 78.3669L779.356 77.8909C780.801 76.8369 782.025 75.5619 782.858 73.9979L781.566 73.2499L781.226 73.3349H777.826C778.115 73.0459 778.387 72.7569 778.642 72.4679L776.449 72.0089C775.276 73.4029 773.185 74.8309 770.176 75.7829C770.618 76.1229 771.247 76.8199 771.536 77.2789C772.233 77.0069 772.879 76.7179 773.491 76.3949C774.273 76.8199 775.14 77.3809 775.769 77.8569C774.018 78.6559 772.029 79.2169 770.04 79.5399C770.397 79.9819 770.788 80.7639 770.975 81.2739C773.797 80.7129 776.585 79.7269 778.863 78.2309C777.503 79.7099 775.191 81.1719 771.927 82.1579C772.352 82.4979 772.93 83.2459 773.168 83.7219C774.035 83.4159 774.851 83.0759 775.599 82.7019C776.449 83.2119 777.452 83.9089 778.098 84.4869C776.194 85.3369 773.916 85.8469 771.468 86.1019C771.774 86.5779 772.165 87.3939 772.318 87.9549C778.149 87.1559 783.028 85.1499 785.085 80.1009L783.725 79.4039ZM789.811 74.5589C789.131 76.5139 787.992 78.6899 786.87 80.0499C787.363 80.2709 788.23 80.7469 788.638 81.0359C789.692 79.5569 790.899 77.2109 791.732 75.0519L789.811 74.5589ZM797.665 75.3239C798.753 77.0749 800.096 79.4719 800.725 80.9679L802.459 79.9479C801.779 78.4519 800.453 76.2249 799.297 74.4739L797.665 75.3239ZM798.617 80.8149C796.509 84.2659 792.242 85.4899 786.564 85.9659C786.938 86.4929 787.329 87.3089 787.499 87.9039C793.551 87.2069 798.056 85.6599 800.47 81.6309L798.617 80.8149ZM793.398 72.0769V82.6509H795.404V72.0769H793.398ZM805.876 76.3269C806.301 75.8169 806.726 75.2729 807.083 74.7119C807.865 75.2049 808.664 75.7829 809.259 76.3269H805.876ZM807.899 84.9289V80.9679H809.905V79.2509H807.899V78.0099H809.344V76.4119C809.497 76.5479 809.633 76.6839 809.752 76.8029L810.568 75.1539C809.973 74.5929 808.987 73.8619 807.967 73.2499C808.069 73.0459 808.171 72.8419 808.273 72.6379L806.828 71.9579C806.08 73.5049 804.754 74.9839 803.513 75.9019C803.751 76.4119 804.108 77.5339 804.21 77.9759C804.482 77.7549 804.754 77.4999 805.026 77.2449V78.0099H806.284V79.2509H804.074V80.9679H806.284V85.2009C805.366 85.3709 804.516 85.5239 803.836 85.6259L804.21 87.4449C805.842 87.0709 808.001 86.6289 810.024 86.1529L809.922 84.5549L807.899 84.9289ZM804.193 81.9369C804.448 82.8549 804.669 84.0619 804.72 84.8779L806.012 84.4869C805.91 83.7219 805.672 82.4979 805.383 81.5969L804.193 81.9369ZM809.157 84.6569C809.395 83.9429 809.701 82.8039 810.007 81.8179L808.63 81.4269C808.511 82.2939 808.256 83.5179 808.035 84.2829L809.157 84.6569ZM816.739 83.0929C816.365 83.5689 815.889 83.9939 815.328 84.3679C815.141 84.0279 814.954 83.6709 814.801 83.2629L816.739 83.0929ZM816.705 75.6469C816.365 76.0209 815.94 76.3609 815.464 76.6329C815.311 76.3949 815.158 76.1229 815.022 75.7999L816.705 75.6469ZM816.977 83.0759L819.51 82.8379L819.374 81.2739L817.164 81.4609L817.98 80.5259C817.47 80.1859 816.484 79.7269 815.753 79.4209L814.818 80.4919C815.413 80.7639 816.195 81.1719 816.688 81.5119L814.325 81.7159C814.155 81.0019 814.053 80.2539 814.019 79.4549H813.033C813.645 79.2339 814.291 78.9959 814.886 78.7069C815.651 79.4209 816.552 79.8459 817.521 79.8459C818.745 79.8459 819.255 79.4719 819.51 77.8059C819.068 77.6699 818.524 77.4319 818.201 77.1089C818.116 77.9589 817.997 78.2139 817.606 78.2139C817.232 78.2139 816.858 78.0779 816.518 77.8059C817.283 77.3299 817.963 76.7519 818.49 76.1059L817.045 75.6129L819.34 75.4089L819.187 73.8449L817.249 74.0149L818.048 73.0969C817.589 72.7569 816.705 72.2979 816.025 72.0259L815.039 73.0969C815.6 73.3519 816.297 73.7259 816.739 74.0489L814.478 74.2529C814.325 73.5729 814.206 72.8589 814.172 72.0939H812.404C812.455 72.8929 812.557 73.6579 812.727 74.3889L810.738 74.5589L810.874 76.1739L813.203 75.9529C813.373 76.4969 813.611 76.9729 813.883 77.4149C812.812 77.8739 811.588 78.2309 810.381 78.4859C810.738 78.8259 811.282 79.5399 811.503 79.9309C811.758 79.8629 811.996 79.7949 812.251 79.7099C812.302 80.4579 812.404 81.1719 812.557 81.8519L810.653 82.0219L810.789 83.6369L812.999 83.4329C813.203 84.0959 813.492 84.7079 813.798 85.2519C812.676 85.7619 811.401 86.1869 810.109 86.4759C810.466 86.8329 811.01 87.5809 811.214 87.9549C812.421 87.5979 813.645 87.1389 814.784 86.5609C815.583 87.4279 816.552 87.9379 817.606 87.9379C818.881 87.9379 819.425 87.5129 819.68 85.6599C819.255 85.5239 818.677 85.2689 818.303 84.9289C818.235 85.9319 818.116 86.2719 817.691 86.2719C817.232 86.2719 816.756 86.0509 816.331 85.6429C817.164 85.0479 817.929 84.3679 818.507 83.6029L816.977 83.0759ZM824.287 75.4259V81.3929H822.995V75.4259H824.287ZM826.089 83.2629V73.5559H821.21V84.6569H822.995V83.2629H826.089ZM826.735 87.3939C827.449 86.3909 827.789 84.7419 827.993 83.2969L826.497 82.8719C826.327 84.2319 825.936 85.7449 825.29 86.6969L826.735 87.3939ZM828.367 83.2119C828.605 84.3169 828.741 85.7449 828.673 86.6799L830.067 86.4589C830.101 85.5239 829.948 84.0959 829.676 82.9909L828.367 83.2119ZM830.237 83.0759C830.611 84.0109 830.934 85.2689 831.002 86.0849L832.294 85.6769C832.192 84.8949 831.852 83.6709 831.444 82.7359L830.237 83.0759ZM834.164 84.7759C833.994 84.1469 833.603 83.1779 833.161 82.4639L832.09 82.8379C832.481 83.5689 832.855 84.5549 832.991 85.2179L834.164 84.7759ZM828.945 79.5739H830.764V80.5939H828.945V79.5739ZM830.764 74.4739V75.4429H828.945V74.4739H830.764ZM830.764 78.0099H828.945V77.0239H830.764V78.0099ZM832.634 80.5939V79.5739H835.371V78.0099H832.634V77.0239H835.371V75.4429H832.634V74.4739H835.847V72.7229H827.041V82.2769H834.419C834.3 84.7929 834.147 85.7789 833.926 86.0509C833.79 86.2209 833.637 86.2549 833.416 86.2549C833.161 86.2549 832.702 86.2549 832.141 86.2039C832.413 86.6629 832.6 87.3769 832.617 87.9209C833.331 87.9379 833.977 87.9209 834.385 87.8529C834.827 87.7849 835.167 87.6489 835.49 87.2409C835.915 86.6969 836.119 85.1499 836.272 81.3249C836.289 81.0869 836.306 80.5939 836.306 80.5939H832.634ZM844.313 82.0899H846.506C846.251 79.7269 849.957 79.4379 849.957 76.9389C849.957 74.6779 848.155 73.5389 845.69 73.5389C843.871 73.5389 842.375 74.3549 841.304 75.6129L842.698 76.9049C843.531 76.0209 844.364 75.5619 845.418 75.5619C846.744 75.5619 847.56 76.1399 847.56 77.1599C847.56 78.8089 843.956 79.4209 844.313 82.0899ZM845.418 86.6119C846.285 86.6119 846.914 85.9999 846.914 85.1159C846.914 84.2149 846.285 83.6029 845.418 83.6029C844.568 83.6029 843.922 84.2149 843.922 85.1159C843.922 85.9999 844.551 86.6119 845.418 86.6119Z" fill="white"/>
<path d="M279.549 263.763C279.549 243.511 263.127 227.071 242.898 227H39.3416V227.071H39.2711C19.0423 227.071 2.54919 243.511 2.54919 263.833C2.54919 284.155 18.9718 300.596 39.2711 300.596H39.3416H214.211L259.602 320L250.721 299.678C267.215 296.08 279.549 281.332 279.549 263.763Z" stroke="#40798C" stroke-width="4" stroke-miterlimit="10" stroke-linecap="round" stroke-linejoin="round"/>
<path d="M70.5872 257.194C69.5312 260.692 67.8592 263.442 65.6812 265.598C63.5032 263.31 61.9412 260.45 60.8852 257.194H70.5872ZM72.0172 254.466L71.5772 254.598H56.7712V257.194H58.8172L58.2012 257.37C59.4772 261.374 61.1712 264.74 63.5692 267.402C61.1932 269.14 58.3992 270.328 55.2972 271.142C55.8692 271.67 56.6832 272.946 56.9472 273.606C60.1372 272.682 63.0192 271.296 65.5272 269.316C67.8372 271.274 70.6972 272.726 74.2172 273.65C74.6132 272.946 75.4052 271.758 75.9992 271.23C72.6772 270.438 69.9052 269.162 67.6612 267.38C70.5432 264.432 72.6772 260.45 73.8432 255.302L72.0172 254.466ZM89.3092 258.492C89.8372 257.964 90.3652 257.348 90.8492 256.644H93.4012L92.2352 257.128C92.6312 257.524 93.0492 258.052 93.3352 258.492H89.3092ZM90.1452 268.282H85.5252V266.94H90.1452V268.282ZM82.8412 264.564H92.6092V265.378H82.8412V264.564ZM82.8412 262.276H92.6092V263.09H82.8412V262.276ZM82.8412 260.054H92.6092V260.824H82.8412V260.054ZM87.6812 256.666C87.3952 256.974 87.0872 257.26 86.7572 257.502C87.2632 257.722 88.0772 258.14 88.6712 258.492H84.0952L85.6132 257.964C85.4372 257.59 85.1292 257.084 84.8212 256.666H87.6812ZM97.5372 254.752H91.9712C92.1252 254.444 92.2792 254.114 92.4112 253.784L89.9032 253.19C89.4412 254.422 88.6492 255.654 87.7252 256.622V254.774H82.4892C82.6432 254.488 82.7752 254.224 82.9072 253.938L80.5312 253.19C79.7612 254.884 78.4412 256.556 77.0552 257.634C77.5612 258.118 78.3972 259.174 78.7492 259.68C79.6072 258.91 80.5312 257.832 81.3452 256.666H84.0072L82.4892 257.194C82.7752 257.568 83.0832 258.096 83.2592 258.492H80.2012V266.94H82.8852V268.282H77.6492V270.35H82.0932C81.4552 271.01 80.2452 271.604 78.1332 272.044C78.7052 272.528 79.4312 273.408 79.7612 273.958C83.1052 273.056 84.6012 271.758 85.1952 270.35H90.1452V273.87H92.8512V270.35H97.4932V268.282H92.8512V266.94H95.3812V258.492H94.3912L95.6452 257.942C95.4032 257.568 95.0072 257.062 94.5892 256.644H97.5372V254.752ZM102.201 258.888C102.773 258.228 103.323 257.546 103.807 256.798C104.841 257.436 105.875 258.184 106.667 258.888H102.201ZM104.863 270.02V264.894H107.503V262.672H104.863V261.066H106.777V258.998C106.975 259.174 107.173 259.35 107.327 259.504L108.405 257.37C107.613 256.644 106.337 255.698 104.973 254.928C105.127 254.642 105.259 254.378 105.391 254.114L103.455 253.234C102.465 255.236 100.727 257.15 99.0992 258.338C99.4072 258.998 99.8692 260.45 100.001 261.022C100.353 260.736 100.727 260.406 101.079 260.076V261.066H102.729V262.672H99.8032V264.894H102.729V270.394C101.519 270.592 100.419 270.79 99.5172 270.922L100.001 273.276C102.157 272.792 104.995 272.22 107.657 271.604L107.525 269.536L104.863 270.02ZM99.9792 266.148C100.287 267.336 100.617 268.898 100.683 269.954L102.377 269.448C102.267 268.458 101.937 266.874 101.563 265.708L99.9792 266.148ZM106.535 269.668C106.865 268.722 107.261 267.27 107.679 265.994L105.831 265.488C105.699 266.61 105.347 268.194 105.061 269.184L106.535 269.668ZM116.193 265.994V267.446H111.639V265.994H116.193ZM111.639 271.01V269.514H116.193V271.01H111.639ZM109.329 273.914H111.639V273.1H116.193V273.892H118.613V263.838H109.329V273.914ZM112.629 258.206H114.939V260.274H112.629V258.206ZM117.271 260.274V258.206H119.163V255.918H117.271V253.388H114.939V255.918H112.629V253.388H110.341V255.918H108.427V258.206H110.341V260.274H107.987V262.628H119.713V260.274H117.271ZM138.479 254.752L137.907 254.906H122.639V257.48H135.333C133.881 258.778 131.989 260.186 130.273 261.088V270.834C130.273 271.208 130.097 271.34 129.613 271.34C129.129 271.34 127.325 271.362 125.763 271.296C126.181 272 126.687 273.166 126.819 273.936C128.931 273.958 130.493 273.892 131.593 273.496C132.671 273.1 133.023 272.396 133.023 270.9V262.408C135.773 260.78 138.567 258.448 140.591 256.292L138.479 254.752ZM151.098 272.308C152.264 272.308 153.122 271.384 153.122 270.196C153.122 268.986 152.264 268.084 151.098 268.084C149.954 268.084 149.096 268.986 149.096 270.196C149.096 271.384 149.954 272.308 151.098 272.308ZM158.252 272.308C159.418 272.308 160.276 271.384 160.276 270.196C160.276 268.986 159.418 268.084 158.252 268.084C157.108 268.084 156.25 268.986 156.25 270.196C156.25 271.384 157.108 272.308 158.252 272.308ZM165.406 272.308C166.572 272.308 167.43 271.384 167.43 270.196C167.43 268.986 166.572 268.084 165.406 268.084C164.262 268.084 163.404 268.986 163.404 270.196C163.404 271.384 164.262 272.308 165.406 272.308ZM182.451 269.646C180.031 269.646 178.491 267.446 178.491 263.794C178.491 260.296 180.031 258.206 182.451 258.206C184.871 258.206 186.411 260.296 186.411 263.794C186.411 267.446 184.871 269.646 182.451 269.646ZM187.709 276.422C188.897 276.422 189.887 276.202 190.459 275.938L189.865 273.54C189.403 273.694 188.787 273.804 188.083 273.804C186.609 273.804 185.135 273.298 184.387 272.066C187.621 271.23 189.733 268.238 189.733 263.794C189.733 258.514 186.763 255.412 182.451 255.412C178.139 255.412 175.169 258.492 175.169 263.794C175.169 268.436 177.479 271.516 180.955 272.176C182.077 274.64 184.387 276.422 187.709 276.422ZM199.381 269.646C196.961 269.646 195.421 267.446 195.421 263.794C195.421 260.296 196.961 258.206 199.381 258.206C201.801 258.206 203.341 260.296 203.341 263.794C203.341 267.446 201.801 269.646 199.381 269.646ZM204.639 276.422C205.827 276.422 206.817 276.202 207.389 275.938L206.795 273.54C206.333 273.694 205.717 273.804 205.013 273.804C203.539 273.804 202.065 273.298 201.317 272.066C204.551 271.23 206.663 268.238 206.663 263.794C206.663 258.514 203.693 255.412 199.381 255.412C195.069 255.412 192.099 258.492 192.099 263.794C192.099 268.436 194.409 271.516 197.885 272.176C199.007 274.64 201.317 276.422 204.639 276.422Z" fill="#40798C"/>
<path d="M286.618 262.56C345.751 262.56 393.687 214.624 393.687 155.491C393.687 96.3587 345.751 48.4224 286.618 48.4224C227.486 48.4224 179.549 96.3587 179.549 155.491C179.549 214.624 227.486 262.56 286.618 262.56Z" fill="#CFE0C3"/>
<path d="M379.811 198.796L360.966 229.646L397.108 230.549L379.811 198.796Z" fill="#CFE0C3"/>
<path d="M283.972 134.968C314.91 134.968 339.991 109.887 339.991 78.9489C339.991 48.0104 314.91 22.9298 283.972 22.9298C253.033 22.9298 227.953 48.0104 227.953 78.9489C227.953 109.887 253.033 134.968 283.972 134.968Z" fill="#1F363D"/>
<path d="M215.82 197.118L325.793 217.319L338.765 89.7914L228.727 69.5909L215.82 197.118Z" fill="#1F363D"/>
<path d="M249.896 256.171C269.58 206.928 304.108 174.594 327.277 183.694C329.149 184.404 331.02 185.179 332.763 186.276C334.57 187.438 335.409 188.664 336.313 190.664C337.926 194.085 337.474 197.635 335.925 200.797C335.086 202.604 334.183 204.347 333.344 206.154C332.053 208.8 330.827 211.381 329.536 214.027C327.923 217.383 326.309 220.675 324.76 224.031C322.889 227.968 321.017 231.84 319.145 235.777C317.08 240.101 314.95 244.489 312.885 248.813C311.014 252.75 309.077 256.687 307.206 260.624C329.601 256.171 348.962 245.07 363.677 229.775L378.52 230.162C376.326 222.74 373.616 215.124 370.389 207.444C349.414 158.137 313.595 126.126 290.426 135.936C267.257 126.062 231.503 158.073 210.463 207.444C208.075 213.059 205.945 218.739 204.138 224.289C216.53 238.681 232.277 249.717 249.896 256.171Z" fill="#70A9A1"/>
<path d="M366.774 170.141L328.439 193.182C326.696 194.214 324.437 193.633 323.405 191.955L310.368 170.27C309.336 168.528 309.916 166.269 311.594 165.237L349.93 142.196C351.673 141.164 353.931 141.745 354.964 143.423L368.001 165.107C369.098 166.85 368.517 169.109 366.774 170.141Z" fill="#F0CC67"/>
<path d="M358.385 151.425L315.789 176.983C315.209 177.305 314.499 177.112 314.176 176.595L313.789 175.95C313.466 175.369 313.66 174.659 314.176 174.336L356.771 148.779C357.352 148.457 358.062 148.65 358.385 149.167L358.772 149.812C359.159 150.328 358.965 151.103 358.385 151.425Z" fill="#1F363D"/>
<path d="M360.127 167.818L357.029 169.69C355.738 170.464 354.061 170.012 353.286 168.722L352.382 167.173C351.608 165.882 352.06 164.204 353.351 163.43L356.448 161.558C357.739 160.783 359.417 161.235 360.192 162.526L361.095 164.075C361.805 165.366 361.418 167.044 360.127 167.818Z" fill="white"/>
<path d="M319.274 235.712C321.146 231.775 323.018 227.903 324.889 223.966C326.503 220.61 328.116 217.319 329.665 213.963C330.956 211.317 332.182 208.735 333.473 206.089C334.312 204.282 335.215 202.54 336.054 200.733C337.539 197.57 337.99 194.021 336.441 190.6C335.538 188.664 334.699 187.373 332.892 186.211C331.149 185.114 329.278 184.34 327.406 183.63C304.172 174.53 269.709 206.864 250.025 256.106C267.773 262.625 287.522 264.496 307.399 260.559C307.399 260.559 307.399 260.559 307.464 260.559C309.335 256.623 311.272 252.686 313.143 248.749C315.079 244.425 317.209 240.036 319.274 235.712Z" fill="#F2DFD7"/>
<path d="M307.821 152.16C309.07 146.595 300.495 139.934 288.67 137.281C276.844 134.628 266.246 136.989 264.997 142.554C263.749 148.119 272.324 154.781 284.149 157.433C295.975 160.086 306.573 157.725 307.821 152.16Z" fill="#ECB1A9"/>
<path d="M264.957 142.565L307.781 152.172L315.212 119.046L272.388 109.439L264.957 142.565Z" fill="#ECB1A9"/>
<path d="M245.249 101.731C232.793 75.3348 242.087 44.8083 266.031 33.5141C289.91 22.2845 319.404 34.5467 331.795 60.9428C336.119 70.1072 338.055 80.4334 337.023 90.5659C336.184 99.214 333.408 109.153 330.246 114.51C325.599 122.319 315.66 127.804 311.336 129.418C286.037 138.84 257.512 127.869 245.249 101.731Z" fill="#F2DFD7"/>
<path d="M233.116 88.6298C230.276 82.6277 231.244 76.2384 235.181 74.3668C239.118 72.4952 244.797 72.0435 247.637 78.0455C250.477 84.0476 249.38 94.1801 245.378 96.0517C241.377 97.9233 235.956 94.6318 233.116 88.6298Z" fill="#F2DFD7"/>
<path d="M280.035 91.8566C281.461 91.8566 282.617 90.7297 282.617 89.3396C282.617 87.9495 281.461 86.8226 280.035 86.8226C278.609 86.8226 277.454 87.9495 277.454 89.3396C277.454 90.7297 278.609 91.8566 280.035 91.8566Z" fill="#1F363D"/>
<path d="M294.492 106.249C294.492 108.959 296.751 111.089 299.526 111.089C300.946 111.089 302.172 110.573 303.075 109.669" stroke="#E07D5C" stroke-width="3" stroke-miterlimit="10" stroke-linecap="round" stroke-linejoin="round"/>
<path d="M318.5 84.951C319.926 84.951 321.082 83.8241 321.082 82.434C321.082 81.0439 319.926 79.917 318.5 79.917C317.074 79.917 315.918 81.0439 315.918 82.434C315.918 83.8241 317.074 84.951 318.5 84.951Z" fill="#1F363D"/>
<path d="M289.393 81.0143L263.578 85.1448C261.577 85.4674 260.222 87.3391 260.545 89.3397L263.965 99.3432C264.288 101.344 266.16 102.699 268.16 102.376L290.361 98.8269C292.362 98.5042 293.717 96.6326 293.395 94.6319L293.588 84.0476C293.266 82.1115 291.394 80.7562 289.393 81.0143Z" stroke="#1F363D" stroke-width="3" stroke-miterlimit="10" stroke-linecap="round" stroke-linejoin="round"/>
<path d="M331.214 74.3669L305.399 78.4973C303.398 78.82 302.043 80.6916 302.365 82.6923L305.786 92.6957C306.109 94.6964 307.98 96.0517 309.981 95.729L332.182 92.1794C334.183 91.8567 335.538 89.9851 335.215 87.9844L335.409 77.4001C335.086 75.464 333.215 74.1087 331.214 74.3669Z" stroke="#1F363D" stroke-width="3" stroke-miterlimit="10" stroke-linecap="round" stroke-linejoin="round"/>
<path d="M293.588 84.1122C293.588 84.1122 297.396 79.1427 302.365 82.6923" stroke="#1F363D" stroke-width="3" stroke-miterlimit="10" stroke-linecap="round" stroke-linejoin="round"/>
<path d="M240.28 72.6241L260.545 89.3395" stroke="#1F363D" stroke-width="3" stroke-miterlimit="10" stroke-linecap="round" stroke-linejoin="round"/>
<path d="M338.636 78.0454C338.636 78.0454 338.442 36.87 302.753 28.0283C292.039 25.3823 281.713 25.834 272.549 28.4155L272.484 28.2219C212.205 43.9692 245.184 101.795 245.184 101.795C271.451 88.8878 276.034 55.0698 276.808 45.3891C277.002 44.421 277.066 43.582 276.937 42.743C277.002 42.743 298.17 67.0094 338.636 78.0454Z" fill="#1F363D"/>
<path d="M305.657 205.444C305.657 205.444 314.498 188.083 332.892 193.891" stroke="#ECB1A9" stroke-width="3" stroke-miterlimit="10" stroke-linecap="round" stroke-linejoin="round"/>
<path d="M376.872 42.174L396.362 54.5653L365.642 67.6665L376.872 42.174Z" fill="#F0CC67"/>
<path d="M569.352 5.19153H376.352V55.1915H569.352V5.19153Z" fill="#F0CC67"/>
<path d="M569.352 55.1915C583.159 55.1915 594.352 43.9986 594.352 30.1915C594.352 16.3844 583.159 5.19153 569.352 5.19153C555.544 5.19153 544.352 16.3844 544.352 30.1915C544.352 43.9986 555.544 55.1915 569.352 55.1915Z" fill="#F0CC67"/>
<path d="M376.936 54.5653C390.624 54.5653 401.719 43.4697 401.719 29.7827C401.719 16.0956 390.624 5 376.936 5C363.249 5 352.154 16.0956 352.154 29.7827C352.154 43.4697 363.249 54.5653 376.936 54.5653Z" fill="#F0CC67"/>
<path d="M388.867 25.0422C388.374 24.2432 387.252 23.1212 386.351 22.3392L384.821 23.3762C385.739 24.1922 386.793 25.3992 387.235 26.1812L388.867 25.0422ZM386.691 29.1562C386.249 29.9722 385.688 30.7372 385.076 31.4682C384.889 30.6012 384.719 29.6152 384.583 28.5952H389.003V26.6742H384.379C384.243 25.1782 384.175 23.5972 384.209 22.0162H382.084C382.101 23.5632 382.152 25.1442 382.288 26.6742H379.024V24.3792C380.01 24.1752 380.945 23.9542 381.795 23.6992L380.435 21.9822C378.701 22.5432 376.066 23.0872 373.686 23.4102C373.907 23.8692 374.179 24.6172 374.264 25.1102C375.131 25.0082 376.066 24.8892 376.984 24.7362V26.6742H373.771V28.5952H376.984V30.8732C375.641 31.1112 374.417 31.2982 373.448 31.4512L373.941 33.4912C374.842 33.3212 375.896 33.1002 376.984 32.8792V35.3442C376.984 35.6162 376.882 35.7012 376.576 35.7012C376.27 35.7182 375.284 35.7352 374.332 35.6842C374.621 36.2452 374.961 37.1632 375.046 37.7242C376.423 37.7412 377.443 37.6562 378.106 37.3332C378.786 37.0102 379.024 36.4662 379.024 35.3612V32.4542L381.795 31.8932L381.642 30.0572C380.775 30.2102 379.891 30.3802 379.024 30.5332V28.5952H382.475C382.679 30.2612 382.968 31.8082 383.342 33.1512C382.169 34.1202 380.86 34.9532 379.551 35.5482C380.044 36.0072 380.605 36.7042 380.894 37.1802C381.982 36.6192 383.053 35.9222 384.039 35.1062C384.77 36.7722 385.722 37.7922 386.963 37.7922C388.51 37.7922 389.139 37.0442 389.462 34.0692C388.918 33.8482 388.238 33.3892 387.796 32.9132C387.711 34.9192 387.507 35.7352 387.15 35.7352C386.64 35.7352 386.113 34.9532 385.654 33.6442C386.759 32.5392 387.711 31.2982 388.476 29.9212L386.691 29.1562ZM396.636 31.7742C395.973 31.9612 395.276 32.1482 394.613 32.3352V29.4282H396.381V27.5752H394.613V24.6172H396.568V22.7472H390.618V24.6172H392.658V27.5752H390.771V29.4282H392.658V32.8452C391.74 33.0832 390.907 33.3042 390.21 33.4572L390.737 35.3612C392.488 34.8512 394.766 34.1882 396.908 33.5592L396.636 31.7742ZM399.118 29.3262H403.555V30.3802H399.118V29.3262ZM399.118 26.7422H403.555V27.7962H399.118V26.7422ZM399.118 24.1582H403.555V25.2122H399.118V24.1582ZM403.759 35.9222C403.47 35.9222 403.436 35.8542 403.436 35.3612V32.0292H405.527V22.5092H397.231V32.0292H398.472C398.251 34.0182 397.707 35.4122 394.63 36.1772C395.038 36.5682 395.548 37.3502 395.752 37.8432C399.373 36.7722 400.155 34.8002 400.461 32.0292H401.498V35.3612C401.498 37.0782 401.838 37.6562 403.402 37.6562H404.677C405.935 37.6562 406.377 37.0272 406.547 34.6982C406.037 34.5792 405.255 34.2562 404.864 33.9502C404.83 35.6502 404.745 35.9222 404.456 35.9222H403.759ZM412.667 26.7762C413.67 26.1302 414.605 25.4162 415.421 24.5662C416.288 25.3652 417.291 26.1132 418.362 26.7762H412.667ZM418.923 32.2162C418.583 33.1002 417.954 34.2902 417.427 35.0552L418.566 35.5312H416.441V32.2162H418.923ZM414.265 32.2162V35.5312H411.783L413.177 34.9192C412.939 34.1712 412.293 33.0492 411.698 32.2162H414.265ZM419.858 28.6292V27.6262C420.623 28.0002 421.405 28.3402 422.17 28.6122C422.476 28.0852 423.105 27.2862 423.564 26.8442C421.014 26.1302 418.26 24.7192 416.594 23.2232C416.764 22.9852 416.917 22.7642 417.07 22.5432L415.149 21.6762C413.534 24.2092 410.474 25.9262 407.278 26.8442C407.788 27.3542 408.349 28.1192 408.621 28.7142C409.369 28.4422 410.1 28.1362 410.814 27.7962V28.6292H414.265V30.3972H408.859V32.2162H411.324L409.981 32.7772C410.542 33.6272 411.12 34.7492 411.392 35.5312H408.043V37.3842H422.748V35.5312H419.093C419.62 34.8002 420.283 33.7802 420.878 32.8282L419.178 32.2162H421.864V30.3972H416.441V28.6292H419.858ZM433.475 28.4082V26.6402C433.832 26.1302 434.172 25.6032 434.461 25.0762H439.748V23.0022H425.009V25.0762H431.792C430.211 27.6772 427.559 30.3122 424.465 31.7572C424.907 32.2162 425.536 33.0492 425.859 33.5932C427.899 32.5392 429.718 31.0602 431.265 29.4112V37.7072H433.475V28.9012C435.311 30.3122 437.623 32.2502 438.677 33.5082L440.394 31.9612C439.17 30.6182 436.552 28.6632 434.733 27.3542L433.475 28.4082ZM447.296 31.3492C446.99 31.9952 446.599 32.5732 446.157 33.0832C445.749 32.7092 445.256 32.2842 444.78 31.9102C444.984 31.7232 445.188 31.5362 445.375 31.3492H447.296ZM446.667 25.0082C446.395 25.4672 446.072 25.8922 445.715 26.2832C445.29 25.9262 444.746 25.5522 444.253 25.2292L444.457 25.0082H446.667ZM448.163 29.6492H446.735C446.939 29.3262 447.126 29.0032 447.313 28.6802L445.987 28.4252C447.364 27.2862 448.486 25.7902 449.115 23.8862L447.925 23.3252L447.585 23.3932H445.664C445.919 22.9852 446.157 22.5602 446.378 22.1692L444.627 21.8462C443.998 23.1042 442.876 24.6002 441.227 25.7222C441.635 25.9602 442.196 26.5212 442.451 26.8782C442.689 26.7082 442.91 26.5212 443.131 26.3342C443.641 26.7082 444.117 27.0992 444.474 27.4562C443.59 28.1532 442.553 28.6802 441.499 29.0372C441.856 29.3772 442.315 30.0232 442.553 30.4482C443.42 30.1082 444.236 29.6832 445.018 29.1732C444.236 30.2952 443.046 31.4342 441.38 32.3012C441.754 32.5562 442.315 33.1512 442.536 33.5592C442.859 33.3722 443.165 33.1682 443.454 32.9642C443.981 33.4062 444.508 33.9162 444.882 34.3412C443.845 35.1742 442.621 35.7692 441.312 36.1432C441.669 36.5172 442.128 37.1802 442.332 37.6392C445.817 36.4492 448.588 34.1712 449.727 30.0912L448.503 29.5642L448.163 29.6492ZM452.634 29.0712V32.1142H451.512V29.0712H452.634ZM457.003 24.2942H451.971C452.226 23.6482 452.464 23.0022 452.668 22.3222L450.798 21.8632C450.203 24.0392 449.098 26.1472 447.772 27.4562C448.197 27.7622 448.979 28.3912 449.302 28.7312C449.506 28.5102 449.71 28.2552 449.897 28.0002V34.8682H451.512V33.6952H454.249V27.4732H450.271C450.577 27.0312 450.849 26.5722 451.121 26.0622H455.099C454.997 32.5562 454.895 34.9872 454.521 35.4632C454.351 35.7182 454.198 35.8032 453.926 35.7862C453.569 35.7862 452.889 35.7862 452.107 35.7182C452.43 36.2622 452.668 37.0952 452.702 37.6392C453.518 37.6732 454.334 37.6732 454.878 37.5712C455.456 37.4692 455.864 37.2822 456.238 36.6702C456.799 35.8372 456.884 33.1342 457.003 25.2122V24.2942ZM474.488 29.6662H475.644L475.168 29.8872C475.304 30.0402 475.44 30.1932 475.576 30.3632L474.488 30.3802V29.6662ZM471.394 28.5782V27.8982H472.771V28.5782H471.394ZM471.394 26.1982H472.771V26.8612H471.394V26.1982ZM475.933 26.1982V26.8612H474.488V26.1982H475.933ZM475.933 28.5782H474.488V27.8982H475.933V28.5782ZM469.473 31.9102C471.343 31.8762 473.961 31.8082 476.511 31.7232C476.647 31.9442 476.749 32.1482 476.834 32.3182L478.245 31.6212C477.956 31.0602 477.446 30.3122 476.885 29.6662H477.599V25.1102H474.488V24.4812H477.905V23.0022H474.488V21.8802H472.771V23.0022H469.524V24.4812H472.771V25.1102H469.813V29.6662H472.771V30.4142C471.479 30.4482 470.306 30.4652 469.371 30.4652L469.473 31.9102ZM474.369 35.9392C474.369 36.1262 474.284 36.1772 474.046 36.1942C473.825 36.1942 473.043 36.1942 472.363 36.1602L473.06 35.7182C472.822 35.2422 472.346 34.5962 471.819 34.0692H474.369V35.9392ZM464.254 29.8702H465.223V30.8732H464.254V29.8702ZM464.254 27.5412H465.223V28.5442H464.254V27.5412ZM467.569 28.5442H466.532V27.5412H467.569V28.5442ZM467.569 30.8732H466.532V29.8702H467.569V30.8732ZM476.205 31.9272H474.369V32.5902H469.388V33.2872H466.77V32.2672H469.031V26.1302H466.77V25.2462H469.184V23.4952H466.77V21.8802H464.985V23.4952H462.486V25.2462H464.985V26.1302H462.809V32.2672H464.985V33.2872H462.248V35.0552H464.985V37.7412H466.77V35.0552H469.388V34.0692H470.986L470.153 34.5622C470.765 35.1742 471.343 36.0412 471.615 36.6362L472.295 36.2112C472.499 36.6702 472.737 37.2992 472.788 37.7922C473.978 37.7922 474.794 37.7752 475.423 37.5372C476.069 37.2822 476.205 36.8572 476.205 35.9902V34.0692H478.143V32.5902H476.205V31.9272ZM483.396 32.3352V26.7592H484.11V32.1652C484.11 32.3012 484.076 32.3352 483.991 32.3352H483.396ZM485.555 24.9912H483.396V21.8632H481.747V24.9912H479.622V34.2222H481.101V26.7592H481.747V37.7412H483.396V32.4712C483.6 32.9472 483.77 33.5932 483.787 34.0182C484.382 34.0182 484.773 33.9672 485.13 33.6612C485.487 33.3722 485.555 32.8452 485.555 32.2162V24.9912ZM493.324 31.2302C492.882 31.6892 492.185 32.2502 491.539 32.7262C491.233 32.2502 490.944 31.7572 490.689 31.2302H494.905V29.5132H488.7V28.6462H493.8V27.2352H488.7V26.3682H493.749V24.9572H488.7V24.1412H494.463V22.5602H486.762V29.5132H485.793V31.2302H486.439V34.5452C486.439 35.2762 485.963 35.8032 485.606 36.0242C485.946 36.4492 486.405 37.3502 486.541 37.8432C486.898 37.5882 487.493 37.3162 490.706 36.2792C490.638 35.8712 490.587 35.1402 490.587 34.6302L488.343 35.2762V31.2302H488.921C489.907 33.9842 491.556 36.3132 493.868 37.5202C494.174 36.9932 494.769 36.2452 495.211 35.8542C494.191 35.4122 493.273 34.7492 492.508 33.9332C493.222 33.5082 494.038 33.0152 494.803 32.4882L493.324 31.2302ZM503.082 31.9102C502.895 31.0092 502.436 29.4962 501.977 28.3572L500.515 28.8332C500.651 29.2412 500.804 29.6662 500.94 30.1252L499.155 30.3462C500.464 28.8842 501.739 27.1332 502.708 25.3992L501.008 24.3112C500.668 25.0592 500.243 25.8072 499.818 26.5042L498.662 26.5892C499.563 25.3822 500.43 23.9202 501.076 22.4922L499.257 21.7272C498.611 23.5462 497.506 25.4332 497.132 25.9092C496.792 26.4192 496.486 26.7422 496.146 26.8442C496.367 27.3202 496.656 28.2042 496.758 28.5782C497.013 28.4592 497.387 28.3572 498.679 28.2042C498.203 28.8502 497.812 29.3432 497.608 29.5642C497.064 30.1932 496.69 30.5672 496.231 30.6862C496.469 31.1962 496.792 32.1312 496.894 32.5052C497.285 32.3182 497.897 32.1652 501.331 31.6552C501.399 31.9612 501.45 32.2332 501.484 32.4712L503.082 31.9102ZM496.928 33.0322C496.826 34.4602 496.605 36.0412 496.214 37.0612C496.656 37.1972 497.472 37.4522 497.846 37.6562C498.22 36.5682 498.509 34.8852 498.628 33.3042L496.928 33.0322ZM498.985 33.2532C499.189 34.4602 499.376 36.0582 499.393 37.0952L500.991 36.7552C500.923 35.7182 500.736 34.1882 500.498 32.9642L498.985 33.2532ZM500.855 32.9132C501.195 33.9502 501.569 35.2932 501.722 36.1602L503.218 35.6502C503.031 34.7832 502.64 33.4742 502.266 32.4712L500.855 32.9132ZM509.117 32.3352V35.1572H505.496V32.3352H509.117ZM503.524 37.7752H505.496V36.9422H509.117V37.7582H511.174V30.5502H503.524V37.7752ZM505.343 27.3372C506.074 26.5382 506.703 25.6882 507.281 24.7532C507.876 25.6542 508.539 26.5382 509.253 27.3372H505.343ZM506.584 21.8122C505.7 24.1072 503.949 26.4022 501.807 27.7622C502.232 28.1022 502.895 28.7992 503.184 29.2242C503.575 28.9522 503.966 28.6462 504.323 28.3232V29.1562H509.95V28.0852C510.307 28.4422 510.664 28.7652 511.038 29.0372C511.378 28.5272 512.041 27.7792 512.534 27.4052C510.953 26.4192 509.236 24.6512 508.182 22.9682C508.284 22.7812 508.335 22.5772 508.42 22.3732L506.584 21.8122ZM516.784 21.9312C515.934 24.3452 514.455 26.7592 512.925 28.2892C513.265 28.7822 513.826 29.8872 514.013 30.3972C514.387 29.9892 514.778 29.5302 515.152 29.0202V37.7072H517.09V26.0112C517.719 24.8892 518.263 23.6992 518.705 22.5262L516.784 21.9312ZM519.929 29.4282C519.538 31.3152 518.824 33.2362 517.855 34.4262C518.348 34.6812 519.198 35.1912 519.589 35.5142C520.541 34.1372 521.408 31.9952 521.901 29.8362L519.929 29.4282ZM527.001 26.7762C526.916 27.5242 526.814 28.2382 526.729 28.7652L528.446 29.0542C528.684 28.0682 528.973 26.4872 529.177 25.1102L527.749 24.8382L527.426 24.9062H521.578C521.884 24.0732 522.156 23.2402 522.377 22.3732L520.405 21.9312C519.827 24.2602 518.807 26.6062 517.515 28.0512C517.974 28.3572 518.79 29.0202 519.147 29.3772C519.708 28.6632 520.269 27.7622 520.745 26.7762H522.717V35.4462C522.717 35.6672 522.632 35.7352 522.411 35.7352C522.173 35.7352 521.459 35.7352 520.745 35.7182C521.051 36.2622 521.357 37.1632 521.442 37.7582C522.53 37.7582 523.346 37.6732 523.941 37.3502C524.553 37.0102 524.723 36.4492 524.723 35.4802V26.7762H527.001ZM525.335 29.8702C526.151 31.6212 526.865 33.9502 527.052 35.4632L528.99 34.8002C528.752 33.2702 528.021 31.0092 527.137 29.2582L525.335 29.8702ZM534.855 27.1842C534.804 28.5102 534.6 30.0572 534.005 31.5872C533.58 31.2132 533.138 30.8392 532.713 30.4822C532.934 29.5132 533.138 28.4082 533.342 27.2862L534.855 27.1842ZM537.643 26.9972V25.1782L536.759 25.2292V24.2602H534.872V25.3312L533.648 25.3992C533.835 24.2262 533.971 23.0702 534.073 21.9822L532.067 21.8972C531.999 23.0362 531.863 24.2602 531.693 25.4842C531.183 25.5012 530.69 25.5182 530.248 25.5352L530.435 27.4562L531.387 27.3882C531.149 28.7822 530.86 30.0742 530.588 31.0942C531.353 31.7742 532.254 32.5902 533.121 33.3892C532.458 34.4602 531.523 35.4632 530.248 36.3642C530.707 36.6872 531.37 37.3502 531.676 37.7752C532.934 36.8572 533.852 35.8542 534.566 34.7832C535.263 35.4802 535.875 36.1432 536.3 36.6872L537.626 35.0042C537.133 34.4092 536.385 33.7122 535.569 32.9472C536.453 30.9242 536.691 28.8162 536.742 27.0652L537.643 26.9972ZM546.16 28.8502H542.76V27.5752C543.967 26.4532 545.089 25.0252 545.888 23.7842L544.528 22.7982L544.052 22.9002H537.745V24.7362H542.726C542.131 25.6202 541.383 26.5722 540.652 27.2182V28.8502H537.082V30.7712H540.652V35.5142C540.652 35.7692 540.567 35.8372 540.278 35.8372C540.006 35.8372 539.02 35.8372 538.17 35.8202C538.459 36.3472 538.748 37.1802 538.85 37.7412C540.176 37.7582 541.145 37.7072 541.825 37.4182C542.539 37.0952 542.76 36.5852 542.76 35.5482V30.7712H546.16V28.8502ZM550.903 25.2292V31.1962H549.611V25.2292H550.903ZM552.705 33.0662V23.3592H547.826V34.4602H549.611V33.0662H552.705ZM553.351 37.1972C554.065 36.1942 554.405 34.5452 554.609 33.1002L553.113 32.6752C552.943 34.0352 552.552 35.5482 551.906 36.5002L553.351 37.1972ZM554.983 33.0152C555.221 34.1202 555.357 35.5482 555.289 36.4832L556.683 36.2622C556.717 35.3272 556.564 33.8992 556.292 32.7942L554.983 33.0152ZM556.853 32.8792C557.227 33.8142 557.55 35.0722 557.618 35.8882L558.91 35.4802C558.808 34.6982 558.468 33.4742 558.06 32.5392L556.853 32.8792ZM560.78 34.5792C560.61 33.9502 560.219 32.9812 559.777 32.2672L558.706 32.6412C559.097 33.3722 559.471 34.3582 559.607 35.0212L560.78 34.5792ZM555.561 29.3772H557.38V30.3972H555.561V29.3772ZM557.38 24.2772V25.2462H555.561V24.2772H557.38ZM557.38 27.8132H555.561V26.8272H557.38V27.8132ZM559.25 30.3972V29.3772H561.987V27.8132H559.25V26.8272H561.987V25.2462H559.25V24.2772H562.463V22.5262H553.657V32.0802H561.035C560.916 34.5962 560.763 35.5822 560.542 35.8542C560.406 36.0242 560.253 36.0582 560.032 36.0582C559.777 36.0582 559.318 36.0582 558.757 36.0072C559.029 36.4662 559.216 37.1802 559.233 37.7242C559.947 37.7412 560.593 37.7242 561.001 37.6562C561.443 37.5882 561.783 37.4522 562.106 37.0442C562.531 36.5002 562.735 34.9532 562.888 31.1282C562.905 30.8902 562.922 30.3972 562.922 30.3972H559.25ZM570.929 31.8932H573.122C572.867 29.5302 576.573 29.2412 576.573 26.7422C576.573 24.4812 574.771 23.3422 572.306 23.3422C570.487 23.3422 568.991 24.1582 567.92 25.4162L569.314 26.7082C570.147 25.8242 570.98 25.3652 572.034 25.3652C573.36 25.3652 574.176 25.9432 574.176 26.9632C574.176 28.6122 570.572 29.2242 570.929 31.8932ZM572.034 36.4152C572.901 36.4152 573.53 35.8032 573.53 34.9192C573.53 34.0182 572.901 33.4062 572.034 33.4062C571.184 33.4062 570.538 34.0182 570.538 34.9192C570.538 35.8032 571.167 36.4152 572.034 36.4152Z" fill="#1F363D"/>
<path d="M824.214 492.329C855.509 492.329 880.878 466.959 880.878 435.664C880.878 404.37 855.509 379 824.214 379C792.919 379 767.549 404.37 767.549 435.664C767.549 466.959 792.919 492.329 824.214 492.329Z" fill="#40798C"/>
<path d="M780.263 403.654L793.235 389.584L774.584 385.389L780.263 403.654Z" fill="#40798C"/>
<path d="M831.067 430.797L818.48 427.132C817.023 426.715 816.009 425.358 816.009 423.85C816.009 421.96 817.547 420.429 819.447 420.429H827.174C828.596 420.429 829.995 420.858 831.16 421.647C831.871 422.122 832.827 422.006 833.433 421.415L837.489 417.472C838.317 416.672 838.2 415.338 837.279 414.631C834.424 412.404 830.857 411.163 827.198 411.152V405.585C827.198 404.565 826.358 403.73 825.333 403.73H821.603C820.578 403.73 819.738 404.565 819.738 405.585V411.152H819.447C812.023 411.152 806.055 417.495 806.743 425.021C807.232 430.367 811.335 434.716 816.51 436.224L828.456 439.703C829.913 440.132 830.927 441.477 830.927 442.985C830.927 444.875 829.389 446.406 827.489 446.406H819.762C818.34 446.406 816.941 445.977 815.776 445.188C815.065 444.713 814.109 444.829 813.503 445.42L809.447 449.363C808.619 450.163 808.736 451.497 809.657 452.204C812.512 454.431 816.079 455.671 819.738 455.683V461.25C819.738 462.27 820.578 463.105 821.603 463.105H825.333C826.358 463.105 827.198 462.27 827.198 461.25V455.66C832.629 455.556 837.722 452.343 839.517 447.229C842.023 440.086 837.816 432.756 831.067 430.797Z" fill="#F0CC67"/>
</svg>
