<svg width="200" height="236" viewBox="0 0 200 236" fill="none" xmlns="http://www.w3.org/2000/svg">
<path d="M200 206.406L186.475 181.495C195.907 162.588 199.407 140.53 195.017 118.235C184.518 64.785 132.732 30.0039 79.4036 40.5274C26.0754 51.0509 -8.62646 102.955 1.87308 156.405C12.3726 209.855 64.1585 244.636 117.487 234.112C138.071 230.01 155.926 219.784 169.45 205.633L200 206.406Z" fill="#72A9A1"/>
<path d="M96.7251 118.354C125.162 118.354 148.214 95.2487 148.214 66.7471C148.214 38.2454 125.162 15.1403 96.7251 15.1403C68.2884 15.1403 45.2358 38.2454 45.2358 66.7471C45.2358 95.2487 68.2884 118.354 96.7251 118.354Z" fill="#20363D"/>
<path d="M33.7275 177.393L134.808 196.061L146.731 78.5786L45.6508 59.9098L33.7275 177.393Z" fill="#20363D"/>
<path d="M175.619 185.062C156.341 139.639 123.418 110.149 102.123 119.186C80.8269 110.09 47.964 139.579 28.6258 185.062C26.431 190.235 24.4734 195.467 22.8125 200.58C33.9646 213.898 48.3792 224.065 64.6327 230.01C80.9456 236.015 99.0973 237.739 117.368 234.112C117.368 234.112 117.368 234.112 117.427 234.112C138.011 230.01 155.807 219.784 169.332 205.693L182.975 206.05C181.136 199.153 178.645 192.137 175.619 185.062Z" fill="#FCF7F0"/>
<path d="M124.783 131.493C124.783 131.493 121.223 120.673 121.342 117.403C121.52 114.132 118.317 114.727 118.317 114.727L118.613 116.63C118.613 116.63 112.029 123.586 95.7755 125.964C79.5219 128.402 78.7508 122.516 78.7508 122.516C78.4542 122.753 74.5984 126.023 76.4373 127.688C78.3355 129.412 77.3271 140.59 77.3271 140.59" fill="#FCF7F0"/>
<path d="M77.3276 140.53C77.3276 140.53 78.3361 129.412 76.4378 127.629C74.5396 125.845 78.7513 122.456 78.7513 122.456" stroke="#A39E92" stroke-width="4" stroke-miterlimit="10" stroke-linecap="round" stroke-linejoin="round"/>
<path d="M118.376 114.668C118.376 114.668 121.52 114.073 121.402 117.343C121.283 120.613 124.842 131.434 124.842 131.434" stroke="#A39E92" stroke-width="4" stroke-miterlimit="10" stroke-linecap="round" stroke-linejoin="round"/>
<path d="M54.3115 37.9709C54.3115 37.9709 38.5919 21.6208 65.7009 6.63819C92.8099 -8.34443 135.461 5.44909 143.706 14.6051C151.417 23.1072 169.866 42.2516 147.443 59.0774C147.443 59.0774 136.469 23.8206 107.58 19.3021C69.7939 13.4755 54.3115 37.9709 54.3115 37.9709Z" fill="#8E8A91"/>
<path d="M95.8349 125.905C112.088 123.467 118.673 116.57 118.673 116.57L118.376 114.668L116.063 100.042L76.2002 106.463L78.7509 122.516C78.7509 122.516 79.5814 128.342 95.8349 125.905Z" fill="#ECB1A9"/>
<path d="M136.884 81.9081C142.875 55.0939 128.164 28.9338 103.903 23.464C79.7002 17.9941 55.2013 35.3549 49.21 62.1096C47.1339 71.444 47.4305 81.3135 50.4557 90.4101C53.0065 98.1393 57.5741 106.76 61.5485 110.982C67.3618 117.224 77.624 120.197 81.9544 120.792C107.046 124.359 130.952 108.425 136.884 81.9081Z" fill="#F2DFD8"/>
<path d="M145.307 67.401C146.672 61.3366 144.536 55.629 140.502 54.7371C136.469 53.8453 131.189 54.6182 129.825 60.6826C128.46 66.747 131.545 75.9031 135.579 76.7949C139.613 77.6867 143.943 73.5249 145.307 67.401Z" fill="#F2DFD8"/>
<path d="M103.131 33.0362C103.131 33.0362 85.0388 57.2937 47.8456 70.4927C47.8456 70.4927 45.1169 31.7876 77.9205 20.9668C110.724 10.1461 142.638 32.2038 140.503 54.7372C140.503 54.7372 132.138 54.0832 129.825 60.6827C129.825 60.6827 102.301 42.5489 103.131 33.0362Z" fill="#20363D"/>
<path d="M114.997 74.0271C115.042 72.7473 114.017 71.6723 112.707 71.6261C111.397 71.5799 110.299 72.58 110.254 73.8598C110.209 75.1397 111.235 76.2146 112.544 76.2608C113.854 76.307 114.952 75.3069 114.997 74.0271Z" fill="#20363D"/>
<path d="M98.8008 89.0425C98.7415 91.5396 96.5467 93.4422 93.996 93.3233C92.6909 93.2638 91.5639 92.7287 90.7334 91.8964" stroke="#E07D5C" stroke-width="4" stroke-miterlimit="10" stroke-linecap="round" stroke-linejoin="round"/>
<path d="M72.8983 79.5676C72.9432 78.2877 71.9179 77.2128 70.6083 77.1666C69.2986 77.1204 68.2005 78.1205 68.1556 79.4003C68.1106 80.6801 69.1359 81.7551 70.4456 81.8013C71.7552 81.8474 72.8534 80.8474 72.8983 79.5676Z" fill="#20363D"/>
<path d="M124.783 107.652C124.783 107.652 103.843 182.803 153.79 183.516C153.79 183.516 162.629 182.03 157.824 177.274C153.019 172.458 148.63 169.545 150.113 153.313C151.596 137.082 142.816 115.619 144.418 101.647L124.783 107.652Z" fill="#20363D"/>
<path d="M105.326 64.0121C105.741 61.7528 107.936 60.2664 110.25 60.6826C111.436 60.861 112.385 61.515 113.038 62.4068" stroke="#20363D" stroke-width="4" stroke-miterlimit="10" stroke-linecap="round" stroke-linejoin="round"/>
</svg>
