<svg width="10" height="11" viewBox="0 0 10 11" fill="none" xmlns="http://www.w3.org/2000/svg">
<path d="M3.22393 0H2.78424C2.71585 0 2.66699 0.0614546 2.66699 0.122909V2.9703C2.66699 3.042 2.72562 3.09321 2.78424 3.09321H3.22393C3.29233 3.09321 3.34118 3.03176 3.34118 2.9703V0.122909C3.34118 0.0614546 3.28256 0 3.22393 0Z" fill="#1F363D"/>
<path d="M2.16897 2.38648H0.996461V0.122909C0.996461 0.0614546 0.937836 0 0.86944 0H0.429751C0.371125 0 0.3125 0.0614546 0.3125 0.122909V2.9703C0.3125 3.042 0.371125 3.09321 0.429751 3.09321H2.1592C2.22759 3.09321 2.27645 3.03176 2.27645 2.9703V2.50939C2.28622 2.44794 2.23736 2.38648 2.16897 2.38648Z" fill="#1F363D"/>
<path d="M8.64748 0.706727C8.71587 0.706727 8.76473 0.645273 8.76473 0.583818V0.122909C8.76473 0.0512121 8.7061 0 8.64748 0H6.91803C6.84964 0 6.80078 0.0614546 6.80078 0.122909V2.9703C6.80078 3.042 6.85941 3.09321 6.91803 3.09321H8.64748C8.71587 3.09321 8.76473 3.03176 8.76473 2.9703V2.50939C8.76473 2.4377 8.7061 2.38648 8.64748 2.38648H7.47497V1.90509H8.64748C8.71587 1.90509 8.76473 1.84364 8.76473 1.78218V1.32127C8.76473 1.24958 8.7061 1.19836 8.64748 1.19836H7.47497V0.706727H8.64748Z" fill="#1F363D"/>
<path d="M6.21419 0H5.7745C5.7061 0 5.65725 0.0614546 5.65725 0.122909V1.77194L4.51406 0.0614546C4.48474 0.0102424 4.43589 0 4.37726 0C4.36749 0 4.36749 0 4.35772 0H3.91803C3.84964 0 3.80078 0.0614546 3.80078 0.122909V2.9703C3.80078 3.042 3.85941 3.09321 3.91803 3.09321H4.35772C4.42612 3.09321 4.47497 3.03176 4.47497 2.9703V1.24958L5.66702 3.03176C5.66702 3.042 5.67679 3.042 5.67679 3.05224C5.69633 3.07273 5.72564 3.09321 5.76473 3.09321C5.7745 3.09321 5.7745 3.09321 5.78427 3.09321H6.20442C6.27281 3.09321 6.32167 3.03176 6.32167 2.9703V0.122909C6.33144 0.0614546 6.28258 0 6.21419 0Z" fill="#1F363D"/>
<path d="M8.79379 4.13794H0.33221C0.146563 4.13794 0 4.29158 0 4.48618V9.79176C0 9.97612 0.146563 10.14 0.33221 10.14H8.79379C8.97943 10.14 9.126 9.98636 9.126 9.79176V4.48618C9.126 4.29158 8.97943 4.13794 8.79379 4.13794ZM2.36455 7.45649H2.00303V8.23491C2.00303 8.28612 1.96395 8.33733 1.90532 8.33733H1.42655C1.37769 8.33733 1.32884 8.29636 1.32884 8.23491V5.59236C1.32884 5.54115 1.36792 5.48994 1.42655 5.48994H2.36455C2.90195 5.48994 3.3221 5.92012 3.3221 6.47321C3.3221 7.0263 2.90195 7.45649 2.36455 7.45649ZM5.51077 8.32709H4.99292C4.9636 8.32709 4.93429 8.29636 4.93429 8.26564V8.19394C4.7975 8.32709 4.62162 8.38855 4.40666 8.38855C3.87904 8.38855 3.46866 7.91739 3.46866 7.31309C3.46866 6.70879 3.87904 6.23764 4.40666 6.23764C4.62162 6.23764 4.80727 6.29909 4.93429 6.43224V6.3503C4.93429 6.31958 4.9636 6.28885 4.99292 6.28885H5.51077C5.54009 6.28885 5.5694 6.31958 5.5694 6.3503V8.28612C5.5694 8.30661 5.54009 8.32709 5.51077 8.32709ZM6.96664 9.126H6.42924C6.39015 9.126 6.36084 9.08503 6.38038 9.04406L6.66374 8.29636L5.90161 6.36055C5.88207 6.31958 5.91138 6.27861 5.95046 6.27861H6.48786C6.51717 6.27861 6.55626 6.29909 6.56603 6.32982L6.99595 7.42576L7.40632 6.32982C7.4161 6.29909 7.44541 6.27861 7.48449 6.27861H8.01212C8.0512 6.27861 8.08051 6.31958 8.06097 6.36055L7.03503 9.07479C7.02526 9.10552 6.99595 9.126 6.96664 9.126Z" fill="#1F363D"/>
<path d="M4.52408 6.85217C4.26978 6.85217 4.10352 7.03672 4.10352 7.30328C4.10352 7.56985 4.26978 7.75439 4.52408 7.75439C4.77837 7.75439 4.94464 7.56985 4.94464 7.30328C4.94464 7.03672 4.76859 6.85217 4.52408 6.85217Z" fill="#1F363D"/>
<path d="M2.36481 6.14545H2.00293V6.79136H2.36481C2.53108 6.79136 2.65822 6.64782 2.65822 6.46327C2.65822 6.28898 2.53108 6.14545 2.36481 6.14545Z" fill="#1F363D"/>
</svg>
