<svg width="42" height="42" viewBox="0 0 42 42" fill="none" xmlns="http://www.w3.org/2000/svg">
<g clip-path="url(#clip0_269_2260)">
<rect x="5" y="5" width="32" height="32" rx="16" fill="#99F6E4"/>
<path d="M31 15C31 13.9 30.1 13 29 13H13C11.9 13 11 13.9 11 15V27C11 28.1 11.9 29 13 29H29C30.1 29 31 28.1 31 27V15ZM29 15L21 19.99L13 15H29ZM29 27H13V17L21 22L29 17V27Z" fill="#40798C"/>
</g>
<rect x="2.5" y="2.5" width="37" height="37" rx="18.5" stroke="#CCFBF1" stroke-width="5"/>
<defs>
<clipPath id="clip0_269_2260">
<rect x="5" y="5" width="32" height="32" rx="16" fill="white"/>
</clipPath>
</defs>
</svg>
