<svg width="70" height="80" viewBox="0 0 70 80" fill="none" xmlns="http://www.w3.org/2000/svg">
<path d="M46.7379 0L47.2722 5.70404H44.6361C44.6004 5.70404 44.6005 5.70404 44.5648 5.70404C41.8575 5.70404 39.3282 5.95516 36.9414 6.13453C26.005 7.03139 19.3791 10.1166 15.8168 15.9283C13.9643 18.9776 12.9312 22.7444 12.575 27.3363C12.29 30.9955 13.6081 35.6233 15.5317 38.0628C15.7811 38.3857 16.0305 38.6727 16.2798 38.9596C14.9261 37.2377 11.3638 31.6413 17.0992 26.3318C24.972 19.0852 38.8295 19.6233 38.8295 19.6233H41.6793C41.7506 19.6233 41.8574 19.6233 41.9287 19.6233H56.748H70L46.7379 0Z" fill="white"/>
<path d="M34.9109 47.6412C35.2316 47.7847 35.5878 47.9282 35.9084 48.0717C36.9771 48.574 37.9389 49.0762 38.7939 49.6502C40.7888 50.9417 41.6794 52.6278 41.5369 54.6368C41.2875 58.1166 38.6158 60.0179 33.5572 60.3408H30.4224H8.229H0L23.3333 80L22.799 74.296H28.5343C38.2239 74.296 45.5267 72.3946 50.4784 68.5919C51.9033 67.4798 53.2214 66.2601 54.3613 64.8969C54.7532 64.4305 55.1094 63.9641 55.43 63.4977C54.8244 64.287 54.3613 64.8969 54.3613 64.8969C59.1349 56.1076 34.9109 47.6412 34.9109 47.6412Z" fill="white"/>
<path d="M56.4275 41.6502C54.5395 39.2108 52.1171 37.4529 49.1959 36.4126C46.8804 35.5875 44.5293 34.8341 42.2138 34.2242C41.6082 34.0807 41.0382 33.9014 40.4326 33.7579C37.5115 33.0404 35.0534 32.0718 33.0585 30.852C31.0636 29.6323 30.1374 27.9462 30.3155 25.8655C30.5293 23.1749 32.0254 21.3453 34.8041 20.3767C34.8397 20.3767 34.8397 20.3767 34.8753 20.3408C36.0153 19.9462 37.3689 19.6951 38.9364 19.5875C38.9364 19.5875 25.0432 19.0493 17.2061 26.296C11.4707 31.6054 15.0331 37.2018 16.3868 38.9238C18.1679 40.8969 20.3053 42.4036 22.8346 43.4081C25.7201 44.5561 28.6056 45.5606 31.5267 46.4215C32.1323 46.6009 32.7379 46.8162 33.3079 46.9955C33.3079 46.9955 33.3792 47.0314 33.4504 47.0673C33.9491 47.2467 34.4122 47.426 34.8753 47.6054C34.911 47.6054 34.9466 47.6413 34.9822 47.6413C34.9822 47.6413 59.2061 56.1076 54.4682 64.8969C54.4682 64.8969 54.9669 64.3229 55.5369 63.4978C56.285 62.4215 56.9618 61.2736 57.5318 60.018C58.6005 57.6502 59.2774 54.9955 59.5267 51.8386C59.7761 48 58.3155 44.1256 56.4275 41.6502Z" fill="white"/>
<path d="M34.911 47.6412H34.8753C35.1959 47.7847 35.5165 47.8924 35.9084 48.0717C35.5521 47.9641 35.2316 47.7847 34.911 47.6412Z" fill="white"/>
<path d="M34.8041 47.6054C34.341 47.426 33.8779 47.2466 33.3792 47.0673C33.5929 47.139 34.1272 47.3543 34.8397 47.6413H34.8754C34.8754 47.6413 34.8397 47.6413 34.8041 47.6054Z" fill="white"/>
<path d="M33.3791 47.0673C33.3079 47.0314 33.2366 46.9955 33.2366 46.9955C33.3078 47.0314 33.3435 47.0673 33.3791 47.0673Z" fill="white"/>
</svg>
