<svg width="42" height="42" viewBox="0 0 42 42" fill="none" xmlns="http://www.w3.org/2000/svg">
<rect x="2.5" y="2.5" width="37" height="37" rx="18.5" fill="#BBF7D0"/>
<path d="M21 11C15.48 11 11 15.48 11 21C11 26.52 15.48 31 21 31C26.52 31 31 26.52 31 21C31 15.48 26.52 11 21 11ZM21 29C16.59 29 13 25.41 13 21C13 16.59 16.59 13 21 13C25.41 13 29 16.59 29 21C29 25.41 25.41 29 21 29ZM25.59 16.58L19 23.17L16.41 20.59L15 22L19 26L27 18L25.59 16.58Z" fill="#15803D"/>
<rect x="2.5" y="2.5" width="37" height="37" rx="18.5" stroke="#DCFCE7" stroke-width="5"/>
</svg>
