<svg width="1009" height="661" viewBox="0 0 1009 661" fill="none" xmlns="http://www.w3.org/2000/svg">
<path d="M267.706 54.1686C267.789 54.1686 267.789 54.1686 267.706 54.1686L444.145 54.0859V54.1686C461.698 54.1686 475.939 68.393 475.939 85.9254C475.939 101.143 465.258 113.796 450.934 116.938L458.635 134.471L419.306 117.683H267.789H267.706C250.153 117.683 235.912 103.458 235.912 85.9254C235.912 68.393 250.153 54.1686 267.706 54.1686Z" fill="white" stroke="#6AC1AC" stroke-width="5" stroke-miterlimit="10" stroke-linecap="round" stroke-linejoin="round"/>
<path d="M705.782 2.89518C705.699 2.89518 705.699 2.89518 705.782 2.89518L529.343 2.8125V2.89518C511.79 2.89518 497.549 17.1196 497.549 34.652C497.549 49.8688 508.23 62.5219 522.553 65.6645L514.853 83.1969L554.181 66.4088H705.699H705.782C723.334 66.4088 737.575 52.1844 737.575 34.652C737.575 17.1196 723.334 2.89518 705.782 2.89518Z" fill="white" stroke="#F0CC67" stroke-width="5" stroke-miterlimit="10" stroke-linecap="round" stroke-linejoin="round"/>
<path d="M513.197 165.814C513.197 142.079 532.489 122.81 556.251 122.727H795.367V122.81H795.45C819.213 122.81 838.587 142.079 838.587 165.897C838.587 189.714 819.295 208.983 795.45 208.983H795.367H589.95L536.629 231.726L547.061 207.908C527.687 203.691 513.197 186.406 513.197 165.814Z" fill="white" stroke="#40798C" stroke-width="5" stroke-miterlimit="10" stroke-linecap="round" stroke-linejoin="round"/>
<path d="M681.527 316.517C703.476 316.517 721.27 298.745 721.27 276.821C721.27 254.898 703.476 237.125 681.527 237.125C659.578 237.125 641.785 254.898 641.785 276.821C641.785 298.745 659.578 316.517 681.527 316.517Z" fill="#F0CC67"/>
<path d="M650.702 299.246L659.801 309.103L646.719 312.041L650.702 299.246Z" fill="#F0CC67"/>
<path fill-rule="evenodd" clip-rule="evenodd" d="M681.211 260.784L700.616 277.709C700.702 277.786 700.803 277.838 700.903 277.89C700.971 277.925 701.039 277.96 701.102 278.003V294.243C701.102 295.019 700.466 295.648 699.681 295.648H696.861V294.305C696.861 291.274 694.338 288.815 691.227 288.815H690.821C689.799 289.292 688.674 289.578 687.471 289.578C686.268 289.578 685.138 289.292 684.121 288.815H683.715C680.605 288.815 678.081 291.274 678.081 294.305V295.648H676.516V294.305C676.516 292.466 677.265 290.803 678.458 289.549C677.651 289.096 676.732 288.815 675.734 288.815H675.548C674.868 289.044 674.149 289.197 673.386 289.197C672.623 289.197 671.904 289.044 671.225 288.815H671.039C668.012 288.815 665.561 291.203 665.561 294.153C665.561 294.724 665.776 295.247 666.132 295.648H662.741C661.956 295.648 661.32 295.019 661.32 294.243V278.007C661.381 277.965 661.447 277.931 661.514 277.897C661.61 277.847 661.706 277.797 661.787 277.726L681.211 260.784ZM656.108 271.437L661.32 266.886V254.904C661.32 254.128 661.956 253.499 662.741 253.499H668.424C669.209 253.499 669.845 254.128 669.845 254.904V259.443L678.836 251.594C679.513 250.992 680.362 250.69 681.211 250.689C682.06 250.688 682.907 250.989 683.582 251.591L706.314 271.437C706.897 271.956 706.946 272.843 706.421 273.421L704.521 275.513C703.997 276.09 703.098 276.138 702.514 275.619L682.15 257.857C681.613 257.389 680.808 257.389 680.271 257.857L659.907 275.618C659.324 276.136 658.425 276.089 657.9 275.512L656 273.42C655.476 272.843 655.524 271.955 656.108 271.437ZM681.994 281.953C681.994 284.903 684.444 287.29 687.471 287.29C690.499 287.29 692.949 284.903 692.949 281.953C692.949 279.003 690.499 276.615 687.471 276.615C684.444 276.615 681.994 279.003 681.994 281.953ZM668.691 282.715C668.691 285.241 670.794 287.29 673.386 287.29C675.978 287.29 678.081 285.241 678.081 282.715C678.081 280.189 675.978 278.14 673.386 278.14C670.794 278.14 668.691 280.189 668.691 282.715Z" fill="#1F363D"/>
<path d="M47.915 389.826C74.3149 409.683 111.838 404.397 131.725 378.021C151.611 351.644 146.332 314.165 119.932 294.309C93.5317 274.452 56.0089 279.738 36.122 306.114C16.2352 332.491 21.5151 369.97 47.915 389.826Z" fill="#70A9A1"/>
<path d="M138.728 359.168L130.567 377.621L150.641 375.479L138.728 359.168Z" fill="#70A9A1"/>
<path d="M119.913 361.194C118.973 358.919 116.355 357.838 114.073 358.785L111.601 359.811L107.271 348.447C112.63 344.544 114.521 337.261 111.131 331.406L101.443 314.622C100.548 313.072 98.6345 312.425 96.9676 313.105L84.1803 318.391L71.393 313.105C69.7261 312.414 67.813 313.072 66.918 314.622L57.2297 331.406C53.8511 337.261 55.7305 344.544 61.0893 348.436L56.7598 359.8L54.2874 358.774C52.0051 357.826 49.3984 358.908 48.4475 361.183C48.2573 361.64 48.4699 362.165 48.9286 362.354L67.0858 369.871C67.5445 370.061 68.0591 369.849 68.2493 369.391C69.1891 367.116 68.1151 364.507 65.8328 363.559L63.3604 362.533L67.7683 350.979C68.2605 351.035 68.7528 351.124 69.2338 351.124C75.0178 351.124 80.3542 347.432 81.9204 341.611L84.1803 333.202L86.4402 341.611C88.0064 347.432 93.3428 351.124 99.1268 351.124C99.6078 351.124 100.1 351.035 100.592 350.979L104.989 362.533L102.517 363.559C100.234 364.507 99.1491 367.116 100.1 369.391C100.29 369.849 100.816 370.061 101.264 369.871L119.432 362.354C119.88 362.165 120.103 361.652 119.913 361.194ZM79.2466 330.916L66.7055 325.73L70.7889 318.659L81.361 323.031L79.2466 330.916ZM89.114 330.916L86.9995 323.031L97.5717 318.659L101.655 325.73L89.114 330.916Z" fill="#1F363D"/>
<path d="M803.817 440.461C849.407 440.461 886.365 403.546 886.365 358.009C886.365 312.472 849.407 275.557 803.817 275.557C758.228 275.557 721.27 312.472 721.27 358.009C721.27 403.546 758.228 440.461 803.817 440.461Z" fill="#1F363D"/>
<path d="M702.724 534.821L864.922 564.676L884.048 376.782L721.85 347.01L702.724 534.821Z" fill="#1F363D"/>
<path d="M949.042 515.8C910.459 455.098 856.062 420.53 827.58 438.558C824.102 440.709 821.205 443.603 818.886 446.994C818.224 447.903 817.644 448.896 817.065 449.888C813.422 447.076 809.365 445.092 804.976 444.182C772.023 436.822 732.53 487.765 716.881 557.977C712.99 575.344 710.92 592.215 710.506 608.011L750.496 658.044L969.327 657.217C969.327 657.217 968.996 657.465 969.327 657.217C997.809 639.106 987.625 576.502 949.042 515.8Z" fill="#70A9A1"/>
<path d="M726.32 638.692C728.556 607.184 784.775 585.434 852.005 590.147C919.236 594.861 971.894 624.137 969.742 655.646C969.742 656.142 969.659 656.638 969.576 657.134C968.997 657.134 968.5 657.134 967.92 657.134C965.933 657.134 964.029 657.134 962.042 657.134C958.813 657.134 955.666 657.134 952.437 657.134C948.132 657.134 943.909 657.134 939.604 657.134C934.47 657.134 929.337 657.134 924.204 657.217C918.408 657.217 912.529 657.217 906.734 657.3C900.441 657.3 894.066 657.3 887.773 657.382C881.15 657.382 874.443 657.382 867.819 657.465C861.03 657.465 854.241 657.465 847.452 657.548C840.745 657.548 834.039 657.548 827.249 657.631C820.791 657.631 814.25 657.631 807.792 657.713C801.748 657.713 795.704 657.713 789.66 657.796C784.195 657.796 778.813 657.796 773.349 657.879C768.712 657.879 764.076 657.879 759.439 657.879C755.796 657.879 752.153 657.879 748.427 657.879C745.943 657.879 743.459 657.879 740.975 657.879C736.587 657.879 732.282 656.473 729.301 652.834C727.562 650.766 726.569 649.112 726.238 646.466C725.907 643.82 726.072 641.256 726.32 638.692Z" fill="#F2DFD7"/>
<path d="M762.751 625.874C762.751 625.874 738.243 626.535 734.931 650.518" stroke="#ECB1A9" stroke-width="5" stroke-miterlimit="10" stroke-linecap="round" stroke-linejoin="round"/>
<path d="M829.753 477.875C847.958 473.796 861.166 463.589 859.254 455.076C857.342 446.563 841.034 442.969 822.829 447.049C804.624 451.128 791.416 461.335 793.327 469.848C795.239 478.361 811.547 481.955 829.753 477.875Z" fill="#ECB1A9"/>
<path d="M847.906 404.174L781.979 418.946L793.416 469.867L859.343 455.095L847.906 404.174Z" fill="#ECB1A9"/>
<path d="M868.233 382.24C877.838 339.401 854.241 297.555 815.327 288.872C776.495 280.188 737.167 307.81 727.562 350.731C724.168 365.617 724.747 381.413 729.55 395.968C733.607 408.373 740.975 422.101 747.351 428.883C756.707 438.889 773.183 443.686 780.055 444.596C820.377 450.054 858.712 424.582 868.233 382.24Z" fill="#F2DFD7"/>
<path d="M881.73 359.001C883.882 349.243 880.488 340.228 874.029 338.74C867.571 337.334 859.126 338.492 856.891 348.25C854.655 358.009 859.623 372.564 866.081 373.97C872.539 375.458 879.577 368.76 881.73 359.001Z" fill="#F2DFD7"/>
<path d="M814.084 304.006C814.084 304.006 785.023 342.792 725.409 363.963C725.409 363.963 721.021 302.104 773.68 284.819C826.338 267.535 877.506 302.683 874.029 338.822C874.029 338.822 860.616 337.83 856.89 348.333C856.89 348.25 812.759 319.223 814.084 304.006Z" fill="#1F363D"/>
<path d="M812.688 374.703C814.784 374.524 816.344 372.755 816.173 370.753C816.001 368.751 814.163 367.272 812.067 367.451C809.971 367.63 808.411 369.399 808.583 371.401C808.754 373.404 810.592 374.882 812.688 374.703Z" fill="#1F363D"/>
<path d="M804.066 405.396C804.397 409.365 801.251 412.756 797.194 413.087C795.124 413.252 793.22 412.592 791.812 411.434" stroke="#E07D5C" stroke-width="5" stroke-miterlimit="10" stroke-linecap="round" stroke-linejoin="round"/>
<path d="M757.129 391.989C759.225 391.81 760.785 390.041 760.613 388.039C760.442 386.037 758.604 384.558 756.508 384.737C754.412 384.916 752.852 386.685 753.023 388.687C753.195 390.69 755.033 392.168 757.129 391.989Z" fill="#1F363D"/>
<path d="M852.916 418.214C852.916 418.214 815.244 543.422 895.391 544.58C895.391 544.58 909.549 542.264 901.849 534.573C894.149 526.882 887.111 522.168 889.429 496.283C891.748 470.398 877.755 435.995 880.239 413.666L852.916 418.214Z" fill="#1F363D"/>
<path d="M815.326 348.664C814.747 345.107 811.187 342.709 807.461 343.371C805.639 343.702 804.066 344.694 802.99 346.1" stroke="#1F363D" stroke-width="5" stroke-miterlimit="10" stroke-linecap="round" stroke-linejoin="round"/>
<path d="M329.312 420.034C377.874 420.034 417.242 380.712 417.242 332.206C417.242 283.701 377.874 244.379 329.312 244.379C280.75 244.379 241.382 283.701 241.382 332.206C241.382 380.712 280.75 420.034 329.312 420.034Z" fill="#1F363D"/>
<path d="M179.202 484.953L338.585 558.804L408.382 370.166L248.999 296.232L179.202 484.953Z" fill="#1F363D"/>
<path d="M165.458 502.237C204.869 440.212 260.343 404.982 289.487 423.424C292.965 425.657 295.945 428.552 298.429 432.025C299.092 432.935 299.671 433.927 300.251 435.002C303.977 432.108 308.116 430.123 312.587 429.131C346.203 421.688 386.525 473.623 402.504 545.324C406.478 563.022 408.548 580.306 408.962 596.35L368.144 647.459L144.759 646.632C144.759 646.632 145.091 646.88 144.759 646.632C115.698 628.189 126.047 564.262 165.458 502.237Z" fill="#F0CC67"/>
<path d="M336.827 440.229C338.779 431.538 325.278 421.113 306.671 416.944C288.064 412.775 271.398 416.441 269.446 425.131C267.494 433.822 280.996 444.247 299.603 448.417C318.209 452.586 334.875 448.92 336.827 440.229Z" fill="#ECB1A9"/>
<path d="M269.371 425.15L336.671 440.23L348.343 388.26L281.043 373.18L269.371 425.15Z" fill="#ECB1A9"/>
<path d="M261.418 351.641C252.89 306.652 279.054 263.896 319.79 256.205C360.526 248.514 400.599 278.7 409.127 323.688C412.108 339.319 410.949 355.776 405.484 370.745C400.847 383.48 392.651 397.539 385.778 404.404C375.677 414.493 358.373 418.876 351.17 419.62C308.944 424.003 269.864 396.134 261.418 351.641Z" fill="#F2DFD7"/>
<path d="M248.171 326.996C246.267 316.742 250.159 307.479 256.948 306.156C263.737 304.915 272.514 306.403 274.418 316.658C276.322 326.913 270.692 341.881 263.903 343.122C257.196 344.445 250.076 337.168 248.171 326.996Z" fill="#F2DFD7"/>
<path d="M327.256 355.706C327.794 353.628 326.471 351.489 324.302 350.93C322.132 350.37 319.938 351.601 319.4 353.679C318.863 355.758 320.186 357.896 322.355 358.456C324.525 359.016 326.719 357.785 327.256 355.706Z" fill="#1F363D"/>
<path d="M334.611 377.774C333.534 381.826 336.184 386.044 340.406 387.119C342.559 387.698 344.629 387.367 346.368 386.375" stroke="#E07D5C" stroke-width="5" stroke-miterlimit="10" stroke-linecap="round" stroke-linejoin="round"/>
<path d="M388.483 360.299C389.02 358.22 387.697 356.082 385.528 355.522C383.358 354.962 381.164 356.193 380.627 358.272C380.089 360.35 381.412 362.489 383.581 363.048C385.751 363.608 387.945 362.377 388.483 360.299Z" fill="#1F363D"/>
<path d="M336.763 337.499L295.862 333.612C292.716 333.282 289.901 335.68 289.569 338.822L290.894 355.362C290.563 358.505 292.964 361.317 296.11 361.648L331.299 365.038C334.445 365.369 337.26 362.971 337.591 359.828L341.979 343.784C342.228 340.642 339.909 337.83 336.763 337.499Z" stroke="#1F363D" stroke-width="5" stroke-miterlimit="10" stroke-linecap="round" stroke-linejoin="round"/>
<path d="M403 343.784L362.099 339.897C358.952 339.567 356.137 341.965 355.806 345.108L357.131 361.648C356.8 364.79 359.201 367.602 362.347 367.933L397.535 371.323C400.682 371.654 403.497 369.256 403.828 366.113L408.216 350.07C408.465 346.927 406.146 344.115 403 343.784Z" stroke="#1F363D" stroke-width="5" stroke-miterlimit="10" stroke-linecap="round" stroke-linejoin="round"/>
<path d="M341.979 343.784C341.979 343.784 349.762 337.747 355.889 345.108" stroke="#1F363D" stroke-width="5" stroke-miterlimit="10" stroke-linecap="round" stroke-linejoin="round"/>
<path d="M412.853 352.22C412.853 352.22 428.75 289.533 377.913 262.16C362.761 253.972 346.782 250.582 331.796 250.912V250.582C233.93 250.83 261.419 351.641 261.419 351.641C306.46 342.378 326.745 292.759 331.713 278.369C332.458 277.046 332.872 275.722 332.955 274.399C332.955 274.399 355.641 319.636 412.853 352.22Z" fill="#1F363D"/>
<path d="M74.2168 524.236C76.3695 530.025 78.5222 535.814 80.7577 541.603C83.076 547.805 85.3943 554.008 87.7126 560.128C90.1137 566.578 92.5148 572.946 94.9159 579.397C97.3169 585.847 99.8008 592.298 102.202 598.831C104.603 605.199 107.004 611.484 109.322 617.852C111.558 623.889 113.876 629.926 116.112 635.963C117.519 639.685 118.927 643.324 120.252 647.045H169.681C173.076 622.731 170.426 591.802 160.905 559.714C141.613 493.802 100.794 447.738 69.8286 456.835C67.3447 457.58 64.8608 458.324 62.5425 459.482C60.0586 460.722 58.8995 462.293 57.4919 464.692C55.0908 468.827 55.2564 473.458 56.8296 477.676C57.7403 480.074 58.6511 482.472 59.479 484.788C60.8038 488.261 62.1285 491.817 63.4533 495.291C65.1092 499.757 66.7651 504.14 68.421 508.605C70.3254 513.816 72.3125 519.026 74.2168 524.236Z" fill="#F2DFD7"/>
<path d="M91.8524 451.708C91.8524 451.708 76.7835 453.941 70.7394 460.97C64.6952 467.917 82.8276 515.139 82.8276 515.139L119.672 513.65L91.8524 451.708Z" fill="#F2DFD7"/>
<path d="M97.3995 456.422C97.3995 456.422 88.8715 426.815 78.108 426.236C78.108 426.236 67.7584 428.138 70.3251 436.822C72.8918 445.505 76.2865 457.662 76.2865 457.662C76.2865 457.662 89.9479 471.969 97.3995 456.422Z" fill="#F2DFD7"/>
<path d="M71.9814 490.99C71.9814 490.99 78.1912 493.306 80.5095 486.359C80.5095 486.359 90.5278 487.103 91.687 478.668C91.687 478.668 94.0053 466.346 80.0955 460.97" stroke="#ECB1A9" stroke-width="5" stroke-miterlimit="10" stroke-linecap="round" stroke-linejoin="round"/>
<path d="M110.813 467.421C110.813 467.421 111.31 451.873 98.4764 454.189C85.643 456.504 88.4581 474.781 95.7441 475.691C103.03 476.6 109.902 475.195 110.813 467.421Z" fill="#F2DFD7"/>
<path d="M92.515 457.662C92.515 457.662 83.9042 470.811 95.7441 475.691C95.7441 475.691 101.126 478.585 106.011 473.044" stroke="#ECB1A9" stroke-width="5" stroke-miterlimit="10" stroke-linecap="round" stroke-linejoin="round"/>
<path d="M362.927 635.715C362.927 634.888 362.927 633.979 362.927 632.986C363.01 625.709 363.424 618.1 364.252 610.244C367.481 574.6 377.168 520.266 400.02 491.569C433.056 450.054 488.612 452.618 488.612 452.618C497.554 451.708 506.579 451.377 515.521 451.956C522.393 452.369 530.176 455.264 536.882 455.016C565.033 454.023 606.348 474.781 642.448 510.921C691.049 559.466 711.996 617.356 689.227 640.181C677.47 651.924 656.523 652.09 632.346 642.91V647.293H387.601H368.309C364.252 644.399 363.258 639.933 363.59 635.384L362.927 635.715Z" fill="#40798C"/>
<path d="M554.27 417.883L487.619 402.915L476.027 454.437C474.123 463.038 487.453 473.375 505.834 477.51C524.215 481.645 540.774 478.006 542.678 469.323C542.761 468.992 542.761 468.744 542.844 468.413L554.27 417.883Z" fill="#ECB1A9"/>
<path d="M474.868 382.488C466.588 337.83 492.669 295.653 533.074 288.127C573.478 280.602 612.972 310.787 621.252 355.362C624.15 370.91 622.99 387.119 617.443 401.922C612.806 414.575 604.61 428.386 597.738 435.25C587.719 445.174 570.498 449.475 563.377 450.219C521.648 454.354 483.065 426.567 474.868 382.488Z" fill="#F2DFD7"/>
<path d="M461.786 358.009C459.882 347.919 463.856 338.657 470.562 337.416C477.269 336.176 485.963 337.747 487.867 347.919C489.771 358.091 484.058 372.895 477.352 374.135C470.645 375.376 463.69 368.181 461.786 358.009Z" fill="#F2DFD7"/>
<path d="M599.02 388.323C599.496 386.512 598.341 384.639 596.439 384.14C594.537 383.641 592.609 384.705 592.133 386.517C591.657 388.328 592.813 390.2 594.714 390.699C596.616 391.198 598.544 390.134 599.02 388.323Z" fill="#1F363D"/>
<path d="M545.936 376.031C546.412 374.219 545.257 372.347 543.355 371.848C541.453 371.349 539.525 372.413 539.049 374.224C538.573 376.035 539.729 377.908 541.63 378.407C543.532 378.906 545.46 377.842 545.936 376.031Z" fill="#1F363D"/>
<path d="M535.309 309.877C535.309 309.877 528.686 324.846 510.471 330.387C504.012 332.372 489.523 347.671 489.523 347.671C489.523 347.671 481.161 332.372 470.646 337.499C470.646 337.499 487.453 258.025 582.917 291.932C582.917 291.932 642.945 312.358 628.538 376.203C628.538 376.203 624.812 376.12 612.476 361.317C612.476 361.317 611.234 367.933 597.075 356.355C597.075 356.355 591.197 359.415 582.669 349.325C582.669 349.325 576.873 352.137 564.951 342.957C553.028 333.778 535.309 309.877 535.309 309.877Z" fill="#1F363D"/>
<path d="M628.455 376.12C628.455 376.12 648.823 331.049 614.96 305.991C614.96 305.991 574.886 249.176 522.476 278.534C522.476 278.534 470.646 282.421 470.48 337.416L535.806 295.488L595.254 321.29L628.455 376.12Z" fill="#1F363D"/>
<path d="M537.214 406.388C536.634 410.937 539.946 415.154 544.665 415.816C547.067 416.147 549.302 415.485 551.041 414.245" stroke="#E07D5C" stroke-width="5" stroke-miterlimit="10" stroke-linecap="round" stroke-linejoin="round"/>
<path d="M595.088 619.754C619.43 585.516 659.752 585.185 691.049 593.869C710.258 599.244 725.989 607.928 732.365 614.379C740.81 622.814 735.18 630.505 732.033 636.542C728.887 642.579 728.142 647.128 728.142 647.128H677.885H597.324C585.732 639.519 595.088 619.754 595.088 619.754Z" fill="#F2DFD7"/>
<path d="M725.161 614.792C725.161 614.792 722.015 618.348 724.499 622.648" stroke="#ECB1A9" stroke-width="5" stroke-miterlimit="10" stroke-linecap="round" stroke-linejoin="round"/>
<path d="M707.526 614.709C707.526 614.709 730.46 618.183 731.04 639.023C731.619 659.781 717.047 648.616 717.047 648.616C717.047 648.616 707.277 654.157 686.992 646.301" fill="#F2DFD7"/>
<path d="M707.526 614.709C707.526 614.709 730.46 618.183 731.04 639.023C731.619 659.781 717.047 648.616 717.047 648.616C717.047 648.616 707.277 654.157 686.992 646.301" stroke="#ECB1A9" stroke-width="5" stroke-miterlimit="10" stroke-linecap="round" stroke-linejoin="round"/>
<path d="M633.34 648.451H395.632C393.065 648.451 390.913 650.601 390.913 653.165V653.33C390.913 655.894 393.065 658.044 395.632 658.044H633.34C635.907 658.044 638.06 655.894 638.06 653.33V653.165C638.06 650.519 635.907 648.451 633.34 648.451Z" fill="white" stroke="#D2D5DA" stroke-width="5" stroke-miterlimit="10" stroke-linecap="round" stroke-linejoin="round"/>
<path d="M365.991 619.754C390.333 585.516 430.655 585.185 461.952 593.869C481.16 599.244 496.892 607.928 503.267 614.379C511.712 622.814 506.082 630.505 502.936 636.542C499.789 642.579 499.044 647.128 499.044 647.128H448.787H368.226C356.717 639.519 365.991 619.754 365.991 619.754Z" fill="#F2DFD7"/>
<path d="M478.511 614.709C478.511 614.709 501.446 618.183 502.025 639.023C502.605 659.781 488.033 648.616 488.033 648.616C488.033 648.616 478.263 654.157 457.978 646.301" fill="#F2DFD7"/>
<path d="M478.511 614.709C478.511 614.709 501.446 618.183 502.025 639.023C502.605 659.781 488.033 648.616 488.033 648.616C488.033 648.616 478.263 654.157 457.978 646.301" stroke="#ECB1A9" stroke-width="5" stroke-miterlimit="10" stroke-linecap="round" stroke-linejoin="round"/>
<path d="M563.046 657.962H739.485C742.052 657.962 744.618 655.811 745.281 653.248L773.597 528.784C774.177 526.221 772.521 524.07 769.954 524.07H593.515C590.948 524.07 588.382 526.221 587.719 528.784L559.403 653.33C558.823 655.894 560.397 657.962 563.046 657.962Z" fill="white" stroke="#D2D5DA" stroke-width="5" stroke-miterlimit="10" stroke-linecap="round" stroke-linejoin="round"/>
<path d="M157.336 208.612C166.172 184.276 193.078 171.695 217.434 180.512C241.789 189.328 254.371 216.203 245.535 240.539C236.7 264.875 209.794 277.455 185.438 268.639C161.083 259.823 148.501 232.948 157.336 208.612Z" fill="#40798C"/>
<path d="M213.952 267.77L228.563 261.647L226.562 277.332L213.952 267.77Z" fill="#40798C"/>
<path d="M208.296 220.719L197.982 217.355C196.788 216.971 195.986 215.822 196.026 214.576C196.077 213.013 197.391 211.789 198.963 211.839L205.355 212.045C206.531 212.083 207.677 212.475 208.62 213.158C209.195 213.57 209.989 213.499 210.506 213.027L213.968 209.875C214.674 209.236 214.613 208.13 213.871 207.521C211.569 205.604 208.652 204.483 205.625 204.376L205.775 199.775C205.803 198.931 205.131 198.219 204.282 198.191L201.197 198.092C200.349 198.065 199.632 198.733 199.604 199.576L199.454 204.178L199.213 204.17C193.071 203.973 187.964 209.058 188.33 215.298C188.59 219.73 191.867 223.434 196.107 224.818L205.896 228.012C207.089 228.406 207.892 229.545 207.851 230.791C207.8 232.353 206.486 233.578 204.915 233.527L198.522 233.322C197.346 233.284 196.2 232.892 195.258 232.209C194.682 231.797 193.889 231.868 193.371 232.34L189.91 235.492C189.203 236.131 189.264 237.237 190.006 237.846C192.309 239.763 195.225 240.883 198.253 240.99L198.102 245.592C198.075 246.436 198.746 247.148 199.595 247.175L202.68 247.275C203.529 247.302 204.245 246.634 204.273 245.79L204.424 241.17C208.92 241.228 213.22 238.708 214.842 234.528C217.108 228.69 213.825 222.519 208.296 220.719Z" fill="#F0CC67"/>
<path d="M987.607 414.361L957.404 406.38L956.266 410.676L986.469 418.657L987.607 414.361ZM954.756 416.375L953.619 420.671L983.822 428.652L984.96 424.356L954.756 416.375Z" fill="#40798C"/>
<path d="M919.096 331.033L937.921 325.648L936.478 320.615L930.598 322.297L923.055 295.989L918.444 297.308C916.82 299.145 914.893 300.566 911.932 302.053L913.035 305.902L918.704 304.281L924.379 324.076L917.653 325.999L919.096 331.033ZM947.561 323.531C949.803 322.89 950.944 320.642 950.289 318.358C949.622 316.032 947.475 314.769 945.233 315.411C943.033 316.04 941.88 318.246 942.547 320.572C943.202 322.856 945.361 324.161 947.561 323.531ZM956.114 320.444L977.097 314.443L975.593 309.198L968.825 311.134C967.344 311.558 965.32 312.32 963.803 312.937C967.913 305.72 970.863 298.286 969.238 292.619C967.564 286.782 962.539 284.1 956.616 285.794C952.344 287.016 950.025 289.465 948.033 293.375L952.387 295.791C953.498 293.597 954.935 291.584 957.219 290.931C960.223 290.071 962.461 291.491 963.37 294.663C964.752 299.485 961.404 306.804 955.083 316.849L956.114 320.444ZM990.967 311.116C996.932 309.41 1001.01 304.629 999.359 298.876C998.183 294.774 994.724 292.926 990.933 292.957L990.873 292.746C993.797 290.491 994.997 287.493 994.027 284.109C992.499 278.78 987.535 276.951 981.485 278.681C977.805 279.734 975.226 282.073 973.197 285.216L977.461 288.115C978.826 285.849 980.354 284.313 982.596 283.672C985.261 282.91 987.196 283.912 987.899 286.366C988.7 289.157 987.408 291.677 981.655 293.323L982.928 297.764C989.739 295.816 992.116 297.241 992.989 300.287C993.801 303.12 992.093 305.302 988.92 306.21C986.085 307.021 983.401 306.278 981.018 304.992L979.227 309.76C982.142 311.627 986.018 312.532 990.967 311.116Z" fill="#F0CC67"/>
<path d="M427.462 238.836L413.755 231.167L412.559 233.305V233.306C412.403 233.585 412.332 233.904 412.357 234.224V234.225L412.665 238.199V238.2C412.686 238.468 412.773 238.728 412.919 238.956L410.812 240.303L412.919 238.956C413.065 239.184 413.265 239.373 413.502 239.506L420.474 243.407C420.712 243.54 420.978 243.612 421.248 243.617L421.199 246.115L421.248 243.617C421.519 243.622 421.787 243.56 422.026 243.438H422.027L425.581 241.624L425.582 241.623C425.867 241.478 426.103 241.251 426.261 240.971L427.462 238.836ZM443.812 224.843C448.281 223.266 452.205 220.136 454.699 215.688C459.942 206.341 457.187 193.936 446.948 188.166C437.156 182.648 424.766 186.117 419.292 195.877C416.798 200.325 416.175 205.302 417.163 209.932C417.803 212.933 418.251 218.314 417.598 222.852L432.555 231.221C436.088 228.294 440.916 225.865 443.812 224.843ZM443.853 209.619C445.962 205.859 444.611 201.068 440.827 198.951C438.628 197.72 437.835 194.94 439.071 192.735C440.308 190.53 443.096 189.754 445.295 190.984C453.473 195.56 456.412 205.917 451.832 214.084C450.595 216.289 447.807 217.065 445.608 215.835C443.41 214.604 442.616 211.824 443.853 209.619Z" fill="#F0CC67" stroke="#F0CC67" stroke-width="5"/>
<path d="M475.866 180.204L462.77 186.087" stroke="#F0CC67" stroke-width="5" stroke-linecap="round"/>
<path d="M443.99 176.482L444.818 162.423" stroke="#F0CC67" stroke-width="5" stroke-linecap="round"/>
<path d="M459.574 167.299L453.185 177.161" stroke="#F0CC67" stroke-width="5" stroke-linecap="round"/>
</svg>
